<?xml version="1.0" encoding="UTF-8" ?>
<!DOCTYPE svg PUBLIC "-//W3C//DTD SVG 1.1//EN" "http://www.w3.org/Graphics/SVG/1.1/DTD/svg11.dtd">
<svg width="100pt" height="100pt" viewBox="0 0 100 100" version="1.1" xmlns="http://www.w3.org/2000/svg">
<g id="#ffffffff">
<path fill="#ffffff" opacity="1.00" d=" M 0.00 0.00 L 100.00 0.00 L 100.00 100.00 L 0.00 100.00 L 0.00 0.00 M 35.50 21.32 C 34.10 25.77 39.02 29.08 40.70 32.83 C 37.69 40.23 37.00 48.18 35.25 55.91 C 34.32 60.15 35.20 64.75 38.13 68.03 C 40.77 70.88 41.79 74.66 42.31 78.42 C 39.98 79.75 39.68 82.29 39.93 84.75 C 41.12 83.79 41.60 82.36 42.14 81.00 C 44.04 81.71 45.92 82.68 48.00 82.64 C 54.04 82.61 60.34 82.05 65.71 79.03 C 66.45 80.66 67.21 82.27 68.07 83.84 C 69.70 79.12 63.79 76.03 65.28 71.27 C 67.74 62.18 70.90 53.22 72.29 43.86 C 72.82 40.26 71.57 36.73 70.87 33.23 C 70.10 30.26 69.82 26.87 67.39 24.69 C 64.83 22.23 62.34 18.89 58.46 18.78 C 54.29 18.52 50.23 17.33 46.11 16.88 C 42.43 17.81 38.26 18.54 35.50 21.32 Z" />
<path fill="#ffffff" opacity="1.00" d=" M 43.91 19.70 C 45.21 19.01 46.60 18.52 48.09 18.52 C 48.52 21.04 49.35 24.18 52.28 24.74 C 55.40 25.25 57.85 27.14 59.76 29.57 C 60.03 32.41 59.43 36.00 62.29 37.76 C 62.12 35.42 61.81 33.09 61.47 30.77 C 62.15 29.87 62.82 28.97 63.48 28.05 C 62.64 28.01 60.98 27.94 60.15 27.90 C 59.34 26.60 58.62 25.24 58.04 23.82 C 54.66 24.13 50.84 23.19 49.61 19.62 C 53.34 20.07 57.27 19.89 60.83 21.22 C 63.43 23.11 66.05 25.31 67.67 28.12 C 69.03 32.86 70.45 37.74 70.68 42.68 C 69.31 51.66 66.62 60.37 63.98 69.03 C 62.92 71.95 63.63 75.04 64.18 77.98 C 57.96 80.46 50.74 82.10 44.19 80.05 C 43.68 76.07 43.36 71.73 40.72 68.49 C 38.79 65.98 36.69 63.29 36.67 59.96 C 36.75 54.88 38.61 50.05 39.13 45.02 C 39.49 40.41 42.00 36.37 42.62 31.82 C 41.59 30.67 40.58 29.50 39.60 28.30 C 40.03 27.68 40.87 26.43 41.29 25.80 C 40.44 25.86 38.73 25.98 37.88 26.04 C 37.16 24.31 36.84 22.46 37.82 20.75 C 40.46 24.50 43.94 27.55 46.50 31.37 C 46.99 33.63 46.18 37.02 49.11 37.78 C 48.91 33.51 48.00 29.31 44.83 26.23 C 45.33 25.91 46.33 25.27 46.84 24.95 C 49.16 26.17 50.58 28.51 52.28 30.42 C 52.89 33.11 52.97 36.71 56.19 37.64 C 54.68 34.15 54.73 29.89 51.93 27.06 C 49.68 24.12 45.89 22.90 43.91 19.70 M 45.86 42.94 C 45.35 47.05 47.65 50.72 49.68 54.07 C 46.98 57.81 44.39 63.51 47.81 67.60 C 48.03 65.38 47.97 63.15 48.22 60.93 C 48.64 58.39 50.92 56.55 51.25 54.01 C 49.93 50.49 47.80 47.28 47.06 43.53 C 48.48 42.40 50.16 41.84 51.97 41.82 C 50.48 43.05 48.95 44.30 48.26 46.17 C 49.94 45.13 51.60 44.05 53.26 42.98 C 56.98 47.20 59.27 52.78 64.41 55.68 C 63.81 53.59 62.62 51.76 61.41 49.99 C 62.17 50.01 63.69 50.06 64.45 50.08 C 64.10 49.47 63.41 48.25 63.06 47.63 C 61.98 48.25 60.91 48.88 59.83 49.50 C 58.00 46.36 56.64 42.55 53.00 41.05 C 50.67 39.01 46.91 40.12 45.86 42.94 Z" />
<path fill="#ffffff" opacity="1.00" d=" M 39.99 20.50 C 40.47 20.21 41.43 19.63 41.92 19.34 C 42.97 20.93 43.98 22.54 45.04 24.12 C 44.61 24.32 43.75 24.72 43.32 24.92 C 42.16 23.49 41.04 22.02 39.99 20.50 Z" />
</g>
<g id="#616162ff">
<path fill="#616162" opacity="1.00" d=" M 35.50 21.32 C 38.26 18.54 42.43 17.81 46.11 16.88 C 50.23 17.33 54.29 18.52 58.46 18.78 C 62.34 18.89 64.83 22.23 67.39 24.69 C 69.82 26.87 70.10 30.26 70.87 33.23 C 71.57 36.73 72.82 40.26 72.29 43.86 C 70.90 53.22 67.74 62.18 65.28 71.27 C 63.79 76.03 69.70 79.12 68.07 83.84 C 67.21 82.27 66.45 80.66 65.71 79.03 C 60.34 82.05 54.04 82.61 48.00 82.64 C 45.92 82.68 44.04 81.71 42.14 81.00 C 41.60 82.36 41.12 83.79 39.93 84.75 C 39.68 82.29 39.98 79.75 42.31 78.42 C 41.79 74.66 40.77 70.88 38.13 68.03 C 35.20 64.75 34.32 60.15 35.25 55.91 C 37.00 48.18 37.69 40.23 40.70 32.83 C 39.02 29.08 34.10 25.77 35.50 21.32 M 43.91 19.70 C 45.89 22.90 49.68 24.12 51.93 27.06 C 54.73 29.89 54.68 34.15 56.19 37.64 C 52.97 36.71 52.89 33.11 52.28 30.42 C 50.58 28.51 49.16 26.17 46.84 24.95 C 46.33 25.27 45.33 25.91 44.83 26.23 C 48.00 29.31 48.91 33.51 49.11 37.78 C 46.18 37.02 46.99 33.63 46.50 31.37 C 43.94 27.55 40.46 24.50 37.82 20.75 C 36.84 22.46 37.16 24.31 37.88 26.04 C 38.73 25.98 40.44 25.86 41.29 25.80 C 40.87 26.43 40.03 27.68 39.60 28.30 C 40.58 29.50 41.59 30.67 42.62 31.82 C 42.00 36.37 39.49 40.41 39.13 45.02 C 38.61 50.05 36.75 54.88 36.67 59.96 C 36.69 63.29 38.79 65.98 40.72 68.49 C 43.36 71.73 43.68 76.07 44.19 80.05 C 50.74 82.10 57.96 80.46 64.18 77.98 C 63.63 75.04 62.92 71.95 63.98 69.03 C 66.62 60.37 69.31 51.66 70.68 42.68 C 70.45 37.74 69.03 32.86 67.67 28.12 C 66.05 25.31 63.43 23.11 60.83 21.22 C 57.27 19.89 53.34 20.07 49.61 19.62 C 50.84 23.19 54.66 24.13 58.04 23.82 C 58.62 25.24 59.34 26.60 60.15 27.90 C 60.98 27.94 62.64 28.01 63.48 28.05 C 62.82 28.97 62.15 29.87 61.47 30.77 C 61.81 33.09 62.12 35.42 62.29 37.76 C 59.43 36.00 60.03 32.41 59.76 29.57 C 57.85 27.14 55.40 25.25 52.28 24.74 C 49.35 24.18 48.52 21.04 48.09 18.52 C 46.60 18.52 45.21 19.01 43.91 19.70 M 39.99 20.50 C 41.04 22.02 42.16 23.49 43.32 24.92 C 43.75 24.72 44.61 24.32 45.04 24.12 C 43.98 22.54 42.97 20.93 41.92 19.34 C 41.43 19.63 40.47 20.21 39.99 20.50 Z" />
<path fill="#616162" opacity="1.00" d=" M 45.86 42.94 C 46.91 40.12 50.67 39.01 53.00 41.05 C 56.64 42.55 58.00 46.36 59.83 49.50 C 60.91 48.88 61.98 48.25 63.06 47.63 C 63.41 48.25 64.10 49.47 64.45 50.08 C 63.69 50.06 62.17 50.01 61.41 49.99 C 62.62 51.76 63.81 53.59 64.41 55.68 C 59.27 52.78 56.98 47.20 53.26 42.98 C 51.60 44.05 49.94 45.13 48.26 46.17 C 48.95 44.30 50.48 43.05 51.97 41.82 C 50.16 41.84 48.48 42.40 47.06 43.53 C 47.80 47.28 49.93 50.49 51.25 54.01 C 50.92 56.55 48.64 58.39 48.22 60.93 C 47.97 63.15 48.03 65.38 47.81 67.60 C 44.39 63.51 46.98 57.81 49.68 54.07 C 47.65 50.72 45.35 47.05 45.86 42.94 Z" />
</g>
</svg>
