<?xml version="1.0" encoding="UTF-8" ?>
<!DOCTYPE svg PUBLIC "-//W3C//DTD SVG 1.1//EN" "http://www.w3.org/Graphics/SVG/1.1/DTD/svg11.dtd">
<svg width="100pt" height="100pt" viewBox="0 0 100 100" version="1.1" xmlns="http://www.w3.org/2000/svg">
<g id="#ffffffff">
<path fill="#ffffff" opacity="1.00" d=" M 0.00 0.00 L 100.00 0.00 L 100.00 100.00 L 0.00 100.00 L 0.00 0.00 M 38.18 15.46 C 37.65 15.45 36.58 15.42 36.05 15.40 C 33.85 16.89 29.56 17.53 30.14 21.05 C 31.39 24.38 33.80 27.12 35.69 30.09 C 34.67 34.07 32.86 37.85 32.50 41.99 C 31.90 47.39 29.73 52.58 29.96 58.06 C 30.13 61.72 32.59 64.62 34.64 67.45 C 36.52 69.94 36.74 73.17 37.40 76.11 C 36.48 76.74 35.55 77.38 34.63 78.02 C 34.97 79.48 35.35 80.93 35.76 82.38 C 36.21 80.96 36.64 79.54 37.06 78.11 C 38.62 78.83 40.10 79.94 41.88 80.03 C 48.35 80.33 55.06 79.60 60.88 76.57 C 61.44 78.07 62.01 79.57 62.65 81.04 C 64.68 77.49 60.84 74.53 59.80 71.33 C 65.26 70.53 70.97 70.34 76.07 68.01 C 78.19 67.00 80.39 65.34 80.76 62.86 C 80.56 61.40 79.88 60.08 79.34 58.73 C 79.51 58.36 79.85 57.61 80.02 57.24 C 76.80 56.36 73.60 55.35 70.34 54.59 C 72.22 57.00 74.21 59.31 76.13 61.68 C 76.72 61.44 77.89 60.96 78.48 60.73 C 78.37 62.48 77.93 64.39 76.16 65.20 C 71.40 67.82 65.76 67.88 60.46 68.02 C 62.88 59.74 65.51 51.49 67.05 42.99 C 68.30 37.56 66.07 32.22 64.96 26.97 C 64.19 23.06 60.73 20.64 58.02 18.06 C 55.59 15.68 51.91 16.27 48.84 15.72 C 45.25 15.56 41.46 12.86 38.18 15.46 Z" />
<path fill="#ffffff" opacity="1.00" d=" M 38.99 17.04 C 40.31 16.55 41.65 16.11 43.00 15.69 C 43.54 17.74 44.15 19.76 44.77 21.79 C 42.24 21.03 40.25 19.34 38.99 17.04 Z" />
<path fill="#ffffff" opacity="1.00" d=" M 34.96 18.02 C 35.49 17.71 36.56 17.10 37.09 16.80 C 38.15 18.69 39.23 20.57 40.27 22.48 C 37.73 22.04 36.25 20.03 34.96 18.02 Z" />
<path fill="#ffffff" opacity="1.00" d=" M 44.55 17.06 C 48.25 17.39 52.03 17.54 55.62 18.52 C 58.99 21.09 62.85 24.07 63.56 28.55 C 64.31 32.67 65.98 36.76 65.64 41.00 C 64.09 50.15 61.25 59.01 58.61 67.88 C 53.81 67.39 48.99 66.70 44.15 67.05 C 45.44 67.63 46.76 68.13 48.10 68.58 C 46.53 69.08 44.97 69.61 43.43 70.20 C 48.45 71.42 53.64 70.91 58.75 71.11 C 58.81 72.62 58.93 74.14 58.83 75.66 C 52.79 78.25 45.90 78.93 39.43 77.91 C 38.94 75.31 38.56 72.69 37.86 70.14 C 36.72 65.62 31.95 62.83 31.69 57.97 C 31.55 52.87 33.53 48.04 34.08 43.01 C 34.47 38.20 36.85 33.90 37.66 29.18 C 36.65 28.12 35.65 27.04 34.66 25.96 C 35.17 25.06 35.69 24.15 36.19 23.25 C 35.33 23.30 33.59 23.39 32.72 23.44 C 32.83 22.08 30.61 17.99 33.40 19.20 C 36.33 22.24 39.07 25.47 41.58 28.87 C 41.80 31.33 41.76 34.12 43.94 35.78 C 44.02 31.45 43.44 27.01 40.06 23.96 C 40.45 23.45 41.23 22.43 41.62 21.93 C 43.17 23.17 44.69 24.47 45.86 26.08 C 48.22 28.90 47.94 33.00 50.51 35.73 C 50.75 32.77 49.53 29.99 48.91 27.15 C 47.45 25.37 46.11 23.51 44.84 21.59 C 48.69 22.30 52.50 23.56 54.81 26.94 C 54.82 30.01 55.01 33.25 57.21 35.64 C 57.32 32.37 55.73 28.79 58.12 25.97 C 55.36 25.88 53.56 23.69 53.18 21.10 C 49.64 21.67 45.99 20.60 44.55 17.06 M 40.69 39.89 C 40.64 44.22 42.50 48.13 44.66 51.76 C 41.83 55.46 39.68 60.96 42.79 65.15 C 43.07 62.82 42.94 60.45 43.32 58.14 C 44.00 55.91 45.51 54.06 46.37 51.91 C 45.26 48.22 42.49 45.06 42.48 41.04 C 43.51 39.63 45.30 39.28 46.84 38.70 C 45.64 40.28 44.38 41.80 43.21 43.39 C 45.08 42.63 46.73 40.88 48.87 41.02 C 50.90 42.44 51.46 45.07 52.99 46.92 C 54.68 48.95 56.44 50.93 58.24 52.87 C 60.35 51.53 57.17 49.37 56.67 47.78 C 57.51 47.57 59.19 47.14 60.04 46.92 C 58.41 45.51 56.40 45.99 54.59 46.61 C 52.91 42.26 49.78 38.31 45.00 37.28 C 43.44 37.93 42.09 38.97 40.69 39.89 Z" />
</g>
<g id="#5d5d5dff">
<path fill="#5d5d5d" opacity="1.00" d=" M 38.18 15.46 C 41.46 12.86 45.25 15.56 48.84 15.72 C 51.91 16.27 55.59 15.68 58.02 18.06 C 60.73 20.64 64.19 23.06 64.96 26.97 C 66.07 32.22 68.30 37.56 67.05 42.99 C 65.51 51.49 62.88 59.74 60.46 68.02 C 65.76 67.88 71.40 67.82 76.16 65.20 C 77.93 64.39 78.37 62.48 78.48 60.73 C 77.89 60.96 76.72 61.44 76.13 61.68 C 74.21 59.31 72.22 57.00 70.34 54.59 C 73.60 55.35 76.80 56.36 80.02 57.24 C 79.85 57.61 79.51 58.36 79.34 58.73 C 79.88 60.08 80.56 61.40 80.76 62.86 C 80.39 65.34 78.19 67.00 76.07 68.01 C 70.97 70.34 65.26 70.53 59.80 71.33 C 60.84 74.53 64.68 77.49 62.65 81.04 C 62.01 79.57 61.44 78.07 60.88 76.57 C 55.06 79.60 48.35 80.33 41.88 80.03 C 40.10 79.94 38.62 78.83 37.06 78.11 C 36.64 79.54 36.21 80.96 35.76 82.38 C 35.35 80.93 34.97 79.48 34.63 78.02 C 35.55 77.38 36.48 76.74 37.40 76.11 C 36.74 73.17 36.52 69.94 34.64 67.45 C 32.59 64.62 30.13 61.72 29.96 58.06 C 29.73 52.58 31.90 47.39 32.50 41.99 C 32.86 37.85 34.67 34.07 35.69 30.09 C 33.80 27.12 31.39 24.38 30.14 21.05 C 29.56 17.53 33.85 16.89 36.05 15.40 C 36.58 15.42 37.65 15.45 38.18 15.46 M 38.99 17.04 C 40.25 19.34 42.24 21.03 44.77 21.79 C 44.15 19.76 43.54 17.74 43.00 15.69 C 41.65 16.11 40.31 16.55 38.99 17.04 M 34.96 18.02 C 36.25 20.03 37.73 22.04 40.27 22.48 C 39.23 20.57 38.15 18.69 37.09 16.80 C 36.56 17.10 35.49 17.71 34.96 18.02 M 44.55 17.06 C 45.99 20.60 49.64 21.67 53.18 21.10 C 53.56 23.69 55.36 25.88 58.12 25.97 C 55.73 28.79 57.32 32.37 57.21 35.64 C 55.01 33.25 54.82 30.01 54.81 26.94 C 52.50 23.56 48.69 22.30 44.84 21.59 C 46.11 23.51 47.45 25.37 48.91 27.15 C 49.53 29.99 50.75 32.77 50.51 35.73 C 47.94 33.00 48.22 28.90 45.86 26.08 C 44.69 24.47 43.17 23.17 41.62 21.93 C 41.23 22.43 40.45 23.45 40.06 23.96 C 43.44 27.01 44.02 31.45 43.94 35.78 C 41.76 34.12 41.80 31.33 41.58 28.87 C 39.07 25.47 36.33 22.24 33.40 19.20 C 30.61 17.99 32.83 22.08 32.72 23.44 C 33.59 23.39 35.33 23.30 36.19 23.25 C 35.69 24.15 35.17 25.06 34.66 25.96 C 35.65 27.04 36.65 28.12 37.66 29.18 C 36.85 33.90 34.47 38.20 34.08 43.01 C 33.53 48.04 31.55 52.87 31.69 57.97 C 31.95 62.83 36.72 65.62 37.86 70.14 C 38.56 72.69 38.94 75.31 39.43 77.91 C 45.90 78.93 52.79 78.25 58.83 75.66 C 58.93 74.14 58.81 72.62 58.75 71.11 C 53.64 70.91 48.45 71.42 43.43 70.20 C 44.97 69.61 46.53 69.08 48.10 68.58 C 46.76 68.13 45.44 67.63 44.15 67.05 C 48.99 66.70 53.81 67.39 58.61 67.88 C 61.25 59.01 64.09 50.15 65.64 41.00 C 65.98 36.76 64.31 32.67 63.56 28.55 C 62.85 24.07 58.99 21.09 55.62 18.52 C 52.03 17.54 48.25 17.39 44.55 17.06 Z" />
<path fill="#5d5d5d" opacity="1.00" d=" M 40.69 39.89 C 42.09 38.97 43.44 37.93 45.00 37.28 C 49.78 38.31 52.91 42.26 54.59 46.61 C 56.40 45.99 58.41 45.51 60.04 46.92 C 59.19 47.14 57.51 47.57 56.67 47.78 C 57.17 49.37 60.35 51.53 58.24 52.87 C 56.44 50.93 54.68 48.95 52.99 46.92 C 51.46 45.07 50.90 42.44 48.87 41.02 C 46.73 40.88 45.08 42.63 43.21 43.39 C 44.38 41.80 45.64 40.28 46.84 38.70 C 45.30 39.28 43.51 39.63 42.48 41.04 C 42.49 45.06 45.26 48.22 46.37 51.91 C 45.51 54.06 44.00 55.91 43.32 58.14 C 42.94 60.45 43.07 62.82 42.79 65.15 C 39.68 60.96 41.83 55.46 44.66 51.76 C 42.50 48.13 40.64 44.22 40.69 39.89 Z" />
</g>
</svg>
