<?xml version="1.0" encoding="UTF-8" ?>
<!DOCTYPE svg PUBLIC "-//W3C//DTD SVG 1.1//EN" "http://www.w3.org/Graphics/SVG/1.1/DTD/svg11.dtd">
<svg width="100pt" height="100pt" viewBox="0 0 100 100" version="1.1" xmlns="http://www.w3.org/2000/svg">
<g id="#ffffffff">
<path fill="#ffffff" opacity="1.00" d=" M 0.00 0.00 L 100.00 0.00 L 100.00 100.00 L 0.00 100.00 L 0.00 0.00 M 42.80 14.77 C 40.01 15.21 37.34 16.46 35.17 18.25 C 33.80 22.65 38.22 25.81 40.09 29.33 C 40.10 33.42 37.27 36.80 37.16 40.88 C 36.79 46.65 34.28 52.14 34.64 57.97 C 34.80 61.48 37.13 64.25 39.12 66.93 C 41.13 69.46 41.34 72.81 42.06 75.85 C 41.46 76.16 40.27 76.79 39.67 77.10 C 39.92 78.57 38.77 80.94 40.92 81.45 C 41.00 80.54 41.16 78.73 41.24 77.82 C 43.71 78.79 46.19 80.06 48.93 79.84 C 54.46 79.59 60.32 79.48 65.22 76.58 C 65.76 78.13 66.29 79.69 66.89 81.23 C 66.96 77.02 64.05 73.32 64.66 69.12 C 66.58 60.02 70.46 51.33 71.16 41.99 C 70.74 36.02 70.10 29.85 67.75 24.29 C 65.10 20.16 61.36 15.59 55.95 15.78 C 51.52 15.80 47.07 12.60 42.80 14.77 M 26.61 14.08 C 26.86 18.08 27.52 22.03 28.10 25.99 C 27.54 25.99 26.44 25.97 25.89 25.96 C 27.09 28.84 27.32 32.32 29.24 34.80 C 30.38 31.93 31.16 28.94 32.14 26.01 C 31.60 25.98 30.54 25.91 30.00 25.88 C 30.76 21.94 31.58 18.02 32.15 14.05 C 31.14 15.05 30.14 16.07 29.13 17.09 C 28.29 16.08 27.45 15.08 26.61 14.08 Z" />
<path fill="#ffffff" opacity="1.00" d=" M 39.68 17.27 C 40.20 17.10 41.26 16.75 41.79 16.58 C 43.58 21.52 49.38 22.83 51.72 27.44 C 52.59 29.76 52.25 34.41 55.64 34.32 C 54.70 32.01 54.11 29.60 53.50 27.19 C 52.71 25.07 49.83 23.73 50.18 21.29 C 54.17 22.17 59.13 24.27 59.28 29.04 C 59.89 31.07 59.09 34.59 62.09 34.66 C 61.55 32.48 61.12 30.27 60.89 28.03 C 61.64 27.33 62.38 26.63 63.12 25.93 C 62.38 25.87 60.91 25.74 60.18 25.68 C 58.98 24.32 58.10 22.74 57.76 20.94 C 54.35 21.42 50.28 20.41 49.36 16.61 C 53.72 17.66 59.29 16.58 62.47 20.42 C 64.48 22.61 66.95 24.73 67.55 27.79 C 68.49 31.81 69.21 35.88 70.24 39.87 C 68.50 47.83 66.99 55.86 64.26 63.56 C 62.75 67.40 62.56 71.61 63.58 75.60 C 58.00 77.92 51.82 78.36 45.86 77.85 C 42.61 77.51 43.65 73.42 42.80 71.23 C 42.39 66.00 36.84 63.22 36.32 58.05 C 35.91 52.52 38.36 47.28 38.81 41.81 C 39.01 37.18 41.92 33.23 42.06 28.58 C 40.32 27.22 38.59 25.12 40.40 23.00 C 37.17 23.97 35.14 20.07 37.69 17.93 C 39.99 21.71 43.62 24.42 45.91 28.22 C 46.24 30.66 46.46 33.26 48.05 35.27 C 48.67 31.50 48.33 27.34 45.45 24.54 C 45.11 23.50 44.75 22.46 44.29 21.47 C 41.56 21.90 40.68 19.13 39.68 17.27 M 45.32 40.32 C 45.05 44.32 47.43 47.68 49.07 51.12 C 48.17 53.79 45.80 55.97 45.95 58.98 C 46.15 60.77 45.08 63.87 47.70 64.16 C 47.70 62.14 47.48 60.11 47.75 58.10 C 48.13 55.50 50.42 53.68 50.93 51.15 C 49.59 47.76 47.05 44.73 46.98 40.93 C 47.69 39.02 49.79 38.97 51.50 38.81 C 50.14 40.11 48.74 41.41 47.76 43.04 C 49.52 42.14 51.23 41.15 52.99 40.23 C 54.89 42.05 55.91 44.49 57.27 46.69 C 59.15 49.00 61.26 51.12 63.15 53.42 C 63.43 51.20 62.34 49.38 60.89 47.83 C 62.02 47.56 63.14 47.27 64.25 46.97 C 62.70 45.73 60.86 46.05 59.05 46.38 C 57.90 44.65 57.18 42.67 56.04 40.94 C 54.39 39.19 52.27 37.91 50.07 36.99 C 47.98 36.83 46.14 38.52 45.32 40.32 Z" />
<path fill="#ffffff" opacity="1.00" d=" M 43.95 16.96 C 44.52 15.62 46.38 14.80 47.54 15.99 C 48.12 17.52 49.07 19.11 48.86 20.80 C 46.57 21.11 44.81 18.84 43.95 16.96 Z" />
</g>
<g id="#565657ff">
<path fill="#565657" opacity="1.00" d=" M 42.80 14.77 C 47.07 12.60 51.52 15.80 55.95 15.78 C 61.36 15.59 65.10 20.16 67.75 24.29 C 70.10 29.85 70.74 36.02 71.16 41.99 C 70.46 51.33 66.58 60.02 64.66 69.12 C 64.05 73.32 66.96 77.02 66.89 81.23 C 66.29 79.69 65.76 78.13 65.22 76.58 C 60.32 79.48 54.46 79.59 48.93 79.84 C 46.19 80.06 43.71 78.79 41.24 77.82 C 41.16 78.73 41.00 80.54 40.92 81.45 C 38.77 80.94 39.92 78.57 39.67 77.10 C 40.27 76.79 41.46 76.16 42.06 75.85 C 41.34 72.81 41.13 69.46 39.12 66.93 C 37.13 64.25 34.80 61.48 34.64 57.97 C 34.28 52.14 36.79 46.65 37.16 40.88 C 37.27 36.80 40.10 33.42 40.09 29.33 C 38.22 25.81 33.80 22.65 35.17 18.25 C 37.34 16.46 40.01 15.21 42.80 14.77 M 39.68 17.27 C 40.68 19.13 41.56 21.90 44.29 21.47 C 44.75 22.46 45.11 23.50 45.45 24.54 C 48.33 27.34 48.67 31.50 48.05 35.27 C 46.46 33.26 46.24 30.66 45.91 28.22 C 43.62 24.42 39.99 21.71 37.69 17.93 C 35.14 20.07 37.17 23.97 40.40 23.00 C 38.59 25.12 40.32 27.22 42.06 28.58 C 41.92 33.23 39.01 37.18 38.81 41.81 C 38.36 47.28 35.91 52.52 36.32 58.05 C 36.84 63.22 42.39 66.00 42.80 71.23 C 43.65 73.42 42.61 77.51 45.86 77.85 C 51.82 78.36 58.00 77.92 63.58 75.60 C 62.56 71.61 62.75 67.40 64.26 63.56 C 66.99 55.86 68.50 47.83 70.24 39.87 C 69.21 35.88 68.49 31.81 67.55 27.79 C 66.95 24.73 64.48 22.61 62.47 20.42 C 59.29 16.58 53.72 17.66 49.36 16.61 C 50.28 20.41 54.35 21.42 57.76 20.94 C 58.10 22.74 58.98 24.32 60.18 25.68 C 60.91 25.74 62.38 25.87 63.12 25.93 C 62.38 26.63 61.64 27.33 60.89 28.03 C 61.12 30.27 61.55 32.48 62.09 34.66 C 59.09 34.59 59.89 31.07 59.28 29.04 C 59.13 24.27 54.17 22.17 50.18 21.29 C 49.83 23.73 52.71 25.07 53.50 27.19 C 54.11 29.60 54.70 32.01 55.64 34.32 C 52.25 34.41 52.59 29.76 51.72 27.44 C 49.38 22.83 43.58 21.52 41.79 16.58 C 41.26 16.75 40.20 17.10 39.68 17.27 M 43.95 16.96 C 44.81 18.84 46.57 21.11 48.86 20.80 C 49.07 19.11 48.12 17.52 47.54 15.99 C 46.38 14.80 44.52 15.62 43.95 16.96 Z" />
<path fill="#565657" opacity="1.00" d=" M 26.61 14.08 C 27.45 15.08 28.29 16.08 29.13 17.09 C 30.14 16.07 31.14 15.05 32.15 14.05 C 31.58 18.02 30.76 21.94 30.00 25.88 C 30.54 25.91 31.60 25.98 32.14 26.01 C 31.16 28.94 30.38 31.93 29.24 34.80 C 27.32 32.32 27.09 28.84 25.89 25.96 C 26.44 25.97 27.54 25.99 28.10 25.99 C 27.52 22.03 26.86 18.08 26.61 14.08 Z" />
<path fill="#565657" opacity="1.00" d=" M 45.32 40.32 C 46.14 38.52 47.98 36.83 50.07 36.99 C 52.27 37.91 54.39 39.19 56.04 40.94 C 57.18 42.67 57.90 44.65 59.05 46.38 C 60.86 46.05 62.70 45.73 64.25 46.97 C 63.14 47.27 62.02 47.56 60.89 47.83 C 62.34 49.38 63.43 51.20 63.15 53.42 C 61.26 51.12 59.15 49.00 57.27 46.69 C 55.91 44.49 54.89 42.05 52.99 40.23 C 51.23 41.15 49.52 42.14 47.76 43.04 C 48.74 41.41 50.14 40.11 51.50 38.81 C 49.79 38.97 47.69 39.02 46.98 40.93 C 47.05 44.73 49.59 47.76 50.93 51.15 C 50.42 53.68 48.13 55.50 47.75 58.10 C 47.48 60.11 47.70 62.14 47.70 64.16 C 45.08 63.87 46.15 60.77 45.95 58.98 C 45.80 55.97 48.17 53.79 49.07 51.12 C 47.43 47.68 45.05 44.32 45.32 40.32 Z" />
</g>
</svg>
