<?xml version="1.0" encoding="UTF-8" ?>
<!DOCTYPE svg PUBLIC "-//W3C//DTD SVG 1.1//EN" "http://www.w3.org/Graphics/SVG/1.1/DTD/svg11.dtd">
<svg width="100pt" height="100pt" viewBox="0 0 100 100" version="1.1" xmlns="http://www.w3.org/2000/svg">
<g id="#ffffffff">
<path fill="#ffffff" opacity="1.00" d=" M 0.00 0.00 L 100.00 0.00 L 100.00 100.00 L 0.00 100.00 L 0.00 0.00 M 54.97 18.97 C 54.12 23.28 54.44 27.74 53.42 32.02 C 51.54 30.78 49.90 29.23 48.10 27.89 C 43.49 29.95 37.47 29.91 34.49 34.58 C 33.09 34.80 31.52 34.50 30.27 35.28 C 28.65 36.60 29.13 38.85 29.46 40.62 C 30.23 43.99 30.38 47.62 32.25 50.63 C 34.35 54.12 35.24 58.10 35.92 62.06 C 36.60 66.34 39.67 69.57 42.18 72.88 C 44.53 75.64 43.78 79.47 44.00 82.79 C 40.95 83.16 39.95 85.85 39.68 88.57 C 41.80 88.45 42.03 86.47 42.53 84.86 C 49.03 88.84 57.14 87.09 64.10 85.37 C 64.48 86.79 65.22 88.00 66.31 88.97 C 66.10 83.87 64.06 79.03 64.11 73.88 C 70.83 73.46 78.31 73.29 83.81 68.87 C 86.15 67.07 85.50 63.92 84.13 61.76 C 84.28 61.35 84.57 60.53 84.71 60.12 C 81.60 59.20 78.50 58.23 75.33 57.52 C 77.66 60.14 79.26 64.48 83.37 64.46 C 82.89 66.07 82.05 67.66 80.42 68.36 C 75.50 70.92 69.73 70.65 64.34 70.72 C 66.01 62.55 67.89 54.42 68.64 46.10 C 71.55 34.55 71.35 22.19 68.09 10.75 C 66.48 10.98 64.90 11.29 63.35 11.77 C 62.50 10.00 61.59 7.07 59.01 8.01 C 54.93 9.86 55.54 15.27 54.97 18.97 Z" />
<path fill="#ffffff" opacity="1.00" d=" M 59.31 9.24 C 61.26 10.41 62.16 12.76 61.96 14.97 C 61.69 19.96 61.35 24.94 61.11 29.93 C 60.58 32.91 57.92 36.50 60.42 39.21 C 60.98 36.65 61.48 34.06 62.54 31.64 C 64.39 25.22 61.12 17.14 66.24 11.81 C 68.02 15.60 68.36 19.84 68.68 23.96 C 69.03 29.10 69.37 34.35 68.23 39.42 C 67.23 43.89 66.46 48.41 65.96 52.96 C 65.37 58.91 63.40 64.61 62.74 70.55 C 58.29 70.72 53.48 68.71 49.26 70.50 C 50.30 70.74 52.36 71.22 53.40 71.46 C 52.02 71.71 50.64 71.95 49.27 72.19 L 49.29 73.45 C 53.64 73.86 58.00 74.06 62.37 74.04 C 62.53 77.25 62.95 80.44 63.62 83.59 C 57.79 85.34 51.41 86.30 45.44 84.71 C 45.53 81.17 45.97 77.51 44.90 74.07 C 42.76 69.82 38.48 66.74 37.61 61.84 C 36.90 57.53 35.90 53.21 33.58 49.45 C 32.17 47.35 32.00 44.81 32.06 42.36 C 33.00 42.17 34.88 41.79 35.82 41.61 C 34.46 40.33 32.62 41.14 31.03 41.20 C 31.08 39.59 31.13 37.98 31.21 36.37 C 31.82 36.34 33.05 36.29 33.66 36.26 C 39.12 40.76 39.56 49.24 46.08 52.83 C 48.88 52.93 52.36 51.79 53.79 49.16 C 51.22 48.32 48.96 51.92 46.20 50.84 C 42.70 48.16 40.83 44.04 38.99 40.17 C 39.33 39.79 40.02 39.04 40.36 38.66 C 41.36 40.87 42.64 43.19 45.37 43.37 C 44.27 41.60 43.14 39.85 41.93 38.15 C 42.60 38.12 43.92 38.06 44.59 38.03 C 45.85 39.91 47.08 42.08 49.53 42.56 C 48.37 40.31 47.02 38.17 45.83 35.94 C 43.90 36.00 41.97 36.04 40.04 36.03 C 39.40 36.82 38.76 37.61 38.12 38.40 C 37.33 37.50 36.55 36.59 35.77 35.68 C 38.59 31.80 43.70 31.28 47.98 29.99 C 49.82 30.79 50.90 32.64 52.27 34.03 C 52.33 35.75 51.16 38.05 53.07 39.12 C 54.20 35.86 54.88 32.44 55.89 29.14 C 55.89 24.01 56.95 18.99 57.26 13.89 C 57.43 12.16 58.52 10.73 59.31 9.24 Z" />
</g>
<g id="#5e5e5eff">
<path fill="#5e5e5e" opacity="1.00" d=" M 54.97 18.97 C 55.54 15.27 54.93 9.86 59.01 8.01 C 61.59 7.07 62.50 10.00 63.35 11.77 C 64.90 11.29 66.48 10.98 68.09 10.75 C 71.35 22.19 71.55 34.55 68.64 46.10 C 67.89 54.42 66.01 62.55 64.34 70.72 C 69.73 70.65 75.50 70.92 80.42 68.36 C 82.05 67.66 82.89 66.07 83.37 64.46 C 79.26 64.48 77.66 60.14 75.33 57.52 C 78.50 58.23 81.60 59.20 84.71 60.12 C 84.57 60.53 84.28 61.35 84.13 61.76 C 85.50 63.92 86.15 67.07 83.81 68.87 C 78.31 73.29 70.83 73.46 64.11 73.88 C 64.06 79.03 66.10 83.87 66.31 88.97 C 65.22 88.00 64.48 86.79 64.10 85.37 C 57.14 87.09 49.03 88.84 42.53 84.86 C 42.03 86.47 41.80 88.45 39.68 88.57 C 39.95 85.85 40.95 83.16 44.00 82.79 C 43.78 79.47 44.53 75.64 42.18 72.88 C 39.67 69.57 36.60 66.34 35.92 62.06 C 35.24 58.10 34.35 54.12 32.25 50.63 C 30.38 47.62 30.23 43.99 29.46 40.62 C 29.13 38.85 28.65 36.60 30.27 35.28 C 31.52 34.50 33.09 34.80 34.49 34.58 C 37.47 29.91 43.49 29.95 48.10 27.89 C 49.90 29.23 51.54 30.78 53.42 32.02 C 54.44 27.74 54.12 23.28 54.97 18.97 M 59.31 9.24 C 58.52 10.73 57.43 12.16 57.26 13.89 C 56.95 18.99 55.89 24.01 55.89 29.14 C 54.88 32.44 54.20 35.86 53.07 39.12 C 51.16 38.05 52.33 35.75 52.27 34.03 C 50.90 32.64 49.82 30.79 47.98 29.99 C 43.70 31.28 38.59 31.80 35.77 35.68 C 36.55 36.59 37.33 37.50 38.12 38.40 C 38.76 37.61 39.40 36.82 40.04 36.03 C 41.97 36.04 43.90 36.00 45.83 35.94 C 47.02 38.17 48.37 40.31 49.53 42.56 C 47.08 42.08 45.85 39.91 44.59 38.03 C 43.92 38.06 42.60 38.12 41.93 38.15 C 43.14 39.85 44.27 41.60 45.37 43.37 C 42.64 43.19 41.36 40.87 40.36 38.66 C 40.02 39.04 39.33 39.79 38.99 40.17 C 40.83 44.04 42.70 48.16 46.20 50.84 C 48.96 51.92 51.22 48.32 53.79 49.16 C 52.36 51.79 48.88 52.93 46.08 52.83 C 39.56 49.24 39.12 40.76 33.66 36.26 C 33.05 36.29 31.82 36.34 31.21 36.37 C 31.13 37.98 31.08 39.59 31.03 41.20 C 32.62 41.14 34.46 40.33 35.82 41.61 C 34.88 41.79 33.00 42.17 32.06 42.36 C 32.00 44.81 32.17 47.35 33.58 49.45 C 35.90 53.21 36.90 57.53 37.61 61.84 C 38.48 66.74 42.76 69.82 44.90 74.07 C 45.97 77.51 45.53 81.17 45.44 84.71 C 51.41 86.30 57.79 85.34 63.62 83.59 C 62.95 80.44 62.53 77.25 62.37 74.04 C 58.00 74.06 53.64 73.86 49.29 73.45 L 49.27 72.19 C 50.64 71.95 52.02 71.71 53.40 71.46 C 52.36 71.22 50.30 70.74 49.26 70.50 C 53.48 68.71 58.29 70.72 62.74 70.55 C 63.40 64.61 65.37 58.91 65.96 52.96 C 66.46 48.41 67.23 43.89 68.23 39.42 C 69.37 34.35 69.03 29.10 68.68 23.96 C 68.36 19.84 68.02 15.60 66.24 11.81 C 61.12 17.14 64.39 25.22 62.54 31.64 C 61.48 34.06 60.98 36.65 60.42 39.21 C 57.92 36.50 60.58 32.91 61.11 29.93 C 61.35 24.94 61.69 19.96 61.96 14.97 C 62.16 12.76 61.26 10.41 59.31 9.24 Z" />
</g>
</svg>
