<?xml version="1.0" encoding="UTF-8" ?>
<!DOCTYPE svg PUBLIC "-//W3C//DTD SVG 1.1//EN" "http://www.w3.org/Graphics/SVG/1.1/DTD/svg11.dtd">
<svg width="100pt" height="100pt" viewBox="0 0 100 100" version="1.1" xmlns="http://www.w3.org/2000/svg">
<g id="#ffffffff">
<path fill="#ffffff" opacity="1.00" d=" M 0.00 0.00 L 100.00 0.00 L 100.00 100.00 L 0.00 100.00 L 0.00 0.00 M 8.86 26.10 C 8.80 27.78 8.23 30.15 10.29 30.91 C 14.23 32.37 18.48 30.99 22.54 30.93 C 23.13 33.55 25.09 35.41 27.52 36.40 C 25.39 38.07 25.34 40.93 26.80 43.06 C 25.85 45.09 25.67 47.33 26.77 49.35 C 26.68 51.48 26.46 54.14 28.64 55.37 C 30.97 56.39 33.73 56.50 35.69 58.29 C 42.81 64.56 52.39 66.85 61.47 68.61 C 64.61 69.60 67.20 71.73 69.55 73.98 C 67.79 77.53 70.84 80.98 74.04 82.24 C 75.59 80.27 72.09 79.18 71.11 77.82 C 71.08 77.23 71.04 76.04 71.01 75.45 C 77.78 72.52 84.36 68.27 88.62 62.13 C 89.73 62.82 90.85 63.50 91.98 64.15 C 92.41 61.78 89.84 60.90 88.51 59.46 C 85.79 56.84 83.05 54.23 80.39 51.56 C 77.19 47.10 74.63 42.06 70.57 38.29 C 64.63 34.64 58.86 30.72 52.99 26.97 C 43.80 23.35 33.70 20.92 23.81 22.60 C 18.63 22.78 13.47 23.60 8.86 26.10 Z" />
<path fill="#ffffff" opacity="1.00" d=" M 18.02 24.89 C 25.28 24.15 32.75 23.05 39.93 24.95 C 44.89 26.12 50.18 26.95 54.44 29.93 C 50.94 29.28 47.57 27.71 43.94 28.07 C 39.69 28.40 35.40 27.12 31.20 28.19 C 26.85 29.29 22.31 28.76 17.92 29.59 C 15.08 30.06 11.71 30.56 9.70 27.98 C 12.25 26.45 15.02 25.16 18.02 24.89 Z" />
<path fill="#ffffff" opacity="1.00" d=" M 33.58 29.26 C 38.39 30.01 43.25 29.88 48.07 30.22 C 52.36 31.67 57.47 31.03 61.02 34.23 C 63.78 36.47 67.06 37.93 69.92 40.02 C 73.35 43.74 75.91 48.17 78.72 52.36 C 81.27 55.47 84.76 57.69 87.13 60.96 C 83.58 66.85 77.24 70.16 71.52 73.57 C 68.64 70.27 64.97 67.36 60.56 66.57 C 51.89 65.02 42.93 62.45 36.24 56.44 C 39.32 56.23 42.93 56.63 45.39 54.39 C 46.79 53.30 45.62 51.60 45.32 50.29 C 46.70 50.04 47.70 49.08 48.61 48.08 C 51.99 51.42 56.63 53.13 61.33 53.37 C 61.39 51.37 59.21 51.61 57.97 51.04 C 54.35 50.13 49.68 48.47 49.38 44.09 C 49.08 39.35 44.88 35.23 40.00 35.96 C 34.70 35.31 27.00 36.94 24.35 30.94 C 26.77 30.62 29.18 30.24 31.62 30.12 L 31.45 32.47 C 31.98 31.67 33.05 30.07 33.58 29.26 Z" />
<path fill="#ffffff" opacity="1.00" d=" M 28.18 38.19 C 28.65 37.92 29.59 37.40 30.07 37.13 C 33.66 37.29 37.26 37.56 40.84 37.95 C 40.46 39.38 39.78 41.05 41.16 42.17 C 41.53 40.68 41.88 39.18 42.23 37.68 C 44.29 38.23 46.18 39.51 46.24 41.87 C 44.26 42.58 42.16 43.20 40.04 42.68 C 36.18 41.95 32.25 41.89 28.33 41.76 C 28.05 41.33 27.49 40.47 27.21 40.04 C 27.45 39.57 27.94 38.65 28.18 38.19 Z" />
<path fill="#ffffff" opacity="1.00" d=" M 47.22 43.33 C 47.70 43.77 47.70 43.77 47.22 43.33 Z" />
<path fill="#ffffff" opacity="1.00" d=" M 29.85 48.60 C 26.89 48.84 27.09 43.17 29.99 43.57 C 33.91 43.46 37.78 44.22 41.67 44.52 C 41.37 46.04 41.40 47.59 41.74 49.10 C 37.78 48.92 33.80 48.98 29.85 48.60 Z" />
<path fill="#ffffff" opacity="1.00" d=" M 42.52 49.23 C 42.59 47.07 42.43 44.04 45.33 43.82 C 45.78 45.09 47.07 46.22 46.86 47.64 C 45.64 48.67 43.99 48.80 42.52 49.23 Z" />
<path fill="#ffffff" opacity="1.00" d=" M 28.25 50.39 C 31.95 50.57 35.64 50.97 39.35 50.95 C 40.00 51.50 40.66 52.05 41.32 52.59 L 40.98 50.77 C 42.37 51.06 43.63 51.70 44.74 52.57 C 43.60 53.28 42.46 53.96 41.31 54.64 L 41.30 53.46 C 40.68 53.92 40.06 54.39 39.44 54.85 C 35.56 54.33 28.27 56.46 28.25 50.39 Z" />
</g>
<g id="#616162ff">
<path fill="#616162" opacity="1.00" d=" M 8.86 26.10 C 13.47 23.60 18.63 22.78 23.81 22.60 C 33.70 20.92 43.80 23.35 52.99 26.97 C 58.86 30.72 64.63 34.64 70.57 38.29 C 74.63 42.06 77.19 47.10 80.39 51.56 C 83.05 54.23 85.79 56.84 88.51 59.46 C 89.84 60.90 92.41 61.78 91.98 64.15 C 90.85 63.50 89.73 62.82 88.62 62.13 C 84.36 68.27 77.78 72.52 71.01 75.45 C 71.04 76.04 71.08 77.23 71.11 77.82 C 72.09 79.18 75.59 80.27 74.04 82.24 C 70.84 80.98 67.79 77.53 69.55 73.98 C 67.20 71.73 64.61 69.60 61.47 68.61 C 52.39 66.85 42.81 64.56 35.69 58.29 C 33.73 56.50 30.97 56.39 28.64 55.37 C 26.46 54.14 26.68 51.48 26.77 49.35 C 25.67 47.33 25.85 45.09 26.80 43.06 C 25.34 40.93 25.39 38.07 27.52 36.40 C 25.09 35.41 23.13 33.55 22.54 30.93 C 18.48 30.99 14.23 32.37 10.29 30.91 C 8.23 30.15 8.80 27.78 8.86 26.10 M 18.02 24.89 C 15.02 25.16 12.25 26.45 9.70 27.98 C 11.71 30.56 15.08 30.06 17.92 29.59 C 22.31 28.76 26.85 29.29 31.20 28.19 C 35.40 27.12 39.69 28.40 43.94 28.07 C 47.57 27.71 50.94 29.28 54.44 29.93 C 50.18 26.95 44.89 26.12 39.93 24.95 C 32.75 23.05 25.28 24.15 18.02 24.89 M 33.58 29.26 C 33.05 30.07 31.98 31.67 31.45 32.47 L 31.62 30.12 C 29.18 30.24 26.77 30.62 24.35 30.94 C 27.00 36.94 34.70 35.31 40.00 35.96 C 44.88 35.23 49.08 39.35 49.38 44.09 C 49.68 48.47 54.35 50.13 57.97 51.04 C 59.21 51.61 61.39 51.37 61.33 53.37 C 56.63 53.13 51.99 51.42 48.61 48.08 C 47.70 49.08 46.70 50.04 45.32 50.29 C 45.62 51.60 46.79 53.30 45.39 54.39 C 42.93 56.63 39.32 56.23 36.24 56.44 C 42.93 62.45 51.89 65.02 60.56 66.57 C 64.97 67.36 68.64 70.27 71.52 73.57 C 77.24 70.16 83.58 66.85 87.13 60.96 C 84.76 57.69 81.27 55.47 78.72 52.36 C 75.91 48.17 73.35 43.74 69.92 40.02 C 67.06 37.93 63.78 36.47 61.02 34.23 C 57.47 31.03 52.36 31.67 48.07 30.22 C 43.25 29.88 38.39 30.01 33.58 29.26 M 28.18 38.19 C 27.94 38.65 27.45 39.57 27.21 40.04 C 27.49 40.47 28.05 41.33 28.33 41.76 C 32.25 41.89 36.18 41.95 40.04 42.68 C 42.16 43.20 44.26 42.58 46.24 41.87 C 46.18 39.51 44.29 38.23 42.23 37.68 C 41.88 39.18 41.53 40.68 41.16 42.17 C 39.78 41.05 40.46 39.38 40.84 37.95 C 37.26 37.56 33.66 37.29 30.07 37.13 C 29.59 37.40 28.65 37.92 28.18 38.19 M 47.22 43.33 C 47.70 43.77 47.70 43.77 47.22 43.33 M 29.85 48.60 C 33.80 48.98 37.78 48.92 41.74 49.10 C 41.40 47.59 41.37 46.04 41.67 44.52 C 37.78 44.22 33.91 43.46 29.99 43.57 C 27.09 43.17 26.89 48.84 29.85 48.60 M 42.52 49.23 C 43.99 48.80 45.64 48.67 46.86 47.64 C 47.07 46.22 45.78 45.09 45.33 43.82 C 42.43 44.04 42.59 47.07 42.52 49.23 M 28.25 50.39 C 28.27 56.46 35.56 54.33 39.44 54.85 C 40.06 54.39 40.68 53.92 41.30 53.46 L 41.31 54.64 C 42.46 53.96 43.60 53.28 44.74 52.57 C 43.63 51.70 42.37 51.06 40.98 50.77 L 41.32 52.59 C 40.66 52.05 40.00 51.50 39.35 50.95 C 35.64 50.97 31.95 50.57 28.25 50.39 Z" />
</g>
</svg>
