<?xml version="1.0" encoding="UTF-8" ?>
<!DOCTYPE svg PUBLIC "-//W3C//DTD SVG 1.1//EN" "http://www.w3.org/Graphics/SVG/1.1/DTD/svg11.dtd">
<svg width="100pt" height="100pt" viewBox="0 0 100 100" version="1.1" xmlns="http://www.w3.org/2000/svg">
<g id="#ffffffff">
<path fill="#ffffff" opacity="1.00" d=" M 0.00 0.00 L 100.00 0.00 L 100.00 100.00 L 0.00 100.00 L 0.00 0.00 M 54.06 11.04 C 55.85 18.46 59.50 25.84 58.06 33.67 C 52.88 28.21 47.58 22.84 41.54 18.30 C 39.89 17.13 37.83 14.90 35.81 16.72 C 32.61 18.50 34.46 22.50 36.36 24.54 C 39.86 27.81 42.88 31.57 46.62 34.57 C 46.83 35.11 47.26 36.21 47.47 36.75 C 45.04 37.06 42.34 36.97 40.30 38.54 C 38.72 39.69 39.09 41.84 38.85 43.53 C 37.53 44.19 35.70 44.41 35.11 45.98 C 33.21 49.29 36.22 52.61 36.53 55.95 C 37.05 62.37 38.35 68.87 41.53 74.53 C 43.44 77.12 45.74 79.46 46.84 82.56 C 44.52 85.62 45.60 89.58 48.51 91.84 C 48.19 89.54 47.59 87.31 47.04 85.06 C 54.57 86.56 62.25 84.05 68.93 80.67 C 70.11 82.31 70.91 84.18 72.03 85.86 C 72.35 83.55 71.58 81.38 70.75 79.28 C 70.13 79.11 68.90 78.78 68.29 78.62 C 67.73 75.99 66.35 73.26 67.48 70.59 C 70.28 62.35 71.55 53.64 71.81 44.96 C 71.12 39.65 70.34 34.27 68.77 29.13 C 66.81 24.77 66.70 19.81 64.38 15.58 C 62.69 11.79 59.77 8.78 56.82 5.94 C 55.16 7.17 53.18 8.67 54.06 11.04 Z" />
<path fill="#ffffff" opacity="1.00" d=" M 56.30 12.66 C 55.57 10.93 56.02 9.11 56.79 7.48 C 64.11 15.40 67.04 26.14 68.65 36.54 C 71.74 48.34 68.80 60.64 65.19 71.96 C 65.44 74.60 66.12 77.17 66.78 79.73 C 61.58 82.38 55.76 83.76 49.95 83.98 C 47.85 81.95 47.49 78.73 45.43 76.62 C 40.72 71.61 39.54 64.58 38.23 58.10 C 39.78 59.66 40.76 62.18 43.13 62.61 C 44.44 62.37 45.69 61.88 46.94 61.45 C 48.21 63.74 49.04 66.68 51.74 67.66 C 50.99 65.26 49.91 62.99 48.79 60.76 C 49.90 59.86 51.00 58.95 52.11 58.03 C 52.05 56.02 51.83 54.01 51.77 52.00 C 52.28 49.80 53.66 47.93 54.35 45.79 C 53.77 41.16 49.02 38.41 48.42 33.80 C 48.11 31.91 49.09 30.20 50.15 28.73 C 51.98 29.82 53.46 31.36 54.86 32.94 C 54.40 33.53 53.47 34.71 53.01 35.30 C 53.75 35.07 55.23 34.60 55.97 34.37 C 59.09 40.45 65.56 44.71 66.59 51.77 C 67.00 52.02 67.81 52.52 68.22 52.77 C 68.36 45.53 62.06 40.94 58.59 35.29 C 60.64 32.98 60.09 29.81 59.98 27.00 C 59.40 22.07 57.71 17.39 56.30 12.66 Z" />
<path fill="#ffffff" opacity="1.00" d=" M 36.01 17.74 C 41.44 18.98 44.92 23.85 49.24 27.02 C 48.00 28.65 47.10 30.50 46.31 32.39 C 43.55 28.95 40.16 26.09 37.23 22.81 C 35.90 21.47 36.20 19.45 36.01 17.74 Z" />
<path fill="#ffffff" opacity="1.00" d=" M 40.75 39.91 C 43.27 39.21 45.98 38.24 48.59 39.04 C 50.40 40.92 52.16 43.17 52.46 45.85 C 51.89 47.34 51.18 48.78 50.54 50.25 C 49.90 47.45 49.57 44.18 46.87 42.52 C 47.49 46.81 49.18 50.84 50.14 55.05 C 50.83 56.89 49.12 58.23 48.13 59.50 C 47.19 57.88 46.33 56.20 45.48 54.53 C 46.39 53.40 47.52 52.50 48.74 51.71 C 47.17 52.12 45.64 52.64 44.11 53.14 C 42.07 49.02 41.05 44.48 40.75 39.91 Z" />
<path fill="#ffffff" opacity="1.00" d=" M 36.05 48.10 C 36.53 46.54 38.11 45.78 39.22 44.74 C 40.35 50.23 43.40 54.92 46.23 59.66 C 45.11 60.17 43.98 60.69 42.86 61.19 C 42.14 60.15 41.42 59.12 40.79 58.03 C 41.29 57.57 42.31 56.66 42.81 56.21 C 42.75 55.95 42.62 55.43 42.55 55.17 C 41.42 55.74 40.29 56.32 39.16 56.91 C 38.00 54.02 36.63 51.17 36.05 48.10 Z" />
</g>
<g id="#606161ff">
<path fill="#606161" opacity="1.00" d=" M 54.06 11.04 C 53.18 8.67 55.16 7.17 56.82 5.94 C 59.77 8.78 62.69 11.79 64.38 15.58 C 66.70 19.81 66.81 24.77 68.77 29.13 C 70.34 34.27 71.12 39.65 71.81 44.96 C 71.55 53.64 70.28 62.35 67.48 70.59 C 66.35 73.26 67.73 75.99 68.29 78.62 C 68.90 78.78 70.13 79.11 70.75 79.28 C 71.58 81.38 72.35 83.55 72.03 85.86 C 70.91 84.18 70.11 82.31 68.93 80.67 C 62.25 84.05 54.57 86.56 47.04 85.06 C 47.59 87.31 48.19 89.54 48.51 91.84 C 45.60 89.58 44.52 85.62 46.84 82.56 C 45.74 79.46 43.44 77.12 41.53 74.53 C 38.35 68.87 37.05 62.37 36.53 55.95 C 36.22 52.61 33.21 49.29 35.11 45.98 C 35.70 44.41 37.53 44.19 38.85 43.53 C 39.09 41.84 38.72 39.69 40.30 38.54 C 42.34 36.97 45.04 37.06 47.47 36.75 C 47.26 36.21 46.83 35.11 46.62 34.57 C 42.88 31.57 39.86 27.81 36.36 24.54 C 34.46 22.50 32.61 18.50 35.81 16.72 C 37.83 14.90 39.89 17.13 41.54 18.30 C 47.58 22.84 52.88 28.21 58.06 33.67 C 59.50 25.84 55.85 18.46 54.06 11.04 M 56.30 12.66 C 57.71 17.39 59.40 22.07 59.98 27.00 C 60.09 29.81 60.64 32.98 58.59 35.29 C 62.06 40.94 68.36 45.53 68.22 52.77 C 67.81 52.52 67.00 52.02 66.59 51.77 C 65.56 44.71 59.09 40.45 55.97 34.37 C 55.23 34.60 53.75 35.07 53.01 35.30 C 53.47 34.71 54.40 33.53 54.86 32.94 C 53.46 31.36 51.98 29.82 50.15 28.73 C 49.09 30.20 48.11 31.91 48.42 33.80 C 49.02 38.41 53.77 41.16 54.35 45.79 C 53.66 47.93 52.28 49.80 51.77 52.00 C 51.83 54.01 52.05 56.02 52.11 58.03 C 51.00 58.95 49.90 59.86 48.79 60.76 C 49.91 62.99 50.99 65.26 51.74 67.66 C 49.04 66.68 48.21 63.74 46.94 61.45 C 45.69 61.88 44.44 62.37 43.13 62.61 C 40.76 62.18 39.78 59.66 38.23 58.10 C 39.54 64.58 40.72 71.61 45.43 76.62 C 47.49 78.73 47.85 81.95 49.95 83.98 C 55.76 83.76 61.58 82.38 66.78 79.73 C 66.12 77.17 65.44 74.60 65.19 71.96 C 68.80 60.64 71.74 48.34 68.65 36.54 C 67.04 26.14 64.11 15.40 56.79 7.48 C 56.02 9.11 55.57 10.93 56.30 12.66 M 36.01 17.74 C 36.20 19.45 35.90 21.47 37.23 22.81 C 40.16 26.09 43.55 28.95 46.31 32.39 C 47.10 30.50 48.00 28.65 49.24 27.02 C 44.92 23.85 41.44 18.98 36.01 17.74 M 40.75 39.91 C 41.05 44.48 42.07 49.02 44.11 53.14 C 45.64 52.64 47.17 52.12 48.74 51.71 C 47.52 52.50 46.39 53.40 45.48 54.53 C 46.33 56.20 47.19 57.88 48.13 59.50 C 49.12 58.23 50.83 56.89 50.14 55.05 C 49.18 50.84 47.49 46.81 46.87 42.52 C 49.57 44.18 49.90 47.45 50.54 50.25 C 51.18 48.78 51.89 47.34 52.46 45.85 C 52.16 43.17 50.40 40.92 48.59 39.04 C 45.98 38.24 43.27 39.21 40.75 39.91 M 36.05 48.10 C 36.63 51.17 38.00 54.02 39.16 56.91 C 40.29 56.32 41.42 55.74 42.55 55.17 C 42.62 55.43 42.75 55.95 42.81 56.21 C 42.31 56.66 41.29 57.57 40.79 58.03 C 41.42 59.12 42.14 60.15 42.86 61.19 C 43.98 60.69 45.11 60.17 46.23 59.66 C 43.40 54.92 40.35 50.23 39.22 44.74 C 38.11 45.78 36.53 46.54 36.05 48.10 Z" />
</g>
</svg>
