<?xml version="1.0" encoding="UTF-8" ?>
<!DOCTYPE svg PUBLIC "-//W3C//DTD SVG 1.1//EN" "http://www.w3.org/Graphics/SVG/1.1/DTD/svg11.dtd">
<svg width="100pt" height="100pt" viewBox="0 0 100 100" version="1.1" xmlns="http://www.w3.org/2000/svg">
<g id="#ffffffff">
<path fill="#ffffff" opacity="1.00" d=" M 0.00 0.00 L 100.00 0.00 L 100.00 100.00 L 0.00 100.00 L 0.00 0.00 M 36.87 12.98 C 38.81 20.10 44.96 25.76 44.87 33.45 C 41.88 32.90 37.96 31.86 35.76 34.73 C 32.63 38.91 28.42 42.12 25.05 46.10 C 24.50 53.39 28.11 60.28 31.09 66.77 C 32.67 70.40 35.94 72.74 38.88 75.18 C 40.96 77.49 42.69 80.21 43.72 83.15 C 43.54 84.76 42.92 86.31 42.99 87.95 C 43.36 89.43 44.73 90.25 45.83 91.15 C 45.51 89.45 45.08 87.79 44.67 86.12 C 51.65 86.22 58.73 83.45 64.06 78.99 C 65.16 80.33 66.23 81.73 67.71 82.69 C 66.90 77.67 61.64 75.05 60.47 70.07 C 63.63 60.75 67.92 51.71 74.04 43.96 C 75.26 40.99 78.05 39.32 80.02 36.95 C 81.15 33.97 77.27 32.68 75.01 32.92 C 69.19 33.16 65.34 38.21 61.32 41.78 C 57.73 33.65 55.28 24.67 49.16 17.94 C 46.61 15.09 45.40 10.95 41.89 9.04 C 39.22 7.69 36.22 10.09 36.87 12.98 Z" />
<path fill="#ffffff" opacity="1.00" d=" M 38.47 11.98 C 39.39 9.16 42.24 10.91 43.26 12.61 C 45.30 15.60 47.11 18.75 49.63 21.38 C 54.45 27.79 56.54 35.68 59.87 42.86 C 58.97 44.02 58.09 45.21 57.27 46.44 C 63.62 44.40 66.56 37.00 73.05 34.96 C 75.05 34.00 77.08 35.13 78.98 35.77 C 77.07 37.57 74.61 38.97 73.44 41.43 C 71.63 45.14 68.40 47.92 66.63 51.66 C 64.01 57.12 60.87 62.40 59.21 68.27 C 58.08 71.89 61.03 74.97 62.67 77.92 C 58.27 81.62 52.51 83.54 46.91 84.43 C 44.69 82.83 44.51 79.47 42.75 77.35 C 40.50 72.97 35.37 71.16 33.16 66.76 C 31.23 63.00 29.72 59.04 27.80 55.27 C 30.48 58.24 33.97 60.30 37.93 60.97 C 39.17 60.58 40.41 60.20 41.66 59.84 C 42.54 62.71 42.85 67.10 46.50 67.74 C 45.62 65.59 44.61 63.49 43.81 61.29 C 46.45 58.83 47.84 55.40 49.05 52.08 C 48.94 48.28 47.38 44.58 45.84 41.16 C 45.38 40.97 44.47 40.60 44.01 40.41 C 45.21 45.01 48.22 49.35 46.91 54.32 C 44.95 53.93 43.42 52.71 42.10 51.27 C 43.26 50.21 45.12 49.69 45.82 48.19 C 44.10 47.90 42.99 49.56 41.67 50.34 C 39.12 46.40 37.31 42.07 35.27 37.86 C 36.63 36.14 38.46 34.10 40.91 34.54 C 43.19 34.75 44.62 36.71 46.39 37.91 C 46.28 34.63 46.74 31.27 45.97 28.04 C 43.96 22.47 39.98 17.76 38.47 11.98 Z" />
<path fill="#ffffff" opacity="1.00" d=" M 30.25 43.50 C 31.14 42.13 32.49 39.43 34.47 40.30 C 36.48 44.76 38.69 49.11 41.43 53.17 C 40.57 54.06 39.70 54.93 38.80 55.78 C 35.67 51.90 32.84 47.75 30.25 43.50 Z" />
<path fill="#ffffff" opacity="1.00" d=" M 26.43 48.82 C 26.04 47.10 27.79 45.98 28.63 44.71 C 31.54 48.37 33.91 52.39 36.57 56.22 C 37.67 57.07 38.67 58.04 39.63 59.04 C 37.14 59.37 35.14 58.33 33.77 56.32 L 33.64 58.10 C 30.64 55.59 27.42 52.77 26.43 48.82 Z" />
<path fill="#ffffff" opacity="1.00" d=" M 42.29 54.08 C 43.34 54.82 44.39 55.55 45.45 56.29 C 44.86 57.23 44.24 58.15 43.59 59.05 C 42.25 58.43 41.07 57.53 39.85 56.70 C 40.66 55.82 41.47 54.95 42.29 54.08 Z" />
</g>
<g id="#646465ff">
<path fill="#646465" opacity="1.00" d=" M 36.87 12.98 C 36.22 10.09 39.22 7.69 41.89 9.04 C 45.40 10.95 46.61 15.09 49.16 17.94 C 55.28 24.67 57.73 33.65 61.32 41.78 C 65.34 38.21 69.19 33.16 75.01 32.92 C 77.27 32.68 81.15 33.97 80.02 36.95 C 78.05 39.32 75.26 40.99 74.04 43.96 C 67.92 51.71 63.63 60.75 60.47 70.07 C 61.64 75.05 66.90 77.67 67.71 82.69 C 66.23 81.73 65.16 80.33 64.06 78.99 C 58.73 83.45 51.65 86.22 44.67 86.12 C 45.08 87.79 45.51 89.45 45.83 91.15 C 44.73 90.25 43.36 89.43 42.99 87.95 C 42.92 86.31 43.54 84.76 43.72 83.15 C 42.69 80.21 40.96 77.49 38.88 75.18 C 35.94 72.74 32.67 70.40 31.09 66.77 C 28.11 60.28 24.50 53.39 25.05 46.10 C 28.42 42.12 32.63 38.91 35.76 34.73 C 37.96 31.86 41.88 32.90 44.87 33.45 C 44.96 25.76 38.81 20.10 36.87 12.98 M 38.47 11.98 C 39.98 17.76 43.96 22.47 45.97 28.04 C 46.74 31.27 46.28 34.63 46.39 37.91 C 44.62 36.71 43.19 34.75 40.91 34.54 C 38.46 34.10 36.63 36.14 35.27 37.86 C 37.31 42.07 39.12 46.40 41.67 50.34 C 42.99 49.56 44.10 47.90 45.82 48.19 C 45.12 49.69 43.26 50.21 42.10 51.27 C 43.42 52.71 44.95 53.93 46.91 54.32 C 48.22 49.35 45.21 45.01 44.01 40.41 C 44.47 40.60 45.38 40.97 45.84 41.16 C 47.38 44.58 48.94 48.28 49.05 52.08 C 47.84 55.40 46.45 58.83 43.81 61.29 C 44.61 63.49 45.62 65.59 46.50 67.74 C 42.85 67.10 42.54 62.71 41.66 59.84 C 40.41 60.20 39.17 60.58 37.93 60.97 C 33.97 60.30 30.48 58.24 27.80 55.27 C 29.72 59.04 31.23 63.00 33.16 66.76 C 35.37 71.16 40.50 72.97 42.75 77.35 C 44.51 79.47 44.69 82.83 46.91 84.43 C 52.51 83.54 58.27 81.62 62.67 77.92 C 61.03 74.97 58.08 71.89 59.21 68.27 C 60.87 62.40 64.01 57.12 66.63 51.66 C 68.40 47.92 71.63 45.14 73.44 41.43 C 74.61 38.97 77.07 37.57 78.98 35.77 C 77.08 35.13 75.05 34.00 73.05 34.96 C 66.56 37.00 63.62 44.40 57.27 46.44 C 58.09 45.21 58.97 44.02 59.87 42.86 C 56.54 35.68 54.45 27.79 49.63 21.38 C 47.11 18.75 45.30 15.60 43.26 12.61 C 42.24 10.91 39.39 9.16 38.47 11.98 M 30.25 43.50 C 32.84 47.75 35.67 51.90 38.80 55.78 C 39.70 54.93 40.57 54.06 41.43 53.17 C 38.69 49.11 36.48 44.76 34.47 40.30 C 32.49 39.43 31.14 42.13 30.25 43.50 M 26.43 48.82 C 27.42 52.77 30.64 55.59 33.64 58.10 L 33.77 56.32 C 35.14 58.33 37.14 59.37 39.63 59.04 C 38.67 58.04 37.67 57.07 36.57 56.22 C 33.91 52.39 31.54 48.37 28.63 44.71 C 27.79 45.98 26.04 47.10 26.43 48.82 M 42.29 54.08 C 41.47 54.95 40.66 55.82 39.85 56.70 C 41.07 57.53 42.25 58.43 43.59 59.05 C 44.24 58.15 44.86 57.23 45.45 56.29 C 44.39 55.55 43.34 54.82 42.29 54.08 Z" />
</g>
</svg>
