<?xml version="1.0" encoding="UTF-8" ?>
<!DOCTYPE svg PUBLIC "-//W3C//DTD SVG 1.1//EN" "http://www.w3.org/Graphics/SVG/1.1/DTD/svg11.dtd">
<svg width="100pt" height="100pt" viewBox="0 0 100 100" version="1.1" xmlns="http://www.w3.org/2000/svg">
<g id="#ffffffff">
<path fill="#ffffff" opacity="1.00" d=" M 0.00 0.00 L 100.00 0.00 L 100.00 100.00 L 0.00 100.00 L 0.00 0.00 M 36.29 13.02 C 38.16 20.37 44.66 26.16 44.30 34.10 C 41.96 33.61 39.36 32.66 37.10 33.98 C 35.12 34.73 34.15 36.69 33.08 38.36 C 30.04 40.48 27.72 43.42 25.14 46.05 C 23.13 48.23 24.81 51.10 25.67 53.38 C 25.91 55.28 25.89 57.30 26.88 59.01 C 29.63 64.12 31.06 70.38 36.14 73.81 C 39.69 76.20 41.69 80.09 43.51 83.83 C 42.23 86.36 42.40 89.09 43.93 91.48 C 44.33 91.25 45.12 90.80 45.52 90.57 C 44.92 89.24 44.32 87.90 43.75 86.56 C 50.95 87.15 58.14 84.04 63.75 79.70 C 64.92 81.05 66.06 82.42 67.35 83.66 C 67.16 79.08 62.51 76.88 60.81 72.96 C 67.61 72.42 74.88 72.46 80.93 68.88 C 82.95 67.78 84.02 65.62 84.15 63.38 C 83.42 61.98 82.74 60.51 82.82 58.89 C 79.82 57.98 76.82 57.09 73.78 56.32 C 76.18 58.63 77.64 63.80 81.76 62.87 C 82.07 65.70 79.24 67.39 76.93 68.20 C 71.61 69.96 65.91 69.69 60.39 69.45 C 62.08 64.15 64.76 59.26 67.20 54.28 C 69.31 49.62 73.30 46.18 75.44 41.53 C 77.33 40.08 79.04 38.44 80.60 36.65 C 79.30 35.32 78.07 33.57 75.98 33.66 C 69.52 33.01 65.20 38.73 60.72 42.39 C 57.46 34.09 54.71 25.24 48.64 18.45 C 45.84 15.33 44.52 10.29 40.05 9.11 C 37.94 9.15 36.37 10.97 36.29 13.02 Z" />
<path fill="#ffffff" opacity="1.00" d=" M 38.83 10.50 C 43.35 11.65 44.53 16.56 47.32 19.67 C 53.43 26.38 55.76 35.35 59.44 43.41 C 58.52 44.69 57.57 45.99 57.34 47.61 C 62.33 44.27 65.89 39.10 71.22 36.24 C 73.55 34.86 76.28 35.34 78.69 36.23 C 76.22 38.58 73.44 40.69 72.00 43.89 C 66.12 51.47 61.83 60.19 58.60 69.20 C 55.02 68.98 51.44 68.65 47.85 68.75 C 49.20 69.50 50.55 70.24 51.91 70.95 C 50.69 71.02 48.23 71.15 47.00 71.22 C 50.56 73.51 55.04 72.60 59.04 72.96 C 60.06 74.96 61.12 76.93 62.20 78.90 C 57.31 82.27 51.57 84.64 45.61 85.11 C 44.30 81.23 42.47 77.41 39.59 74.45 C 37.15 72.24 34.25 70.35 32.71 67.34 C 30.80 63.58 29.35 59.60 27.29 55.91 C 30.92 59.34 36.01 62.95 41.10 60.23 C 42.16 63.28 42.42 67.60 46.17 68.58 C 45.26 66.35 44.21 64.17 43.24 61.96 C 44.87 60.50 46.10 58.69 46.75 56.59 C 47.82 54.63 49.31 52.47 48.41 50.15 C 47.19 46.77 46.83 42.64 43.72 40.36 C 44.23 43.29 45.11 46.14 45.99 48.98 C 43.90 48.60 42.32 49.53 41.35 51.39 C 39.16 47.06 36.28 42.92 35.11 38.18 C 36.31 35.88 39.14 34.34 41.71 35.20 C 43.37 36.07 44.60 37.54 46.01 38.74 C 45.46 34.88 46.86 30.72 44.93 27.11 C 42.93 22.79 40.31 18.78 38.53 14.36 C 37.76 13.12 38.63 11.76 38.83 10.50 Z" />
<path fill="#ffffff" opacity="1.00" d=" M 29.61 44.32 C 30.69 42.66 32.05 41.21 33.67 40.06 C 35.87 44.79 38.06 49.54 41.15 53.77 C 40.17 54.64 39.21 55.52 38.24 56.40 C 35.10 52.56 32.83 48.10 29.61 44.32 Z" />
<path fill="#ffffff" opacity="1.00" d=" M 26.14 49.91 C 25.39 47.96 26.93 46.45 28.07 45.12 C 30.87 48.51 33.11 52.29 35.57 55.93 L 33.04 57.43 C 34.32 57.22 35.60 57.00 36.88 56.77 C 37.62 57.77 38.38 58.76 39.12 59.76 C 33.28 59.49 28.09 55.34 26.14 49.91 Z" />
<path fill="#ffffff" opacity="1.00" d=" M 41.56 51.65 C 43.35 50.71 45.16 49.81 47.03 49.06 C 47.07 51.30 46.72 53.52 45.35 55.34 C 44.06 54.14 42.80 52.90 41.56 51.65 Z" />
<path fill="#ffffff" opacity="1.00" d=" M 41.64 54.60 C 42.77 55.38 43.91 56.16 45.04 56.94 C 44.37 57.92 43.69 58.91 43.02 59.90 C 41.87 59.00 40.72 58.10 39.57 57.18 C 40.09 56.54 41.12 55.25 41.64 54.60 Z" />
</g>
<g id="#5c5c5cff">
<path fill="#5c5c5c" opacity="1.00" d=" M 36.29 13.02 C 36.37 10.97 37.94 9.15 40.05 9.11 C 44.52 10.29 45.84 15.33 48.64 18.45 C 54.71 25.24 57.46 34.09 60.72 42.39 C 65.20 38.73 69.52 33.01 75.98 33.66 C 78.07 33.57 79.30 35.32 80.60 36.65 C 79.04 38.44 77.33 40.08 75.44 41.53 C 73.30 46.18 69.31 49.62 67.20 54.28 C 64.76 59.26 62.08 64.15 60.39 69.45 C 65.91 69.69 71.61 69.96 76.93 68.20 C 79.24 67.39 82.07 65.70 81.76 62.87 C 77.64 63.80 76.18 58.63 73.78 56.32 C 76.82 57.09 79.82 57.98 82.82 58.89 C 82.74 60.51 83.42 61.98 84.15 63.38 C 84.02 65.62 82.95 67.78 80.93 68.88 C 74.88 72.46 67.61 72.42 60.81 72.96 C 62.51 76.88 67.16 79.08 67.35 83.66 C 66.06 82.42 64.92 81.05 63.75 79.70 C 58.14 84.04 50.95 87.15 43.75 86.56 C 44.32 87.90 44.92 89.24 45.52 90.57 C 45.12 90.80 44.33 91.25 43.93 91.48 C 42.40 89.09 42.23 86.36 43.51 83.83 C 41.69 80.09 39.69 76.20 36.14 73.81 C 31.06 70.38 29.63 64.12 26.88 59.01 C 25.89 57.30 25.91 55.28 25.67 53.38 C 24.81 51.10 23.13 48.23 25.14 46.05 C 27.72 43.42 30.04 40.48 33.08 38.36 C 34.15 36.69 35.12 34.73 37.10 33.98 C 39.36 32.66 41.96 33.61 44.30 34.10 C 44.66 26.16 38.16 20.37 36.29 13.02 M 38.83 10.50 C 38.63 11.76 37.76 13.12 38.53 14.36 C 40.31 18.78 42.93 22.79 44.93 27.11 C 46.86 30.72 45.46 34.88 46.01 38.74 C 44.60 37.54 43.37 36.07 41.71 35.20 C 39.14 34.34 36.31 35.88 35.11 38.18 C 36.28 42.92 39.16 47.06 41.35 51.39 C 42.32 49.53 43.90 48.60 45.99 48.98 C 45.11 46.14 44.23 43.29 43.72 40.36 C 46.83 42.64 47.19 46.77 48.41 50.15 C 49.31 52.47 47.82 54.63 46.75 56.59 C 46.10 58.69 44.87 60.50 43.24 61.96 C 44.21 64.17 45.26 66.35 46.17 68.58 C 42.42 67.60 42.16 63.28 41.10 60.23 C 36.01 62.95 30.92 59.34 27.29 55.91 C 29.35 59.60 30.80 63.58 32.71 67.34 C 34.25 70.35 37.15 72.24 39.59 74.45 C 42.47 77.41 44.30 81.23 45.61 85.11 C 51.57 84.64 57.31 82.27 62.20 78.90 C 61.12 76.93 60.06 74.96 59.04 72.96 C 55.04 72.60 50.56 73.51 47.00 71.22 C 48.23 71.15 50.69 71.02 51.91 70.95 C 50.55 70.24 49.20 69.50 47.85 68.75 C 51.44 68.65 55.02 68.98 58.60 69.20 C 61.83 60.19 66.12 51.47 72.00 43.89 C 73.44 40.69 76.22 38.58 78.69 36.23 C 76.28 35.34 73.55 34.86 71.22 36.24 C 65.89 39.10 62.33 44.27 57.34 47.61 C 57.57 45.99 58.52 44.69 59.44 43.41 C 55.76 35.35 53.43 26.38 47.32 19.67 C 44.53 16.56 43.35 11.65 38.83 10.50 M 29.61 44.32 C 32.83 48.10 35.10 52.56 38.24 56.40 C 39.21 55.52 40.17 54.64 41.15 53.77 C 38.06 49.54 35.87 44.79 33.67 40.06 C 32.05 41.21 30.69 42.66 29.61 44.32 M 26.14 49.91 C 28.09 55.34 33.28 59.49 39.12 59.76 C 38.38 58.76 37.62 57.77 36.88 56.77 C 35.60 57.00 34.32 57.22 33.04 57.43 L 35.57 55.93 C 33.11 52.29 30.87 48.51 28.07 45.12 C 26.93 46.45 25.39 47.96 26.14 49.91 M 41.56 51.65 C 42.80 52.90 44.06 54.14 45.35 55.34 C 46.72 53.52 47.07 51.30 47.03 49.06 C 45.16 49.81 43.35 50.71 41.56 51.65 M 41.64 54.60 C 41.12 55.25 40.09 56.54 39.57 57.18 C 40.72 58.10 41.87 59.00 43.02 59.90 C 43.69 58.91 44.37 57.92 45.04 56.94 C 43.91 56.16 42.77 55.38 41.64 54.60 Z" />
</g>
</svg>
