<?xml version="1.0" encoding="UTF-8" ?>
<!DOCTYPE svg PUBLIC "-//W3C//DTD SVG 1.1//EN" "http://www.w3.org/Graphics/SVG/1.1/DTD/svg11.dtd">
<svg width="100pt" height="100pt" viewBox="0 0 100 100" version="1.1" xmlns="http://www.w3.org/2000/svg">
<g id="#ffffffff">
<path fill="#ffffff" opacity="1.00" d=" M 0.00 0.00 L 100.00 0.00 L 100.00 100.00 L 0.00 100.00 L 0.00 0.00 M 40.94 27.38 C 35.86 27.83 31.75 31.05 27.41 33.38 C 23.84 35.36 19.45 36.01 16.68 39.24 C 18.66 39.04 20.53 38.35 22.37 37.62 C 23.86 43.48 26.72 49.59 32.35 52.49 C 31.44 53.93 30.33 55.24 29.37 56.66 C 34.90 55.79 35.61 48.49 40.93 47.22 C 42.90 47.01 45.09 46.03 47.00 46.81 C 48.92 49.58 48.94 53.34 51.24 55.87 C 53.33 56.90 55.65 57.34 57.85 58.08 C 58.73 62.64 58.89 67.28 59.20 71.90 C 59.65 75.27 63.45 76.33 66.26 75.19 C 69.23 75.65 71.67 74.08 73.55 71.95 C 74.15 72.04 75.35 72.22 75.95 72.31 C 78.19 70.81 80.03 68.69 80.28 65.89 C 81.70 57.68 81.89 49.27 81.76 40.95 C 81.88 37.32 79.62 34.08 76.64 32.21 C 70.00 27.71 61.74 27.27 54.06 26.05 C 49.66 26.13 45.33 27.06 40.94 27.38 Z" />
<path fill="#ffffff" opacity="1.00" d=" M 39.12 29.52 C 45.67 28.73 52.35 27.18 58.94 28.60 C 65.71 29.47 73.23 30.76 78.15 35.94 C 80.81 38.61 79.79 42.65 80.00 46.02 C 80.22 52.52 79.41 58.97 78.77 65.42 C 77.16 65.07 75.55 64.76 73.93 64.49 C 75.33 58.40 75.21 52.10 74.85 45.90 C 74.59 43.73 74.61 41.19 72.59 39.80 C 72.86 47.31 73.80 54.91 72.47 62.38 C 71.89 65.22 71.91 68.13 71.96 71.01 C 70.56 72.33 68.93 73.45 66.94 73.56 C 66.97 72.06 67.00 70.55 67.04 69.05 C 68.32 69.12 69.59 69.02 70.84 68.77 C 70.44 67.29 68.46 68.03 67.36 67.62 C 67.77 61.42 67.97 55.14 66.85 48.99 C 66.37 46.45 66.42 43.86 66.46 41.28 C 65.37 41.90 64.53 42.85 64.63 44.18 C 64.46 47.51 65.58 50.72 65.84 54.02 C 66.19 58.78 65.91 63.55 65.66 68.31 C 64.06 68.18 62.45 68.11 60.85 68.11 C 60.38 62.39 59.31 56.74 58.99 51.00 C 58.48 47.86 58.72 44.01 55.87 41.89 C 56.07 44.37 56.55 46.82 56.98 49.28 C 55.38 51.06 54.41 53.26 53.67 55.51 C 49.59 51.98 49.42 46.13 48.15 41.25 C 47.61 42.40 47.08 43.55 46.57 44.71 C 44.19 44.83 41.71 45.51 39.37 44.81 C 37.01 43.55 36.22 40.82 35.03 38.62 C 33.34 41.72 36.02 44.38 38.14 46.34 C 36.48 47.90 34.87 49.51 33.31 51.17 C 28.27 48.20 25.32 42.69 24.15 37.11 C 29.20 34.72 33.75 31.17 39.12 29.52 Z" />
<path fill="#ffffff" opacity="1.00" d=" M 57.49 56.75 C 55.93 55.10 55.96 53.14 57.24 51.35 C 57.40 53.15 57.49 54.95 57.49 56.75 Z" />
<path fill="#ffffff" opacity="1.00" d=" M 73.39 65.63 C 75.05 65.90 76.72 66.17 78.38 66.44 C 77.86 68.48 76.32 69.90 74.48 70.78 C 74.10 69.07 73.74 67.35 73.39 65.63 Z" />
<path fill="#ffffff" opacity="1.00" d=" M 60.34 69.51 C 62.06 69.43 63.78 69.37 65.51 69.34 C 64.96 70.86 65.12 75.26 62.41 73.70 C 61.17 72.67 61.04 70.88 60.34 69.51 Z" />
</g>
<g id="#646465ff">
<path fill="#646465" opacity="1.00" d=" M 40.94 27.38 C 45.33 27.06 49.66 26.13 54.06 26.05 C 61.74 27.27 70.00 27.71 76.64 32.21 C 79.62 34.08 81.88 37.32 81.76 40.95 C 81.89 49.27 81.70 57.68 80.28 65.89 C 80.03 68.69 78.19 70.81 75.95 72.31 C 75.35 72.22 74.15 72.04 73.55 71.95 C 71.67 74.08 69.23 75.65 66.26 75.19 C 63.45 76.33 59.65 75.27 59.20 71.90 C 58.89 67.28 58.73 62.64 57.85 58.08 C 55.65 57.34 53.33 56.90 51.24 55.87 C 48.94 53.34 48.92 49.58 47.00 46.81 C 45.09 46.03 42.90 47.01 40.93 47.22 C 35.61 48.49 34.90 55.79 29.37 56.66 C 30.33 55.24 31.44 53.93 32.35 52.49 C 26.72 49.59 23.86 43.48 22.37 37.62 C 20.53 38.35 18.66 39.04 16.68 39.24 C 19.45 36.01 23.84 35.36 27.41 33.38 C 31.75 31.05 35.86 27.83 40.94 27.38 M 39.12 29.52 C 33.75 31.17 29.20 34.72 24.15 37.11 C 25.32 42.69 28.27 48.20 33.31 51.17 C 34.87 49.51 36.48 47.90 38.14 46.34 C 36.02 44.38 33.34 41.72 35.03 38.62 C 36.22 40.82 37.01 43.55 39.37 44.81 C 41.71 45.51 44.19 44.83 46.57 44.71 C 47.08 43.55 47.61 42.40 48.15 41.25 C 49.42 46.13 49.59 51.98 53.67 55.51 C 54.41 53.26 55.38 51.06 56.98 49.28 C 56.55 46.82 56.07 44.37 55.87 41.89 C 58.72 44.01 58.48 47.86 58.99 51.00 C 59.31 56.74 60.38 62.39 60.85 68.11 C 62.45 68.11 64.06 68.18 65.66 68.31 C 65.91 63.55 66.19 58.78 65.84 54.02 C 65.58 50.72 64.46 47.51 64.63 44.18 C 64.53 42.85 65.37 41.90 66.46 41.28 C 66.42 43.86 66.37 46.45 66.85 48.99 C 67.97 55.14 67.77 61.42 67.36 67.62 C 68.46 68.03 70.44 67.29 70.84 68.77 C 69.59 69.02 68.32 69.12 67.04 69.05 C 67.00 70.55 66.97 72.06 66.94 73.56 C 68.93 73.45 70.56 72.33 71.96 71.01 C 71.91 68.13 71.89 65.22 72.47 62.38 C 73.80 54.91 72.86 47.31 72.59 39.80 C 74.61 41.19 74.59 43.73 74.85 45.90 C 75.21 52.10 75.33 58.40 73.93 64.49 C 75.55 64.76 77.16 65.07 78.77 65.42 C 79.41 58.97 80.22 52.52 80.00 46.02 C 79.79 42.65 80.81 38.61 78.15 35.94 C 73.23 30.76 65.71 29.47 58.94 28.60 C 52.35 27.18 45.67 28.73 39.12 29.52 M 57.49 56.75 C 57.49 54.95 57.40 53.15 57.24 51.35 C 55.96 53.14 55.93 55.10 57.49 56.75 M 73.39 65.63 C 73.74 67.35 74.10 69.07 74.48 70.78 C 76.32 69.90 77.86 68.48 78.38 66.44 C 76.72 66.17 75.05 65.90 73.39 65.63 M 60.34 69.51 C 61.04 70.88 61.17 72.67 62.41 73.70 C 65.12 75.26 64.96 70.86 65.51 69.34 C 63.78 69.37 62.06 69.43 60.34 69.51 Z" />
</g>
</svg>
