<?xml version="1.0" encoding="UTF-8" ?>
<!DOCTYPE svg PUBLIC "-//W3C//DTD SVG 1.1//EN" "http://www.w3.org/Graphics/SVG/1.1/DTD/svg11.dtd">
<svg width="100pt" height="100pt" viewBox="0 0 100 100" version="1.1" xmlns="http://www.w3.org/2000/svg">
<g id="#ffffffff">
<path fill="#ffffff" opacity="1.00" d=" M 0.00 0.00 L 100.00 0.00 L 100.00 100.00 L 0.00 100.00 L 0.00 0.00 M 40.08 28.93 C 33.50 29.41 28.83 34.72 22.75 36.68 C 20.59 37.83 16.93 38.03 16.79 41.11 C 18.45 40.42 20.11 39.70 21.72 38.89 C 23.16 44.96 26.24 51.28 32.11 54.11 C 30.82 55.23 29.55 56.44 28.94 58.08 C 33.39 57.34 34.50 52.23 37.90 49.94 C 40.07 48.09 43.68 48.34 45.63 50.34 C 47.47 53.42 47.61 57.28 49.71 60.22 C 51.50 62.33 54.37 61.57 56.37 60.26 C 57.43 60.77 58.49 61.29 59.55 61.81 C 60.81 62.89 62.30 63.60 63.95 63.86 C 64.09 68.22 63.68 73.04 66.06 76.91 C 68.14 79.56 71.58 77.36 73.15 75.29 C 75.79 75.37 78.49 73.92 79.15 71.22 C 81.25 62.97 81.10 54.38 81.23 45.92 C 81.10 42.82 81.68 39.21 79.36 36.72 C 74.23 30.46 65.68 29.24 58.14 28.22 C 52.15 26.69 46.08 28.42 40.08 28.93 Z" />
<path fill="#ffffff" opacity="1.00" d=" M 41.07 30.55 C 45.36 30.25 49.61 29.17 53.92 29.32 C 61.86 30.76 70.92 30.90 77.10 36.83 C 79.98 39.38 79.48 43.51 79.53 46.97 C 79.34 54.17 79.22 61.40 78.04 68.51 C 76.52 67.74 74.75 66.10 73.03 67.72 C 74.76 62.58 73.85 57.16 73.37 51.91 C 73.00 48.48 73.16 45.01 72.79 41.58 C 70.38 43.23 71.61 46.54 71.45 48.97 C 72.31 56.25 71.96 63.57 71.46 70.87 C 69.67 70.40 67.67 69.57 66.50 71.53 C 68.42 71.77 70.38 71.78 72.27 71.31 C 71.72 73.37 70.98 76.27 68.33 76.31 C 65.62 74.67 66.20 70.73 65.99 67.99 C 66.38 59.83 65.05 51.73 65.29 43.59 C 64.96 43.30 64.29 42.72 63.95 42.43 C 63.36 46.06 63.44 49.75 63.90 53.39 C 61.42 54.97 59.90 57.47 59.41 60.35 C 55.22 56.75 56.43 50.44 55.94 45.52 C 55.52 45.73 54.67 46.14 54.24 46.34 C 54.10 50.43 54.74 54.50 55.58 58.49 C 54.22 59.42 52.37 60.82 51.08 58.96 C 48.57 54.24 46.82 48.89 46.95 43.48 C 45.74 44.59 45.42 46.18 45.22 47.75 C 42.66 47.07 39.70 47.14 37.60 45.31 C 36.12 43.74 35.48 41.54 33.78 40.15 C 33.32 43.37 35.28 45.89 37.73 47.66 C 36.01 49.19 34.39 50.82 32.85 52.51 C 27.43 49.85 24.76 43.97 23.41 38.40 C 29.53 36.27 34.37 31.00 41.07 30.55 Z" />
<path fill="#ffffff" opacity="1.00" d=" M 61.06 60.16 C 61.87 58.49 62.78 56.87 63.92 55.39 C 63.98 57.71 63.97 60.03 63.84 62.34 C 62.77 61.81 61.88 61.02 61.06 60.16 Z" />
<path fill="#ffffff" opacity="1.00" d=" M 74.14 73.88 C 73.62 71.89 73.29 69.86 73.04 67.82 C 74.82 68.43 76.61 69.03 78.42 69.56 C 77.28 71.27 75.91 72.82 74.14 73.88 Z" />
</g>
<g id="#636363ff">
<path fill="#636363" opacity="1.00" d=" M 40.08 28.93 C 46.08 28.42 52.15 26.69 58.14 28.22 C 65.68 29.24 74.23 30.46 79.36 36.72 C 81.68 39.21 81.10 42.82 81.23 45.92 C 81.10 54.38 81.25 62.97 79.15 71.22 C 78.49 73.92 75.79 75.37 73.15 75.29 C 71.58 77.36 68.14 79.56 66.06 76.91 C 63.68 73.04 64.09 68.22 63.95 63.86 C 62.30 63.60 60.81 62.89 59.55 61.81 C 58.49 61.29 57.43 60.77 56.37 60.26 C 54.37 61.57 51.50 62.33 49.71 60.22 C 47.61 57.28 47.47 53.42 45.63 50.34 C 43.68 48.34 40.07 48.09 37.90 49.94 C 34.50 52.23 33.39 57.34 28.94 58.08 C 29.55 56.44 30.82 55.23 32.11 54.11 C 26.24 51.28 23.16 44.96 21.72 38.89 C 20.11 39.70 18.45 40.42 16.79 41.11 C 16.93 38.03 20.59 37.83 22.75 36.68 C 28.83 34.72 33.50 29.41 40.08 28.93 M 41.07 30.55 C 34.37 31.00 29.53 36.27 23.41 38.40 C 24.76 43.97 27.43 49.85 32.85 52.51 C 34.39 50.82 36.01 49.19 37.73 47.66 C 35.28 45.89 33.32 43.37 33.78 40.15 C 35.48 41.54 36.12 43.74 37.60 45.31 C 39.70 47.14 42.66 47.07 45.22 47.75 C 45.42 46.18 45.74 44.59 46.95 43.48 C 46.82 48.89 48.57 54.24 51.08 58.96 C 52.37 60.82 54.22 59.42 55.58 58.49 C 54.74 54.50 54.10 50.43 54.24 46.34 C 54.67 46.14 55.52 45.73 55.94 45.52 C 56.43 50.44 55.22 56.75 59.41 60.35 C 59.90 57.47 61.42 54.97 63.90 53.39 C 63.44 49.75 63.36 46.06 63.95 42.43 C 64.29 42.72 64.96 43.30 65.29 43.59 C 65.05 51.73 66.38 59.83 65.99 67.99 C 66.20 70.73 65.62 74.67 68.33 76.31 C 70.98 76.27 71.72 73.37 72.27 71.31 C 70.38 71.78 68.42 71.77 66.50 71.53 C 67.67 69.57 69.67 70.40 71.46 70.87 C 71.96 63.57 72.31 56.25 71.45 48.97 C 71.61 46.54 70.38 43.23 72.79 41.58 C 73.16 45.01 73.00 48.48 73.37 51.91 C 73.85 57.16 74.76 62.58 73.03 67.72 C 74.75 66.10 76.52 67.74 78.04 68.51 C 79.22 61.40 79.34 54.17 79.53 46.97 C 79.48 43.51 79.98 39.38 77.10 36.83 C 70.92 30.90 61.86 30.76 53.92 29.32 C 49.61 29.17 45.36 30.25 41.07 30.55 M 61.06 60.16 C 61.88 61.02 62.77 61.81 63.84 62.34 C 63.97 60.03 63.98 57.71 63.92 55.39 C 62.78 56.87 61.87 58.49 61.06 60.16 M 74.14 73.88 C 75.91 72.82 77.28 71.27 78.42 69.56 C 76.61 69.03 74.82 68.43 73.04 67.82 C 73.29 69.86 73.62 71.89 74.14 73.88 Z" />
</g>
</svg>
