<?xml version="1.0" encoding="UTF-8" ?>
<!DOCTYPE svg PUBLIC "-//W3C//DTD SVG 1.1//EN" "http://www.w3.org/Graphics/SVG/1.1/DTD/svg11.dtd">
<svg width="100pt" height="100pt" viewBox="0 0 100 100" version="1.1" xmlns="http://www.w3.org/2000/svg">
<g id="#ffffffff">
<path fill="#ffffff" opacity="1.00" d=" M 0.00 0.00 L 100.00 0.00 L 100.00 100.00 L 0.00 100.00 L 0.00 0.00 M 38.53 22.56 C 33.47 22.94 29.44 26.17 25.17 28.54 C 21.70 30.41 17.38 30.94 14.72 34.07 C 16.73 34.31 18.43 33.19 20.17 32.40 C 21.61 38.44 24.54 44.93 30.51 47.65 C 29.39 48.83 28.27 50.01 27.21 51.25 C 29.84 51.80 31.29 49.29 32.65 47.54 C 34.09 45.19 36.14 43.32 38.43 41.81 C 40.34 42.23 42.63 42.30 43.97 43.94 C 46.20 47.10 45.74 51.68 48.78 54.36 C 50.90 56.27 54.58 53.07 56.12 56.04 C 57.44 58.31 60.08 58.12 62.28 57.45 C 62.50 62.46 61.21 69.83 66.82 72.36 C 68.27 71.35 69.70 70.30 71.08 69.19 C 73.10 69.02 75.42 68.32 76.26 66.28 C 77.91 62.02 78.02 57.40 78.15 52.90 C 78.90 47.00 78.98 41.03 78.66 35.10 C 77.98 30.65 74.32 27.47 70.44 25.67 C 64.71 22.79 58.21 22.46 52.04 21.17 C 47.53 21.32 43.04 22.18 38.53 22.56 M 70.00 75.50 C 70.00 76.07 70.00 77.21 70.00 77.78 C 65.71 79.00 61.57 80.74 57.16 81.49 C 53.32 82.27 49.15 81.79 45.63 83.81 C 46.55 83.88 48.39 84.03 49.32 84.10 C 48.80 85.42 48.27 86.74 47.74 88.06 C 55.99 85.94 64.00 83.14 71.76 79.66 L 72.11 81.29 C 74.48 79.21 76.97 77.25 79.16 74.96 C 76.10 74.94 73.05 75.20 70.00 75.50 Z" />
<path fill="#ffffff" opacity="1.00" d=" M 37.90 24.16 C 43.75 23.93 49.61 22.02 55.45 23.42 C 61.52 24.35 68.02 25.22 72.96 29.19 C 74.97 30.85 77.08 33.10 76.97 35.89 C 77.02 40.92 77.01 45.95 76.97 50.98 C 76.93 54.80 75.56 58.54 76.19 62.38 C 75.26 62.17 74.33 61.96 73.40 61.76 L 73.68 61.00 C 72.99 61.00 71.61 61.00 70.93 61.00 C 72.67 55.41 71.22 49.64 70.95 43.97 L 71.70 44.55 C 70.53 41.80 71.20 38.70 70.90 35.80 C 70.53 36.02 69.79 36.46 69.42 36.68 C 68.84 42.13 70.35 47.54 70.01 53.01 C 70.43 57.21 68.92 61.37 69.76 65.53 C 70.17 67.26 68.69 68.66 68.01 70.12 C 67.35 70.03 66.02 69.84 65.36 69.74 C 62.97 64.11 64.45 57.90 63.97 51.99 C 64.10 47.17 62.39 42.40 63.46 37.61 C 63.11 37.33 62.41 36.78 62.06 36.51 C 61.85 40.11 61.99 43.71 61.90 47.31 C 58.79 48.39 56.86 51.05 55.24 53.75 C 53.89 48.82 54.31 43.71 53.56 38.73 C 51.20 42.43 53.63 46.96 53.03 51.04 C 54.04 53.79 49.68 54.38 48.88 52.10 C 47.02 47.66 45.06 42.99 45.43 38.06 C 45.07 38.02 44.35 37.93 43.98 37.88 C 43.99 38.76 43.99 40.51 44.00 41.38 C 41.46 40.94 38.73 40.85 36.50 39.42 C 34.40 38.14 33.93 35.55 32.89 33.50 C 30.83 36.65 33.93 39.57 36.24 41.38 C 34.37 42.73 32.75 44.37 31.35 46.20 C 26.29 43.99 23.65 38.65 22.15 33.63 C 21.27 31.85 23.39 31.29 24.55 30.65 C 29.09 28.67 32.93 25.08 37.90 24.16 M 65.25 64.07 C 64.82 65.40 67.25 65.90 68.20 65.52 C 68.68 64.14 66.22 63.48 65.25 64.07 Z" />
<path fill="#ffffff" opacity="1.00" d=" M 57.72 56.13 C 56.88 52.77 59.48 50.35 62.02 48.70 C 62.12 51.12 62.15 53.54 62.17 55.96 C 60.68 56.02 59.20 56.08 57.72 56.13 Z" />
<path fill="#ffffff" opacity="1.00" d=" M 71.09 61.74 C 72.81 62.17 74.45 62.95 75.73 64.19 C 74.75 65.47 73.67 66.68 72.51 67.80 C 71.96 66.94 71.46 66.05 70.99 65.14 L 70.96 64.16 C 70.99 63.55 71.06 62.34 71.09 61.74 Z" />
</g>
<g id="#515151ff">
<path fill="#515151" opacity="1.00" d=" M 38.53 22.56 C 43.04 22.18 47.53 21.32 52.04 21.17 C 58.21 22.46 64.71 22.79 70.44 25.67 C 74.32 27.47 77.98 30.65 78.66 35.10 C 78.98 41.03 78.90 47.00 78.15 52.90 C 78.02 57.40 77.91 62.02 76.26 66.28 C 75.42 68.32 73.10 69.02 71.08 69.19 C 69.70 70.30 68.27 71.35 66.82 72.36 C 61.21 69.83 62.50 62.46 62.28 57.45 C 60.08 58.12 57.44 58.31 56.12 56.04 C 54.58 53.07 50.90 56.27 48.78 54.36 C 45.74 51.68 46.20 47.10 43.97 43.94 C 42.63 42.30 40.34 42.23 38.43 41.81 C 36.14 43.32 34.09 45.19 32.65 47.54 C 31.29 49.29 29.84 51.80 27.21 51.25 C 28.27 50.01 29.39 48.83 30.51 47.65 C 24.54 44.93 21.61 38.44 20.17 32.40 C 18.43 33.19 16.73 34.31 14.72 34.07 C 17.38 30.94 21.70 30.41 25.17 28.54 C 29.44 26.17 33.47 22.94 38.53 22.56 M 37.90 24.16 C 32.93 25.08 29.09 28.67 24.55 30.65 C 23.39 31.29 21.27 31.85 22.15 33.63 C 23.65 38.65 26.29 43.99 31.35 46.20 C 32.75 44.37 34.37 42.73 36.24 41.38 C 33.93 39.57 30.83 36.65 32.89 33.50 C 33.93 35.55 34.40 38.14 36.50 39.42 C 38.73 40.85 41.46 40.94 44.00 41.38 C 43.99 40.51 43.99 38.76 43.98 37.88 C 44.35 37.93 45.07 38.02 45.43 38.06 C 45.06 42.99 47.02 47.66 48.88 52.10 C 49.68 54.38 54.04 53.79 53.03 51.04 C 53.63 46.96 51.20 42.43 53.56 38.73 C 54.31 43.71 53.89 48.82 55.24 53.75 C 56.86 51.05 58.79 48.39 61.90 47.31 C 61.99 43.71 61.85 40.11 62.06 36.51 C 62.41 36.78 63.11 37.33 63.46 37.61 C 62.39 42.40 64.10 47.17 63.97 51.99 C 64.45 57.90 62.97 64.11 65.36 69.74 C 66.02 69.84 67.35 70.03 68.01 70.12 C 68.69 68.66 70.17 67.26 69.76 65.53 C 68.92 61.37 70.43 57.21 70.01 53.01 C 70.35 47.54 68.84 42.13 69.42 36.68 C 69.79 36.46 70.53 36.02 70.90 35.80 C 71.20 38.70 70.53 41.80 71.70 44.55 L 70.95 43.97 C 71.22 49.64 72.67 55.41 70.93 61.00 C 71.61 61.00 72.99 61.00 73.68 61.00 L 73.40 61.76 C 74.33 61.96 75.26 62.17 76.19 62.38 C 75.56 58.54 76.93 54.80 76.97 50.98 C 77.01 45.95 77.02 40.92 76.97 35.89 C 77.08 33.10 74.97 30.85 72.96 29.19 C 68.02 25.22 61.52 24.35 55.45 23.42 C 49.61 22.02 43.75 23.93 37.90 24.16 M 57.72 56.13 C 59.20 56.08 60.68 56.02 62.17 55.96 C 62.15 53.54 62.12 51.12 62.02 48.70 C 59.48 50.35 56.88 52.77 57.72 56.13 M 71.09 61.74 C 71.06 62.34 70.99 63.55 70.96 64.16 L 70.99 65.14 C 71.46 66.05 71.96 66.94 72.51 67.80 C 73.67 66.68 74.75 65.47 75.73 64.19 C 74.45 62.95 72.81 62.17 71.09 61.74 Z" />
<path fill="#515151" opacity="1.00" d=" M 65.25 64.07 C 66.22 63.48 68.68 64.14 68.20 65.52 C 67.25 65.90 64.82 65.40 65.25 64.07 Z" />
<path fill="#515151" opacity="1.00" d=" M 70.00 75.50 C 73.05 75.20 76.10 74.94 79.16 74.96 C 76.97 77.25 74.48 79.21 72.11 81.29 L 71.76 79.66 C 64.00 83.14 55.99 85.94 47.74 88.06 C 48.27 86.74 48.80 85.42 49.32 84.10 C 48.39 84.03 46.55 83.88 45.63 83.81 C 49.15 81.79 53.32 82.27 57.16 81.49 C 61.57 80.74 65.71 79.00 70.00 77.78 C 70.00 77.21 70.00 76.07 70.00 75.50 Z" />
</g>
</svg>
