<?xml version="1.0" encoding="UTF-8" ?>
<!DOCTYPE svg PUBLIC "-//W3C//DTD SVG 1.1//EN" "http://www.w3.org/Graphics/SVG/1.1/DTD/svg11.dtd">
<svg width="100pt" height="100pt" viewBox="0 0 100 100" version="1.1" xmlns="http://www.w3.org/2000/svg">
<g id="#fefefeff">
<path fill="#fefefe" opacity="1.00" d=" M 0.00 0.00 L 100.00 0.00 L 100.00 100.00 L 0.00 100.00 L 0.00 0.00 M 46.64 18.85 C 44.80 17.12 41.91 16.05 39.64 17.66 C 37.68 18.57 37.44 20.93 36.75 22.72 C 34.79 22.17 32.02 21.69 30.88 23.88 C 28.90 27.93 32.01 31.99 32.81 35.93 C 32.91 42.65 32.81 49.41 33.20 56.12 C 34.12 64.38 41.68 69.36 43.92 77.05 C 43.94 78.90 41.97 80.09 41.00 81.52 C 41.00 83.03 41.00 84.55 41.00 86.07 C 41.46 86.05 42.38 86.02 42.84 86.01 C 42.99 84.34 41.66 81.24 44.12 80.78 C 48.45 80.96 52.78 81.27 57.11 80.92 C 61.25 80.35 65.05 78.47 68.73 76.60 C 69.27 77.71 69.80 78.82 70.32 79.94 C 70.86 80.16 71.93 80.61 72.47 80.83 C 71.09 76.76 67.83 73.50 67.17 69.18 C 68.07 65.16 69.15 61.13 69.01 56.97 C 68.94 49.71 73.19 43.23 73.32 36.00 C 73.20 31.99 71.47 28.31 70.32 24.54 C 69.49 21.25 68.55 17.47 65.35 15.68 C 63.86 14.40 61.80 15.14 60.04 15.16 C 56.96 15.86 54.16 13.39 51.08 14.03 C 48.85 14.76 47.75 16.97 46.64 18.85 Z" />
<path fill="#fefefe" opacity="1.00" d=" M 48.48 19.92 C 48.43 16.39 52.00 14.99 55.01 16.03 C 58.87 16.42 56.01 20.69 55.86 23.01 C 53.42 21.99 50.53 21.66 48.48 19.92 Z" />
<path fill="#fefefe" opacity="1.00" d=" M 59.01 17.20 C 60.23 16.78 61.45 16.35 62.67 15.93 C 64.68 17.38 67.10 18.78 67.66 21.41 C 68.93 25.97 70.64 30.41 71.88 34.98 C 72.12 38.61 70.41 42.05 69.69 45.56 C 68.14 50.22 66.86 55.05 67.01 60.01 C 67.20 63.12 66.38 66.12 65.37 69.03 C 65.82 70.54 66.25 72.05 66.75 73.55 C 66.86 74.04 67.07 75.03 67.18 75.52 C 65.64 76.29 64.09 77.05 62.54 77.80 C 57.11 79.43 51.32 80.88 45.77 78.88 C 44.98 73.14 41.58 68.34 37.98 64.01 C 32.75 56.57 35.57 47.19 33.88 38.84 C 35.65 40.10 37.59 41.09 39.68 41.66 C 43.00 40.70 46.54 41.45 49.82 40.37 C 46.64 45.01 45.31 52.14 48.99 56.82 C 49.12 52.05 48.12 47.07 50.15 42.55 C 51.14 41.14 52.04 39.67 52.91 38.18 C 52.04 35.84 51.94 32.83 49.65 31.31 C 46.97 29.47 44.56 27.25 42.80 24.49 C 43.11 23.30 43.18 21.99 43.90 20.95 C 46.04 20.80 47.95 21.84 49.88 22.56 C 48.73 23.87 47.54 25.17 46.42 26.52 C 48.45 26.01 49.90 24.54 51.20 23.02 C 57.95 24.65 62.00 30.62 66.24 35.59 C 66.48 33.50 65.29 31.85 64.16 30.25 C 65.56 30.58 66.96 30.89 68.38 31.12 C 67.60 30.09 66.76 29.12 65.92 28.14 C 65.99 26.50 66.02 24.86 66.00 23.22 C 64.65 25.03 63.98 27.18 63.47 29.34 C 61.40 27.31 59.24 25.37 56.98 23.56 C 57.18 23.19 57.58 22.43 57.78 22.06 C 58.14 20.43 58.57 18.81 59.01 17.20 Z" />
<path fill="#fefefe" opacity="1.00" d=" M 38.80 22.08 C 38.52 19.35 41.63 18.82 43.52 17.99 C 42.77 19.65 41.43 21.13 41.23 23.00 C 41.46 26.12 43.69 28.54 45.87 30.56 C 46.39 31.67 46.88 32.78 47.37 33.90 C 46.54 33.93 44.88 33.98 44.05 34.01 C 43.49 34.51 42.35 35.50 41.79 36.00 C 40.57 31.43 38.62 26.88 38.80 22.08 Z" />
<path fill="#fefefe" opacity="1.00" d=" M 32.05 25.15 C 33.14 23.59 35.22 24.21 36.83 23.92 C 37.72 27.59 38.58 31.28 39.90 34.82 C 37.99 34.79 36.48 35.81 35.21 37.15 C 33.94 33.23 31.64 29.40 32.05 25.15 Z" />
<path fill="#fefefe" opacity="1.00" d=" M 48.43 32.31 C 48.78 32.55 49.49 33.03 49.85 33.27 C 50.39 35.40 50.99 37.52 51.08 39.73 C 49.62 37.49 48.98 34.89 48.43 32.31 Z" />
<path fill="#fefefe" opacity="1.00" d=" M 42.77 38.66 C 41.99 36.50 44.03 34.58 46.16 35.04 C 49.06 34.73 47.62 38.45 47.45 40.14 C 45.88 39.66 44.33 39.15 42.77 38.66 Z" />
<path fill="#fefefe" opacity="1.00" d=" M 35.63 37.77 C 37.02 36.96 38.42 36.15 39.82 35.35 C 40.47 36.85 41.11 38.36 41.72 39.89 C 40.90 39.91 39.26 39.97 38.44 40.00 C 37.73 39.45 36.33 38.33 35.63 37.77 Z" />
</g>
<g id="#5d5d5eff">
<path fill="#5d5d5e" opacity="1.00" d=" M 46.64 18.85 C 47.75 16.97 48.85 14.76 51.08 14.03 C 54.16 13.39 56.96 15.86 60.04 15.16 C 61.80 15.14 63.86 14.40 65.35 15.68 C 68.55 17.47 69.49 21.25 70.32 24.54 C 71.47 28.31 73.20 31.99 73.32 36.00 C 73.19 43.23 68.94 49.71 69.01 56.97 C 69.15 61.13 68.07 65.16 67.17 69.18 C 67.83 73.50 71.09 76.76 72.47 80.83 C 71.93 80.61 70.86 80.16 70.32 79.94 C 69.80 78.82 69.27 77.71 68.73 76.60 C 65.05 78.47 61.25 80.35 57.11 80.92 C 52.78 81.27 48.45 80.96 44.12 80.78 C 41.66 81.24 42.99 84.34 42.84 86.01 C 42.38 86.02 41.46 86.05 41.00 86.07 C 41.00 84.55 41.00 83.03 41.00 81.52 C 41.97 80.09 43.94 78.90 43.92 77.05 C 41.68 69.36 34.12 64.38 33.20 56.12 C 32.81 49.41 32.91 42.65 32.81 35.93 C 32.01 31.99 28.90 27.93 30.88 23.88 C 32.02 21.69 34.79 22.17 36.75 22.72 C 37.44 20.93 37.68 18.57 39.64 17.66 C 41.91 16.05 44.80 17.12 46.64 18.85 M 48.48 19.92 C 50.53 21.66 53.42 21.99 55.86 23.01 C 56.01 20.69 58.87 16.42 55.01 16.03 C 52.00 14.99 48.43 16.39 48.48 19.92 M 59.01 17.20 C 58.57 18.81 58.14 20.43 57.78 22.06 C 57.58 22.43 57.18 23.19 56.98 23.56 C 59.24 25.37 61.40 27.31 63.47 29.34 C 63.98 27.18 64.65 25.03 66.00 23.22 C 66.02 24.86 65.99 26.50 65.92 28.14 C 66.76 29.12 67.60 30.09 68.38 31.12 C 66.96 30.89 65.56 30.58 64.16 30.25 C 65.29 31.85 66.48 33.50 66.24 35.59 C 62.00 30.62 57.95 24.65 51.20 23.02 C 49.90 24.54 48.45 26.01 46.42 26.52 C 47.54 25.17 48.73 23.87 49.88 22.56 C 47.95 21.84 46.04 20.80 43.90 20.95 C 43.18 21.99 43.11 23.30 42.80 24.49 C 44.56 27.25 46.97 29.47 49.65 31.31 C 51.94 32.83 52.04 35.84 52.91 38.18 C 52.04 39.67 51.14 41.14 50.15 42.55 C 48.12 47.07 49.12 52.05 48.99 56.82 C 45.31 52.14 46.64 45.01 49.82 40.37 C 46.54 41.45 43.00 40.70 39.68 41.66 C 37.59 41.09 35.65 40.10 33.88 38.84 C 35.57 47.19 32.75 56.57 37.98 64.01 C 41.58 68.34 44.98 73.14 45.77 78.88 C 51.32 80.88 57.11 79.43 62.54 77.80 C 64.09 77.05 65.64 76.29 67.18 75.52 C 67.07 75.03 66.86 74.04 66.75 73.55 C 66.25 72.05 65.82 70.54 65.37 69.03 C 66.38 66.12 67.20 63.12 67.01 60.01 C 66.86 55.05 68.14 50.22 69.69 45.56 C 70.41 42.05 72.12 38.61 71.88 34.98 C 70.64 30.41 68.93 25.97 67.66 21.41 C 67.10 18.78 64.68 17.38 62.67 15.93 C 61.45 16.35 60.23 16.78 59.01 17.20 M 38.80 22.08 C 38.62 26.88 40.57 31.43 41.79 36.00 C 42.35 35.50 43.49 34.51 44.05 34.01 C 44.88 33.98 46.54 33.93 47.37 33.90 C 46.88 32.78 46.39 31.67 45.87 30.56 C 43.69 28.54 41.46 26.12 41.23 23.00 C 41.43 21.13 42.77 19.65 43.52 17.99 C 41.63 18.82 38.52 19.35 38.80 22.08 M 32.05 25.15 C 31.64 29.40 33.94 33.23 35.21 37.15 C 36.48 35.81 37.99 34.79 39.90 34.82 C 38.58 31.28 37.72 27.59 36.83 23.92 C 35.22 24.21 33.14 23.59 32.05 25.15 M 48.43 32.31 C 48.98 34.89 49.62 37.49 51.08 39.73 C 50.99 37.52 50.39 35.40 49.85 33.27 C 49.49 33.03 48.78 32.55 48.43 32.31 M 42.77 38.66 C 44.33 39.15 45.88 39.66 47.45 40.14 C 47.62 38.45 49.06 34.73 46.16 35.04 C 44.03 34.58 41.99 36.50 42.77 38.66 M 35.63 37.77 C 36.33 38.33 37.73 39.45 38.44 40.00 C 39.26 39.97 40.90 39.91 41.72 39.89 C 41.11 38.36 40.47 36.85 39.82 35.35 C 38.42 36.15 37.02 36.96 35.63 37.77 Z" />
</g>
</svg>
