<?xml version="1.0" encoding="UTF-8" ?>
<!DOCTYPE svg PUBLIC "-//W3C//DTD SVG 1.1//EN" "http://www.w3.org/Graphics/SVG/1.1/DTD/svg11.dtd">
<svg width="100pt" height="100pt" viewBox="0 0 100 100" version="1.1" xmlns="http://www.w3.org/2000/svg">
<g id="#ffffffff">
<path fill="#ffffff" opacity="1.00" d=" M 0.00 0.00 L 100.00 0.00 L 100.00 100.00 L 0.00 100.00 L 0.00 0.00 M 18.18 18.05 C 17.21 19.13 16.69 20.55 17.00 22.00 C 18.47 31.49 24.54 39.51 25.98 48.99 C 27.19 54.88 29.32 60.57 32.10 65.89 C 34.33 70.35 38.99 73.21 40.54 78.06 C 39.42 81.17 38.10 84.55 40.54 87.45 C 40.87 85.69 40.98 83.91 41.09 82.14 C 43.39 82.50 45.75 82.71 48.03 82.10 C 53.86 80.65 59.67 78.54 64.37 74.68 C 65.72 76.81 66.66 79.15 67.58 81.48 C 67.97 80.08 68.60 78.59 67.93 77.16 C 67.31 74.47 63.93 73.52 63.45 70.86 C 63.76 66.59 67.02 63.39 68.91 59.74 C 72.24 54.23 72.37 47.58 74.79 41.71 C 77.10 36.26 76.96 30.24 77.38 24.45 C 77.12 20.86 72.46 21.52 70.84 23.78 C 66.18 27.93 67.04 35.07 62.74 39.41 C 60.46 34.75 60.50 28.28 55.58 25.40 C 52.90 23.61 49.68 24.71 46.97 25.78 C 43.35 24.24 39.57 25.29 36.70 27.79 C 33.78 27.63 31.01 28.36 28.96 30.53 C 26.89 27.30 25.37 23.77 23.55 20.41 C 22.62 18.49 20.27 17.11 18.18 18.05 Z" />
<path fill="#ffffff" opacity="1.00" d=" M 19.18 23.95 C 19.01 22.51 17.91 19.85 19.96 19.28 C 22.84 21.22 23.54 24.87 25.29 27.67 C 29.38 34.27 32.06 41.87 37.77 47.35 C 39.39 48.99 41.78 48.44 43.66 47.67 C 44.94 48.99 46.11 50.64 48.00 51.12 C 49.75 50.65 51.21 49.54 52.85 48.79 C 50.66 51.80 47.81 54.79 47.79 58.76 C 51.08 55.02 53.19 50.23 57.45 47.37 C 60.53 45.47 62.82 42.69 64.86 39.74 C 68.38 35.67 67.77 29.56 71.55 25.64 C 72.53 24.15 74.34 23.94 75.95 23.69 C 75.77 26.07 75.56 28.50 74.31 30.60 C 76.07 34.89 73.63 39.10 72.38 43.16 C 70.75 47.79 70.40 52.82 68.19 57.25 C 66.47 61.05 63.50 64.18 62.09 68.13 C 61.74 70.22 61.96 72.37 61.58 74.46 C 56.10 78.49 49.22 80.32 42.53 81.05 C 42.91 74.89 37.79 70.99 34.54 66.49 C 30.48 59.66 28.17 51.95 26.75 44.17 C 24.64 37.29 20.93 30.97 19.18 23.95 Z" />
<path fill="#ffffff" opacity="1.00" d=" M 37.79 29.17 C 40.01 27.44 43.65 25.66 46.07 27.90 C 47.32 33.06 48.25 38.31 49.70 43.43 C 47.84 43.47 46.05 43.95 44.37 44.70 C 42.52 39.38 39.88 34.39 37.79 29.17 Z" />
<path fill="#ffffff" opacity="1.00" d=" M 47.95 27.23 C 50.80 25.95 54.41 25.68 56.50 28.45 C 59.03 32.18 59.38 36.93 61.69 40.80 C 60.59 42.28 59.42 43.70 58.17 45.05 C 57.56 39.91 59.15 34.05 55.98 29.54 C 55.68 33.76 56.10 37.98 56.26 42.20 C 54.32 41.80 52.53 42.31 51.16 43.74 C 50.62 38.13 48.60 32.81 47.95 27.23 Z" />
<path fill="#ffffff" opacity="1.00" d=" M 30.12 32.36 C 31.51 30.66 33.57 28.88 35.94 29.82 C 37.89 33.56 39.28 37.58 41.37 41.25 C 39.57 41.52 37.91 42.24 36.44 43.31 C 33.97 39.88 31.79 36.25 30.12 32.36 Z" />
<path fill="#ffffff" opacity="1.00" d=" M 36.88 44.51 C 38.46 43.52 40.07 42.60 41.68 41.67 C 42.03 43.06 42.46 44.44 42.74 45.86 C 40.84 48.05 38.56 45.60 36.88 44.51 Z" />
<path fill="#ffffff" opacity="1.00" d=" M 51.04 44.60 C 52.78 43.94 54.51 43.20 56.34 42.77 C 55.92 44.60 55.75 46.85 53.89 47.84 C 52.20 47.65 51.84 45.78 51.04 44.60 Z" />
<path fill="#ffffff" opacity="1.00" d=" M 44.60 45.63 C 46.38 45.13 48.17 44.66 49.96 44.20 C 50.44 46.57 50.29 49.26 47.26 49.31 C 46.36 48.10 45.47 46.87 44.60 45.63 Z" />
</g>
<g id="#666666ff">
<path fill="#666666" opacity="1.00" d=" M 18.18 18.05 C 20.27 17.11 22.62 18.49 23.55 20.41 C 25.37 23.77 26.89 27.30 28.96 30.53 C 31.01 28.36 33.78 27.63 36.70 27.79 C 39.57 25.29 43.35 24.24 46.97 25.78 C 49.68 24.71 52.90 23.61 55.58 25.40 C 60.50 28.28 60.46 34.75 62.74 39.41 C 67.04 35.07 66.18 27.93 70.84 23.78 C 72.46 21.52 77.12 20.86 77.38 24.45 C 76.96 30.24 77.10 36.26 74.79 41.71 C 72.37 47.58 72.24 54.23 68.91 59.74 C 67.02 63.39 63.76 66.59 63.45 70.86 C 63.93 73.52 67.31 74.47 67.93 77.16 C 68.60 78.59 67.97 80.08 67.58 81.48 C 66.66 79.15 65.72 76.81 64.37 74.68 C 59.67 78.54 53.86 80.65 48.03 82.10 C 45.75 82.71 43.39 82.50 41.09 82.14 C 40.98 83.91 40.87 85.69 40.54 87.45 C 38.10 84.55 39.42 81.17 40.54 78.06 C 38.99 73.21 34.33 70.35 32.10 65.89 C 29.32 60.57 27.19 54.88 25.98 48.99 C 24.54 39.51 18.47 31.49 17.00 22.00 C 16.69 20.55 17.21 19.13 18.18 18.05 M 19.18 23.95 C 20.93 30.97 24.64 37.29 26.75 44.17 C 28.17 51.95 30.48 59.66 34.54 66.49 C 37.79 70.99 42.91 74.89 42.53 81.05 C 49.22 80.32 56.10 78.49 61.58 74.46 C 61.96 72.37 61.74 70.22 62.09 68.13 C 63.50 64.18 66.47 61.05 68.19 57.25 C 70.40 52.82 70.75 47.79 72.38 43.16 C 73.63 39.10 76.07 34.89 74.31 30.60 C 75.56 28.50 75.77 26.07 75.95 23.69 C 74.34 23.94 72.53 24.15 71.55 25.64 C 67.77 29.56 68.38 35.67 64.86 39.74 C 62.82 42.69 60.53 45.47 57.45 47.37 C 53.19 50.23 51.08 55.02 47.79 58.76 C 47.81 54.79 50.66 51.80 52.85 48.79 C 51.21 49.54 49.75 50.65 48.00 51.12 C 46.11 50.64 44.94 48.99 43.66 47.67 C 41.78 48.44 39.39 48.99 37.77 47.35 C 32.06 41.87 29.38 34.27 25.29 27.67 C 23.54 24.87 22.84 21.22 19.96 19.28 C 17.91 19.85 19.01 22.51 19.18 23.95 M 37.79 29.17 C 39.88 34.39 42.52 39.38 44.37 44.70 C 46.05 43.95 47.84 43.47 49.70 43.43 C 48.25 38.31 47.32 33.06 46.07 27.90 C 43.65 25.66 40.01 27.44 37.79 29.17 M 47.95 27.23 C 48.60 32.81 50.62 38.13 51.16 43.74 C 52.53 42.31 54.32 41.80 56.26 42.20 C 56.10 37.98 55.68 33.76 55.98 29.54 C 59.15 34.05 57.56 39.91 58.17 45.05 C 59.42 43.70 60.59 42.28 61.69 40.80 C 59.38 36.93 59.03 32.18 56.50 28.45 C 54.41 25.68 50.80 25.95 47.95 27.23 M 30.12 32.36 C 31.79 36.25 33.97 39.88 36.44 43.31 C 37.91 42.24 39.57 41.52 41.37 41.25 C 39.28 37.58 37.89 33.56 35.94 29.82 C 33.57 28.88 31.51 30.66 30.12 32.36 M 36.88 44.51 C 38.56 45.60 40.84 48.05 42.74 45.86 C 42.46 44.44 42.03 43.06 41.68 41.67 C 40.07 42.60 38.46 43.52 36.88 44.51 M 51.04 44.60 C 51.84 45.78 52.20 47.65 53.89 47.84 C 55.75 46.85 55.92 44.60 56.34 42.77 C 54.51 43.20 52.78 43.94 51.04 44.60 M 44.60 45.63 C 45.47 46.87 46.36 48.10 47.26 49.31 C 50.29 49.26 50.44 46.57 49.96 44.20 C 48.17 44.66 46.38 45.13 44.60 45.63 Z" />
</g>
</svg>
