<?xml version="1.0" encoding="UTF-8" ?>
<!DOCTYPE svg PUBLIC "-//W3C//DTD SVG 1.1//EN" "http://www.w3.org/Graphics/SVG/1.1/DTD/svg11.dtd">
<svg width="100pt" height="100pt" viewBox="0 0 100 100" version="1.1" xmlns="http://www.w3.org/2000/svg">
<g id="#ffffffff">
<path fill="#ffffff" opacity="1.00" d=" M 0.00 0.00 L 100.00 0.00 L 100.00 100.00 L 0.00 100.00 L 0.00 0.00 M 65.79 24.78 C 61.31 24.92 56.82 24.96 52.34 25.02 C 51.95 25.48 51.17 26.40 50.78 26.86 C 48.61 26.99 46.17 26.67 44.45 28.31 C 41.83 30.94 37.22 30.01 35.19 33.40 C 31.75 38.49 32.00 45.15 32.05 51.06 C 33.83 59.70 38.44 67.52 40.58 76.08 C 39.65 78.67 37.59 80.84 37.72 83.76 C 38.74 82.50 39.75 81.22 40.63 79.86 C 48.48 79.49 56.30 78.69 63.98 77.00 C 64.72 79.00 64.56 81.52 66.46 82.90 C 66.42 80.81 66.27 78.72 66.01 76.65 C 62.73 74.96 62.99 71.05 62.99 67.90 C 62.68 64.65 65.73 62.69 67.58 60.49 C 71.43 56.67 74.04 51.73 75.41 46.51 C 76.50 43.04 74.57 39.53 75.19 36.01 C 76.54 30.46 74.32 24.96 73.32 19.51 C 69.78 19.46 67.49 22.00 65.79 24.78 Z" />
<path fill="#ffffff" opacity="1.00" d=" M 71.04 21.22 C 71.53 21.47 72.51 21.97 73.00 22.22 C 73.00 23.66 73.00 25.11 73.00 26.55 C 72.23 27.31 71.47 28.07 70.71 28.84 C 71.54 28.80 73.19 28.73 74.02 28.69 C 74.02 32.78 73.24 36.87 73.81 40.95 C 74.66 46.87 71.86 52.68 68.22 57.17 C 65.89 60.18 62.33 62.41 61.20 66.21 C 60.84 69.40 61.78 72.57 62.12 75.73 C 55.54 76.90 48.91 77.99 42.21 78.03 C 42.06 75.96 42.11 73.81 41.21 71.89 C 39.37 67.34 37.83 62.68 35.91 58.16 C 34.16 54.09 33.09 49.60 33.71 45.16 C 34.20 41.11 34.36 36.59 37.39 33.48 C 38.66 31.95 40.76 32.18 42.52 31.88 C 44.37 36.10 46.16 40.51 46.16 45.19 C 45.23 47.13 43.62 45.84 42.41 44.98 C 43.44 43.88 44.49 42.80 45.56 41.73 C 44.25 42.19 42.95 42.66 41.65 43.15 C 40.55 41.13 39.49 39.08 38.60 36.96 C 38.14 37.00 37.23 37.09 36.77 37.13 C 38.46 41.12 40.69 44.84 43.18 48.38 C 44.35 47.93 45.55 47.56 46.78 47.27 C 48.93 48.78 51.34 48.87 53.64 47.65 C 54.02 47.81 54.78 48.15 55.15 48.32 C 53.24 50.53 51.36 52.86 50.55 55.73 C 54.12 53.27 56.37 49.28 60.33 47.31 C 62.22 46.86 64.89 46.69 65.22 44.25 C 66.34 38.29 67.29 32.20 67.08 26.11 C 68.23 24.35 69.55 22.71 71.04 21.22 Z" />
<path fill="#ffffff" opacity="1.00" d=" M 52.20 28.13 C 53.27 25.60 55.88 26.08 58.05 26.60 C 57.71 33.27 57.59 39.96 58.78 46.56 C 57.66 46.82 56.52 47.04 55.38 47.22 C 54.87 46.13 54.35 45.03 53.84 43.94 C 55.04 43.45 56.23 42.97 57.44 42.50 C 57.32 42.25 57.10 41.74 56.98 41.49 C 56.07 41.75 55.16 42.00 54.24 42.26 C 53.75 37.53 51.74 32.90 52.20 28.13 Z" />
<path fill="#ffffff" opacity="1.00" d=" M 60.08 26.53 C 61.78 26.28 63.49 26.08 65.20 25.91 C 66.03 32.07 64.02 38.13 63.83 44.26 C 62.69 44.63 61.51 45.70 60.36 44.75 C 60.25 44.08 60.02 42.75 59.91 42.08 C 61.06 41.30 62.33 40.73 63.50 40.00 C 62.54 39.99 60.63 39.97 59.67 39.96 C 59.27 35.48 59.61 30.99 60.08 26.53 Z" />
<path fill="#ffffff" opacity="1.00" d=" M 43.91 30.93 C 45.64 29.33 47.82 28.51 50.12 28.16 C 50.89 34.09 52.27 39.93 52.75 45.92 C 51.22 46.68 49.03 47.78 48.11 45.51 C 47.24 43.59 49.85 43.18 50.95 42.23 C 49.82 42.05 48.70 41.84 47.59 41.60 C 46.61 37.96 45.61 34.31 43.91 30.93 Z" />
</g>
<g id="#636365ff">
<path fill="#636365" opacity="1.00" d=" M 65.79 24.78 C 67.49 22.00 69.78 19.46 73.32 19.51 C 74.32 24.96 76.54 30.46 75.19 36.01 C 74.57 39.53 76.50 43.04 75.41 46.51 C 74.04 51.73 71.43 56.67 67.58 60.49 C 65.73 62.69 62.68 64.65 62.99 67.90 C 62.99 71.05 62.73 74.96 66.01 76.65 C 66.27 78.72 66.42 80.81 66.46 82.90 C 64.56 81.52 64.72 79.00 63.98 77.00 C 56.30 78.69 48.48 79.49 40.63 79.86 C 39.75 81.22 38.74 82.50 37.72 83.76 C 37.59 80.84 39.65 78.67 40.58 76.08 C 38.44 67.52 33.83 59.70 32.05 51.06 C 32.00 45.15 31.75 38.49 35.19 33.40 C 37.22 30.01 41.83 30.94 44.45 28.31 C 46.17 26.67 48.61 26.99 50.78 26.86 C 51.17 26.40 51.95 25.48 52.34 25.02 C 56.82 24.96 61.31 24.92 65.79 24.78 M 71.04 21.22 C 69.55 22.71 68.23 24.35 67.08 26.11 C 67.29 32.20 66.34 38.29 65.22 44.25 C 64.89 46.69 62.22 46.86 60.33 47.31 C 56.37 49.28 54.12 53.27 50.55 55.73 C 51.36 52.86 53.24 50.53 55.15 48.32 C 54.78 48.15 54.02 47.81 53.64 47.65 C 51.34 48.87 48.93 48.78 46.78 47.27 C 45.55 47.56 44.35 47.93 43.18 48.38 C 40.69 44.84 38.46 41.12 36.77 37.13 C 37.23 37.09 38.14 37.00 38.60 36.96 C 39.49 39.08 40.55 41.13 41.65 43.15 C 42.95 42.66 44.25 42.19 45.56 41.73 C 44.49 42.80 43.44 43.88 42.41 44.98 C 43.62 45.84 45.23 47.13 46.16 45.19 C 46.16 40.51 44.37 36.10 42.52 31.88 C 40.76 32.18 38.66 31.95 37.39 33.48 C 34.36 36.59 34.20 41.11 33.71 45.16 C 33.09 49.60 34.16 54.09 35.91 58.16 C 37.83 62.68 39.37 67.34 41.21 71.89 C 42.11 73.81 42.06 75.96 42.21 78.03 C 48.91 77.99 55.54 76.90 62.12 75.73 C 61.78 72.57 60.84 69.40 61.20 66.21 C 62.33 62.41 65.89 60.18 68.22 57.17 C 71.86 52.68 74.66 46.87 73.81 40.95 C 73.24 36.87 74.02 32.78 74.02 28.69 C 73.19 28.73 71.54 28.80 70.71 28.84 C 71.47 28.07 72.23 27.31 73.00 26.55 C 73.00 25.11 73.00 23.66 73.00 22.22 C 72.51 21.97 71.53 21.47 71.04 21.22 M 52.20 28.13 C 51.74 32.90 53.75 37.53 54.24 42.26 C 55.16 42.00 56.07 41.75 56.98 41.49 C 57.10 41.74 57.32 42.25 57.44 42.50 C 56.23 42.97 55.04 43.45 53.84 43.94 C 54.35 45.03 54.87 46.13 55.38 47.22 C 56.52 47.04 57.66 46.82 58.78 46.56 C 57.59 39.96 57.71 33.27 58.05 26.60 C 55.88 26.08 53.27 25.60 52.20 28.13 M 60.08 26.53 C 59.61 30.99 59.27 35.48 59.67 39.96 C 60.63 39.97 62.54 39.99 63.50 40.00 C 62.33 40.73 61.06 41.30 59.91 42.08 C 60.02 42.75 60.25 44.08 60.36 44.75 C 61.51 45.70 62.69 44.63 63.83 44.26 C 64.02 38.13 66.03 32.07 65.20 25.91 C 63.49 26.08 61.78 26.28 60.08 26.53 M 43.91 30.93 C 45.61 34.31 46.61 37.96 47.59 41.60 C 48.70 41.84 49.82 42.05 50.95 42.23 C 49.85 43.18 47.24 43.59 48.11 45.51 C 49.03 47.78 51.22 46.68 52.75 45.92 C 52.27 39.93 50.89 34.09 50.12 28.16 C 47.82 28.51 45.64 29.33 43.91 30.93 Z" />
</g>
</svg>
