<?xml version="1.0" encoding="UTF-8" ?>
<!DOCTYPE svg PUBLIC "-//W3C//DTD SVG 1.1//EN" "http://www.w3.org/Graphics/SVG/1.1/DTD/svg11.dtd">
<svg width="100pt" height="100pt" viewBox="0 0 100 100" version="1.1" xmlns="http://www.w3.org/2000/svg">
<g id="#ffffffff">
<path fill="#ffffff" opacity="1.00" d=" M 0.00 0.00 L 100.00 0.00 L 100.00 100.00 L 0.00 100.00 L 0.00 0.00 M 44.15 14.06 C 42.41 15.82 42.81 18.53 42.41 20.78 C 40.17 20.65 37.59 21.57 37.17 24.05 C 35.96 30.87 35.74 37.84 34.57 44.66 C 33.08 48.98 31.29 53.48 32.14 58.14 C 33.52 65.02 35.59 72.03 40.50 77.27 C 39.55 79.07 38.70 80.94 38.40 82.97 C 39.78 82.95 40.40 81.89 40.89 80.77 C 48.03 81.37 55.59 80.63 62.02 77.28 C 62.74 78.84 63.37 80.44 63.99 82.05 L 64.90 81.03 C 66.39 76.85 60.15 76.22 60.93 72.35 C 64.46 69.25 66.62 64.99 68.99 61.01 C 71.74 55.91 69.27 50.15 69.16 44.76 C 67.53 35.11 66.24 25.17 61.75 16.33 C 60.97 14.76 59.42 13.83 58.12 12.74 C 57.23 13.17 56.34 13.58 55.45 13.99 C 54.33 12.65 53.13 10.58 51.07 10.91 C 48.73 11.89 46.45 13.00 44.15 14.06 Z" />
<path fill="#ffffff" opacity="1.00" d=" M 49.04 13.83 C 51.12 11.80 53.78 13.18 54.08 15.88 C 55.24 22.74 56.48 29.62 57.13 36.56 C 55.39 37.04 53.43 37.87 53.40 40.00 C 53.51 43.97 57.11 46.34 60.11 48.23 C 55.40 50.54 50.83 54.01 49.60 59.41 C 52.49 58.93 52.81 55.49 54.81 53.83 C 56.81 51.33 61.67 51.29 61.63 47.42 C 59.29 44.90 53.59 42.93 55.76 38.52 C 56.54 38.71 58.11 39.09 58.89 39.28 C 58.90 39.99 58.92 41.39 58.93 42.09 C 59.36 41.71 60.24 40.95 60.67 40.57 C 62.73 41.10 64.97 41.20 66.86 42.27 C 68.00 45.77 67.48 49.59 68.37 53.16 C 69.14 56.61 67.83 60.07 65.84 62.86 C 64.07 65.97 61.93 68.84 59.49 71.45 C 58.09 72.92 59.59 74.97 59.82 76.59 C 54.17 78.79 48.07 79.38 42.04 79.07 C 42.03 78.37 42.00 76.97 41.99 76.28 C 37.12 71.00 34.86 63.96 33.84 56.98 C 33.32 52.42 35.32 48.19 36.59 43.94 C 37.43 37.55 37.71 31.07 38.89 24.74 C 38.95 22.87 40.90 22.68 42.35 22.79 C 41.75 29.98 42.38 37.25 41.23 44.38 C 41.66 44.31 42.52 44.15 42.95 44.07 C 44.27 35.43 43.59 26.58 44.39 17.89 C 44.30 16.02 45.84 15.01 47.25 14.15 C 48.72 23.47 48.83 33.03 48.96 42.47 C 51.84 40.47 50.56 36.82 50.53 33.92 C 49.76 27.24 50.52 20.42 49.04 13.83 Z" />
<path fill="#ffffff" opacity="1.00" d=" M 55.84 15.77 C 56.90 15.64 58.56 14.19 59.22 15.77 C 63.83 23.04 65.14 31.81 66.69 40.15 C 64.07 39.69 61.54 38.88 59.13 37.80 C 58.28 30.42 57.09 23.09 55.84 15.77 Z" />
</g>
<g id="#616162ff">
<path fill="#616162" opacity="1.00" d=" M 44.15 14.06 C 46.45 13.00 48.73 11.89 51.07 10.91 C 53.13 10.58 54.33 12.65 55.45 13.99 C 56.34 13.58 57.23 13.17 58.12 12.74 C 59.42 13.83 60.97 14.76 61.75 16.33 C 66.24 25.17 67.53 35.11 69.16 44.76 C 69.27 50.15 71.74 55.91 68.99 61.01 C 66.62 64.99 64.46 69.25 60.93 72.35 C 60.15 76.22 66.39 76.85 64.90 81.03 L 63.99 82.05 C 63.37 80.44 62.74 78.84 62.02 77.28 C 55.59 80.63 48.03 81.37 40.89 80.77 C 40.40 81.89 39.78 82.95 38.40 82.97 C 38.70 80.94 39.55 79.07 40.50 77.27 C 35.59 72.03 33.52 65.02 32.14 58.14 C 31.29 53.48 33.08 48.98 34.57 44.66 C 35.74 37.84 35.96 30.87 37.17 24.05 C 37.59 21.57 40.17 20.65 42.41 20.78 C 42.81 18.53 42.41 15.82 44.15 14.06 M 49.04 13.83 C 50.52 20.42 49.76 27.24 50.53 33.92 C 50.56 36.82 51.84 40.47 48.96 42.47 C 48.83 33.03 48.72 23.47 47.25 14.15 C 45.84 15.01 44.30 16.02 44.39 17.89 C 43.59 26.58 44.27 35.43 42.95 44.07 C 42.52 44.15 41.66 44.31 41.23 44.38 C 42.38 37.25 41.75 29.98 42.35 22.79 C 40.90 22.68 38.95 22.87 38.89 24.74 C 37.71 31.07 37.43 37.55 36.59 43.94 C 35.32 48.19 33.32 52.42 33.84 56.98 C 34.86 63.96 37.12 71.00 41.99 76.28 C 42.00 76.97 42.03 78.37 42.04 79.07 C 48.07 79.38 54.17 78.79 59.82 76.59 C 59.59 74.97 58.09 72.92 59.49 71.45 C 61.93 68.84 64.07 65.97 65.84 62.86 C 67.83 60.07 69.14 56.61 68.37 53.16 C 67.48 49.59 68.00 45.77 66.86 42.27 C 64.97 41.20 62.73 41.10 60.67 40.57 C 60.24 40.95 59.36 41.71 58.93 42.09 C 58.92 41.39 58.90 39.99 58.89 39.28 C 58.11 39.09 56.54 38.71 55.76 38.52 C 53.59 42.93 59.29 44.90 61.63 47.42 C 61.67 51.29 56.81 51.33 54.81 53.83 C 52.81 55.49 52.49 58.93 49.60 59.41 C 50.83 54.01 55.40 50.54 60.11 48.23 C 57.11 46.34 53.51 43.97 53.40 40.00 C 53.43 37.87 55.39 37.04 57.13 36.56 C 56.48 29.62 55.24 22.74 54.08 15.88 C 53.78 13.18 51.12 11.80 49.04 13.83 M 55.84 15.77 C 57.09 23.09 58.28 30.42 59.13 37.80 C 61.54 38.88 64.07 39.69 66.69 40.15 C 65.14 31.81 63.83 23.04 59.22 15.77 C 58.56 14.19 56.90 15.64 55.84 15.77 Z" />
</g>
</svg>
