<?xml version="1.0" encoding="UTF-8" ?>
<!DOCTYPE svg PUBLIC "-//W3C//DTD SVG 1.1//EN" "http://www.w3.org/Graphics/SVG/1.1/DTD/svg11.dtd">
<svg width="100pt" height="100pt" viewBox="0 0 100 100" version="1.1" xmlns="http://www.w3.org/2000/svg">
<g id="#ffffffff">
<path fill="#ffffff" opacity="1.00" d=" M 0.00 0.00 L 100.00 0.00 L 100.00 100.00 L 0.00 100.00 L 0.00 0.00 M 62.93 12.77 C 59.91 19.61 62.68 27.62 59.46 34.42 C 57.47 32.05 55.75 29.20 52.92 27.75 C 48.58 27.91 44.30 28.89 40.05 29.73 C 37.19 30.07 35.60 32.61 34.28 34.86 C 32.84 34.90 31.41 34.97 29.98 35.08 C 28.04 39.09 30.08 43.46 30.67 47.54 C 32.38 51.94 35.04 56.03 35.50 60.85 C 36.02 65.65 39.26 69.36 42.09 73.01 C 44.29 75.81 43.61 79.58 43.91 82.88 C 41.17 83.25 39.98 85.50 39.64 88.03 C 40.05 88.18 40.88 88.48 41.29 88.63 C 41.66 87.37 42.01 86.10 42.31 84.83 C 48.73 88.98 56.92 87.19 63.82 85.29 C 64.46 86.63 65.12 87.95 65.88 89.23 C 66.49 85.54 64.78 82.10 64.30 78.51 C 63.32 72.55 65.01 66.64 66.25 60.86 C 67.75 54.50 67.83 47.90 69.39 41.55 C 71.18 34.11 70.44 26.38 69.74 18.84 C 69.20 16.34 69.24 13.52 67.72 11.35 C 66.14 10.43 63.61 10.92 62.93 12.77 Z" />
<path fill="#ffffff" opacity="1.00" d=" M 63.92 15.00 C 64.04 13.46 65.54 12.98 66.69 12.35 C 68.69 22.03 69.90 32.24 67.50 41.96 C 65.93 49.19 65.71 56.65 63.76 63.80 C 62.03 70.30 61.98 77.12 63.40 83.69 C 57.55 85.30 51.26 86.34 45.28 84.82 C 45.48 81.27 45.78 77.62 44.81 74.16 C 43.39 71.13 40.75 68.90 39.12 65.99 C 37.10 62.70 37.28 58.68 35.96 55.14 C 34.71 51.16 31.66 47.78 31.87 43.40 C 33.12 42.58 34.38 41.77 35.64 40.95 C 34.52 41.17 32.30 41.62 31.19 41.84 C 31.11 40.03 31.00 38.23 30.92 36.42 C 32.60 36.74 34.68 36.74 35.66 38.42 C 38.56 42.55 39.90 47.76 43.74 51.25 C 46.38 54.69 52.70 52.34 53.60 48.51 C 51.16 49.28 48.76 51.70 46.10 50.93 C 42.57 47.90 39.65 43.61 39.02 38.94 C 41.24 39.16 41.14 42.10 42.58 43.38 C 43.29 44.64 44.90 43.74 46.04 43.92 C 43.87 42.33 42.33 40.16 41.73 37.53 C 42.38 37.55 43.68 37.60 44.33 37.62 C 45.04 40.33 46.79 44.94 50.37 42.74 C 48.26 41.71 46.89 39.88 46.02 37.76 C 46.69 37.58 48.03 37.23 48.70 37.06 C 49.81 39.04 51.75 44.04 54.48 41.03 C 51.87 40.00 50.96 37.50 50.11 35.09 C 47.16 35.87 44.09 36.07 41.05 35.77 C 40.05 36.50 39.10 37.31 38.11 38.04 C 37.22 37.41 36.36 36.73 35.54 36.01 C 36.80 34.33 37.79 31.99 40.05 31.49 C 44.14 30.64 48.32 30.22 52.38 29.21 C 54.96 31.49 57.10 34.18 59.06 37.00 C 57.71 38.41 54.33 40.05 56.07 42.37 C 57.41 41.02 58.81 39.73 60.26 38.49 C 60.83 35.59 62.00 32.88 62.93 30.09 C 63.43 25.08 62.42 19.89 63.92 15.00 Z" />
</g>
<g id="#616263ff">
<path fill="#616263" opacity="1.00" d=" M 62.93 12.77 C 63.61 10.92 66.14 10.43 67.72 11.35 C 69.24 13.52 69.20 16.34 69.74 18.84 C 70.44 26.38 71.18 34.11 69.39 41.55 C 67.83 47.90 67.75 54.50 66.25 60.86 C 65.01 66.64 63.32 72.55 64.30 78.51 C 64.78 82.10 66.49 85.54 65.88 89.23 C 65.12 87.95 64.46 86.63 63.82 85.29 C 56.92 87.19 48.73 88.98 42.31 84.83 C 42.01 86.10 41.66 87.37 41.29 88.63 C 40.88 88.48 40.05 88.18 39.64 88.03 C 39.98 85.50 41.17 83.25 43.91 82.88 C 43.61 79.58 44.29 75.81 42.09 73.01 C 39.26 69.36 36.02 65.65 35.50 60.85 C 35.04 56.03 32.38 51.94 30.67 47.54 C 30.08 43.46 28.04 39.09 29.98 35.08 C 31.41 34.97 32.84 34.90 34.28 34.86 C 35.60 32.61 37.19 30.07 40.05 29.73 C 44.30 28.89 48.58 27.91 52.92 27.75 C 55.75 29.20 57.47 32.05 59.46 34.42 C 62.68 27.62 59.91 19.61 62.93 12.77 M 63.92 15.00 C 62.42 19.89 63.43 25.08 62.93 30.09 C 62.00 32.88 60.83 35.59 60.26 38.49 C 58.81 39.73 57.41 41.02 56.07 42.37 C 54.33 40.05 57.71 38.41 59.06 37.00 C 57.10 34.18 54.96 31.49 52.38 29.21 C 48.32 30.22 44.14 30.64 40.05 31.49 C 37.79 31.99 36.80 34.33 35.54 36.01 C 36.36 36.73 37.22 37.41 38.11 38.04 C 39.10 37.31 40.05 36.50 41.05 35.77 C 44.09 36.07 47.16 35.87 50.11 35.09 C 50.96 37.50 51.87 40.00 54.48 41.03 C 51.75 44.04 49.81 39.04 48.70 37.06 C 48.03 37.23 46.69 37.58 46.02 37.76 C 46.89 39.88 48.26 41.71 50.37 42.74 C 46.79 44.94 45.04 40.33 44.33 37.62 C 43.68 37.60 42.38 37.55 41.73 37.53 C 42.33 40.16 43.87 42.33 46.04 43.92 C 44.90 43.74 43.29 44.64 42.58 43.38 C 41.14 42.10 41.24 39.16 39.02 38.94 C 39.65 43.61 42.57 47.90 46.10 50.93 C 48.76 51.70 51.16 49.28 53.60 48.51 C 52.70 52.34 46.38 54.69 43.74 51.25 C 39.90 47.76 38.56 42.55 35.66 38.42 C 34.68 36.74 32.60 36.74 30.92 36.42 C 31.00 38.23 31.11 40.03 31.19 41.84 C 32.30 41.62 34.52 41.17 35.64 40.95 C 34.38 41.77 33.12 42.58 31.87 43.40 C 31.66 47.78 34.71 51.16 35.96 55.14 C 37.28 58.68 37.10 62.70 39.12 65.99 C 40.75 68.90 43.39 71.13 44.81 74.16 C 45.78 77.62 45.48 81.27 45.28 84.82 C 51.26 86.34 57.55 85.30 63.40 83.69 C 61.98 77.12 62.03 70.30 63.76 63.80 C 65.71 56.65 65.93 49.19 67.50 41.96 C 69.90 32.24 68.69 22.03 66.69 12.35 C 65.54 12.98 64.04 13.46 63.92 15.00 Z" />
</g>
</svg>
