<?xml version="1.0" encoding="UTF-8" ?>
<!DOCTYPE svg PUBLIC "-//W3C//DTD SVG 1.1//EN" "http://www.w3.org/Graphics/SVG/1.1/DTD/svg11.dtd">
<svg width="100pt" height="100pt" viewBox="0 0 100 100" version="1.1" xmlns="http://www.w3.org/2000/svg">
<g id="#ffffffff">
<path fill="#ffffff" opacity="1.00" d=" M 0.00 0.00 L 100.00 0.00 L 100.00 100.00 L 0.00 100.00 L 0.00 0.00 M 63.46 12.54 C 60.25 19.32 63.92 27.37 60.00 33.91 C 57.91 31.43 56.17 28.11 52.94 27.00 C 48.64 27.54 44.39 28.48 40.12 29.28 C 37.54 29.77 36.15 32.23 34.65 34.13 C 33.02 34.37 31.39 34.61 29.75 34.83 C 29.67 40.57 30.40 46.60 33.36 51.64 C 36.20 56.52 35.39 62.69 38.77 67.31 C 40.62 70.48 44.24 72.94 44.14 76.96 C 44.17 79.25 45.24 82.49 42.24 83.38 C 40.11 84.27 40.70 86.92 41.11 88.68 C 41.75 87.32 42.42 85.98 43.14 84.66 C 49.74 88.39 57.51 86.52 64.45 84.89 C 64.98 86.37 65.78 87.71 67.16 88.55 C 66.32 83.48 64.71 78.54 64.65 73.35 C 71.36 72.89 78.88 72.70 84.30 68.19 C 86.53 66.34 85.95 63.52 84.69 61.27 C 84.73 60.79 84.82 59.81 84.87 59.33 C 81.71 58.49 78.59 57.57 75.43 56.75 C 77.32 59.23 79.32 61.62 81.28 64.05 C 81.81 63.72 82.88 63.06 83.42 62.73 C 83.22 64.19 83.48 66.06 81.98 66.94 C 77.02 70.40 70.64 70.11 64.87 69.98 C 66.59 62.01 68.23 54.02 69.14 45.90 C 71.92 34.55 71.81 22.53 69.05 11.18 C 68.43 10.84 67.18 10.15 66.55 9.81 C 65.51 10.70 64.09 11.27 63.46 12.54 Z" />
<path fill="#ffffff" opacity="1.00" d=" M 62.84 31.67 C 65.15 25.37 61.94 17.63 66.08 11.94 C 66.42 12.05 67.08 12.27 67.42 12.38 C 70.00 23.07 70.21 34.46 67.42 45.14 C 66.53 53.53 64.74 61.77 63.10 70.05 C 58.53 69.79 53.98 69.24 49.42 68.94 C 50.24 69.51 51.89 70.66 52.72 71.24 C 51.63 71.61 49.45 72.36 48.37 72.73 C 53.15 73.41 58.00 73.49 62.83 73.40 C 63.00 76.67 63.47 79.91 64.06 83.13 C 58.21 84.77 51.96 85.76 45.97 84.29 C 45.89 80.82 46.53 77.21 45.52 73.84 C 43.53 69.63 39.32 66.66 38.28 61.96 C 37.40 57.98 36.69 53.88 34.66 50.28 C 33.26 47.94 32.54 45.30 32.19 42.61 C 33.61 41.79 35.02 40.95 36.42 40.08 C 34.81 40.30 33.21 40.57 31.61 40.85 C 31.53 39.33 31.41 37.81 31.46 36.29 C 34.09 35.15 36.32 37.46 37.41 39.62 C 39.45 43.48 41.06 47.74 44.38 50.74 C 47.27 54.01 53.09 51.74 54.48 48.02 C 52.05 48.89 49.76 50.31 47.17 50.66 C 43.23 48.03 41.25 43.53 39.35 39.37 C 39.67 39.07 40.31 38.48 40.63 38.18 C 41.68 40.60 43.27 45.42 46.63 43.00 C 43.98 41.86 42.98 39.24 42.30 36.65 C 46.20 36.77 45.71 41.84 48.86 43.25 C 49.30 43.00 50.18 42.51 50.62 42.26 C 49.24 40.82 47.31 39.66 46.89 37.55 C 47.46 37.24 48.61 36.60 49.18 36.28 C 50.32 38.84 52.04 42.69 55.50 40.99 C 53.00 39.70 51.48 37.43 50.81 34.75 C 47.67 35.12 44.51 35.39 41.35 35.05 C 40.43 35.94 39.51 36.83 38.59 37.71 C 37.77 36.87 36.96 36.02 36.15 35.17 C 37.21 33.86 38.14 32.40 39.49 31.36 C 44.05 30.03 48.83 29.56 53.52 28.88 C 55.70 31.28 57.72 33.81 59.62 36.43 C 58.13 38.00 55.30 39.41 56.40 41.98 C 57.90 40.68 59.36 39.32 60.85 38.00 C 61.34 35.84 62.01 33.73 62.84 31.67 Z" />
</g>
<g id="#646465ff">
<path fill="#646465" opacity="1.00" d=" M 63.46 12.54 C 64.09 11.27 65.51 10.70 66.55 9.81 C 67.18 10.15 68.43 10.84 69.05 11.18 C 71.81 22.53 71.92 34.55 69.14 45.90 C 68.23 54.02 66.59 62.01 64.87 69.98 C 70.64 70.11 77.02 70.40 81.98 66.94 C 83.48 66.06 83.22 64.19 83.42 62.73 C 82.88 63.06 81.81 63.72 81.28 64.05 C 79.32 61.62 77.32 59.23 75.43 56.75 C 78.59 57.57 81.71 58.49 84.87 59.33 C 84.82 59.81 84.73 60.79 84.69 61.27 C 85.95 63.52 86.53 66.34 84.30 68.19 C 78.88 72.70 71.36 72.89 64.65 73.35 C 64.71 78.54 66.32 83.48 67.16 88.55 C 65.78 87.71 64.98 86.37 64.45 84.89 C 57.51 86.52 49.74 88.39 43.14 84.66 C 42.42 85.98 41.75 87.32 41.11 88.68 C 40.70 86.92 40.11 84.27 42.24 83.38 C 45.24 82.49 44.17 79.25 44.14 76.96 C 44.24 72.94 40.62 70.48 38.77 67.31 C 35.39 62.69 36.20 56.52 33.36 51.64 C 30.40 46.60 29.67 40.57 29.75 34.83 C 31.39 34.61 33.02 34.37 34.65 34.13 C 36.15 32.23 37.54 29.77 40.12 29.28 C 44.39 28.48 48.64 27.54 52.94 27.00 C 56.17 28.11 57.91 31.43 60.00 33.91 C 63.92 27.37 60.25 19.32 63.46 12.54 M 62.84 31.67 C 62.01 33.73 61.34 35.84 60.85 38.00 C 59.36 39.32 57.90 40.68 56.40 41.98 C 55.30 39.41 58.13 38.00 59.62 36.43 C 57.72 33.81 55.70 31.28 53.52 28.88 C 48.83 29.56 44.05 30.03 39.49 31.36 C 38.14 32.40 37.21 33.86 36.15 35.17 C 36.96 36.02 37.77 36.87 38.59 37.71 C 39.51 36.83 40.43 35.94 41.35 35.05 C 44.51 35.39 47.67 35.12 50.81 34.75 C 51.48 37.43 53.00 39.70 55.50 40.99 C 52.04 42.69 50.32 38.84 49.18 36.28 C 48.61 36.60 47.46 37.24 46.89 37.55 C 47.31 39.66 49.24 40.82 50.62 42.26 C 50.18 42.51 49.30 43.00 48.86 43.25 C 45.71 41.84 46.20 36.77 42.30 36.65 C 42.98 39.24 43.98 41.86 46.63 43.00 C 43.27 45.42 41.68 40.60 40.63 38.18 C 40.31 38.48 39.67 39.07 39.35 39.37 C 41.25 43.53 43.23 48.03 47.17 50.66 C 49.76 50.31 52.05 48.89 54.48 48.02 C 53.09 51.74 47.27 54.01 44.38 50.74 C 41.06 47.74 39.45 43.48 37.41 39.62 C 36.32 37.46 34.09 35.15 31.46 36.29 C 31.41 37.81 31.53 39.33 31.61 40.85 C 33.21 40.57 34.81 40.30 36.42 40.08 C 35.02 40.95 33.61 41.79 32.19 42.61 C 32.54 45.30 33.26 47.94 34.66 50.28 C 36.69 53.88 37.40 57.98 38.28 61.96 C 39.32 66.66 43.53 69.63 45.52 73.84 C 46.53 77.21 45.89 80.82 45.97 84.29 C 51.96 85.76 58.21 84.77 64.06 83.13 C 63.47 79.91 63.00 76.67 62.83 73.40 C 58.00 73.49 53.15 73.41 48.37 72.73 C 49.45 72.36 51.63 71.61 52.72 71.24 C 51.89 70.66 50.24 69.51 49.42 68.94 C 53.98 69.24 58.53 69.79 63.10 70.05 C 64.74 61.77 66.53 53.53 67.42 45.14 C 70.21 34.46 70.00 23.07 67.42 12.38 C 67.08 12.27 66.42 12.05 66.08 11.94 C 61.94 17.63 65.15 25.37 62.84 31.67 Z" />
</g>
</svg>
