<?xml version="1.0" encoding="UTF-8" ?>
<!DOCTYPE svg PUBLIC "-//W3C//DTD SVG 1.1//EN" "http://www.w3.org/Graphics/SVG/1.1/DTD/svg11.dtd">
<svg width="100pt" height="100pt" viewBox="0 0 100 100" version="1.1" xmlns="http://www.w3.org/2000/svg">
<g id="#ffffffff">
<path fill="#ffffff" opacity="1.00" d=" M 0.00 0.00 L 100.00 0.00 L 100.00 100.00 L 0.00 100.00 L 0.00 0.00 M 49.36 20.75 C 47.43 20.36 45.29 19.37 43.41 20.42 C 41.56 21.22 40.78 23.24 39.67 24.77 C 37.60 25.51 35.05 25.87 33.84 27.94 C 32.23 30.27 32.81 33.27 32.73 35.93 C 33.23 43.25 31.52 50.64 33.13 57.88 C 34.66 63.12 38.45 67.19 41.72 71.39 C 43.45 73.40 41.18 75.72 40.76 77.82 C 39.72 79.82 41.41 81.79 43.16 82.62 C 42.85 80.97 42.52 79.33 42.19 77.69 C 49.39 79.54 57.50 78.64 64.05 75.08 C 64.49 76.73 64.90 78.39 65.30 80.06 C 65.78 80.02 66.72 79.92 67.20 79.87 C 66.64 76.64 65.06 73.80 63.47 70.99 C 65.29 63.01 72.30 57.09 74.05 49.01 C 74.20 47.22 73.60 45.50 73.17 43.79 C 75.28 37.50 70.75 31.77 70.73 25.55 C 70.67 23.84 70.69 21.89 69.35 20.62 C 67.23 18.33 63.84 19.05 61.09 19.28 C 59.26 18.08 57.41 16.40 55.04 16.76 C 52.38 16.59 50.81 18.93 49.36 20.75 Z" />
<path fill="#ffffff" opacity="1.00" d=" M 54.55 18.57 C 56.51 17.95 58.11 19.61 59.70 20.46 C 59.20 23.19 59.05 25.97 59.18 28.75 C 57.16 28.91 55.12 29.15 53.45 30.41 C 53.07 27.42 52.11 24.56 50.75 21.88 C 51.90 20.67 52.84 19.03 54.55 18.57 Z" />
<path fill="#ffffff" opacity="1.00" d=" M 61.19 22.10 C 62.39 20.12 65.27 21.36 67.17 20.92 C 70.79 23.87 67.21 27.94 66.66 31.46 C 64.98 30.27 63.02 29.93 61.06 30.64 C 61.03 27.80 60.87 24.93 61.19 22.10 Z" />
<path fill="#ffffff" opacity="1.00" d=" M 41.55 25.09 C 42.58 23.55 43.67 21.41 45.92 21.85 C 50.16 21.87 50.78 26.88 51.74 29.98 C 50.11 30.65 48.48 31.34 46.88 32.07 C 45.15 29.71 43.37 27.39 41.55 25.09 Z" />
<path fill="#ffffff" opacity="1.00" d=" M 35.18 29.17 C 36.22 27.19 38.64 27.11 40.55 26.72 C 42.24 28.93 43.93 31.14 45.58 33.38 C 44.69 34.60 43.86 35.87 43.28 37.27 C 44.41 36.43 45.50 35.55 46.60 34.68 C 47.15 35.55 47.70 36.42 48.25 37.29 C 48.14 37.72 47.91 38.58 47.80 39.01 C 42.75 40.44 40.86 33.70 36.52 32.47 C 37.61 35.74 40.48 37.88 43.01 40.02 C 44.49 41.55 46.69 40.93 48.53 40.64 C 50.87 44.04 55.15 44.21 58.88 44.53 C 58.91 45.05 58.97 46.09 59.00 46.61 C 55.96 48.40 51.85 50.34 51.71 54.41 C 54.75 52.01 57.39 48.91 61.34 47.99 C 60.88 46.28 60.42 44.59 59.95 42.89 C 56.16 42.32 50.77 42.76 49.59 38.08 C 51.64 38.07 54.02 37.62 55.36 39.63 C 55.51 38.98 55.81 37.70 55.96 37.06 C 59.08 37.00 62.60 36.57 65.02 38.99 C 67.96 41.74 72.94 44.16 72.19 48.93 C 70.29 56.00 64.96 61.53 62.19 68.24 C 61.34 70.11 62.01 72.13 62.41 74.02 C 56.86 76.40 50.42 77.73 44.47 76.43 C 43.77 74.81 44.15 72.95 43.98 71.23 C 40.64 67.08 36.80 63.07 35.09 57.91 C 33.16 51.09 34.89 43.99 34.49 37.04 C 34.55 34.42 34.01 31.61 35.18 29.17 Z" />
<path fill="#ffffff" opacity="1.00" d=" M 53.59 31.12 C 55.59 30.55 57.62 30.10 59.67 29.71 C 59.15 31.41 59.67 33.93 57.88 34.96 C 55.33 35.80 54.56 32.77 53.59 31.12 Z" />
<path fill="#ffffff" opacity="1.00" d=" M 65.98 37.36 C 67.41 34.65 68.34 31.73 69.23 28.81 C 70.25 33.31 72.32 37.63 72.03 42.34 C 69.91 40.81 67.92 39.11 65.98 37.36 Z" />
<path fill="#ffffff" opacity="1.00" d=" M 47.54 33.21 C 49.07 32.45 50.62 31.75 52.18 31.04 C 52.50 32.70 52.77 34.40 52.14 36.03 C 51.45 35.96 50.05 35.82 49.36 35.75 C 48.76 34.89 48.16 34.05 47.54 33.21 Z" />
<path fill="#ffffff" opacity="1.00" d=" M 60.75 31.49 C 62.64 31.68 64.54 31.76 66.42 32.07 C 65.82 33.38 65.18 34.68 64.53 35.96 C 62.32 35.34 60.84 33.91 60.75 31.49 Z" />
</g>
<g id="#666667ff">
<path fill="#666667" opacity="1.00" d=" M 49.36 20.75 C 50.81 18.93 52.38 16.59 55.04 16.76 C 57.41 16.40 59.26 18.08 61.09 19.28 C 63.84 19.05 67.23 18.33 69.35 20.62 C 70.69 21.89 70.67 23.84 70.73 25.55 C 70.75 31.77 75.28 37.50 73.17 43.79 C 73.60 45.50 74.20 47.22 74.05 49.01 C 72.30 57.09 65.29 63.01 63.47 70.99 C 65.06 73.80 66.64 76.64 67.20 79.87 C 66.72 79.92 65.78 80.02 65.30 80.06 C 64.90 78.39 64.49 76.73 64.05 75.08 C 57.50 78.64 49.39 79.54 42.19 77.69 C 42.52 79.33 42.85 80.97 43.16 82.62 C 41.41 81.79 39.72 79.82 40.76 77.82 C 41.18 75.72 43.45 73.40 41.72 71.39 C 38.45 67.19 34.66 63.12 33.13 57.88 C 31.52 50.64 33.23 43.25 32.73 35.93 C 32.81 33.27 32.23 30.27 33.84 27.94 C 35.05 25.87 37.60 25.51 39.67 24.77 C 40.78 23.24 41.56 21.22 43.41 20.42 C 45.29 19.37 47.43 20.36 49.36 20.75 M 54.55 18.57 C 52.84 19.03 51.90 20.67 50.75 21.88 C 52.11 24.56 53.07 27.42 53.45 30.41 C 55.12 29.15 57.16 28.91 59.18 28.75 C 59.05 25.97 59.20 23.19 59.70 20.46 C 58.11 19.61 56.51 17.95 54.55 18.57 M 61.19 22.10 C 60.87 24.93 61.03 27.80 61.06 30.64 C 63.02 29.93 64.98 30.27 66.66 31.46 C 67.21 27.94 70.79 23.87 67.17 20.92 C 65.27 21.36 62.39 20.12 61.19 22.10 M 41.55 25.09 C 43.37 27.39 45.15 29.71 46.88 32.07 C 48.48 31.34 50.11 30.65 51.74 29.98 C 50.78 26.88 50.16 21.87 45.92 21.85 C 43.67 21.41 42.58 23.55 41.55 25.09 M 35.18 29.17 C 34.01 31.61 34.55 34.42 34.49 37.04 C 34.89 43.99 33.16 51.09 35.09 57.91 C 36.80 63.07 40.64 67.08 43.98 71.23 C 44.15 72.95 43.77 74.81 44.47 76.43 C 50.42 77.73 56.86 76.40 62.41 74.02 C 62.01 72.13 61.34 70.11 62.19 68.24 C 64.96 61.53 70.29 56.00 72.19 48.93 C 72.94 44.16 67.96 41.74 65.02 38.99 C 62.60 36.57 59.08 37.00 55.96 37.06 C 55.81 37.70 55.51 38.98 55.36 39.63 C 54.02 37.62 51.64 38.07 49.59 38.08 C 50.77 42.76 56.16 42.32 59.95 42.89 C 60.42 44.59 60.88 46.28 61.34 47.99 C 57.39 48.91 54.75 52.01 51.71 54.41 C 51.85 50.34 55.96 48.40 59.00 46.61 C 58.97 46.09 58.91 45.05 58.88 44.53 C 55.15 44.21 50.87 44.04 48.53 40.64 C 46.69 40.93 44.49 41.55 43.01 40.02 C 40.48 37.88 37.61 35.74 36.52 32.47 C 40.86 33.70 42.75 40.44 47.80 39.01 C 47.91 38.58 48.14 37.72 48.25 37.29 C 47.70 36.42 47.15 35.55 46.60 34.68 C 45.50 35.55 44.41 36.43 43.28 37.27 C 43.86 35.87 44.69 34.60 45.58 33.38 C 43.93 31.14 42.24 28.93 40.55 26.72 C 38.64 27.11 36.22 27.19 35.18 29.17 M 53.59 31.12 C 54.56 32.77 55.33 35.80 57.88 34.96 C 59.67 33.93 59.15 31.41 59.67 29.71 C 57.62 30.10 55.59 30.55 53.59 31.12 M 65.98 37.36 C 67.92 39.11 69.91 40.81 72.03 42.34 C 72.32 37.63 70.25 33.31 69.23 28.81 C 68.34 31.73 67.41 34.65 65.98 37.36 M 47.54 33.21 C 48.16 34.05 48.76 34.89 49.36 35.75 C 50.05 35.82 51.45 35.96 52.14 36.03 C 52.77 34.40 52.50 32.70 52.18 31.04 C 50.62 31.75 49.07 32.45 47.54 33.21 M 60.75 31.49 C 60.84 33.91 62.32 35.34 64.53 35.96 C 65.18 34.68 65.82 33.38 66.42 32.07 C 64.54 31.76 62.64 31.68 60.75 31.49 Z" />
</g>
</svg>
