<?xml version="1.0" encoding="UTF-8" ?>
<!DOCTYPE svg PUBLIC "-//W3C//DTD SVG 1.1//EN" "http://www.w3.org/Graphics/SVG/1.1/DTD/svg11.dtd">
<svg width="100pt" height="100pt" viewBox="0 0 100 100" version="1.1" xmlns="http://www.w3.org/2000/svg">
<g id="#ffffffff">
<path fill="#ffffff" opacity="1.00" d=" M 0.00 0.00 L 100.00 0.00 L 100.00 100.00 L 0.00 100.00 L 0.00 0.00 M 49.56 6.67 C 48.47 6.81 47.39 7.02 46.33 7.30 C 44.75 9.06 44.63 11.54 44.03 13.72 C 41.73 13.41 39.52 15.04 39.58 17.44 C 39.19 24.98 40.13 32.92 36.99 39.98 C 37.02 47.89 35.02 56.19 38.20 63.75 C 39.84 68.75 43.58 73.16 42.87 78.73 C 40.39 79.85 38.71 84.26 41.94 85.45 C 42.02 83.94 42.08 82.43 42.15 80.91 C 49.91 83.20 58.35 81.70 65.75 78.80 C 66.10 80.81 66.37 82.96 67.97 84.42 C 68.18 82.00 68.05 79.49 66.65 77.42 C 64.86 74.79 64.87 71.57 64.97 68.52 C 69.07 65.53 69.76 60.28 72.25 56.19 C 73.84 53.40 75.50 50.32 74.94 46.98 C 74.16 41.73 73.30 36.27 74.71 31.05 C 75.31 29.07 75.47 27.00 75.17 24.95 C 73.16 24.49 71.10 24.48 69.09 24.91 C 66.53 22.69 63.08 22.45 60.37 24.56 C 60.03 19.42 58.43 14.50 57.35 9.50 C 56.94 7.50 56.01 5.34 53.90 4.66 C 52.12 4.12 50.72 5.57 49.56 6.67 Z" />
<path fill="#ffffff" opacity="1.00" d=" M 50.95 7.37 C 51.47 7.06 52.50 6.43 53.02 6.11 C 53.50 6.39 54.47 6.94 54.95 7.22 C 56.19 12.51 57.79 17.74 58.47 23.15 C 59.56 28.37 58.60 33.73 59.10 39.00 C 59.37 40.63 60.79 41.65 61.92 42.71 C 57.71 43.51 53.60 46.71 52.74 51.04 C 56.27 48.41 58.99 44.64 63.56 43.64 C 65.53 40.06 67.40 36.33 67.60 32.15 C 67.87 29.24 70.20 24.82 73.72 26.36 C 74.29 28.66 73.02 31.13 70.98 32.26 C 71.34 32.59 72.08 33.25 72.45 33.58 C 71.16 39.34 73.84 45.06 72.85 50.82 C 71.63 54.39 69.13 57.39 68.01 61.03 C 67.13 63.89 65.10 66.13 62.88 68.05 C 63.06 71.33 63.60 74.57 64.33 77.76 C 57.96 79.63 51.19 80.97 44.56 79.84 C 45.86 70.44 37.26 63.31 38.12 53.96 C 38.60 49.26 38.13 44.47 38.82 39.81 C 41.93 33.29 40.70 25.87 41.07 18.90 C 41.09 17.39 41.72 15.21 43.58 15.23 C 45.03 17.71 44.45 20.64 44.75 23.35 C 45.10 27.03 45.48 30.70 45.85 34.37 C 46.14 34.66 46.73 35.22 47.02 35.50 C 47.95 27.63 45.26 19.76 46.14 11.86 C 46.45 10.35 47.35 9.07 48.07 7.73 C 50.49 9.86 49.92 13.18 50.37 16.04 C 51.20 22.03 52.63 27.96 52.61 34.03 L 54.08 34.01 C 54.65 26.87 52.29 19.99 51.89 12.92 C 51.73 11.05 51.32 9.21 50.95 7.37 M 45.53 43.20 C 49.11 41.67 53.43 41.40 56.53 39.01 C 52.59 38.43 47.56 39.46 45.53 43.20 Z" />
<path fill="#ffffff" opacity="1.00" d=" M 61.70 26.51 C 62.94 24.15 66.25 24.48 67.89 26.23 C 65.94 29.40 65.82 33.15 64.99 36.67 C 63.80 35.41 62.33 34.78 60.57 34.80 C 60.98 32.06 60.60 29.10 61.70 26.51 Z" />
<path fill="#ffffff" opacity="1.00" d=" M 60.16 36.25 C 61.79 36.38 63.42 36.59 65.05 36.83 C 64.24 38.38 63.40 39.91 62.46 41.38 C 61.36 39.83 60.73 38.04 60.16 36.25 Z" />
</g>
<g id="#5b5c5dff">
<path fill="#5b5c5d" opacity="1.00" d=" M 49.56 6.67 C 50.72 5.57 52.12 4.12 53.90 4.66 C 56.01 5.34 56.94 7.50 57.35 9.50 C 58.43 14.50 60.03 19.42 60.37 24.56 C 63.08 22.45 66.53 22.69 69.09 24.91 C 71.10 24.48 73.16 24.49 75.17 24.95 C 75.47 27.00 75.31 29.07 74.71 31.05 C 73.30 36.27 74.16 41.73 74.94 46.98 C 75.50 50.32 73.84 53.40 72.25 56.19 C 69.76 60.28 69.07 65.53 64.97 68.52 C 64.87 71.57 64.86 74.79 66.65 77.42 C 68.05 79.49 68.18 82.00 67.97 84.42 C 66.37 82.96 66.10 80.81 65.75 78.80 C 58.35 81.70 49.91 83.20 42.15 80.91 C 42.08 82.43 42.02 83.94 41.94 85.45 C 38.71 84.26 40.39 79.85 42.87 78.73 C 43.58 73.16 39.84 68.75 38.20 63.75 C 35.02 56.19 37.02 47.89 36.99 39.98 C 40.13 32.92 39.19 24.98 39.58 17.44 C 39.52 15.04 41.73 13.41 44.03 13.72 C 44.63 11.54 44.75 9.06 46.33 7.30 C 47.39 7.02 48.47 6.81 49.56 6.67 M 50.95 7.37 C 51.32 9.21 51.73 11.05 51.89 12.92 C 52.29 19.99 54.65 26.87 54.08 34.01 L 52.61 34.03 C 52.63 27.96 51.20 22.03 50.37 16.04 C 49.92 13.18 50.49 9.86 48.07 7.73 C 47.35 9.07 46.45 10.35 46.14 11.86 C 45.26 19.76 47.95 27.63 47.02 35.50 C 46.73 35.22 46.14 34.66 45.85 34.37 C 45.48 30.70 45.10 27.03 44.75 23.35 C 44.45 20.64 45.03 17.71 43.58 15.23 C 41.72 15.21 41.09 17.39 41.07 18.90 C 40.70 25.87 41.93 33.29 38.82 39.81 C 38.13 44.47 38.60 49.26 38.12 53.96 C 37.26 63.31 45.86 70.44 44.56 79.84 C 51.19 80.97 57.96 79.63 64.33 77.76 C 63.60 74.57 63.06 71.33 62.88 68.05 C 65.10 66.13 67.13 63.89 68.01 61.03 C 69.13 57.39 71.63 54.39 72.85 50.82 C 73.84 45.06 71.16 39.34 72.45 33.58 C 72.08 33.25 71.34 32.59 70.98 32.26 C 73.02 31.13 74.29 28.66 73.72 26.36 C 70.20 24.82 67.87 29.24 67.60 32.15 C 67.40 36.33 65.53 40.06 63.56 43.64 C 58.99 44.64 56.27 48.41 52.74 51.04 C 53.60 46.71 57.71 43.51 61.92 42.71 C 60.79 41.65 59.37 40.63 59.10 39.00 C 58.60 33.73 59.56 28.37 58.47 23.15 C 57.79 17.74 56.19 12.51 54.95 7.22 C 54.47 6.94 53.50 6.39 53.02 6.11 C 52.50 6.43 51.47 7.06 50.95 7.37 M 61.70 26.51 C 60.60 29.10 60.98 32.06 60.57 34.80 C 62.33 34.78 63.80 35.41 64.99 36.67 C 65.82 33.15 65.94 29.40 67.89 26.23 C 66.25 24.48 62.94 24.15 61.70 26.51 M 60.16 36.25 C 60.73 38.04 61.36 39.83 62.46 41.38 C 63.40 39.91 64.24 38.38 65.05 36.83 C 63.42 36.59 61.79 36.38 60.16 36.25 Z" />
<path fill="#5b5c5d" opacity="1.00" d=" M 45.53 43.20 C 47.56 39.46 52.59 38.43 56.53 39.01 C 53.43 41.40 49.11 41.67 45.53 43.20 Z" />
</g>
</svg>
