<?xml version="1.0" encoding="UTF-8" ?>
<!DOCTYPE svg PUBLIC "-//W3C//DTD SVG 1.1//EN" "http://www.w3.org/Graphics/SVG/1.1/DTD/svg11.dtd">
<svg width="100pt" height="100pt" viewBox="0 0 100 100" version="1.1" xmlns="http://www.w3.org/2000/svg">
<g id="#ffffffff">
<path fill="#ffffff" opacity="1.00" d=" M 0.00 0.00 L 100.00 0.00 L 100.00 100.00 L 0.00 100.00 L 0.00 0.00 M 19.75 19.87 C 17.74 20.01 17.72 22.40 17.27 23.86 C 14.54 23.95 9.26 24.00 9.68 27.94 C 12.15 32.23 17.72 32.27 21.81 34.07 C 26.49 36.26 32.23 35.56 36.22 39.23 C 35.28 41.57 35.85 43.93 37.47 45.78 C 36.52 48.15 36.88 50.60 38.04 52.82 C 38.18 54.51 37.89 56.46 39.14 57.82 C 43.91 63.12 48.99 68.64 55.83 71.22 C 59.33 72.66 63.67 73.66 65.62 77.25 C 66.00 79.24 66.02 81.31 66.71 83.23 C 67.30 81.54 67.77 79.81 68.16 78.06 C 74.80 77.56 82.32 76.10 86.19 70.05 C 86.81 70.39 88.05 71.08 88.67 71.43 C 87.62 68.09 84.60 65.60 84.46 61.95 C 84.11 58.36 83.30 54.77 81.27 51.73 C 74.99 42.27 67.99 32.21 57.04 27.82 C 45.06 23.54 32.63 19.37 19.75 19.87 Z" />
<path fill="#ffffff" opacity="1.00" d=" M 18.63 21.99 C 28.68 20.90 38.85 23.44 48.30 26.78 C 53.17 28.25 58.14 29.73 62.37 32.68 C 67.57 36.38 71.88 41.22 75.48 46.46 C 78.37 50.67 82.02 54.80 82.46 60.13 C 82.75 63.17 83.40 66.19 85.08 68.79 C 81.10 74.42 73.89 76.42 67.29 75.99 C 63.08 70.62 55.80 70.31 50.61 66.35 C 48.36 64.81 46.41 62.87 44.53 60.89 C 48.73 61.35 52.72 63.17 56.96 63.19 C 59.00 63.36 61.62 61.27 60.60 59.11 C 60.20 57.98 59.57 56.94 59.02 55.88 C 59.39 55.52 60.13 54.81 60.50 54.45 C 62.99 56.87 65.94 59.19 69.60 59.20 C 68.19 57.20 65.78 56.47 63.88 55.08 C 60.98 52.99 61.53 48.40 58.50 46.48 C 54.14 44.93 49.42 45.49 44.96 46.23 C 41.75 46.73 38.92 44.76 37.14 42.28 C 37.69 41.16 39.76 39.51 37.93 38.51 C 33.98 34.02 27.66 34.77 22.61 32.48 C 18.61 30.81 13.80 30.60 10.86 27.01 C 13.81 25.64 17.36 25.26 20.35 26.74 C 29.48 30.67 40.06 30.83 48.47 36.47 C 47.84 34.65 46.75 32.88 44.84 32.21 C 37.47 29.51 29.68 28.14 22.22 25.75 C 20.38 25.27 19.56 23.45 18.63 21.99 M 40.17 38.66 C 39.95 39.21 39.50 40.31 39.27 40.86 C 41.06 41.62 46.43 38.13 45.60 42.16 C 46.65 40.79 47.93 39.16 49.90 39.72 C 56.90 40.08 63.86 40.84 70.74 42.12 C 67.14 37.75 60.82 39.41 55.89 38.37 C 50.65 37.32 45.42 38.62 40.17 38.66 Z" />
<path fill="#ffffff" opacity="1.00" d=" M 39.10 46.99 C 44.31 48.62 49.88 47.71 55.14 49.16 C 53.58 50.51 53.11 52.37 53.45 54.34 C 49.03 53.00 44.51 51.84 39.86 51.80 C 39.33 50.86 38.79 49.93 38.26 49.00 C 38.47 48.50 38.89 47.49 39.10 46.99 Z" />
<path fill="#ffffff" opacity="1.00" d=" M 55.94 49.49 C 57.02 50.66 60.23 51.75 58.77 53.81 C 57.21 54.42 55.58 54.79 53.89 54.92 C 54.51 53.09 55.18 51.27 55.94 49.49 Z" />
<path fill="#ffffff" opacity="1.00" d=" M 39.72 53.56 C 44.88 53.60 49.80 55.24 54.78 56.33 C 53.92 57.82 53.09 59.34 51.99 60.68 C 47.63 59.24 39.71 60.10 39.72 53.56 Z" />
<path fill="#ffffff" opacity="1.00" d=" M 55.37 57.11 C 57.78 56.34 58.69 59.06 59.29 60.81 C 58.14 61.05 55.85 61.54 54.70 61.79 C 54.90 60.23 55.06 58.65 55.37 57.11 Z" />
</g>
<g id="#626262ff">
<path fill="#626262" opacity="1.00" d=" M 19.75 19.87 C 32.63 19.37 45.06 23.54 57.04 27.82 C 67.99 32.21 74.99 42.27 81.27 51.73 C 83.30 54.77 84.11 58.36 84.46 61.95 C 84.60 65.60 87.62 68.09 88.67 71.43 C 88.05 71.08 86.81 70.39 86.19 70.05 C 82.32 76.10 74.80 77.56 68.16 78.06 C 67.77 79.81 67.30 81.54 66.71 83.23 C 66.02 81.31 66.00 79.24 65.62 77.25 C 63.67 73.66 59.33 72.66 55.83 71.22 C 48.99 68.64 43.91 63.12 39.14 57.82 C 37.89 56.46 38.18 54.51 38.04 52.82 C 36.88 50.60 36.52 48.15 37.47 45.78 C 35.85 43.93 35.28 41.57 36.22 39.23 C 32.23 35.56 26.49 36.26 21.81 34.07 C 17.72 32.27 12.15 32.23 9.68 27.94 C 9.26 24.00 14.54 23.95 17.27 23.86 C 17.72 22.40 17.74 20.01 19.75 19.87 M 18.63 21.99 C 19.56 23.45 20.38 25.27 22.22 25.75 C 29.68 28.14 37.47 29.51 44.84 32.21 C 46.75 32.88 47.84 34.65 48.47 36.47 C 40.06 30.83 29.48 30.67 20.35 26.74 C 17.36 25.26 13.81 25.64 10.86 27.01 C 13.80 30.60 18.61 30.81 22.61 32.48 C 27.66 34.77 33.98 34.02 37.93 38.51 C 39.76 39.51 37.69 41.16 37.14 42.28 C 38.92 44.76 41.75 46.73 44.96 46.23 C 49.42 45.49 54.14 44.93 58.50 46.48 C 61.53 48.40 60.98 52.99 63.88 55.08 C 65.78 56.47 68.19 57.20 69.60 59.20 C 65.94 59.19 62.99 56.87 60.50 54.45 C 60.13 54.81 59.39 55.52 59.02 55.88 C 59.57 56.94 60.20 57.98 60.60 59.11 C 61.62 61.27 59.00 63.36 56.96 63.19 C 52.72 63.17 48.73 61.35 44.53 60.89 C 46.41 62.87 48.36 64.81 50.61 66.35 C 55.80 70.31 63.08 70.62 67.29 75.99 C 73.89 76.42 81.10 74.42 85.08 68.79 C 83.40 66.19 82.75 63.17 82.46 60.13 C 82.02 54.80 78.37 50.67 75.48 46.46 C 71.88 41.22 67.57 36.38 62.37 32.68 C 58.14 29.73 53.17 28.25 48.30 26.78 C 38.85 23.44 28.68 20.90 18.63 21.99 M 39.10 46.99 C 38.89 47.49 38.47 48.50 38.26 49.00 C 38.79 49.93 39.33 50.86 39.86 51.80 C 44.51 51.84 49.03 53.00 53.45 54.34 C 53.11 52.37 53.58 50.51 55.14 49.16 C 49.88 47.71 44.31 48.62 39.10 46.99 M 55.94 49.49 C 55.18 51.27 54.51 53.09 53.89 54.92 C 55.58 54.79 57.21 54.42 58.77 53.81 C 60.23 51.75 57.02 50.66 55.94 49.49 M 39.72 53.56 C 39.71 60.10 47.63 59.24 51.99 60.68 C 53.09 59.34 53.92 57.82 54.78 56.33 C 49.80 55.24 44.88 53.60 39.72 53.56 M 55.37 57.11 C 55.06 58.65 54.90 60.23 54.70 61.79 C 55.85 61.54 58.14 61.05 59.29 60.81 C 58.69 59.06 57.78 56.34 55.37 57.11 Z" />
<path fill="#626262" opacity="1.00" d=" M 40.17 38.66 C 45.42 38.62 50.65 37.32 55.89 38.37 C 60.82 39.41 67.14 37.75 70.74 42.12 C 63.86 40.84 56.90 40.08 49.90 39.72 C 47.93 39.16 46.65 40.79 45.60 42.16 C 46.43 38.13 41.06 41.62 39.27 40.86 C 39.50 40.31 39.95 39.21 40.17 38.66 Z" />
</g>
</svg>
