<?xml version="1.0" encoding="UTF-8" ?>
<!DOCTYPE svg PUBLIC "-//W3C//DTD SVG 1.1//EN" "http://www.w3.org/Graphics/SVG/1.1/DTD/svg11.dtd">
<svg width="100pt" height="100pt" viewBox="0 0 100 100" version="1.1" xmlns="http://www.w3.org/2000/svg">
<g id="#ffffffff">
<path fill="#ffffff" opacity="1.00" d=" M 0.00 0.00 L 100.00 0.00 L 100.00 100.00 L 0.00 100.00 L 0.00 0.00 M 35.25 12.21 C 33.35 18.79 34.57 25.80 34.60 32.55 C 35.43 36.86 32.58 40.73 33.04 45.02 C 33.39 51.02 31.70 57.24 33.84 63.05 C 35.56 68.86 40.70 73.07 41.64 79.18 C 41.44 81.39 39.33 83.38 40.34 85.63 C 40.73 87.18 41.93 88.27 43.00 89.37 C 42.70 87.27 42.22 85.20 41.76 83.13 C 48.90 85.50 56.13 81.69 62.74 79.24 C 64.11 79.88 65.29 80.87 66.60 81.63 C 65.53 78.17 61.91 75.88 61.69 72.17 C 62.67 68.69 65.08 65.88 66.62 62.66 C 71.02 54.91 70.52 45.65 70.26 37.06 C 69.39 33.53 67.98 30.16 67.18 26.60 C 66.32 23.66 62.97 23.40 60.45 24.10 C 57.48 22.53 54.07 21.77 50.98 23.48 C 48.84 22.60 46.56 22.38 44.28 22.70 C 43.88 23.29 43.08 24.45 42.68 25.04 C 42.23 20.67 42.52 16.10 40.96 11.93 C 40.00 9.54 35.99 9.67 35.25 12.21 Z" />
<path fill="#ffffff" opacity="1.00" d=" M 37.30 12.03 C 37.71 12.03 38.52 12.01 38.92 12.00 C 40.83 15.66 40.33 20.01 40.84 23.99 C 40.97 29.64 44.09 34.53 46.55 39.42 C 44.12 40.24 41.64 40.91 39.15 41.53 C 41.41 44.08 44.54 41.83 47.06 41.01 C 48.25 42.74 49.49 44.44 50.79 46.09 C 48.43 49.44 46.87 53.33 46.91 57.48 C 49.70 56.18 48.94 52.64 50.28 50.33 C 51.43 47.14 54.73 45.85 57.36 44.15 C 57.75 38.62 51.49 37.59 48.81 33.85 C 49.14 32.41 49.49 30.97 49.89 29.55 C 51.50 30.66 53.12 31.76 54.70 32.93 C 56.16 32.77 57.74 32.14 59.15 32.90 C 62.24 34.10 63.36 37.48 64.99 40.07 C 66.10 42.16 67.95 43.83 68.78 46.05 C 68.72 48.98 68.13 51.88 67.69 54.77 C 66.66 60.55 62.70 65.11 60.36 70.34 C 59.11 72.87 60.68 75.44 61.72 77.72 C 55.99 80.24 49.85 82.57 43.47 82.04 C 44.38 73.45 36.25 68.10 34.90 60.15 C 33.72 55.14 35.23 50.05 35.02 44.99 C 34.79 40.25 37.26 35.79 36.15 31.02 C 36.35 24.73 34.89 18.00 37.30 12.03 Z" />
<path fill="#ffffff" opacity="1.00" d=" M 44.14 26.06 C 45.13 23.26 48.22 24.31 50.29 25.04 C 50.17 25.65 49.92 26.87 49.80 27.48 C 48.68 29.15 46.82 30.72 46.96 32.91 C 47.51 35.16 49.24 36.86 50.58 38.67 C 50.12 38.97 49.20 39.57 48.75 39.87 C 47.09 35.42 42.60 31.09 44.14 26.06 Z" />
<path fill="#ffffff" opacity="1.00" d=" M 52.30 24.92 C 54.51 23.72 56.86 24.41 59.07 25.20 C 58.47 27.17 57.87 29.13 57.27 31.09 C 55.24 30.31 53.25 29.43 51.34 28.39 C 51.58 27.52 52.06 25.79 52.30 24.92 Z" />
<path fill="#ffffff" opacity="1.00" d=" M 59.16 30.52 C 60.09 28.56 60.51 25.76 63.06 25.33 C 64.16 25.72 65.05 26.52 66.02 27.15 C 66.07 30.40 65.91 33.64 65.58 36.86 C 63.87 34.34 61.71 32.18 59.16 30.52 Z" />
<path fill="#ffffff" opacity="1.00" d=" M 67.83 33.74 C 68.50 36.51 68.76 39.34 68.77 42.18 C 67.97 41.24 67.19 40.28 66.42 39.32 C 66.90 37.46 67.35 35.60 67.83 33.74 Z" />
<path fill="#ffffff" opacity="1.00" d=" M 48.84 40.76 C 49.70 40.28 51.43 39.34 52.30 38.87 C 53.58 40.12 54.79 41.45 55.92 42.85 C 54.77 43.63 53.61 44.39 52.42 45.12 C 51.20 43.69 50.01 42.22 48.84 40.76 Z" />
</g>
<g id="#626263ff">
<path fill="#626263" opacity="1.00" d=" M 35.25 12.21 C 35.99 9.67 40.00 9.54 40.96 11.93 C 42.52 16.10 42.23 20.67 42.68 25.04 C 43.08 24.45 43.88 23.29 44.28 22.70 C 46.56 22.38 48.84 22.60 50.98 23.48 C 54.07 21.77 57.48 22.53 60.45 24.10 C 62.97 23.40 66.32 23.66 67.18 26.60 C 67.98 30.16 69.39 33.53 70.26 37.06 C 70.52 45.65 71.02 54.91 66.62 62.66 C 65.08 65.88 62.67 68.69 61.69 72.17 C 61.91 75.88 65.53 78.17 66.60 81.63 C 65.29 80.87 64.11 79.88 62.74 79.24 C 56.13 81.69 48.90 85.50 41.76 83.13 C 42.22 85.20 42.70 87.27 43.00 89.37 C 41.93 88.27 40.73 87.18 40.34 85.63 C 39.33 83.38 41.44 81.39 41.64 79.18 C 40.70 73.07 35.56 68.86 33.84 63.05 C 31.70 57.24 33.39 51.02 33.04 45.02 C 32.58 40.73 35.43 36.86 34.60 32.55 C 34.57 25.80 33.35 18.79 35.25 12.21 M 37.30 12.03 C 34.89 18.00 36.35 24.73 36.15 31.02 C 37.26 35.79 34.79 40.25 35.02 44.99 C 35.23 50.05 33.72 55.14 34.90 60.15 C 36.25 68.10 44.38 73.45 43.47 82.04 C 49.85 82.57 55.99 80.24 61.72 77.72 C 60.68 75.44 59.11 72.87 60.36 70.34 C 62.70 65.11 66.66 60.55 67.69 54.77 C 68.13 51.88 68.72 48.98 68.78 46.05 C 67.95 43.83 66.10 42.16 64.99 40.07 C 63.36 37.48 62.24 34.10 59.15 32.90 C 57.74 32.14 56.16 32.77 54.70 32.93 C 53.12 31.76 51.50 30.66 49.89 29.55 C 49.49 30.97 49.14 32.41 48.81 33.85 C 51.49 37.59 57.75 38.62 57.36 44.15 C 54.73 45.85 51.43 47.14 50.28 50.33 C 48.94 52.64 49.70 56.18 46.91 57.48 C 46.87 53.33 48.43 49.44 50.79 46.09 C 49.49 44.44 48.25 42.74 47.06 41.01 C 44.54 41.83 41.41 44.08 39.15 41.53 C 41.64 40.91 44.12 40.24 46.55 39.42 C 44.09 34.53 40.97 29.64 40.84 23.99 C 40.33 20.01 40.83 15.66 38.92 12.00 C 38.52 12.01 37.71 12.03 37.30 12.03 M 44.14 26.06 C 42.60 31.09 47.09 35.42 48.75 39.87 C 49.20 39.57 50.12 38.97 50.58 38.67 C 49.24 36.86 47.51 35.16 46.96 32.91 C 46.82 30.72 48.68 29.15 49.80 27.48 C 49.92 26.87 50.17 25.65 50.29 25.04 C 48.22 24.31 45.13 23.26 44.14 26.06 M 52.30 24.92 C 52.06 25.79 51.58 27.52 51.34 28.39 C 53.25 29.43 55.24 30.31 57.27 31.09 C 57.87 29.13 58.47 27.17 59.07 25.20 C 56.86 24.41 54.51 23.72 52.30 24.92 M 59.16 30.52 C 61.71 32.18 63.87 34.34 65.58 36.86 C 65.91 33.64 66.07 30.40 66.02 27.15 C 65.05 26.52 64.16 25.72 63.06 25.33 C 60.51 25.76 60.09 28.56 59.16 30.52 M 67.83 33.74 C 67.35 35.60 66.90 37.46 66.42 39.32 C 67.19 40.28 67.97 41.24 68.77 42.18 C 68.76 39.34 68.50 36.51 67.83 33.74 M 48.84 40.76 C 50.01 42.22 51.20 43.69 52.42 45.12 C 53.61 44.39 54.77 43.63 55.92 42.85 C 54.79 41.45 53.58 40.12 52.30 38.87 C 51.43 39.34 49.70 40.28 48.84 40.76 Z" />
</g>
</svg>
