<?xml version="1.0" encoding="UTF-8" ?>
<!DOCTYPE svg PUBLIC "-//W3C//DTD SVG 1.1//EN" "http://www.w3.org/Graphics/SVG/1.1/DTD/svg11.dtd">
<svg width="100pt" height="100pt" viewBox="0 0 100 100" version="1.1" xmlns="http://www.w3.org/2000/svg">
<g id="#ffffffff">
<path fill="#ffffff" opacity="1.00" d=" M 0.00 0.00 L 100.00 0.00 L 100.00 100.00 L 0.00 100.00 L 0.00 0.00 M 34.06 9.49 C 33.32 10.94 32.38 12.34 32.01 13.96 C 32.94 20.62 35.61 26.85 37.76 33.17 C 39.43 41.48 39.04 50.04 39.75 58.45 C 40.36 65.04 45.06 70.09 47.08 76.16 C 48.05 78.50 45.87 80.58 45.98 82.91 C 46.22 84.34 46.66 85.72 47.04 87.12 C 47.53 87.05 48.51 86.91 49.00 86.84 C 48.46 85.17 47.91 83.50 47.37 81.84 C 54.67 83.66 62.19 80.66 68.67 77.50 C 69.77 78.57 70.88 79.62 72.15 80.48 C 71.09 77.00 68.57 74.27 67.00 71.04 C 69.30 66.17 72.61 61.80 74.44 56.71 C 76.50 49.69 76.33 42.25 75.94 35.02 C 74.63 31.58 73.93 27.92 72.53 24.52 C 71.30 22.00 68.46 22.08 66.14 22.73 C 62.73 20.90 58.79 20.60 55.36 22.56 C 53.32 22.23 51.15 21.20 49.10 22.04 C 47.86 22.94 46.86 24.11 45.79 25.20 C 43.18 21.29 41.14 17.08 39.06 12.88 C 38.21 10.80 36.05 10.04 34.06 9.49 M 27.02 20.01 C 26.89 29.94 29.74 40.28 26.12 49.92 C 25.48 52.11 23.73 53.64 21.66 54.46 C 21.36 50.41 17.33 48.61 14.65 46.22 C 15.28 49.42 16.21 52.55 17.13 55.68 C 17.50 55.56 18.24 55.32 18.61 55.20 C 20.29 55.77 22.05 57.06 23.87 56.18 C 27.01 54.82 28.30 51.28 29.25 48.25 C 31.81 38.86 31.17 28.99 30.74 19.39 C 29.97 20.78 29.37 22.25 28.90 23.77 C 28.32 22.50 27.69 21.24 27.02 20.01 Z" />
<path fill="#ffffff" opacity="1.00" d=" M 34.02 13.98 C 34.28 13.22 34.79 11.72 35.04 10.97 C 36.51 12.51 37.87 14.19 38.73 16.16 C 40.81 20.96 44.06 25.13 46.20 29.90 C 47.64 33.16 49.98 35.87 52.07 38.73 C 49.48 39.70 46.81 40.46 44.14 41.17 C 46.82 43.40 49.96 41.25 52.70 40.39 C 53.85 41.79 55.02 43.18 56.20 44.55 C 54.09 48.04 52.40 51.99 53.02 56.18 C 55.60 53.19 54.95 48.59 57.77 45.76 C 59.69 44.39 63.05 43.99 63.10 41.03 C 62.05 37.02 57.24 36.10 55.14 32.84 C 54.53 31.38 55.21 29.82 55.39 28.35 C 57.20 29.26 59.03 30.18 60.52 31.57 C 63.07 30.65 65.98 31.13 67.61 33.44 C 70.01 36.95 71.74 40.91 74.69 44.04 C 74.07 48.27 74.09 52.65 72.59 56.71 C 70.93 61.11 67.89 64.81 66.09 69.14 C 64.95 71.56 66.59 74.01 67.36 76.27 C 61.73 78.75 55.53 81.40 49.26 80.48 C 49.61 75.06 46.60 70.47 44.05 65.99 C 39.67 58.00 41.70 48.70 40.44 40.07 C 40.64 30.85 34.51 23.06 34.02 13.98 Z" />
<path fill="#ffffff" opacity="1.00" d=" M 50.23 23.12 C 51.94 23.58 53.64 24.03 55.35 24.49 C 54.64 26.70 53.47 28.74 52.93 31.00 C 52.85 33.52 55.01 35.24 56.39 37.08 C 55.93 37.58 55.02 38.57 54.56 39.07 C 55.93 38.75 57.27 38.29 58.68 38.12 C 60.42 38.96 62.40 41.77 59.84 42.91 C 56.73 43.77 55.14 40.45 53.66 38.39 C 51.66 34.91 48.47 32.00 47.58 27.96 C 47.31 25.91 49.06 24.53 50.23 23.12 Z" />
<path fill="#ffffff" opacity="1.00" d=" M 56.41 26.09 C 56.98 21.61 62.08 22.96 65.03 23.94 C 64.33 25.81 63.67 27.70 63.01 29.59 C 60.78 28.56 57.72 28.43 56.41 26.09 Z" />
<path fill="#ffffff" opacity="1.00" d=" M 64.90 29.22 C 65.75 27.38 66.13 25.02 68.09 24.00 C 70.13 23.46 71.25 25.52 71.80 27.12 C 72.33 29.85 71.58 32.62 71.26 35.33 C 69.60 32.86 67.46 30.76 64.90 29.22 Z" />
<path fill="#ffffff" opacity="1.00" d=" M 72.04 38.12 C 72.61 36.23 73.14 34.32 73.73 32.43 C 74.19 35.16 74.69 37.93 74.72 40.70 C 73.60 40.17 72.94 38.95 72.04 38.12 Z" />
</g>
<g id="#5f5f5fff">
<path fill="#5f5f5f" opacity="1.00" d=" M 34.06 9.49 C 36.05 10.04 38.21 10.80 39.06 12.88 C 41.14 17.08 43.18 21.29 45.79 25.20 C 46.86 24.11 47.86 22.94 49.10 22.04 C 51.15 21.20 53.32 22.23 55.36 22.56 C 58.79 20.60 62.73 20.90 66.14 22.73 C 68.46 22.08 71.30 22.00 72.53 24.52 C 73.93 27.92 74.63 31.58 75.94 35.02 C 76.33 42.25 76.50 49.69 74.44 56.71 C 72.61 61.80 69.30 66.17 67.00 71.04 C 68.57 74.27 71.09 77.00 72.15 80.48 C 70.88 79.62 69.77 78.57 68.67 77.50 C 62.19 80.66 54.67 83.66 47.37 81.84 C 47.91 83.50 48.46 85.17 49.00 86.84 C 48.51 86.91 47.53 87.05 47.04 87.12 C 46.66 85.72 46.22 84.34 45.98 82.91 C 45.87 80.58 48.05 78.50 47.08 76.16 C 45.06 70.09 40.36 65.04 39.75 58.45 C 39.04 50.04 39.43 41.48 37.76 33.17 C 35.61 26.85 32.94 20.62 32.01 13.96 C 32.38 12.34 33.32 10.94 34.06 9.49 M 34.02 13.98 C 34.51 23.06 40.64 30.85 40.44 40.07 C 41.70 48.70 39.67 58.00 44.05 65.99 C 46.60 70.47 49.61 75.06 49.26 80.48 C 55.53 81.40 61.73 78.75 67.36 76.27 C 66.59 74.01 64.95 71.56 66.09 69.14 C 67.89 64.81 70.93 61.11 72.59 56.71 C 74.09 52.65 74.07 48.27 74.69 44.04 C 71.74 40.91 70.01 36.95 67.61 33.44 C 65.98 31.13 63.07 30.65 60.52 31.57 C 59.03 30.18 57.20 29.26 55.39 28.35 C 55.21 29.82 54.53 31.38 55.14 32.84 C 57.24 36.10 62.05 37.02 63.10 41.03 C 63.05 43.99 59.69 44.39 57.77 45.76 C 54.95 48.59 55.60 53.19 53.02 56.18 C 52.40 51.99 54.09 48.04 56.20 44.55 C 55.02 43.18 53.85 41.79 52.70 40.39 C 49.96 41.25 46.82 43.40 44.14 41.17 C 46.81 40.46 49.48 39.70 52.07 38.73 C 49.98 35.87 47.64 33.16 46.20 29.90 C 44.06 25.13 40.81 20.96 38.73 16.16 C 37.87 14.19 36.51 12.51 35.04 10.97 C 34.79 11.72 34.28 13.22 34.02 13.98 M 50.23 23.12 C 49.06 24.53 47.31 25.91 47.58 27.96 C 48.47 32.00 51.66 34.91 53.66 38.39 C 55.14 40.45 56.73 43.77 59.84 42.91 C 62.40 41.77 60.42 38.96 58.68 38.12 C 57.27 38.29 55.93 38.75 54.56 39.07 C 55.02 38.57 55.93 37.58 56.39 37.08 C 55.01 35.24 52.85 33.52 52.93 31.00 C 53.47 28.74 54.64 26.70 55.35 24.49 C 53.64 24.03 51.94 23.58 50.23 23.12 M 56.41 26.09 C 57.72 28.43 60.78 28.56 63.01 29.59 C 63.67 27.70 64.33 25.81 65.03 23.94 C 62.08 22.96 56.98 21.61 56.41 26.09 M 64.90 29.22 C 67.46 30.76 69.60 32.86 71.26 35.33 C 71.58 32.62 72.33 29.85 71.80 27.12 C 71.25 25.52 70.13 23.46 68.09 24.00 C 66.13 25.02 65.75 27.38 64.90 29.22 M 72.04 38.12 C 72.94 38.95 73.60 40.17 74.72 40.70 C 74.69 37.93 74.19 35.16 73.73 32.43 C 73.14 34.32 72.61 36.23 72.04 38.12 Z" />
<path fill="#5f5f5f" opacity="1.00" d=" M 27.02 20.01 C 27.69 21.24 28.32 22.50 28.90 23.77 C 29.37 22.25 29.97 20.78 30.74 19.39 C 31.17 28.99 31.81 38.86 29.25 48.25 C 28.30 51.28 27.01 54.82 23.87 56.18 C 22.05 57.06 20.29 55.77 18.61 55.20 C 18.24 55.32 17.50 55.56 17.13 55.68 C 16.21 52.55 15.28 49.42 14.65 46.22 C 17.33 48.61 21.36 50.41 21.66 54.46 C 23.73 53.64 25.48 52.11 26.12 49.92 C 29.74 40.28 26.89 29.94 27.02 20.01 Z" />
</g>
</svg>
