<?xml version="1.0" encoding="UTF-8" ?>
<!DOCTYPE svg PUBLIC "-//W3C//DTD SVG 1.1//EN" "http://www.w3.org/Graphics/SVG/1.1/DTD/svg11.dtd">
<svg width="100pt" height="100pt" viewBox="0 0 100 100" version="1.1" xmlns="http://www.w3.org/2000/svg">
<g id="#ffffffff">
<path fill="#ffffff" opacity="1.00" d=" M 0.00 0.00 L 100.00 0.00 L 100.00 100.00 L 0.00 100.00 L 0.00 0.00 M 42.44 20.20 C 38.66 22.21 33.22 23.96 32.88 29.00 C 33.28 36.07 36.35 42.63 38.70 49.22 C 40.23 53.21 38.01 57.38 38.75 61.48 C 38.88 64.63 40.92 67.13 42.64 69.60 C 44.23 71.84 44.08 74.73 44.55 77.32 C 41.33 77.57 40.75 82.95 43.70 83.66 C 44.05 82.30 44.02 80.92 43.63 79.54 C 50.84 80.79 58.40 79.61 65.18 76.94 C 66.07 78.67 65.58 82.51 68.50 81.62 C 68.13 77.34 63.97 74.51 64.12 70.16 C 64.30 64.22 68.99 59.73 70.03 54.01 C 70.79 49.48 72.37 45.17 73.74 40.80 C 74.77 37.27 71.55 34.72 69.47 32.41 C 66.76 29.70 65.12 26.16 62.56 23.33 C 59.43 21.33 55.65 20.41 51.94 20.66 C 48.70 21.08 45.50 18.23 42.44 20.20 Z" />
<path fill="#ffffff" opacity="1.00" d=" M 37.79 24.63 C 40.65 23.15 43.42 21.30 46.67 20.82 C 44.22 22.37 41.68 23.78 39.39 25.56 C 38.99 25.33 38.19 24.86 37.79 24.63 Z" />
<path fill="#ffffff" opacity="1.00" d=" M 40.47 27.01 C 46.05 21.71 55.52 20.46 61.80 25.18 C 65.01 29.61 68.10 34.16 72.13 37.92 C 71.86 43.12 69.13 47.75 68.48 52.89 C 67.65 58.40 63.41 62.65 62.60 68.14 C 62.15 70.76 62.89 73.37 63.51 75.89 C 57.88 77.57 51.99 78.57 46.10 78.24 C 46.00 75.73 46.11 73.14 45.19 70.75 C 43.96 67.65 41.22 65.30 40.58 61.94 C 39.73 58.25 41.39 54.58 41.00 50.88 C 39.84 45.35 36.33 40.50 35.95 34.77 C 37.38 33.97 38.69 32.96 39.60 31.57 C 38.10 32.16 36.60 32.77 35.11 33.37 C 34.72 31.28 34.59 29.15 34.96 27.04 C 35.53 26.81 36.65 26.34 37.21 26.11 C 43.66 31.27 44.28 41.08 51.83 45.19 C 54.19 46.64 58.97 43.83 57.28 41.07 C 56.14 42.07 55.06 43.14 53.84 44.04 C 52.54 43.53 51.38 42.75 50.19 42.03 C 51.00 39.96 51.89 37.92 52.92 35.95 C 52.37 34.00 51.93 31.99 52.20 29.95 C 53.11 32.27 53.03 35.11 54.99 36.89 C 57.24 35.61 53.81 32.32 54.95 30.17 C 56.88 32.50 57.06 35.82 59.23 37.98 C 59.44 37.71 59.85 37.18 60.06 36.92 C 59.08 34.27 57.99 31.66 57.01 29.01 C 53.43 29.82 50.02 27.21 46.57 28.61 C 44.35 29.65 42.29 28.09 40.47 27.01 Z" />
<path fill="#ffffff" opacity="1.00" d=" M 43.13 30.49 C 45.46 31.17 47.70 30.22 49.91 29.62 C 50.82 33.31 51.21 37.18 48.85 40.45 C 46.42 37.44 45.10 33.78 43.13 30.49 Z" />
</g>
<g id="#626262ff">
<path fill="#626262" opacity="1.00" d=" M 42.44 20.20 C 45.50 18.23 48.70 21.08 51.94 20.66 C 55.65 20.41 59.43 21.33 62.56 23.33 C 65.12 26.16 66.76 29.70 69.47 32.41 C 71.55 34.72 74.77 37.27 73.74 40.80 C 72.37 45.17 70.79 49.48 70.03 54.01 C 68.99 59.73 64.30 64.22 64.12 70.16 C 63.97 74.51 68.13 77.34 68.50 81.62 C 65.58 82.51 66.07 78.67 65.18 76.94 C 58.40 79.61 50.84 80.79 43.63 79.54 C 44.02 80.92 44.05 82.30 43.70 83.66 C 40.75 82.95 41.33 77.57 44.55 77.32 C 44.08 74.73 44.23 71.84 42.64 69.60 C 40.92 67.13 38.88 64.63 38.75 61.48 C 38.01 57.38 40.23 53.21 38.70 49.22 C 36.35 42.63 33.28 36.07 32.88 29.00 C 33.22 23.96 38.66 22.21 42.44 20.20 M 37.79 24.63 C 38.19 24.86 38.99 25.33 39.39 25.56 C 41.68 23.78 44.22 22.37 46.67 20.82 C 43.42 21.30 40.65 23.15 37.79 24.63 M 40.47 27.01 C 42.29 28.09 44.35 29.65 46.57 28.61 C 50.02 27.21 53.43 29.82 57.01 29.01 C 57.99 31.66 59.08 34.27 60.06 36.92 C 59.85 37.18 59.44 37.71 59.23 37.98 C 57.06 35.82 56.88 32.50 54.95 30.17 C 53.81 32.32 57.24 35.61 54.99 36.89 C 53.03 35.11 53.11 32.27 52.20 29.95 C 51.93 31.99 52.37 34.00 52.92 35.95 C 51.89 37.92 51.00 39.96 50.19 42.03 C 51.38 42.75 52.54 43.53 53.84 44.04 C 55.06 43.14 56.14 42.07 57.28 41.07 C 58.97 43.83 54.19 46.64 51.83 45.19 C 44.28 41.08 43.66 31.27 37.21 26.11 C 36.65 26.34 35.53 26.81 34.96 27.04 C 34.59 29.15 34.72 31.28 35.11 33.37 C 36.60 32.77 38.10 32.16 39.60 31.57 C 38.69 32.96 37.38 33.97 35.95 34.77 C 36.33 40.50 39.84 45.35 41.00 50.88 C 41.39 54.58 39.73 58.25 40.58 61.94 C 41.22 65.30 43.96 67.65 45.19 70.75 C 46.11 73.14 46.00 75.73 46.10 78.24 C 51.99 78.57 57.88 77.57 63.51 75.89 C 62.89 73.37 62.15 70.76 62.60 68.14 C 63.41 62.65 67.65 58.40 68.48 52.89 C 69.13 47.75 71.86 43.12 72.13 37.92 C 68.10 34.16 65.01 29.61 61.80 25.18 C 55.52 20.46 46.05 21.71 40.47 27.01 M 43.13 30.49 C 45.10 33.78 46.42 37.44 48.85 40.45 C 51.21 37.18 50.82 33.31 49.91 29.62 C 47.70 30.22 45.46 31.17 43.13 30.49 Z" />
</g>
</svg>
