<?xml version="1.0" encoding="UTF-8" ?>
<!DOCTYPE svg PUBLIC "-//W3C//DTD SVG 1.1//EN" "http://www.w3.org/Graphics/SVG/1.1/DTD/svg11.dtd">
<svg width="100pt" height="100pt" viewBox="0 0 100 100" version="1.1" xmlns="http://www.w3.org/2000/svg">
<g id="#ffffffff">
<path fill="#ffffff" opacity="1.00" d=" M 0.00 0.00 L 100.00 0.00 L 100.00 100.00 L 0.00 100.00 L 0.00 0.00 M 13.47 25.66 C 15.12 28.15 18.33 28.28 21.01 28.55 C 25.23 28.92 29.17 30.59 33.16 31.91 C 28.44 34.15 23.24 35.17 18.69 37.77 C 16.01 39.33 11.92 39.64 10.70 42.88 C 11.56 47.07 17.05 46.78 20.17 45.55 C 28.23 49.53 37.54 50.68 44.87 56.18 C 49.38 59.53 55.03 60.44 60.43 61.35 C 61.83 64.50 64.88 66.51 66.35 69.57 C 66.55 72.55 66.36 76.76 70.24 77.32 C 69.64 75.70 68.76 74.20 67.85 72.74 C 69.74 72.79 71.71 72.93 73.48 72.11 C 78.10 70.06 82.81 67.68 85.93 63.55 C 87.15 64.91 88.00 67.00 90.08 67.16 C 89.50 65.50 88.86 63.75 87.31 62.75 C 80.72 57.96 76.54 50.79 71.73 44.38 C 68.73 40.39 64.13 37.98 61.14 33.98 C 58.99 31.16 56.96 27.76 53.29 26.79 C 48.99 25.69 44.52 25.33 40.33 23.80 C 34.80 21.69 28.82 22.24 23.09 21.23 C 20.43 20.91 17.70 20.70 15.06 21.28 C 13.25 21.66 12.24 24.18 13.47 25.66 Z" />
<path fill="#ffffff" opacity="1.00" d=" M 14.67 23.06 C 21.16 22.34 27.56 23.78 34.01 24.14 C 38.14 24.53 41.90 26.50 45.98 27.14 C 48.86 27.79 51.96 27.87 54.59 29.33 C 57.05 30.89 58.40 33.56 60.24 35.72 C 63.18 39.47 67.64 41.67 70.40 45.60 C 74.69 51.53 78.89 57.61 84.15 62.75 C 81.46 66.37 77.31 68.36 73.35 70.26 C 71.90 71.08 70.21 70.86 68.62 70.89 C 67.83 67.46 65.47 64.85 62.93 62.58 C 63.56 61.77 64.20 60.96 64.85 60.16 C 58.21 59.25 51.09 58.58 45.51 54.49 C 39.89 50.55 33.29 48.40 26.73 46.60 C 28.11 44.77 28.34 42.55 28.11 40.34 C 32.43 41.31 36.64 43.35 41.15 43.00 C 43.59 42.64 46.04 42.15 48.32 41.23 C 49.68 40.78 49.72 39.15 49.40 38.02 C 46.30 40.67 41.95 41.70 37.98 40.92 C 39.54 40.24 41.09 39.55 42.63 38.84 C 40.63 37.73 38.56 38.81 36.58 39.32 C 32.13 41.03 27.66 37.14 23.15 38.90 C 20.70 39.26 20.21 41.93 19.72 43.90 C 17.13 44.91 14.29 44.94 12.03 43.13 C 14.90 41.07 18.30 40.02 21.41 38.40 C 25.89 36.00 31.24 35.56 35.32 32.34 C 37.81 33.20 40.09 34.54 42.51 35.58 C 41.51 32.16 37.95 31.20 34.91 30.43 C 30.20 29.33 25.79 26.97 20.88 26.80 C 18.37 26.62 14.87 26.28 14.67 23.06 Z" />
<path fill="#ffffff" opacity="1.00" d=" M 22.09 41.10 C 23.83 40.65 25.58 40.25 27.34 39.89 C 27.05 41.97 26.72 44.06 26.06 46.06 C 24.76 45.57 23.45 45.08 22.14 44.60 C 22.12 43.43 22.10 42.27 22.09 41.10 Z" />
</g>
<g id="#636363ff">
<path fill="#636363" opacity="1.00" d=" M 13.47 25.66 C 12.24 24.18 13.25 21.66 15.06 21.28 C 17.70 20.70 20.43 20.91 23.09 21.23 C 28.82 22.24 34.80 21.69 40.33 23.80 C 44.52 25.33 48.99 25.69 53.29 26.79 C 56.96 27.76 58.99 31.16 61.14 33.98 C 64.13 37.98 68.73 40.39 71.73 44.38 C 76.54 50.79 80.72 57.96 87.31 62.75 C 88.86 63.75 89.50 65.50 90.08 67.16 C 88.00 67.00 87.15 64.91 85.93 63.55 C 82.81 67.68 78.10 70.06 73.48 72.11 C 71.71 72.93 69.74 72.79 67.85 72.74 C 68.76 74.20 69.64 75.70 70.24 77.32 C 66.36 76.76 66.55 72.55 66.35 69.57 C 64.88 66.51 61.83 64.50 60.43 61.35 C 55.03 60.44 49.38 59.53 44.87 56.18 C 37.54 50.68 28.23 49.53 20.17 45.55 C 17.05 46.78 11.56 47.07 10.70 42.88 C 11.92 39.64 16.01 39.33 18.69 37.77 C 23.24 35.17 28.44 34.15 33.16 31.91 C 29.17 30.59 25.23 28.92 21.01 28.55 C 18.33 28.28 15.12 28.15 13.47 25.66 M 14.67 23.06 C 14.87 26.28 18.37 26.62 20.88 26.80 C 25.79 26.97 30.20 29.33 34.91 30.43 C 37.95 31.20 41.51 32.16 42.51 35.58 C 40.09 34.54 37.81 33.20 35.32 32.34 C 31.24 35.56 25.89 36.00 21.41 38.40 C 18.30 40.02 14.90 41.07 12.03 43.13 C 14.29 44.94 17.13 44.91 19.72 43.90 C 20.21 41.93 20.70 39.26 23.15 38.90 C 27.66 37.14 32.13 41.03 36.58 39.32 C 38.56 38.81 40.63 37.73 42.63 38.84 C 41.09 39.55 39.54 40.24 37.98 40.92 C 41.95 41.70 46.30 40.67 49.40 38.02 C 49.72 39.15 49.68 40.78 48.32 41.23 C 46.04 42.15 43.59 42.64 41.15 43.00 C 36.64 43.35 32.43 41.31 28.11 40.34 C 28.34 42.55 28.11 44.77 26.73 46.60 C 33.29 48.40 39.89 50.55 45.51 54.49 C 51.09 58.58 58.21 59.25 64.85 60.16 C 64.20 60.96 63.56 61.77 62.93 62.58 C 65.47 64.85 67.83 67.46 68.62 70.89 C 70.21 70.86 71.90 71.08 73.35 70.26 C 77.31 68.36 81.46 66.37 84.15 62.75 C 78.89 57.61 74.69 51.53 70.40 45.60 C 67.64 41.67 63.18 39.47 60.24 35.72 C 58.40 33.56 57.05 30.89 54.59 29.33 C 51.96 27.87 48.86 27.79 45.98 27.14 C 41.90 26.50 38.14 24.53 34.01 24.14 C 27.56 23.78 21.16 22.34 14.67 23.06 M 22.09 41.10 C 22.10 42.27 22.12 43.43 22.14 44.60 C 23.45 45.08 24.76 45.57 26.06 46.06 C 26.72 44.06 27.05 41.97 27.34 39.89 C 25.58 40.25 23.83 40.65 22.09 41.10 Z" />
</g>
</svg>
