<?xml version="1.0" encoding="UTF-8" ?>
<!DOCTYPE svg PUBLIC "-//W3C//DTD SVG 1.1//EN" "http://www.w3.org/Graphics/SVG/1.1/DTD/svg11.dtd">
<svg width="100pt" height="100pt" viewBox="0 0 100 100" version="1.1" xmlns="http://www.w3.org/2000/svg">
<g id="#ffffffff">
<path fill="#ffffff" opacity="1.00" d=" M 0.00 0.00 L 100.00 0.00 L 100.00 100.00 L 0.00 100.00 L 0.00 0.00 M 23.83 36.06 C 18.95 37.82 16.33 42.64 13.49 46.61 C 11.78 50.64 9.88 55.39 11.14 59.74 C 14.09 61.23 17.30 59.29 18.60 56.56 C 20.00 53.58 21.34 50.55 23.53 48.04 C 24.99 50.39 26.53 52.70 28.42 54.74 C 24.75 57.26 20.70 60.32 19.90 65.00 C 20.05 66.49 21.16 68.56 22.99 67.86 C 28.24 65.92 33.38 63.64 38.66 61.75 C 43.94 59.87 49.66 60.28 55.03 58.81 C 59.94 57.83 64.41 55.53 69.05 53.77 C 74.51 52.19 76.47 61.87 82.08 58.88 C 80.35 57.94 78.58 57.06 76.80 56.19 C 81.73 52.15 84.26 45.82 84.20 39.51 C 85.14 39.67 87.02 39.99 87.97 40.15 C 87.66 39.69 87.06 38.78 86.76 38.32 C 79.64 37.97 73.20 34.38 66.07 34.11 C 56.57 33.79 47.48 30.32 37.98 30.03 C 32.92 31.12 28.58 34.15 23.83 36.06 Z" />
<path fill="#ffffff" opacity="1.00" d=" M 24.67 37.63 C 30.10 35.71 34.98 31.19 41.08 32.04 C 49.80 32.86 58.23 35.70 67.02 36.03 C 72.31 36.18 77.10 38.64 82.22 39.65 C 82.43 44.65 80.81 49.78 77.24 53.37 C 75.84 54.83 74.12 52.79 72.63 52.47 C 69.69 50.93 66.61 52.82 63.92 53.97 C 57.71 56.87 50.89 58.06 44.12 58.73 C 38.33 59.19 33.27 62.26 27.84 64.01 C 26.75 62.57 25.62 61.16 24.49 59.75 C 28.29 56.60 32.81 54.59 37.03 52.09 C 40.29 50.28 41.97 46.85 43.86 43.81 C 41.10 44.80 38.57 43.24 35.97 42.58 C 33.40 42.56 30.82 42.86 28.28 43.29 C 25.47 44.18 23.21 46.24 21.18 48.30 C 17.73 51.61 17.99 58.23 12.24 58.98 C 12.86 54.34 13.35 49.29 16.36 45.48 C 18.73 42.50 20.82 38.87 24.67 37.63 Z" />
<path fill="#ffffff" opacity="1.00" d=" M 32.18 44.86 C 33.41 44.55 34.64 44.26 35.87 43.97 C 37.40 44.72 38.92 45.46 40.45 46.21 C 39.04 47.54 37.90 50.71 35.51 49.64 C 33.95 48.41 33.22 46.49 32.18 44.86 Z" />
<path fill="#ffffff" opacity="1.00" d=" M 25.13 46.83 C 26.77 45.99 28.46 45.25 30.21 44.68 C 31.44 47.20 32.91 49.60 34.76 51.70 C 33.21 52.37 31.66 53.06 30.13 53.76 C 28.01 51.80 26.37 49.43 25.13 46.83 Z" />
<path fill="#ffffff" opacity="1.00" d=" M 22.57 61.67 C 23.90 62.34 25.22 63.03 26.56 63.69 C 25.39 65.16 23.65 65.89 21.93 66.47 C 22.11 64.87 22.33 63.27 22.57 61.67 Z" />
</g>
<g id="#616161ff">
<path fill="#616161" opacity="1.00" d=" M 23.83 36.06 C 28.58 34.15 32.92 31.12 37.98 30.03 C 47.48 30.32 56.57 33.79 66.07 34.11 C 73.20 34.38 79.64 37.97 86.76 38.32 C 87.06 38.78 87.66 39.69 87.97 40.15 C 87.02 39.99 85.14 39.67 84.20 39.51 C 84.26 45.82 81.73 52.15 76.80 56.19 C 78.58 57.06 80.35 57.94 82.08 58.88 C 76.47 61.87 74.51 52.19 69.05 53.77 C 64.41 55.53 59.94 57.83 55.03 58.81 C 49.66 60.28 43.94 59.87 38.66 61.75 C 33.38 63.64 28.24 65.92 22.99 67.86 C 21.16 68.56 20.05 66.49 19.90 65.00 C 20.70 60.32 24.75 57.26 28.42 54.74 C 26.53 52.70 24.99 50.39 23.53 48.04 C 21.34 50.55 20.00 53.58 18.60 56.56 C 17.30 59.29 14.09 61.23 11.14 59.74 C 9.88 55.39 11.78 50.64 13.49 46.61 C 16.33 42.64 18.95 37.82 23.83 36.06 M 24.67 37.63 C 20.82 38.87 18.73 42.50 16.36 45.48 C 13.35 49.29 12.86 54.34 12.24 58.98 C 17.99 58.23 17.73 51.61 21.18 48.30 C 23.21 46.24 25.47 44.18 28.28 43.29 C 30.82 42.86 33.40 42.56 35.97 42.58 C 38.57 43.24 41.10 44.80 43.86 43.81 C 41.97 46.85 40.29 50.28 37.03 52.09 C 32.81 54.59 28.29 56.60 24.49 59.75 C 25.62 61.16 26.75 62.57 27.84 64.01 C 33.27 62.26 38.33 59.19 44.12 58.73 C 50.89 58.06 57.71 56.87 63.92 53.97 C 66.61 52.82 69.69 50.93 72.63 52.47 C 74.12 52.79 75.84 54.83 77.24 53.37 C 80.81 49.78 82.43 44.65 82.22 39.65 C 77.10 38.64 72.31 36.18 67.02 36.03 C 58.23 35.70 49.80 32.86 41.08 32.04 C 34.98 31.19 30.10 35.71 24.67 37.63 M 32.18 44.86 C 33.22 46.49 33.95 48.41 35.51 49.64 C 37.90 50.71 39.04 47.54 40.45 46.21 C 38.92 45.46 37.40 44.72 35.87 43.97 C 34.64 44.26 33.41 44.55 32.18 44.86 M 25.13 46.83 C 26.37 49.43 28.01 51.80 30.13 53.76 C 31.66 53.06 33.21 52.37 34.76 51.70 C 32.91 49.60 31.44 47.20 30.21 44.68 C 28.46 45.25 26.77 45.99 25.13 46.83 M 22.57 61.67 C 22.33 63.27 22.11 64.87 21.93 66.47 C 23.65 65.89 25.39 65.16 26.56 63.69 C 25.22 63.03 23.90 62.34 22.57 61.67 Z" />
</g>
</svg>
