<?xml version="1.0" encoding="UTF-8" ?>
<!DOCTYPE svg PUBLIC "-//W3C//DTD SVG 1.1//EN" "http://www.w3.org/Graphics/SVG/1.1/DTD/svg11.dtd">
<svg width="100pt" height="100pt" viewBox="0 0 100 100" version="1.1" xmlns="http://www.w3.org/2000/svg">
<g id="#ffffffff">
<path fill="#ffffff" opacity="1.00" d=" M 0.00 0.00 L 100.00 0.00 L 100.00 100.00 L 0.00 100.00 L 0.00 0.00 M 40.85 11.58 C 38.50 11.77 36.15 13.56 36.98 16.18 C 38.87 21.97 43.59 26.21 46.93 31.17 C 46.85 32.46 46.79 33.75 46.73 35.05 C 43.61 33.41 39.55 32.36 36.43 34.55 C 34.65 35.67 35.20 37.91 35.04 39.68 C 31.23 40.86 31.99 45.27 29.99 48.03 C 33.53 56.23 33.83 65.63 38.78 73.30 C 41.07 78.11 45.76 80.94 49.11 84.81 C 51.26 88.07 46.09 90.13 47.39 93.49 C 47.77 93.51 48.51 93.54 48.88 93.56 C 49.03 92.32 48.85 89.77 50.90 90.26 C 58.35 90.71 66.10 89.15 72.09 84.49 C 72.93 86.06 73.79 87.62 74.79 89.09 C 75.30 87.07 75.03 84.93 73.41 83.48 C 70.62 80.39 67.95 76.37 68.98 72.00 C 70.19 64.82 71.05 57.26 68.74 50.21 C 67.52 46.66 67.76 42.61 65.61 39.41 C 62.05 34.02 58.54 28.58 54.79 23.32 C 51.18 17.27 51.35 8.06 44.16 4.74 C 41.32 5.97 40.57 8.71 40.85 11.58 Z" />
<path fill="#ffffff" opacity="1.00" d=" M 43.03 11.98 C 42.24 10.22 42.39 6.56 45.13 6.97 C 48.57 10.52 49.52 15.61 51.68 19.93 C 51.41 19.83 50.87 19.62 50.59 19.52 C 48.18 16.90 45.33 14.70 43.03 11.98 Z" />
<path fill="#ffffff" opacity="1.00" d=" M 38.27 14.77 C 39.56 13.85 41.31 12.58 42.58 14.29 C 47.07 18.81 52.44 22.60 55.89 28.06 C 58.55 32.06 61.28 36.02 63.94 40.03 C 66.14 43.29 65.77 47.42 67.09 51.01 C 69.44 58.15 68.25 65.72 67.02 72.94 C 66.21 76.85 68.90 80.14 70.65 83.35 C 65.18 87.45 58.23 88.74 51.53 88.63 C 51.14 86.54 51.36 84.03 49.61 82.49 C 47.18 80.19 44.39 78.23 42.38 75.51 C 37.74 69.50 35.81 62.04 33.97 54.81 C 36.36 56.83 38.42 59.26 41.03 61.00 C 43.23 62.32 45.17 60.57 46.49 58.94 C 46.26 62.07 46.77 65.19 47.83 68.14 L 48.96 67.02 C 48.56 63.98 47.79 60.94 48.28 57.85 C 44.90 56.29 43.80 52.14 40.27 50.80 C 37.01 49.44 34.00 46.77 33.45 43.12 C 35.15 40.38 38.70 43.84 41.06 44.29 C 40.18 45.35 39.15 46.26 38.36 47.39 C 41.04 47.04 42.23 43.58 45.10 44.07 C 48.50 44.71 50.74 47.62 53.60 49.29 C 56.47 51.25 59.86 52.33 62.62 54.45 C 64.19 55.80 63.54 58.83 65.99 59.27 C 66.62 54.90 63.08 51.89 59.41 50.45 C 54.57 48.55 51.14 44.32 46.28 42.52 C 46.06 41.28 45.78 40.06 45.46 38.84 C 44.53 39.89 44.18 41.22 44.07 42.60 C 41.67 42.77 39.27 42.14 37.35 40.67 C 36.86 39.18 37.07 37.57 36.94 36.03 C 40.73 34.06 45.91 35.22 47.90 39.19 C 48.57 37.42 48.42 35.54 48.40 33.69 C 50.16 35.90 50.03 40.16 53.33 40.52 C 51.24 33.21 46.27 27.29 41.73 21.37 C 40.16 19.41 39.15 17.11 38.27 14.77 Z" />
<path fill="#ffffff" opacity="1.00" d=" M 32.24 46.16 C 33.88 48.34 35.55 50.68 38.18 51.72 C 41.35 53.04 44.74 55.79 43.98 59.66 C 42.27 60.15 41.05 58.62 39.82 57.74 C 40.56 56.82 41.27 55.88 41.95 54.92 C 40.80 55.46 39.68 56.06 38.60 56.72 C 36.04 54.46 33.80 51.89 31.94 49.03 C 32.01 48.31 32.17 46.87 32.24 46.16 Z" />
</g>
<g id="#616161ff">
<path fill="#616161" opacity="1.00" d=" M 40.85 11.58 C 40.57 8.71 41.32 5.97 44.16 4.74 C 51.35 8.06 51.18 17.27 54.79 23.32 C 58.54 28.58 62.05 34.02 65.61 39.41 C 67.76 42.61 67.52 46.66 68.74 50.21 C 71.05 57.26 70.19 64.82 68.98 72.00 C 67.95 76.37 70.62 80.39 73.41 83.48 C 75.03 84.93 75.30 87.07 74.79 89.09 C 73.79 87.62 72.93 86.06 72.09 84.49 C 66.10 89.15 58.35 90.71 50.90 90.26 C 48.85 89.77 49.03 92.32 48.88 93.56 C 48.51 93.54 47.77 93.51 47.39 93.49 C 46.09 90.13 51.26 88.07 49.11 84.81 C 45.76 80.94 41.07 78.11 38.78 73.30 C 33.83 65.63 33.53 56.23 29.99 48.03 C 31.99 45.27 31.23 40.86 35.04 39.68 C 35.20 37.91 34.65 35.67 36.43 34.55 C 39.55 32.36 43.61 33.41 46.73 35.05 C 46.79 33.75 46.85 32.46 46.93 31.17 C 43.59 26.21 38.87 21.97 36.98 16.18 C 36.15 13.56 38.50 11.77 40.85 11.58 M 43.03 11.98 C 45.33 14.70 48.18 16.90 50.59 19.52 C 50.87 19.62 51.41 19.83 51.68 19.93 C 49.52 15.61 48.57 10.52 45.13 6.97 C 42.39 6.56 42.24 10.22 43.03 11.98 M 38.27 14.77 C 39.15 17.11 40.16 19.41 41.73 21.37 C 46.27 27.29 51.24 33.21 53.33 40.52 C 50.03 40.16 50.16 35.90 48.40 33.69 C 48.42 35.54 48.57 37.42 47.90 39.19 C 45.91 35.22 40.73 34.06 36.94 36.03 C 37.07 37.57 36.86 39.18 37.35 40.67 C 39.27 42.14 41.67 42.77 44.07 42.60 C 44.18 41.22 44.53 39.89 45.46 38.84 C 45.78 40.06 46.06 41.28 46.28 42.52 C 51.14 44.32 54.57 48.55 59.41 50.45 C 63.08 51.89 66.62 54.90 65.99 59.27 C 63.54 58.83 64.19 55.80 62.62 54.45 C 59.86 52.33 56.47 51.25 53.60 49.29 C 50.74 47.62 48.50 44.71 45.10 44.07 C 42.23 43.58 41.04 47.04 38.36 47.39 C 39.15 46.26 40.18 45.35 41.06 44.29 C 38.70 43.84 35.15 40.38 33.45 43.12 C 34.00 46.77 37.01 49.44 40.27 50.80 C 43.80 52.14 44.90 56.29 48.28 57.85 C 47.79 60.94 48.56 63.98 48.96 67.02 L 47.83 68.14 C 46.77 65.19 46.26 62.07 46.49 58.94 C 45.17 60.57 43.23 62.32 41.03 61.00 C 38.42 59.26 36.36 56.83 33.97 54.81 C 35.81 62.04 37.74 69.50 42.38 75.51 C 44.39 78.23 47.18 80.19 49.61 82.49 C 51.36 84.03 51.14 86.54 51.53 88.63 C 58.23 88.74 65.18 87.45 70.65 83.35 C 68.90 80.14 66.21 76.85 67.02 72.94 C 68.25 65.72 69.44 58.15 67.09 51.01 C 65.77 47.42 66.14 43.29 63.94 40.03 C 61.28 36.02 58.55 32.06 55.89 28.06 C 52.44 22.60 47.07 18.81 42.58 14.29 C 41.31 12.58 39.56 13.85 38.27 14.77 M 32.24 46.16 C 32.17 46.87 32.01 48.31 31.94 49.03 C 33.80 51.89 36.04 54.46 38.60 56.72 C 39.68 56.06 40.80 55.46 41.95 54.92 C 41.27 55.88 40.56 56.82 39.82 57.74 C 41.05 58.62 42.27 60.15 43.98 59.66 C 44.74 55.79 41.35 53.04 38.18 51.72 C 35.55 50.68 33.88 48.34 32.24 46.16 Z" />
</g>
</svg>
