<?xml version="1.0" encoding="UTF-8" ?>
<!DOCTYPE svg PUBLIC "-//W3C//DTD SVG 1.1//EN" "http://www.w3.org/Graphics/SVG/1.1/DTD/svg11.dtd">
<svg width="100pt" height="100pt" viewBox="0 0 100 100" version="1.1" xmlns="http://www.w3.org/2000/svg">
<g id="#ffffffff">
<path fill="#ffffff" opacity="1.00" d=" M 0.00 0.00 L 100.00 0.00 L 100.00 100.00 L 0.00 100.00 L 0.00 0.00 M 46.53 12.69 C 44.89 13.42 44.37 15.28 43.59 16.74 C 41.51 15.50 38.87 14.05 36.54 15.61 C 34.55 16.43 34.10 18.66 33.43 20.46 C 31.37 20.53 28.31 19.86 27.37 22.31 C 25.95 26.32 28.39 30.29 29.55 34.04 C 29.29 36.28 29.05 38.55 29.32 40.80 C 29.98 46.00 28.78 51.35 30.35 56.45 C 31.99 63.88 39.15 68.34 40.69 75.85 C 39.60 77.24 38.11 78.43 37.46 80.12 C 37.36 81.76 37.87 83.34 38.18 84.93 C 39.89 83.81 39.20 81.80 39.13 80.16 C 39.58 79.75 40.49 78.93 40.94 78.51 C 49.61 80.72 58.80 78.71 66.43 74.30 C 69.09 72.95 66.83 79.67 70.09 78.16 C 70.35 75.29 69.11 71.92 65.77 71.85 C 63.87 68.77 64.35 65.25 65.47 62.00 C 70.37 60.87 76.03 60.55 79.73 56.74 C 82.25 54.35 80.03 50.97 79.74 48.16 C 76.75 47.33 73.77 46.43 70.74 45.75 C 72.47 48.00 74.29 50.19 76.14 52.35 C 77.16 52.45 78.24 52.44 79.16 52.99 C 77.10 58.15 70.68 58.32 66.00 59.10 C 65.15 51.06 69.11 43.78 70.64 36.11 C 71.61 31.84 69.25 27.88 68.07 23.92 C 66.78 20.25 66.22 15.66 62.42 13.65 C 60.25 12.04 57.56 12.72 55.19 13.39 C 52.43 12.65 49.30 11.08 46.53 12.69 Z" />
<path fill="#ffffff" opacity="1.00" d=" M 44.58 18.06 C 45.84 16.51 46.51 13.58 48.99 13.88 C 50.72 13.89 52.39 14.39 54.06 14.79 C 53.54 16.83 53.04 18.88 52.56 20.93 C 49.85 20.11 47.18 19.18 44.58 18.06 Z" />
<path fill="#ffffff" opacity="1.00" d=" M 54.02 21.64 C 54.98 18.87 55.00 14.30 58.93 14.26 C 62.57 14.55 64.72 18.14 65.40 21.40 C 66.68 26.59 70.17 31.58 68.68 37.12 C 66.81 44.34 63.74 51.37 64.01 59.00 C 57.59 59.22 51.24 57.90 44.82 57.99 C 46.09 58.70 47.38 59.40 48.71 60.00 C 47.14 60.28 45.42 60.41 44.33 61.77 C 50.82 62.24 57.35 62.19 63.86 61.99 C 62.09 65.73 62.44 69.81 64.46 73.38 C 57.72 76.92 49.87 78.87 42.32 77.03 C 42.14 68.26 33.33 63.43 31.81 55.17 C 30.37 49.26 31.79 43.14 30.83 37.16 C 33.37 39.38 36.67 40.26 39.89 39.11 C 42.11 39.35 44.36 39.38 46.44 38.47 C 43.18 42.55 43.35 48.10 44.09 52.99 C 44.58 53.38 45.54 54.17 46.03 54.57 C 45.65 51.25 45.07 47.87 45.65 44.54 C 46.10 40.51 50.85 37.53 48.78 33.21 C 47.94 28.77 42.59 27.99 40.79 24.20 C 39.76 22.60 39.93 20.65 39.89 18.85 C 42.09 19.20 44.24 19.82 46.36 20.51 C 45.28 21.95 44.11 23.32 43.14 24.84 C 45.01 24.08 46.53 22.78 47.76 21.19 C 54.22 22.62 58.60 27.97 62.43 32.96 C 62.79 32.71 63.49 32.22 63.84 31.97 C 62.85 30.70 61.85 29.43 60.84 28.18 C 62.04 28.47 64.45 29.06 65.65 29.35 C 64.71 28.37 63.75 27.42 62.76 26.48 C 62.90 24.77 63.00 23.06 63.02 21.35 C 61.48 22.98 60.84 25.14 60.10 27.20 C 58.13 25.29 56.12 23.42 54.02 21.64 Z" />
<path fill="#ffffff" opacity="1.00" d=" M 35.40 20.21 C 35.59 17.47 38.44 16.55 40.79 16.55 C 39.72 17.93 37.62 18.99 37.91 21.04 C 38.05 26.20 44.27 28.57 44.11 33.88 C 44.75 32.81 45.38 31.72 45.99 30.62 C 46.75 32.81 47.43 35.04 47.70 37.34 C 46.79 36.03 46.13 34.60 45.71 33.05 C 45.06 34.56 44.77 36.17 44.28 37.72 C 41.94 38.13 40.12 36.63 38.58 35.08 C 40.31 34.07 42.11 33.13 43.62 31.78 C 41.71 31.95 39.97 32.75 38.29 33.62 C 37.37 29.15 35.30 24.84 35.40 20.21 Z" />
<path fill="#ffffff" opacity="1.00" d=" M 28.69 23.98 C 28.94 21.48 31.66 21.75 33.33 22.56 C 34.65 25.76 35.17 29.22 36.20 32.51 C 35.09 33.26 33.20 33.58 33.08 35.22 C 34.54 35.26 35.56 34.04 36.70 33.33 C 37.26 34.92 37.84 36.51 38.42 38.10 C 35.97 38.03 33.11 37.54 32.00 35.03 C 30.48 31.52 28.64 27.88 28.69 23.98 Z" />
</g>
<g id="#606060ff">
<path fill="#606060" opacity="1.00" d=" M 46.53 12.69 C 49.30 11.08 52.43 12.65 55.19 13.39 C 57.56 12.72 60.25 12.04 62.42 13.65 C 66.22 15.66 66.78 20.25 68.07 23.92 C 69.25 27.88 71.61 31.84 70.64 36.11 C 69.11 43.78 65.15 51.06 66.00 59.10 C 70.68 58.32 77.10 58.15 79.16 52.99 C 78.24 52.44 77.16 52.45 76.14 52.35 C 74.29 50.19 72.47 48.00 70.74 45.75 C 73.77 46.43 76.75 47.33 79.74 48.16 C 80.03 50.97 82.25 54.35 79.73 56.74 C 76.03 60.55 70.37 60.87 65.47 62.00 C 64.35 65.25 63.87 68.77 65.77 71.85 C 69.11 71.92 70.35 75.29 70.09 78.16 C 66.83 79.67 69.09 72.95 66.43 74.30 C 58.80 78.71 49.61 80.72 40.94 78.51 C 40.49 78.93 39.58 79.75 39.13 80.16 C 39.20 81.80 39.89 83.81 38.18 84.93 C 37.87 83.34 37.36 81.76 37.46 80.12 C 38.11 78.43 39.60 77.24 40.69 75.85 C 39.15 68.34 31.99 63.88 30.35 56.45 C 28.78 51.35 29.98 46.00 29.32 40.80 C 29.05 38.55 29.29 36.28 29.55 34.04 C 28.39 30.29 25.95 26.32 27.37 22.31 C 28.31 19.86 31.37 20.53 33.43 20.46 C 34.10 18.66 34.55 16.43 36.54 15.61 C 38.87 14.05 41.51 15.50 43.59 16.74 C 44.37 15.28 44.89 13.42 46.53 12.69 M 44.58 18.06 C 47.18 19.18 49.85 20.11 52.56 20.93 C 53.04 18.88 53.54 16.83 54.06 14.79 C 52.39 14.39 50.72 13.89 48.99 13.88 C 46.51 13.58 45.84 16.51 44.58 18.06 M 54.02 21.64 C 56.12 23.42 58.13 25.29 60.10 27.20 C 60.84 25.14 61.48 22.98 63.02 21.35 C 63.00 23.06 62.90 24.77 62.76 26.48 C 63.75 27.42 64.71 28.37 65.65 29.35 C 64.45 29.06 62.04 28.47 60.84 28.18 C 61.85 29.43 62.85 30.70 63.84 31.97 C 63.49 32.22 62.79 32.71 62.43 32.96 C 58.60 27.97 54.22 22.62 47.76 21.19 C 46.53 22.78 45.01 24.08 43.14 24.84 C 44.11 23.32 45.28 21.95 46.36 20.51 C 44.24 19.82 42.09 19.20 39.89 18.85 C 39.93 20.65 39.76 22.60 40.79 24.20 C 42.59 27.99 47.94 28.77 48.78 33.21 C 50.85 37.53 46.10 40.51 45.65 44.54 C 45.07 47.87 45.65 51.25 46.03 54.57 C 45.54 54.17 44.58 53.38 44.09 52.99 C 43.35 48.10 43.18 42.55 46.44 38.47 C 44.36 39.38 42.11 39.35 39.89 39.11 C 36.67 40.26 33.37 39.38 30.83 37.16 C 31.79 43.14 30.37 49.26 31.81 55.17 C 33.33 63.43 42.14 68.26 42.32 77.03 C 49.87 78.87 57.72 76.92 64.46 73.38 C 62.44 69.81 62.09 65.73 63.86 61.99 C 57.35 62.19 50.82 62.24 44.33 61.77 C 45.42 60.41 47.14 60.28 48.71 60.00 C 47.38 59.40 46.09 58.70 44.82 57.99 C 51.24 57.90 57.59 59.22 64.01 59.00 C 63.74 51.37 66.81 44.34 68.68 37.12 C 70.17 31.58 66.68 26.59 65.40 21.40 C 64.72 18.14 62.57 14.55 58.93 14.26 C 55.00 14.30 54.98 18.87 54.02 21.64 M 35.40 20.21 C 35.30 24.84 37.37 29.15 38.29 33.62 C 39.97 32.75 41.71 31.95 43.62 31.78 C 42.11 33.13 40.31 34.07 38.58 35.08 C 40.12 36.63 41.94 38.13 44.28 37.72 C 44.77 36.17 45.06 34.56 45.71 33.05 C 46.13 34.60 46.79 36.03 47.70 37.34 C 47.43 35.04 46.75 32.81 45.99 30.62 C 45.38 31.72 44.75 32.81 44.11 33.88 C 44.27 28.57 38.05 26.20 37.91 21.04 C 37.62 18.99 39.72 17.93 40.79 16.55 C 38.44 16.55 35.59 17.47 35.40 20.21 M 28.69 23.98 C 28.64 27.88 30.48 31.52 32.00 35.03 C 33.11 37.54 35.97 38.03 38.42 38.10 C 37.84 36.51 37.26 34.92 36.70 33.33 C 35.56 34.04 34.54 35.26 33.08 35.22 C 33.20 33.58 35.09 33.26 36.20 32.51 C 35.17 29.22 34.65 25.76 33.33 22.56 C 31.66 21.75 28.94 21.48 28.69 23.98 Z" />
</g>
</svg>
