<?xml version="1.0" encoding="UTF-8" ?>
<!DOCTYPE svg PUBLIC "-//W3C//DTD SVG 1.1//EN" "http://www.w3.org/Graphics/SVG/1.1/DTD/svg11.dtd">
<svg width="100pt" height="100pt" viewBox="0 0 100 100" version="1.1" xmlns="http://www.w3.org/2000/svg">
<g id="#ffffffff">
<path fill="#ffffff" opacity="1.00" d=" M 0.00 0.00 L 100.00 0.00 L 100.00 100.00 L 0.00 100.00 L 0.00 0.00 M 49.21 14.20 C 46.15 17.72 46.52 22.74 47.22 27.04 C 43.45 26.32 39.81 25.08 36.08 24.20 C 32.13 23.25 28.04 23.51 24.02 23.20 C 19.98 22.92 15.94 22.46 11.89 22.76 C 11.16 23.85 10.41 24.93 9.80 26.09 C 10.77 30.67 16.47 30.54 20.07 31.44 C 25.66 33.09 31.71 33.13 36.92 35.96 C 35.01 38.06 34.51 40.80 34.58 43.56 C 33.32 47.53 33.62 51.77 33.30 55.87 C 34.78 59.21 38.98 60.00 40.88 63.03 C 45.24 69.93 53.92 71.23 60.12 75.80 C 61.74 77.20 64.71 79.44 62.28 81.56 C 63.15 84.01 64.81 86.12 67.58 86.45 C 66.58 84.84 65.44 83.31 64.33 81.76 C 72.14 78.91 80.64 75.87 85.57 68.72 C 86.32 70.31 87.05 71.90 87.81 73.49 C 90.17 71.29 87.26 68.63 86.10 66.65 C 85.52 66.96 84.36 67.59 83.78 67.90 C 81.43 64.30 79.26 60.58 77.12 56.85 C 74.91 53.02 75.36 48.38 73.61 44.38 C 71.39 38.75 67.00 34.39 62.51 30.51 C 59.33 28.03 58.33 23.96 56.48 20.56 C 55.16 18.12 55.62 14.53 52.87 13.06 C 51.57 12.53 50.22 13.46 49.21 14.20 Z" />
<path fill="#ffffff" opacity="1.00" d=" M 48.44 22.99 C 48.30 19.69 48.92 15.23 52.87 14.56 C 53.35 16.27 53.78 18.00 54.17 19.74 C 53.32 20.53 52.49 21.34 51.67 22.15 C 52.47 21.95 54.05 21.53 54.84 21.33 C 56.82 24.64 57.68 28.73 60.74 31.31 C 65.02 35.02 69.36 39.03 71.67 44.33 C 73.76 48.74 73.16 54.00 75.83 58.19 C 78.12 61.99 80.26 65.90 82.80 69.55 C 78.14 74.54 71.67 77.13 65.43 79.54 C 60.69 70.52 48.91 70.22 42.55 62.89 C 47.59 62.50 53.26 64.42 57.68 61.21 C 58.87 61.60 60.06 61.98 61.26 62.34 C 60.15 60.79 58.98 59.28 57.81 57.76 C 61.10 56.60 61.53 52.89 62.41 50.01 C 62.30 46.85 59.29 45.19 56.67 44.28 C 52.65 42.85 49.30 40.10 45.34 38.55 C 46.99 42.26 51.26 43.62 54.63 45.33 C 57.48 46.01 60.44 47.62 61.00 50.78 C 59.33 51.56 57.53 51.19 55.80 50.97 C 56.16 49.71 56.80 48.47 56.77 47.13 C 55.32 47.45 55.14 49.24 54.36 50.25 C 47.74 48.98 41.67 46.06 36.06 42.40 C 36.45 41.04 36.55 39.55 37.36 38.34 C 38.63 37.06 40.70 37.51 42.28 36.99 C 37.54 33.83 32.20 31.71 26.52 31.12 C 21.70 29.47 16.10 29.90 11.80 26.95 C 11.77 23.66 15.87 24.12 18.08 24.47 C 24.04 25.57 30.22 24.33 36.09 26.04 C 39.99 27.09 43.88 28.29 47.94 28.66 C 49.90 32.80 51.04 37.55 54.50 40.78 C 53.58 34.51 48.97 29.39 48.44 22.99 Z" />
<path fill="#ffffff" opacity="1.00" d=" M 36.01 44.45 C 41.45 47.97 47.38 50.65 53.77 51.89 C 53.71 53.26 53.72 54.63 53.82 56.00 C 47.66 55.25 41.21 54.50 35.92 50.96 C 34.64 48.96 35.56 46.55 36.01 44.45 Z" />
<path fill="#ffffff" opacity="1.00" d=" M 35.01 52.86 C 40.34 55.22 45.90 57.26 51.80 57.35 C 51.73 58.29 51.57 60.17 51.49 61.11 C 48.45 60.95 45.37 61.24 42.37 60.70 C 39.67 59.58 37.38 57.72 35.07 55.98 C 35.06 55.20 35.03 53.64 35.01 52.86 Z" />
<path fill="#ffffff" opacity="1.00" d=" M 54.77 52.35 C 56.38 52.70 58.00 53.06 59.61 53.42 C 59.00 55.59 56.81 55.80 54.96 56.26 C 54.91 55.28 54.82 53.33 54.77 52.35 Z" />
<path fill="#ffffff" opacity="1.00" d=" M 52.51 57.03 C 53.98 57.71 56.29 57.77 56.08 59.95 C 55.32 60.76 54.37 61.14 53.25 61.09 C 53.06 60.07 52.70 58.05 52.51 57.03 Z" />
</g>
<g id="#626262ff">
<path fill="#626262" opacity="1.00" d=" M 49.21 14.20 C 50.22 13.46 51.57 12.53 52.87 13.06 C 55.62 14.53 55.16 18.12 56.48 20.56 C 58.33 23.96 59.33 28.03 62.51 30.51 C 67.00 34.39 71.39 38.75 73.61 44.38 C 75.36 48.38 74.91 53.02 77.12 56.85 C 79.26 60.58 81.43 64.30 83.78 67.90 C 84.36 67.59 85.52 66.96 86.10 66.65 C 87.26 68.63 90.17 71.29 87.81 73.49 C 87.05 71.90 86.32 70.31 85.57 68.72 C 80.64 75.87 72.14 78.91 64.33 81.76 C 65.44 83.31 66.58 84.84 67.58 86.45 C 64.81 86.12 63.15 84.01 62.28 81.56 C 64.71 79.44 61.74 77.20 60.12 75.80 C 53.92 71.23 45.24 69.93 40.88 63.03 C 38.98 60.00 34.78 59.21 33.30 55.87 C 33.62 51.77 33.32 47.53 34.58 43.56 C 34.51 40.80 35.01 38.06 36.92 35.96 C 31.71 33.13 25.66 33.09 20.07 31.44 C 16.47 30.54 10.77 30.67 9.80 26.09 C 10.41 24.93 11.16 23.85 11.89 22.76 C 15.94 22.46 19.98 22.92 24.02 23.20 C 28.04 23.51 32.13 23.25 36.08 24.20 C 39.81 25.08 43.45 26.32 47.22 27.04 C 46.52 22.74 46.15 17.72 49.21 14.20 M 48.44 22.99 C 48.97 29.39 53.58 34.51 54.50 40.78 C 51.04 37.55 49.90 32.80 47.94 28.66 C 43.88 28.29 39.99 27.09 36.09 26.04 C 30.22 24.33 24.04 25.57 18.08 24.47 C 15.87 24.12 11.77 23.66 11.80 26.95 C 16.10 29.90 21.70 29.47 26.52 31.12 C 32.20 31.71 37.54 33.83 42.28 36.99 C 40.70 37.51 38.63 37.06 37.36 38.34 C 36.55 39.55 36.45 41.04 36.06 42.40 C 41.67 46.06 47.74 48.98 54.36 50.25 C 55.14 49.24 55.32 47.45 56.77 47.13 C 56.80 48.47 56.16 49.71 55.80 50.97 C 57.53 51.19 59.33 51.56 61.00 50.78 C 60.44 47.62 57.48 46.01 54.63 45.33 C 51.26 43.62 46.99 42.26 45.34 38.55 C 49.30 40.10 52.65 42.85 56.67 44.28 C 59.29 45.19 62.30 46.85 62.41 50.01 C 61.53 52.89 61.10 56.60 57.81 57.76 C 58.98 59.28 60.15 60.79 61.26 62.34 C 60.06 61.98 58.87 61.60 57.68 61.21 C 53.26 64.42 47.59 62.50 42.55 62.89 C 48.91 70.22 60.69 70.52 65.43 79.54 C 71.67 77.13 78.14 74.54 82.80 69.55 C 80.26 65.90 78.12 61.99 75.83 58.19 C 73.16 54.00 73.76 48.74 71.67 44.33 C 69.36 39.03 65.02 35.02 60.74 31.31 C 57.68 28.73 56.82 24.64 54.84 21.33 C 54.05 21.53 52.47 21.95 51.67 22.15 C 52.49 21.34 53.32 20.53 54.17 19.74 C 53.78 18.00 53.35 16.27 52.87 14.56 C 48.92 15.23 48.30 19.69 48.44 22.99 M 36.01 44.45 C 35.56 46.55 34.64 48.96 35.92 50.96 C 41.21 54.50 47.66 55.25 53.82 56.00 C 53.72 54.63 53.71 53.26 53.77 51.89 C 47.38 50.65 41.45 47.97 36.01 44.45 M 35.01 52.86 C 35.03 53.64 35.06 55.20 35.07 55.98 C 37.38 57.72 39.67 59.58 42.37 60.70 C 45.37 61.24 48.45 60.95 51.49 61.11 C 51.57 60.17 51.73 58.29 51.80 57.35 C 45.90 57.26 40.34 55.22 35.01 52.86 M 54.77 52.35 C 54.82 53.33 54.91 55.28 54.96 56.26 C 56.81 55.80 59.00 55.59 59.61 53.42 C 58.00 53.06 56.38 52.70 54.77 52.35 M 52.51 57.03 C 52.70 58.05 53.06 60.07 53.25 61.09 C 54.37 61.14 55.32 60.76 56.08 59.95 C 56.29 57.77 53.98 57.71 52.51 57.03 Z" />
</g>
</svg>
