<?xml version="1.0" encoding="UTF-8" ?>
<!DOCTYPE svg PUBLIC "-//W3C//DTD SVG 1.1//EN" "http://www.w3.org/Graphics/SVG/1.1/DTD/svg11.dtd">
<svg width="100pt" height="99pt" viewBox="0 0 100 99" version="1.1" xmlns="http://www.w3.org/2000/svg">
<g id="#ffffffff">
<path fill="#ffffff" opacity="1.00" d=" M 0.00 0.00 L 100.00 0.00 L 100.00 99.00 L 0.00 99.00 L 0.00 0.00 M 40.23 5.30 C 37.13 8.04 38.93 12.51 39.56 15.92 C 40.44 22.33 41.64 28.76 43.84 34.87 C 42.12 35.70 40.11 36.30 38.93 37.92 C 37.93 39.45 37.75 41.33 36.94 42.95 C 34.98 45.18 31.43 46.52 31.36 49.95 C 31.95 54.25 31.24 58.80 33.03 62.88 C 35.13 68.47 37.02 74.39 41.21 78.85 C 42.90 81.00 45.57 82.91 45.74 85.85 C 44.55 88.15 43.20 90.41 42.87 93.03 C 43.36 93.06 44.35 93.10 44.84 93.13 C 45.41 92.11 44.47 88.89 46.37 89.55 C 54.10 92.04 62.56 89.88 69.22 85.57 C 69.99 87.07 70.86 88.54 72.21 89.60 C 72.45 86.86 71.11 84.59 68.97 83.02 C 66.80 78.46 69.10 73.73 70.66 69.42 C 71.88 64.08 72.71 58.57 72.64 53.09 C 72.53 49.14 69.26 46.63 67.22 43.62 C 66.71 41.21 66.71 38.65 65.61 36.39 C 62.50 29.48 59.85 22.35 56.47 15.57 C 54.98 12.86 53.57 9.89 51.01 8.03 C 49.71 7.95 48.40 7.99 47.11 8.16 C 45.49 6.07 43.06 3.58 40.23 5.30 Z" />
<path fill="#ffffff" opacity="1.00" d=" M 40.28 10.73 C 39.68 8.88 40.91 7.31 41.92 5.92 C 44.13 7.20 45.89 9.20 46.16 11.83 C 47.77 20.26 51.09 28.21 53.77 36.33 C 51.27 35.46 48.68 34.92 46.04 34.86 C 42.31 27.37 42.25 18.74 40.28 10.73 Z" />
<path fill="#ffffff" opacity="1.00" d=" M 47.86 9.53 C 50.32 9.30 51.97 11.12 53.04 13.08 C 56.72 19.05 58.92 25.75 61.80 32.10 C 63.16 35.17 64.79 38.19 65.21 41.57 C 62.48 39.09 59.61 36.14 55.54 36.67 C 53.28 27.55 48.54 19.04 47.86 9.53 Z" />
<path fill="#ffffff" opacity="1.00" d=" M 40.57 38.70 C 41.94 37.32 43.93 36.90 45.62 36.07 C 44.82 40.57 48.36 44.22 52.18 45.88 C 53.96 46.59 55.53 47.68 56.43 49.41 C 54.60 50.04 52.58 50.90 52.47 53.15 C 53.82 52.18 55.22 51.26 56.77 50.65 C 56.69 52.26 57.78 54.24 56.35 55.52 C 50.79 54.43 49.52 47.30 44.20 45.79 C 42.67 45.26 41.06 45.01 39.46 44.80 C 40.73 47.79 44.75 47.02 46.61 49.37 C 48.60 51.64 50.50 54.00 52.79 55.99 C 52.39 57.23 52.02 58.48 51.67 59.74 C 46.43 57.72 42.40 52.85 36.47 52.81 C 37.17 55.27 39.96 54.94 41.76 56.06 C 44.16 57.58 46.47 59.24 49.05 60.46 C 47.46 63.85 47.13 67.66 48.03 71.28 C 50.20 70.74 49.15 68.53 49.29 66.98 C 49.09 64.97 50.03 63.11 50.80 61.32 C 52.52 61.43 54.49 62.23 56.05 61.10 C 57.68 60.21 57.96 58.26 58.54 56.68 C 59.65 53.08 58.27 48.86 56.08 45.93 C 52.31 43.97 47.69 41.94 46.99 37.16 C 49.09 36.99 51.16 37.31 53.14 38.01 C 52.91 38.57 52.43 39.69 52.20 40.26 C 54.37 39.01 57.28 37.52 59.62 39.26 C 63.20 42.01 66.34 45.36 69.16 48.88 C 72.17 52.57 70.73 57.64 70.26 61.93 C 69.90 65.88 68.84 69.73 67.32 73.39 C 65.77 77.03 66.61 81.04 67.24 84.78 C 61.23 87.94 54.03 90.39 47.32 87.98 C 48.24 83.92 45.53 80.67 42.87 78.01 C 38.48 73.49 36.59 67.37 34.46 61.60 C 33.07 58.24 33.86 54.54 33.15 51.04 C 32.45 48.21 35.47 46.83 37.18 45.26 C 39.42 43.78 39.13 40.73 40.57 38.70 Z" />
<path fill="#ffffff" opacity="1.00" d=" M 54.29 57.20 C 57.30 56.09 55.88 60.49 53.65 60.01 C 51.78 59.86 53.19 57.43 54.29 57.20 Z" />
</g>
<g id="#636363ff">
<path fill="#636363" opacity="1.00" d=" M 40.23 5.30 C 43.06 3.58 45.49 6.07 47.11 8.16 C 48.40 7.99 49.71 7.95 51.01 8.03 C 53.57 9.89 54.98 12.86 56.47 15.57 C 59.85 22.35 62.50 29.48 65.61 36.39 C 66.71 38.65 66.71 41.21 67.22 43.62 C 69.26 46.63 72.53 49.14 72.64 53.09 C 72.71 58.57 71.88 64.08 70.66 69.42 C 69.10 73.73 66.80 78.46 68.97 83.02 C 71.11 84.59 72.45 86.86 72.21 89.60 C 70.86 88.54 69.99 87.07 69.22 85.57 C 62.56 89.88 54.10 92.04 46.37 89.55 C 44.47 88.89 45.41 92.11 44.84 93.13 C 44.35 93.10 43.36 93.06 42.87 93.03 C 43.20 90.41 44.55 88.15 45.74 85.85 C 45.57 82.91 42.90 81.00 41.21 78.85 C 37.02 74.39 35.13 68.47 33.03 62.88 C 31.24 58.80 31.95 54.25 31.36 49.95 C 31.43 46.52 34.98 45.18 36.94 42.95 C 37.75 41.33 37.93 39.45 38.93 37.92 C 40.11 36.30 42.12 35.70 43.84 34.87 C 41.64 28.76 40.44 22.33 39.56 15.92 C 38.93 12.51 37.13 8.04 40.23 5.30 M 40.28 10.73 C 42.25 18.74 42.31 27.37 46.04 34.86 C 48.68 34.92 51.27 35.46 53.77 36.33 C 51.09 28.21 47.77 20.26 46.16 11.83 C 45.89 9.20 44.13 7.20 41.92 5.92 C 40.91 7.31 39.68 8.88 40.28 10.73 M 47.86 9.53 C 48.54 19.04 53.28 27.55 55.54 36.67 C 59.61 36.14 62.48 39.09 65.21 41.57 C 64.79 38.19 63.16 35.17 61.80 32.10 C 58.92 25.75 56.72 19.05 53.04 13.08 C 51.97 11.12 50.32 9.30 47.86 9.53 M 40.57 38.70 C 39.13 40.73 39.42 43.78 37.18 45.26 C 35.47 46.83 32.45 48.21 33.15 51.04 C 33.86 54.54 33.07 58.24 34.46 61.60 C 36.59 67.37 38.48 73.49 42.87 78.01 C 45.53 80.67 48.24 83.92 47.32 87.98 C 54.03 90.39 61.23 87.94 67.24 84.78 C 66.61 81.04 65.77 77.03 67.32 73.39 C 68.84 69.73 69.90 65.88 70.26 61.93 C 70.73 57.64 72.17 52.57 69.16 48.88 C 66.34 45.36 63.20 42.01 59.62 39.26 C 57.28 37.52 54.37 39.01 52.20 40.26 C 52.43 39.69 52.91 38.57 53.14 38.01 C 51.16 37.31 49.09 36.99 46.99 37.16 C 47.69 41.94 52.31 43.97 56.08 45.93 C 58.27 48.86 59.65 53.08 58.54 56.68 C 57.96 58.26 57.68 60.21 56.05 61.10 C 54.49 62.23 52.52 61.43 50.80 61.32 C 50.03 63.11 49.09 64.97 49.29 66.98 C 49.15 68.53 50.20 70.74 48.03 71.28 C 47.13 67.66 47.46 63.85 49.05 60.46 C 46.47 59.24 44.16 57.58 41.76 56.06 C 39.96 54.94 37.17 55.27 36.47 52.81 C 42.40 52.85 46.43 57.72 51.67 59.74 C 52.02 58.48 52.39 57.23 52.79 55.99 C 50.50 54.00 48.60 51.64 46.61 49.37 C 44.75 47.02 40.73 47.79 39.46 44.80 C 41.06 45.01 42.67 45.26 44.20 45.79 C 49.52 47.30 50.79 54.43 56.35 55.52 C 57.78 54.24 56.69 52.26 56.77 50.65 C 55.22 51.26 53.82 52.18 52.47 53.15 C 52.58 50.90 54.60 50.04 56.43 49.41 C 55.53 47.68 53.96 46.59 52.18 45.88 C 48.36 44.22 44.82 40.57 45.62 36.07 C 43.93 36.90 41.94 37.32 40.57 38.70 M 54.29 57.20 C 53.19 57.43 51.78 59.86 53.65 60.01 C 55.88 60.49 57.30 56.09 54.29 57.20 Z" />
</g>
</svg>
