<?xml version="1.0" encoding="UTF-8" ?>
<!DOCTYPE svg PUBLIC "-//W3C//DTD SVG 1.1//EN" "http://www.w3.org/Graphics/SVG/1.1/DTD/svg11.dtd">
<svg width="100pt" height="100pt" viewBox="0 0 100 100" version="1.1" xmlns="http://www.w3.org/2000/svg">
<g id="#ffffffff">
<path fill="#ffffff" opacity="1.00" d=" M 0.00 0.00 L 100.00 0.00 L 100.00 100.00 L 0.00 100.00 L 0.00 0.00 M 36.43 10.92 C 38.04 19.10 38.79 27.55 41.86 35.37 C 40.20 36.12 38.23 36.54 37.05 38.04 C 35.99 39.70 35.65 41.69 34.75 43.44 C 32.88 45.64 29.63 46.97 29.18 50.14 C 29.18 51.79 29.52 53.42 29.61 55.07 C 29.32 61.74 32.70 67.76 35.24 73.72 C 37.16 78.44 42.38 81.12 43.70 86.03 C 42.57 88.77 40.14 91.49 41.85 94.60 C 42.63 93.12 43.08 91.51 43.43 89.88 C 51.46 92.41 60.33 90.68 67.25 86.02 C 68.04 87.49 68.96 88.89 70.25 89.97 C 70.12 88.30 69.61 86.71 69.01 85.16 C 65.38 83.66 65.84 78.68 66.65 75.54 C 69.48 68.76 70.48 61.36 70.63 54.06 C 70.72 50.96 68.46 48.64 67.28 45.98 C 63.02 33.91 69.81 21.32 67.02 9.05 C 66.34 6.11 61.18 4.80 60.27 8.21 C 58.19 12.86 57.99 18.05 57.03 23.00 C 56.63 27.09 54.69 30.76 53.43 34.62 C 52.00 28.50 48.50 23.13 47.04 17.02 C 46.24 14.16 45.95 11.13 44.71 8.40 C 43.86 6.40 41.68 5.62 39.94 4.59 C 37.66 5.88 35.73 8.10 36.43 10.92 Z" />
<path fill="#ffffff" opacity="1.00" d=" M 39.12 6.61 C 41.93 7.01 43.80 9.30 44.05 12.05 C 45.48 20.31 49.20 27.86 52.31 35.55 L 53.66 36.29 C 53.02 36.56 52.38 36.82 51.74 37.08 C 48.89 35.04 43.51 36.87 42.63 32.58 C 40.45 25.54 39.70 18.17 38.15 10.99 C 37.71 9.45 38.73 8.03 39.12 6.61 Z" />
<path fill="#ffffff" opacity="1.00" d=" M 62.36 7.65 C 63.83 8.25 65.67 8.94 65.67 10.84 C 66.84 19.95 64.14 28.96 63.85 38.05 C 63.77 40.21 64.59 42.25 65.09 44.31 C 62.05 41.05 58.82 37.87 54.58 36.24 C 55.75 33.50 56.87 30.72 57.80 27.89 C 59.70 21.23 59.38 14.01 62.36 7.65 Z" />
<path fill="#ffffff" opacity="1.00" d=" M 36.88 43.95 C 36.84 39.99 39.85 37.32 43.57 36.72 C 42.71 42.39 48.09 45.87 52.73 47.46 C 53.38 48.42 54.02 49.38 54.67 50.34 C 53.41 50.82 50.87 49.90 50.85 51.96 C 51.18 53.90 53.78 50.95 54.99 51.10 C 54.93 52.82 54.85 54.55 54.76 56.27 C 50.95 55.12 48.50 51.84 46.09 48.90 C 44.11 46.30 40.61 45.93 37.69 45.03 C 38.06 48.09 42.01 47.47 43.87 49.22 C 46.23 51.57 48.32 54.17 50.54 56.64 C 51.96 57.10 53.39 57.50 54.82 57.92 C 53.93 59.03 52.90 60.01 51.77 60.88 C 51.26 59.62 50.74 58.35 50.01 57.19 L 49.98 60.13 C 44.49 58.52 40.57 53.45 34.62 53.23 C 34.79 53.61 35.13 54.38 35.31 54.76 C 39.58 56.08 43.15 58.78 46.98 60.98 C 45.51 64.23 45.17 67.79 45.85 71.28 L 47.44 71.14 C 47.03 68.11 47.20 65.05 48.24 62.16 C 50.46 61.88 53.14 62.64 54.91 60.91 C 57.31 57.46 57.43 53.02 55.77 49.21 C 54.62 44.50 48.35 44.96 46.18 40.99 C 45.18 39.85 45.51 38.37 45.66 37.02 C 47.34 37.41 49.02 37.80 50.70 38.19 C 50.67 39.05 50.64 39.91 50.61 40.77 C 51.18 40.34 52.31 39.47 52.87 39.04 C 54.19 39.03 55.50 39.01 56.82 39.00 C 60.52 42.29 64.34 45.58 67.28 49.60 C 70.00 53.13 68.77 57.80 68.30 61.84 C 67.90 66.12 66.81 70.29 65.18 74.26 C 63.74 77.77 64.63 81.60 65.21 85.19 C 59.36 88.59 52.24 90.50 45.58 88.57 C 45.23 86.86 45.33 85.06 44.72 83.41 C 42.87 80.30 39.95 78.02 38.03 74.96 C 35.45 70.92 34.01 66.30 32.29 61.85 C 31.00 58.76 31.54 55.35 31.15 52.10 C 30.16 48.08 34.71 46.44 36.88 43.95 Z" />
</g>
<g id="#5f5f5fff">
<path fill="#5f5f5f" opacity="1.00" d=" M 36.43 10.92 C 35.73 8.10 37.66 5.88 39.94 4.59 C 41.68 5.62 43.86 6.40 44.71 8.40 C 45.95 11.13 46.24 14.16 47.04 17.02 C 48.50 23.13 52.00 28.50 53.43 34.62 C 54.69 30.76 56.63 27.09 57.03 23.00 C 57.99 18.05 58.19 12.86 60.27 8.21 C 61.18 4.80 66.34 6.11 67.02 9.05 C 69.81 21.32 63.02 33.91 67.28 45.98 C 68.46 48.64 70.72 50.96 70.63 54.06 C 70.48 61.36 69.48 68.76 66.65 75.54 C 65.84 78.68 65.38 83.66 69.01 85.16 C 69.61 86.71 70.12 88.30 70.25 89.97 C 68.96 88.89 68.04 87.49 67.25 86.02 C 60.33 90.68 51.46 92.41 43.43 89.88 C 43.08 91.51 42.63 93.12 41.85 94.60 C 40.14 91.49 42.57 88.77 43.70 86.03 C 42.38 81.12 37.16 78.44 35.24 73.72 C 32.70 67.76 29.32 61.74 29.61 55.07 C 29.52 53.42 29.18 51.79 29.18 50.14 C 29.63 46.97 32.88 45.64 34.75 43.44 C 35.65 41.69 35.99 39.70 37.05 38.04 C 38.23 36.54 40.20 36.12 41.86 35.37 C 38.79 27.55 38.04 19.10 36.43 10.92 M 39.12 6.61 C 38.73 8.03 37.71 9.45 38.15 10.99 C 39.70 18.17 40.45 25.54 42.63 32.58 C 43.51 36.87 48.89 35.04 51.74 37.08 C 52.38 36.82 53.02 36.56 53.66 36.29 L 52.31 35.55 C 49.20 27.86 45.48 20.31 44.05 12.05 C 43.80 9.30 41.93 7.01 39.12 6.61 M 62.36 7.65 C 59.38 14.01 59.70 21.23 57.80 27.89 C 56.87 30.72 55.75 33.50 54.58 36.24 C 58.82 37.87 62.05 41.05 65.09 44.31 C 64.59 42.25 63.77 40.21 63.85 38.05 C 64.14 28.96 66.84 19.95 65.67 10.84 C 65.67 8.94 63.83 8.25 62.36 7.65 M 36.88 43.95 C 34.71 46.44 30.16 48.08 31.15 52.10 C 31.54 55.35 31.00 58.76 32.29 61.85 C 34.01 66.30 35.45 70.92 38.03 74.96 C 39.95 78.02 42.87 80.30 44.72 83.41 C 45.33 85.06 45.23 86.86 45.58 88.57 C 52.24 90.50 59.36 88.59 65.21 85.19 C 64.63 81.60 63.74 77.77 65.18 74.26 C 66.81 70.29 67.90 66.12 68.30 61.84 C 68.77 57.80 70.00 53.13 67.28 49.60 C 64.34 45.58 60.52 42.29 56.82 39.00 C 55.50 39.01 54.19 39.03 52.87 39.04 C 52.31 39.47 51.18 40.34 50.61 40.77 C 50.64 39.91 50.67 39.05 50.70 38.19 C 49.02 37.80 47.34 37.41 45.66 37.02 C 45.51 38.37 45.18 39.85 46.18 40.99 C 48.35 44.96 54.62 44.50 55.77 49.21 C 57.43 53.02 57.31 57.46 54.91 60.91 C 53.14 62.64 50.46 61.88 48.24 62.16 C 47.20 65.05 47.03 68.11 47.44 71.14 L 45.85 71.28 C 45.17 67.79 45.51 64.23 46.98 60.98 C 43.15 58.78 39.58 56.08 35.31 54.76 C 35.13 54.38 34.79 53.61 34.62 53.23 C 40.57 53.45 44.49 58.52 49.98 60.13 L 50.01 57.19 C 50.74 58.35 51.26 59.62 51.77 60.88 C 52.90 60.01 53.93 59.03 54.82 57.92 C 53.39 57.50 51.96 57.10 50.54 56.64 C 48.32 54.17 46.23 51.57 43.87 49.22 C 42.01 47.47 38.06 48.09 37.69 45.03 C 40.61 45.93 44.11 46.30 46.09 48.90 C 48.50 51.84 50.95 55.12 54.76 56.27 C 54.85 54.55 54.93 52.82 54.99 51.10 C 53.78 50.95 51.18 53.90 50.85 51.96 C 50.87 49.90 53.41 50.82 54.67 50.34 C 54.02 49.38 53.38 48.42 52.73 47.46 C 48.09 45.87 42.71 42.39 43.57 36.72 C 39.85 37.32 36.84 39.99 36.88 43.95 Z" />
</g>
</svg>
