<?xml version="1.0" encoding="UTF-8" ?>
<!DOCTYPE svg PUBLIC "-//W3C//DTD SVG 1.1//EN" "http://www.w3.org/Graphics/SVG/1.1/DTD/svg11.dtd">
<svg width="100pt" height="100pt" viewBox="0 0 100 100" version="1.1" xmlns="http://www.w3.org/2000/svg">
<g id="#fefefeff">
<path fill="#fefefe" opacity="1.00" d=" M 0.00 0.00 L 100.00 0.00 L 100.00 100.00 L 0.00 100.00 L 0.00 0.00 M 49.28 6.64 C 45.89 9.99 47.05 14.81 47.74 18.96 C 48.11 25.09 49.67 31.18 48.79 37.34 C 45.49 31.86 45.12 25.25 42.36 19.53 C 41.35 17.30 40.61 14.84 38.89 13.04 C 37.70 12.30 36.23 12.81 34.92 12.73 C 32.54 21.07 37.19 29.28 38.00 37.56 C 34.60 39.08 30.33 41.62 31.19 46.03 C 33.01 55.60 33.84 65.69 38.78 74.31 C 40.31 77.26 42.85 79.64 43.96 82.80 C 43.03 85.06 41.75 87.25 42.04 89.80 C 42.93 88.55 43.79 87.27 44.64 85.99 C 52.45 87.88 60.77 85.73 67.97 82.58 C 67.98 83.40 68.01 85.05 68.02 85.88 C 68.61 86.08 69.79 86.49 70.38 86.70 C 69.81 83.92 68.69 81.31 66.97 79.06 C 71.56 70.80 75.29 60.72 71.60 51.40 C 70.72 45.64 69.40 39.80 70.35 33.94 C 70.66 26.89 70.51 19.67 68.85 12.78 C 67.24 12.19 65.34 11.46 64.12 13.21 C 61.51 17.31 62.25 22.39 61.35 26.97 C 60.99 30.00 60.15 33.36 61.86 36.15 C 63.27 28.61 62.81 20.74 65.48 13.45 C 66.26 13.98 67.00 14.55 67.70 15.17 C 69.20 23.02 69.48 31.11 68.39 39.03 C 68.23 42.43 69.21 45.76 69.48 49.14 C 65.29 46.57 61.32 42.29 55.95 42.97 C 52.25 43.19 48.63 42.34 45.03 41.61 C 43.18 40.24 41.61 38.49 39.65 37.25 C 38.72 29.79 35.64 22.66 35.92 15.05 C 36.39 14.77 37.32 14.22 37.79 13.94 C 40.48 19.05 42.70 24.44 44.11 30.05 C 44.78 32.49 45.36 35.02 46.75 37.18 C 47.48 38.09 48.19 39.66 49.59 38.86 C 50.26 37.35 50.92 35.78 51.03 34.10 C 50.50 26.08 48.67 18.09 49.01 10.03 C 49.50 9.44 50.47 8.28 50.95 7.70 C 51.99 9.23 53.05 10.81 53.43 12.66 C 54.97 19.59 56.60 26.51 57.51 33.56 C 58.09 35.69 57.47 38.61 59.79 39.83 C 60.34 39.02 61.46 37.42 62.02 36.62 C 61.15 36.45 60.28 36.37 59.41 36.41 C 58.79 27.57 56.42 19.00 54.53 10.39 C 54.05 7.75 51.75 6.65 49.28 6.64 Z" />
<path fill="#fefefe" opacity="1.00" d=" M 32.97 42.99 C 34.92 41.28 37.16 39.46 39.92 39.57 C 41.01 40.31 41.99 41.20 43.00 42.05 C 42.99 43.55 42.99 45.04 43.01 46.54 C 44.29 48.23 45.14 50.18 45.23 52.33 C 42.68 50.33 40.61 47.79 38.06 45.79 C 36.39 45.63 34.91 46.44 33.53 47.25 C 39.89 46.62 41.95 54.32 47.90 55.24 C 47.16 53.66 46.35 52.12 45.61 50.55 C 47.03 51.14 48.42 51.78 49.82 52.41 L 47.97 53.31 C 49.19 53.75 50.46 54.00 51.76 53.96 C 52.46 53.98 53.85 54.03 54.54 54.05 C 55.39 54.81 56.24 55.56 57.10 56.30 C 52.88 58.78 49.95 63.01 48.74 67.70 C 52.86 64.41 54.39 57.71 60.62 57.43 C 58.36 54.40 55.10 52.06 51.24 51.74 C 48.22 50.09 45.35 47.85 44.06 44.54 C 45.94 42.98 48.36 44.01 50.51 44.09 C 50.31 44.60 49.89 45.62 49.69 46.13 C 53.10 44.85 56.82 44.41 60.42 45.02 C 63.95 47.97 69.29 49.59 70.78 54.34 C 72.46 61.45 70.29 68.77 67.08 75.12 C 66.13 77.20 64.57 79.45 65.65 81.80 C 65.13 82.05 64.08 82.55 63.55 82.80 C 58.03 83.99 52.26 85.89 46.61 84.62 C 44.47 78.39 39.29 73.78 37.49 67.39 C 35.02 59.50 33.42 51.25 32.97 42.99 Z" />
</g>
<g id="#5a5a5bff">
<path fill="#5a5a5b" opacity="1.00" d=" M 49.28 6.64 C 51.75 6.65 54.05 7.75 54.53 10.39 C 56.42 19.00 58.79 27.57 59.41 36.41 C 60.28 36.37 61.15 36.45 62.02 36.62 C 61.46 37.42 60.34 39.02 59.79 39.83 C 57.47 38.61 58.09 35.69 57.51 33.56 C 56.60 26.51 54.97 19.59 53.43 12.66 C 53.05 10.81 51.99 9.23 50.95 7.70 C 50.47 8.28 49.50 9.44 49.01 10.03 C 48.67 18.09 50.50 26.08 51.03 34.10 C 50.92 35.78 50.26 37.35 49.59 38.86 C 48.19 39.66 47.48 38.09 46.75 37.18 C 45.36 35.02 44.78 32.49 44.11 30.05 C 42.70 24.44 40.48 19.05 37.79 13.94 C 37.32 14.22 36.39 14.77 35.92 15.05 C 35.64 22.66 38.72 29.79 39.65 37.25 C 41.61 38.49 43.18 40.24 45.03 41.61 C 48.63 42.34 52.25 43.19 55.95 42.97 C 61.32 42.29 65.29 46.57 69.48 49.14 C 69.21 45.76 68.23 42.43 68.39 39.03 C 69.48 31.11 69.20 23.02 67.70 15.17 C 67.00 14.55 66.26 13.98 65.48 13.45 C 62.81 20.74 63.27 28.61 61.86 36.15 C 60.15 33.36 60.99 30.00 61.35 26.97 C 62.25 22.39 61.51 17.31 64.12 13.21 C 65.34 11.46 67.24 12.19 68.85 12.78 C 70.51 19.67 70.66 26.89 70.35 33.94 C 69.40 39.80 70.72 45.64 71.60 51.40 C 75.29 60.72 71.56 70.80 66.97 79.06 C 68.69 81.31 69.81 83.92 70.38 86.70 C 69.79 86.49 68.61 86.08 68.02 85.88 C 68.01 85.05 67.98 83.40 67.97 82.58 C 60.77 85.73 52.45 87.88 44.64 85.99 C 43.79 87.27 42.93 88.55 42.04 89.80 C 41.75 87.25 43.03 85.06 43.96 82.80 C 42.85 79.64 40.31 77.26 38.78 74.31 C 33.84 65.69 33.01 55.60 31.19 46.03 C 30.33 41.62 34.60 39.08 38.00 37.56 C 37.19 29.28 32.54 21.07 34.92 12.73 C 36.23 12.81 37.70 12.30 38.89 13.04 C 40.61 14.84 41.35 17.30 42.36 19.53 C 45.12 25.25 45.49 31.86 48.79 37.34 C 49.67 31.18 48.11 25.09 47.74 18.96 C 47.05 14.81 45.89 9.99 49.28 6.64 M 32.97 42.99 C 33.42 51.25 35.02 59.50 37.49 67.39 C 39.29 73.78 44.47 78.39 46.61 84.62 C 52.26 85.89 58.03 83.99 63.55 82.80 C 64.08 82.55 65.13 82.05 65.65 81.80 C 64.57 79.45 66.13 77.20 67.08 75.12 C 70.29 68.77 72.46 61.45 70.78 54.34 C 69.29 49.59 63.95 47.97 60.42 45.02 C 56.82 44.41 53.10 44.85 49.69 46.13 C 49.89 45.62 50.31 44.60 50.51 44.09 C 48.36 44.01 45.94 42.98 44.06 44.54 C 45.35 47.85 48.22 50.09 51.24 51.74 C 55.10 52.06 58.36 54.40 60.62 57.43 C 54.39 57.71 52.86 64.41 48.74 67.70 C 49.95 63.01 52.88 58.78 57.10 56.30 C 56.24 55.56 55.39 54.81 54.54 54.05 C 53.85 54.03 52.46 53.98 51.76 53.96 C 50.46 54.00 49.19 53.75 47.97 53.31 L 49.82 52.41 C 48.42 51.78 47.03 51.14 45.61 50.55 C 46.35 52.12 47.16 53.66 47.90 55.24 C 41.95 54.32 39.89 46.62 33.53 47.25 C 34.91 46.44 36.39 45.63 38.06 45.79 C 40.61 47.79 42.68 50.33 45.23 52.33 C 45.14 50.18 44.29 48.23 43.01 46.54 C 42.99 45.04 42.99 43.55 43.00 42.05 C 41.99 41.20 41.01 40.31 39.92 39.57 C 37.16 39.46 34.92 41.28 32.97 42.99 Z" />
</g>
</svg>
