<?xml version="1.0" encoding="UTF-8" ?>
<!DOCTYPE svg PUBLIC "-//W3C//DTD SVG 1.1//EN" "http://www.w3.org/Graphics/SVG/1.1/DTD/svg11.dtd">
<svg width="100pt" height="100pt" viewBox="0 0 100 100" version="1.1" xmlns="http://www.w3.org/2000/svg">
<g id="#ffffffff">
<path fill="#ffffff" opacity="1.00" d=" M 0.00 0.00 L 100.00 0.00 L 100.00 100.00 L 0.00 100.00 L 0.00 0.00 M 45.81 17.02 C 46.37 20.87 50.95 20.53 53.55 22.13 C 56.03 24.73 54.07 28.26 53.58 31.22 C 49.99 29.44 46.80 25.50 42.43 26.43 C 38.67 26.88 37.87 31.28 34.69 32.74 C 31.57 34.20 32.08 37.99 31.84 40.83 C 31.01 42.05 29.43 43.10 29.66 44.76 C 29.50 47.63 31.94 49.45 33.76 51.26 C 34.39 55.80 35.82 60.22 37.58 64.44 C 39.15 68.36 43.83 69.46 45.87 73.01 C 48.83 76.83 44.01 83.33 49.12 86.01 C 48.94 83.99 48.54 82.00 48.21 80.00 C 55.31 80.95 62.30 78.15 68.38 74.74 C 69.23 76.26 70.02 77.79 70.81 79.33 C 71.71 78.35 72.02 76.91 71.15 75.79 C 68.85 72.20 65.21 68.67 66.12 63.99 C 67.63 57.08 69.73 50.11 68.94 42.95 C 68.66 37.81 65.68 33.18 66.03 27.97 C 65.89 24.54 66.54 20.60 64.35 17.67 C 60.84 14.98 56.64 12.17 51.98 12.93 C 49.49 13.20 46.28 14.12 45.81 17.02 Z" />
<path fill="#ffffff" opacity="1.00" d=" M 47.72 15.76 C 50.68 15.18 53.91 13.67 56.82 15.21 C 59.18 16.33 61.66 17.48 63.47 19.43 C 64.61 23.18 64.07 27.18 64.47 31.04 C 64.80 35.15 67.00 38.87 67.08 43.02 C 67.70 49.60 66.36 56.11 64.58 62.41 C 63.29 66.36 65.20 70.27 67.07 73.66 C 61.55 76.35 55.58 78.74 49.33 78.47 C 48.87 75.97 48.44 73.34 46.86 71.26 C 44.89 68.18 40.84 67.12 39.25 63.73 C 37.64 60.31 36.95 56.55 35.68 53.01 C 37.12 53.39 38.52 54.13 40.05 54.03 C 41.75 52.56 42.79 49.94 45.50 50.88 C 44.83 55.22 43.41 60.92 46.89 64.38 C 46.87 59.27 45.45 53.80 48.46 49.18 C 48.02 48.59 47.58 48.00 47.13 47.41 C 45.25 50.90 43.25 47.90 42.78 45.57 C 43.83 45.21 45.92 44.49 46.97 44.13 C 46.83 44.78 46.55 46.07 46.42 46.72 C 47.08 46.96 48.40 47.44 49.06 47.68 C 48.66 44.66 47.38 41.88 46.60 38.97 C 46.65 36.30 49.49 35.10 51.71 36.22 C 53.34 37.99 54.49 40.13 55.96 42.03 C 58.46 45.55 62.73 47.91 63.49 52.50 C 65.92 50.63 63.59 47.51 61.99 45.95 C 58.71 43.10 56.37 39.44 53.87 35.94 C 52.63 33.99 50.18 33.99 48.14 33.83 C 47.61 33.49 46.56 32.80 46.03 32.46 C 45.77 36.21 43.78 40.25 46.34 43.65 C 44.76 43.88 43.22 44.27 41.72 44.82 C 37.95 41.95 39.14 37.03 39.05 32.93 C 38.53 29.69 42.17 27.57 45.00 28.08 C 48.29 29.73 51.09 32.34 54.70 33.38 C 55.31 29.60 58.42 25.55 55.64 21.99 C 56.63 20.97 57.60 19.93 58.54 18.86 C 55.01 20.11 48.32 20.81 47.72 15.76 Z" />
<path fill="#ffffff" opacity="1.00" d=" M 37.35 46.48 C 33.64 43.13 31.73 35.65 37.17 33.08 C 37.43 37.37 36.35 42.34 39.89 45.64 C 39.04 45.91 38.20 46.19 37.35 46.48 Z" />
<path fill="#ffffff" opacity="1.00" d=" M 31.86 42.53 C 34.44 45.94 37.59 48.76 40.93 51.38 C 39.90 51.43 38.56 52.39 37.75 51.33 C 35.99 49.66 33.46 48.93 32.04 46.90 C 30.99 45.62 31.69 43.95 31.86 42.53 Z" />
<path fill="#ffffff" opacity="1.00" d=" M 40.36 48.98 C 38.59 48.69 38.89 45.71 40.77 46.31 C 42.39 46.69 42.39 49.84 40.36 48.98 Z" />
</g>
<g id="#686868ff">
<path fill="#686868" opacity="1.00" d=" M 45.81 17.02 C 46.28 14.12 49.49 13.20 51.98 12.93 C 56.64 12.17 60.84 14.98 64.35 17.67 C 66.54 20.60 65.89 24.54 66.03 27.97 C 65.68 33.18 68.66 37.81 68.94 42.95 C 69.73 50.11 67.63 57.08 66.12 63.99 C 65.21 68.67 68.85 72.20 71.15 75.79 C 72.02 76.91 71.71 78.35 70.81 79.33 C 70.02 77.79 69.23 76.26 68.38 74.74 C 62.30 78.15 55.31 80.95 48.21 80.00 C 48.54 82.00 48.94 83.99 49.12 86.01 C 44.01 83.33 48.83 76.83 45.87 73.01 C 43.83 69.46 39.15 68.36 37.58 64.44 C 35.82 60.22 34.39 55.80 33.76 51.26 C 31.94 49.45 29.50 47.63 29.66 44.76 C 29.43 43.10 31.01 42.05 31.84 40.83 C 32.08 37.99 31.57 34.20 34.69 32.74 C 37.87 31.28 38.67 26.88 42.43 26.43 C 46.80 25.50 49.99 29.44 53.58 31.22 C 54.07 28.26 56.03 24.73 53.55 22.13 C 50.95 20.53 46.37 20.87 45.81 17.02 M 47.72 15.76 C 48.32 20.81 55.01 20.11 58.54 18.86 C 57.60 19.93 56.63 20.97 55.64 21.99 C 58.42 25.55 55.31 29.60 54.70 33.38 C 51.09 32.34 48.29 29.73 45.00 28.08 C 42.17 27.57 38.53 29.69 39.05 32.93 C 39.14 37.03 37.95 41.95 41.72 44.82 C 43.22 44.27 44.76 43.88 46.34 43.65 C 43.78 40.25 45.77 36.21 46.03 32.46 C 46.56 32.80 47.61 33.49 48.14 33.83 C 50.18 33.99 52.63 33.99 53.87 35.94 C 56.37 39.44 58.71 43.10 61.99 45.95 C 63.59 47.51 65.92 50.63 63.49 52.50 C 62.73 47.91 58.46 45.55 55.96 42.03 C 54.49 40.13 53.34 37.99 51.71 36.22 C 49.49 35.10 46.65 36.30 46.60 38.97 C 47.38 41.88 48.66 44.66 49.06 47.68 C 48.40 47.44 47.08 46.96 46.42 46.72 C 46.55 46.07 46.83 44.78 46.97 44.13 C 45.92 44.49 43.83 45.21 42.78 45.57 C 43.25 47.90 45.25 50.90 47.13 47.41 C 47.58 48.00 48.02 48.59 48.46 49.18 C 45.45 53.80 46.87 59.27 46.89 64.38 C 43.41 60.92 44.83 55.22 45.50 50.88 C 42.79 49.94 41.75 52.56 40.05 54.03 C 38.52 54.13 37.12 53.39 35.68 53.01 C 36.95 56.55 37.64 60.31 39.25 63.73 C 40.84 67.12 44.89 68.18 46.86 71.26 C 48.44 73.34 48.87 75.97 49.33 78.47 C 55.58 78.74 61.55 76.35 67.07 73.66 C 65.20 70.27 63.29 66.36 64.58 62.41 C 66.36 56.11 67.70 49.60 67.08 43.02 C 67.00 38.87 64.80 35.15 64.47 31.04 C 64.07 27.18 64.61 23.18 63.47 19.43 C 61.66 17.48 59.18 16.33 56.82 15.21 C 53.91 13.67 50.68 15.18 47.72 15.76 M 37.35 46.48 C 38.20 46.19 39.04 45.91 39.89 45.64 C 36.35 42.34 37.43 37.37 37.17 33.08 C 31.73 35.65 33.64 43.13 37.35 46.48 M 31.86 42.53 C 31.69 43.95 30.99 45.62 32.04 46.90 C 33.46 48.93 35.99 49.66 37.75 51.33 C 38.56 52.39 39.90 51.43 40.93 51.38 C 37.59 48.76 34.44 45.94 31.86 42.53 M 40.36 48.98 C 42.39 49.84 42.39 46.69 40.77 46.31 C 38.89 45.71 38.59 48.69 40.36 48.98 Z" />
</g>
</svg>
