<?xml version="1.0" encoding="UTF-8" ?>
<!DOCTYPE svg PUBLIC "-//W3C//DTD SVG 1.1//EN" "http://www.w3.org/Graphics/SVG/1.1/DTD/svg11.dtd">
<svg width="100pt" height="100pt" viewBox="0 0 100 100" version="1.1" xmlns="http://www.w3.org/2000/svg">
<g id="#ffffffff">
<path fill="#ffffff" opacity="1.00" d=" M 0.00 0.00 L 100.00 0.00 L 100.00 100.00 L 0.00 100.00 L 0.00 0.00 M 30.03 9.05 C 28.92 12.37 30.67 15.63 32.79 18.09 C 35.93 21.78 38.94 25.60 42.27 29.14 C 40.63 30.10 38.53 30.74 37.65 32.59 C 36.75 34.45 36.86 36.60 36.56 38.61 C 34.16 41.17 32.91 44.47 32.58 47.93 C 31.07 50.01 29.38 52.28 29.72 55.01 C 30.07 60.79 34.51 64.97 37.61 69.47 C 40.30 73.43 43.80 76.84 47.97 79.20 C 52.63 82.15 58.78 82.20 62.68 86.43 C 63.43 88.87 61.52 92.12 63.99 94.04 C 64.69 95.20 65.95 94.84 67.06 94.73 C 66.05 93.54 65.03 92.38 63.98 91.23 C 64.49 90.11 64.78 88.68 66.19 88.38 C 74.16 85.36 81.35 79.88 85.29 72.20 C 86.81 73.47 88.26 74.88 90.15 75.59 C 89.28 72.42 86.24 69.55 82.92 71.49 C 81.29 70.24 79.04 69.21 78.66 66.97 C 77.96 64.07 77.06 61.20 75.56 58.60 C 72.66 53.56 72.23 47.58 69.47 42.48 C 66.10 35.81 60.00 31.25 54.66 26.24 C 48.85 20.71 43.18 15.00 37.15 9.70 C 35.31 8.00 31.79 6.40 30.03 9.05 M 8.48 9.82 C 8.29 10.36 7.91 11.46 7.72 12.00 C 12.80 12.06 17.89 12.04 22.97 12.09 C 17.37 17.71 11.73 23.28 6.22 28.99 C 12.39 29.06 18.56 29.00 24.73 29.01 C 24.74 29.54 24.75 30.61 24.76 31.14 C 27.74 29.94 30.74 28.78 33.65 27.41 C 30.73 26.36 27.79 25.40 24.86 24.40 C 24.80 24.94 24.68 26.01 24.62 26.55 C 20.49 26.45 16.35 26.42 12.21 26.47 C 17.71 20.86 23.34 15.38 28.85 9.78 C 22.06 9.90 15.26 9.39 8.48 9.82 Z" />
<path fill="#ffffff" opacity="1.00" d=" M 32.04 8.78 C 34.26 9.85 36.39 11.14 38.13 12.89 C 46.10 20.45 53.97 28.11 62.12 35.46 C 57.54 32.83 52.41 31.23 47.10 32.35 C 42.40 26.26 36.81 20.87 32.42 14.53 C 31.09 12.82 31.45 10.69 32.04 8.78 Z" />
<path fill="#ffffff" opacity="1.00" d=" M 38.40 36.92 C 38.13 33.67 40.66 31.18 43.76 30.75 C 44.06 31.12 44.68 31.88 44.99 32.26 C 43.04 32.80 40.26 32.76 39.49 35.07 C 38.51 37.44 41.02 39.40 42.09 41.19 C 40.78 39.90 37.69 39.39 38.40 36.92 Z" />
<path fill="#ffffff" opacity="1.00" d=" M 40.67 35.16 C 42.93 34.46 45.27 34.08 47.63 33.83 C 47.05 35.11 46.50 36.40 45.97 37.69 C 47.27 36.70 48.27 35.40 49.19 34.07 C 55.22 32.96 60.65 36.46 65.40 39.69 C 70.36 45.00 70.43 52.83 73.81 59.00 C 75.52 62.07 76.74 65.39 77.16 68.88 C 78.83 70.63 80.72 72.13 82.71 73.47 C 78.52 79.69 72.30 84.32 65.27 86.86 C 60.97 80.36 52.40 80.81 46.72 76.28 C 41.31 72.70 38.01 66.98 34.22 61.89 C 31.97 58.78 30.04 54.21 32.81 50.81 C 35.23 48.00 34.27 43.63 36.99 41.05 C 42.21 41.28 45.57 46.20 49.37 49.24 C 47.90 50.51 46.54 51.90 45.12 53.22 C 42.88 50.39 37.89 48.36 34.63 50.50 C 39.42 51.45 43.84 53.38 47.69 56.40 C 46.80 57.76 46.07 59.21 45.74 60.80 C 42.44 58.19 38.15 57.75 34.10 58.01 C 34.28 58.46 34.64 59.36 34.82 59.81 C 35.81 59.83 37.77 59.87 38.76 59.89 C 37.77 61.03 36.76 62.16 35.79 63.32 C 38.22 63.57 39.75 61.97 40.75 59.96 C 43.58 61.30 46.42 64.27 49.81 62.97 C 51.88 61.48 52.58 58.22 50.74 56.27 C 49.21 55.20 47.55 54.31 45.98 53.30 C 46.66 53.13 48.02 52.78 48.71 52.60 L 47.98 51.00 C 48.59 50.92 49.82 50.76 50.44 50.68 C 52.92 54.89 53.52 59.88 55.83 64.15 C 56.35 65.52 57.67 66.13 58.97 66.54 C 57.53 63.08 55.24 59.86 54.86 56.05 C 54.46 53.27 55.92 50.71 56.34 48.03 C 55.55 45.26 53.79 41.91 50.49 41.83 C 46.46 41.30 41.57 39.70 40.67 35.16 Z" />
<path fill="#ffffff" opacity="1.00" d=" M 43.48 41.80 C 46.65 43.15 50.43 43.03 53.27 45.08 C 52.63 45.56 51.36 46.53 50.72 47.01 C 51.13 47.53 51.55 48.04 51.97 48.54 L 53.40 45.98 C 55.27 47.72 54.05 49.97 53.52 51.99 C 52.83 51.06 52.14 50.13 51.45 49.21 C 51.11 49.04 50.43 48.71 50.09 48.54 C 48.80 45.54 45.87 43.83 43.48 41.80 Z" />
<path fill="#ffffff" opacity="1.00" d=" M 47.27 62.33 C 46.86 60.25 47.65 58.39 48.78 56.69 C 49.11 57.51 49.77 59.17 50.09 60.00 C 49.23 60.86 48.23 61.58 47.27 62.33 Z" />
</g>
<g id="#5c5c5cff">
<path fill="#5c5c5c" opacity="1.00" d=" M 30.03 9.05 C 31.79 6.40 35.31 8.00 37.15 9.70 C 43.18 15.00 48.85 20.71 54.66 26.24 C 60.00 31.25 66.10 35.81 69.47 42.48 C 72.23 47.58 72.66 53.56 75.56 58.60 C 77.06 61.20 77.96 64.07 78.66 66.97 C 79.04 69.21 81.29 70.24 82.92 71.49 C 86.24 69.55 89.28 72.42 90.15 75.59 C 88.26 74.88 86.81 73.47 85.29 72.20 C 81.35 79.88 74.16 85.36 66.19 88.38 C 64.78 88.68 64.49 90.11 63.98 91.23 C 65.03 92.38 66.05 93.54 67.06 94.73 C 65.95 94.84 64.69 95.20 63.99 94.04 C 61.52 92.12 63.43 88.87 62.68 86.43 C 58.78 82.20 52.63 82.15 47.97 79.20 C 43.80 76.84 40.30 73.43 37.61 69.47 C 34.51 64.97 30.07 60.79 29.72 55.01 C 29.38 52.28 31.07 50.01 32.58 47.93 C 32.91 44.47 34.16 41.17 36.56 38.61 C 36.86 36.60 36.75 34.45 37.65 32.59 C 38.53 30.74 40.63 30.10 42.27 29.14 C 38.94 25.60 35.93 21.78 32.79 18.09 C 30.67 15.63 28.92 12.37 30.03 9.05 M 32.04 8.78 C 31.45 10.69 31.09 12.82 32.42 14.53 C 36.81 20.87 42.40 26.26 47.10 32.35 C 52.41 31.23 57.54 32.83 62.12 35.46 C 53.97 28.11 46.10 20.45 38.13 12.89 C 36.39 11.14 34.26 9.85 32.04 8.78 M 38.40 36.92 C 37.69 39.39 40.78 39.90 42.09 41.19 C 41.02 39.40 38.51 37.44 39.49 35.07 C 40.26 32.76 43.04 32.80 44.99 32.26 C 44.68 31.88 44.06 31.12 43.76 30.75 C 40.66 31.18 38.13 33.67 38.40 36.92 M 40.67 35.16 C 41.57 39.70 46.46 41.30 50.49 41.83 C 53.79 41.91 55.55 45.26 56.34 48.03 C 55.92 50.71 54.46 53.27 54.86 56.05 C 55.24 59.86 57.53 63.08 58.97 66.54 C 57.67 66.13 56.35 65.52 55.83 64.15 C 53.52 59.88 52.92 54.89 50.44 50.68 C 49.82 50.76 48.59 50.92 47.98 51.00 L 48.71 52.60 C 48.02 52.78 46.66 53.13 45.98 53.30 C 47.55 54.31 49.21 55.20 50.74 56.27 C 52.58 58.22 51.88 61.48 49.81 62.97 C 46.42 64.27 43.58 61.30 40.75 59.96 C 39.75 61.97 38.22 63.57 35.79 63.32 C 36.76 62.16 37.77 61.03 38.76 59.89 C 37.77 59.87 35.81 59.83 34.82 59.81 C 34.64 59.36 34.28 58.46 34.10 58.01 C 38.15 57.75 42.44 58.19 45.74 60.80 C 46.07 59.21 46.80 57.76 47.69 56.40 C 43.84 53.38 39.42 51.45 34.63 50.50 C 37.89 48.36 42.88 50.39 45.12 53.22 C 46.54 51.90 47.90 50.51 49.37 49.24 C 45.57 46.20 42.21 41.28 36.99 41.05 C 34.27 43.63 35.23 48.00 32.81 50.81 C 30.04 54.21 31.97 58.78 34.22 61.89 C 38.01 66.98 41.31 72.70 46.72 76.28 C 52.40 80.81 60.97 80.36 65.27 86.86 C 72.30 84.32 78.52 79.69 82.71 73.47 C 80.72 72.13 78.83 70.63 77.16 68.88 C 76.74 65.39 75.52 62.07 73.81 59.00 C 70.43 52.83 70.36 45.00 65.40 39.69 C 60.65 36.46 55.22 32.96 49.19 34.07 C 48.27 35.40 47.27 36.70 45.97 37.69 C 46.50 36.40 47.05 35.11 47.63 33.83 C 45.27 34.08 42.93 34.46 40.67 35.16 M 43.48 41.80 C 45.87 43.83 48.80 45.54 50.09 48.54 C 50.43 48.71 51.11 49.04 51.45 49.21 C 52.14 50.13 52.83 51.06 53.52 51.99 C 54.05 49.97 55.27 47.72 53.40 45.98 L 51.97 48.54 C 51.55 48.04 51.13 47.53 50.72 47.01 C 51.36 46.53 52.63 45.56 53.27 45.08 C 50.43 43.03 46.65 43.15 43.48 41.80 M 47.27 62.33 C 48.23 61.58 49.23 60.86 50.09 60.00 C 49.77 59.17 49.11 57.51 48.78 56.69 C 47.65 58.39 46.86 60.25 47.27 62.33 Z" />
<path fill="#5c5c5c" opacity="1.00" d=" M 8.48 9.82 C 15.26 9.39 22.06 9.90 28.85 9.78 C 23.34 15.38 17.71 20.86 12.21 26.47 C 16.35 26.42 20.49 26.45 24.62 26.55 C 24.68 26.01 24.80 24.94 24.86 24.40 C 27.79 25.40 30.73 26.36 33.65 27.41 C 30.74 28.78 27.74 29.94 24.76 31.14 C 24.75 30.61 24.74 29.54 24.73 29.01 C 18.56 29.00 12.39 29.06 6.22 28.99 C 11.73 23.28 17.37 17.71 22.97 12.09 C 17.89 12.04 12.80 12.06 7.72 12.00 C 7.91 11.46 8.29 10.36 8.48 9.82 Z" />
</g>
</svg>
