<?xml version="1.0" encoding="UTF-8" ?>
<!DOCTYPE svg PUBLIC "-//W3C//DTD SVG 1.1//EN" "http://www.w3.org/Graphics/SVG/1.1/DTD/svg11.dtd">
<svg width="100pt" height="100pt" viewBox="0 0 100 100" version="1.1" xmlns="http://www.w3.org/2000/svg">
<g id="#ffffffff">
<path fill="#ffffff" opacity="1.00" d=" M 0.00 0.00 L 100.00 0.00 L 100.00 100.00 L 0.00 100.00 L 0.00 0.00 M 29.56 9.55 C 27.51 11.34 28.33 14.43 29.59 16.44 C 33.83 23.24 37.65 30.34 42.79 36.54 C 41.42 37.90 39.62 39.06 39.08 41.01 C 38.90 42.96 39.21 44.90 39.14 46.85 C 38.06 49.76 35.17 52.76 36.98 55.99 C 38.74 59.27 39.65 63.05 42.18 65.86 C 46.20 70.42 50.12 75.34 55.59 78.25 C 58.11 79.73 61.18 80.66 62.91 83.18 C 63.16 84.77 62.37 86.28 62.03 87.79 C 62.68 89.23 63.33 90.67 64.14 92.02 C 64.11 90.26 64.11 88.50 64.14 86.74 C 72.70 86.69 79.90 81.15 84.97 74.70 C 85.77 75.53 86.57 76.36 87.37 77.19 C 87.79 76.95 88.63 76.47 89.06 76.23 C 87.28 74.52 85.16 73.28 83.05 72.05 C 81.06 69.47 80.18 66.17 80.31 62.93 C 80.35 56.58 78.74 50.34 76.74 44.35 C 75.43 40.12 71.21 38.14 67.51 36.42 C 65.76 31.02 61.04 27.64 57.32 23.67 C 52.41 18.63 47.77 13.06 41.61 9.48 C 39.87 8.16 38.06 9.72 36.44 10.42 C 34.35 9.48 31.67 7.63 29.56 9.55 M 5.44 12.09 C 5.73 12.64 6.32 13.73 6.61 14.28 C 11.34 14.63 16.10 14.37 20.84 14.46 C 15.22 20.02 9.64 25.63 4.02 31.20 C 10.18 31.13 16.33 31.22 22.48 31.23 C 22.55 31.77 22.69 32.83 22.76 33.36 C 25.77 32.20 28.77 31.03 31.73 29.75 C 28.71 28.69 25.67 27.67 22.63 26.65 C 22.62 27.22 22.59 28.34 22.57 28.91 C 18.36 28.84 14.15 28.78 9.94 28.79 C 15.55 23.18 21.17 17.58 26.79 11.99 C 19.68 12.02 12.55 11.86 5.44 12.09 Z" />
<path fill="#ffffff" opacity="1.00" d=" M 29.84 11.40 C 30.42 11.06 31.57 10.36 32.14 10.02 C 36.46 11.94 38.09 16.61 40.84 20.09 C 44.61 25.01 48.85 29.54 52.78 34.32 C 50.02 34.60 47.32 35.28 44.56 35.50 C 40.84 32.43 38.76 27.85 36.06 23.92 C 34.09 19.69 30.37 16.22 29.84 11.40 Z" />
<path fill="#ffffff" opacity="1.00" d=" M 37.74 12.21 C 38.14 10.57 40.40 10.32 41.52 11.37 C 47.15 15.00 51.55 20.13 56.15 24.92 C 59.34 28.35 63.00 31.36 65.58 35.31 C 62.01 34.00 58.25 32.23 54.48 33.89 C 48.98 26.60 42.09 20.31 37.74 12.21 Z" />
<path fill="#ffffff" opacity="1.00" d=" M 52.24 38.46 C 54.00 36.92 55.67 34.88 58.21 34.77 C 61.54 35.30 64.51 37.04 67.58 38.36 C 70.58 39.74 73.93 41.43 75.07 44.79 C 77.26 51.22 78.86 57.98 78.69 64.82 C 78.66 68.56 80.79 71.78 82.72 74.82 C 78.31 80.09 72.37 84.23 65.43 85.14 C 63.79 78.33 55.79 77.75 51.48 73.31 C 47.12 68.95 42.19 64.62 40.10 58.64 C 39.41 56.80 37.92 55.11 38.05 53.06 C 38.75 50.94 40.21 49.16 40.93 47.04 C 40.99 45.06 40.52 43.08 40.83 41.11 C 41.64 39.47 43.37 38.59 44.74 37.49 C 45.90 39.20 46.81 41.31 48.81 42.22 C 52.23 43.84 56.16 43.72 59.68 45.06 C 58.69 46.76 57.70 48.51 57.24 50.45 C 58.42 49.23 59.51 47.94 60.61 46.65 C 60.94 48.24 63.72 50.29 61.54 51.55 C 57.17 51.76 53.85 48.31 49.92 46.95 C 47.38 46.56 44.79 46.93 42.25 47.17 C 44.40 49.36 47.61 47.82 50.14 48.90 C 52.96 50.16 55.60 51.77 58.43 53.00 C 58.71 54.23 58.91 55.47 59.05 56.72 C 59.31 55.86 59.84 54.12 60.10 53.26 C 60.68 53.18 61.84 53.03 62.43 52.96 C 62.79 54.37 63.18 55.80 63.98 57.05 C 64.30 54.65 64.37 52.24 64.47 49.82 C 62.81 47.41 61.43 44.64 59.00 42.89 C 56.16 41.66 52.83 42.32 50.02 40.93 C 48.28 40.21 47.48 38.38 46.45 36.94 C 48.65 36.50 50.87 36.17 53.10 35.90 C 52.88 36.54 52.45 37.82 52.24 38.46 M 42.19 56.79 C 47.13 56.90 52.00 57.67 56.85 58.57 C 56.92 62.33 57.11 67.14 61.07 68.96 C 60.11 65.62 57.60 62.13 59.14 58.58 C 60.04 58.42 61.85 58.09 62.75 57.92 C 62.10 57.49 61.44 57.07 60.77 56.66 C 54.51 58.33 47.97 52.77 42.19 56.79 Z" />
</g>
<g id="#555555ff">
<path fill="#555555" opacity="1.00" d=" M 29.56 9.55 C 31.67 7.63 34.35 9.48 36.44 10.42 C 38.06 9.72 39.87 8.16 41.61 9.48 C 47.77 13.06 52.41 18.63 57.32 23.67 C 61.04 27.64 65.76 31.02 67.51 36.42 C 71.21 38.14 75.43 40.12 76.74 44.35 C 78.74 50.34 80.35 56.58 80.31 62.93 C 80.18 66.17 81.06 69.47 83.05 72.05 C 85.16 73.28 87.28 74.52 89.06 76.23 C 88.63 76.47 87.79 76.95 87.37 77.19 C 86.57 76.36 85.77 75.53 84.97 74.70 C 79.90 81.15 72.70 86.69 64.14 86.74 C 64.11 88.50 64.11 90.26 64.14 92.02 C 63.33 90.67 62.68 89.23 62.03 87.79 C 62.37 86.28 63.16 84.77 62.91 83.18 C 61.18 80.66 58.11 79.73 55.59 78.25 C 50.12 75.34 46.20 70.42 42.18 65.86 C 39.65 63.05 38.74 59.27 36.98 55.99 C 35.17 52.76 38.06 49.76 39.14 46.85 C 39.21 44.90 38.90 42.96 39.08 41.01 C 39.62 39.06 41.42 37.90 42.79 36.54 C 37.65 30.34 33.83 23.24 29.59 16.44 C 28.33 14.43 27.51 11.34 29.56 9.55 M 29.84 11.40 C 30.37 16.22 34.09 19.69 36.06 23.92 C 38.76 27.85 40.84 32.43 44.56 35.50 C 47.32 35.28 50.02 34.60 52.78 34.32 C 48.85 29.54 44.61 25.01 40.84 20.09 C 38.09 16.61 36.46 11.94 32.14 10.02 C 31.57 10.36 30.42 11.06 29.84 11.40 M 37.74 12.21 C 42.09 20.31 48.98 26.60 54.48 33.89 C 58.25 32.23 62.01 34.00 65.58 35.31 C 63.00 31.36 59.34 28.35 56.15 24.92 C 51.55 20.13 47.15 15.00 41.52 11.37 C 40.40 10.32 38.14 10.57 37.74 12.21 M 52.24 38.46 C 52.45 37.82 52.88 36.54 53.10 35.90 C 50.87 36.17 48.65 36.50 46.45 36.94 C 47.48 38.38 48.28 40.21 50.02 40.93 C 52.83 42.32 56.16 41.66 59.00 42.89 C 61.43 44.64 62.81 47.41 64.47 49.82 C 64.37 52.24 64.30 54.65 63.98 57.05 C 63.18 55.80 62.79 54.37 62.43 52.96 C 61.84 53.03 60.68 53.18 60.10 53.26 C 59.84 54.12 59.31 55.86 59.05 56.72 C 58.91 55.47 58.71 54.23 58.43 53.00 C 55.60 51.77 52.96 50.16 50.14 48.90 C 47.61 47.82 44.40 49.36 42.25 47.17 C 44.79 46.93 47.38 46.56 49.92 46.95 C 53.85 48.31 57.17 51.76 61.54 51.55 C 63.72 50.29 60.94 48.24 60.61 46.65 C 59.51 47.94 58.42 49.23 57.24 50.45 C 57.70 48.51 58.69 46.76 59.68 45.06 C 56.16 43.72 52.23 43.84 48.81 42.22 C 46.81 41.31 45.90 39.20 44.74 37.49 C 43.37 38.59 41.64 39.47 40.83 41.11 C 40.52 43.08 40.99 45.06 40.93 47.04 C 40.21 49.16 38.75 50.94 38.05 53.06 C 37.92 55.11 39.41 56.80 40.10 58.64 C 42.19 64.62 47.12 68.95 51.48 73.31 C 55.79 77.75 63.79 78.33 65.43 85.14 C 72.37 84.23 78.31 80.09 82.72 74.82 C 80.79 71.78 78.66 68.56 78.69 64.82 C 78.86 57.98 77.26 51.22 75.07 44.79 C 73.93 41.43 70.58 39.74 67.58 38.36 C 64.51 37.04 61.54 35.30 58.21 34.77 C 55.67 34.88 54.00 36.92 52.24 38.46 Z" />
<path fill="#555555" opacity="1.00" d=" M 5.44 12.09 C 12.55 11.86 19.68 12.02 26.79 11.99 C 21.17 17.58 15.55 23.18 9.94 28.79 C 14.15 28.78 18.36 28.84 22.57 28.91 C 22.59 28.34 22.62 27.22 22.63 26.65 C 25.67 27.67 28.71 28.69 31.73 29.75 C 28.77 31.03 25.77 32.20 22.76 33.36 C 22.69 32.83 22.55 31.77 22.48 31.23 C 16.33 31.22 10.18 31.13 4.02 31.20 C 9.64 25.63 15.22 20.02 20.84 14.46 C 16.10 14.37 11.34 14.63 6.61 14.28 C 6.32 13.73 5.73 12.64 5.44 12.09 Z" />
<path fill="#555555" opacity="1.00" d=" M 42.19 56.79 C 47.97 52.77 54.51 58.33 60.77 56.66 C 61.44 57.07 62.10 57.49 62.75 57.92 C 61.85 58.09 60.04 58.42 59.14 58.58 C 57.60 62.13 60.11 65.62 61.07 68.96 C 57.11 67.14 56.92 62.33 56.85 58.57 C 52.00 57.67 47.13 56.90 42.19 56.79 Z" />
</g>
</svg>
