<?xml version="1.0" encoding="UTF-8" ?>
<!DOCTYPE svg PUBLIC "-//W3C//DTD SVG 1.1//EN" "http://www.w3.org/Graphics/SVG/1.1/DTD/svg11.dtd">
<svg width="150pt" height="100pt" viewBox="0 0 150 100" version="1.1" xmlns="http://www.w3.org/2000/svg">
<g id="#ffffffff">
<path fill="#ffffff" opacity="1.00" d=" M 0.00 0.00 L 150.00 0.00 L 150.00 100.00 L 0.00 100.00 L 0.00 0.00 M 69.49 21.57 C 65.91 21.95 65.57 26.13 63.00 27.90 C 56.65 32.91 50.39 38.03 44.12 43.14 C 40.59 46.90 37.16 50.78 33.73 54.63 C 28.42 62.37 22.87 70.35 20.45 79.52 C 22.15 78.03 22.99 75.91 23.94 73.92 C 27.95 65.40 32.83 57.10 39.75 50.60 C 45.65 42.74 54.23 37.70 61.56 31.32 C 64.84 29.24 67.03 26.09 69.21 22.96 C 69.40 24.68 70.78 26.79 69.35 28.34 C 65.88 33.22 61.43 37.31 57.96 42.21 C 54.03 41.17 48.12 41.14 46.92 46.06 C 48.67 45.17 50.42 44.29 52.15 43.37 C 56.84 43.29 61.28 45.11 65.73 46.32 C 67.68 50.55 69.60 54.79 71.79 58.89 C 71.06 59.27 70.32 59.60 69.55 59.89 C 65.87 58.61 64.17 54.73 62.88 51.36 C 60.51 51.27 58.13 51.02 55.88 50.25 C 54.03 51.16 52.15 52.11 50.03 52.12 C 48.00 55.02 47.61 58.61 47.05 62.01 C 54.38 65.37 61.44 59.10 68.87 61.01 C 69.12 61.60 69.62 62.77 69.87 63.36 C 68.36 64.10 66.86 64.85 65.38 65.64 C 65.20 64.20 64.81 62.83 64.20 61.53 C 64.06 63.00 63.98 64.47 63.93 65.94 C 60.16 67.31 56.07 67.72 52.44 69.48 C 47.61 71.88 42.36 73.49 37.00 74.10 C 35.53 77.80 34.23 81.63 33.96 85.64 C 36.93 82.77 36.14 78.14 38.74 75.07 C 44.94 75.35 50.44 72.13 56.02 69.94 C 60.96 68.63 66.07 67.68 70.56 65.09 C 71.95 65.50 73.35 65.88 74.77 66.21 C 85.34 67.96 94.86 73.18 104.74 77.05 C 106.40 77.77 108.16 78.35 109.65 79.42 C 110.73 81.09 110.67 83.87 113.03 84.30 C 112.39 81.61 112.16 77.91 109.00 76.97 C 98.71 72.80 88.65 68.00 78.01 64.78 C 78.01 64.08 78.02 62.68 78.02 61.99 L 77.21 62.01 C 77.38 66.11 72.82 64.55 70.91 62.85 C 71.22 59.47 75.39 58.70 78.14 59.09 C 83.28 59.93 88.39 61.25 93.65 61.02 C 93.88 58.26 95.21 55.86 96.91 53.74 C 94.52 52.74 92.16 51.54 90.44 49.54 C 87.72 50.15 84.95 49.95 82.26 49.26 C 82.17 49.89 81.98 51.15 81.89 51.77 C 80.96 52.51 80.05 53.27 79.13 54.02 C 78.66 54.97 78.24 55.95 77.88 56.95 C 76.17 57.28 74.44 57.53 72.72 57.80 C 73.91 54.55 76.02 51.75 77.50 48.64 C 78.88 46.19 80.65 42.93 83.98 43.35 C 88.91 43.81 94.16 43.58 98.63 46.05 C 98.99 45.12 99.37 44.21 99.78 43.30 C 106.92 50.03 112.34 58.26 118.16 66.10 C 121.17 70.22 123.82 74.64 125.68 79.40 C 126.62 81.37 127.00 83.94 129.33 84.80 C 127.17 76.06 122.25 68.26 116.77 61.21 C 112.21 55.24 108.16 48.75 102.50 43.70 C 98.66 40.38 94.12 37.94 90.54 34.29 C 86.71 30.51 80.88 29.77 77.24 25.74 C 75.17 23.58 73.05 20.02 69.49 21.57 Z" />
<path fill="#ffffff" opacity="1.00" d=" M 70.97 22.62 C 73.75 23.75 75.22 26.60 77.57 28.35 C 81.08 31.49 86.05 32.30 89.40 35.65 C 92.21 38.23 95.14 40.73 98.64 42.36 C 94.74 43.87 90.54 41.49 86.45 41.88 C 84.99 38.65 81.67 37.09 79.37 34.58 C 76.09 30.92 70.74 28.26 70.97 22.62 Z" />
<path fill="#ffffff" opacity="1.00" d=" M 59.77 42.78 C 63.33 37.99 67.54 33.75 71.14 28.99 C 75.46 33.16 79.70 37.42 84.36 41.22 C 76.90 41.82 75.38 50.13 71.83 55.23 C 70.13 51.89 68.88 48.29 66.80 45.16 C 64.67 43.85 62.13 43.50 59.77 42.78 Z" />
<path fill="#ffffff" opacity="1.00" d=" M 84.35 51.44 C 84.99 51.45 86.25 51.47 86.89 51.48 C 85.49 52.58 84.19 53.80 83.69 55.57 C 83.02 56.41 82.32 57.22 81.59 58.01 C 81.01 57.90 79.84 57.68 79.26 57.57 C 80.49 55.16 82.48 53.34 84.35 51.44 Z" />
<path fill="#ffffff" opacity="1.00" d=" M 86.15 54.32 C 87.64 53.81 89.06 50.42 90.67 52.26 C 87.61 53.82 87.09 57.71 84.00 59.17 C 84.68 57.54 85.38 55.91 86.15 54.32 Z" />
<path fill="#ffffff" opacity="1.00" d=" M 54.87 52.03 C 57.08 52.61 59.33 53.10 61.63 53.13 C 62.40 55.38 63.72 57.36 65.23 59.18 C 63.42 58.81 60.90 59.20 59.96 57.16 C 58.98 54.81 57.07 53.21 54.87 52.03 Z" />
<path fill="#ffffff" opacity="1.00" d=" M 52.19 52.92 C 55.99 53.91 58.25 56.99 59.86 60.34 C 58.68 59.80 57.47 59.33 56.23 58.93 C 55.85 56.37 54.04 54.58 52.19 52.92 Z" />
<path fill="#ffffff" opacity="1.00" d=" M 89.36 55.29 C 90.83 54.43 92.33 53.41 94.13 53.90 C 93.47 55.68 92.68 57.40 92.00 59.17 C 90.59 59.13 89.17 59.06 87.76 58.97 C 88.31 57.75 88.84 56.52 89.36 55.29 Z" />
<path fill="#ffffff" opacity="1.00" d=" M 50.34 54.44 C 53.27 55.59 54.44 58.54 55.94 61.06 C 53.58 60.98 51.22 60.96 48.86 60.94 C 49.43 58.79 49.72 56.58 50.34 54.44 Z" />
</g>
<g id="#616262ff">
<path fill="#616262" opacity="1.00" d=" M 69.49 21.57 C 73.05 20.02 75.17 23.58 77.24 25.74 C 80.88 29.77 86.71 30.51 90.54 34.29 C 94.12 37.94 98.66 40.38 102.50 43.70 C 108.16 48.75 112.21 55.24 116.77 61.21 C 122.25 68.26 127.17 76.06 129.33 84.80 C 127.00 83.94 126.62 81.37 125.68 79.40 C 123.82 74.64 121.17 70.22 118.16 66.10 C 112.34 58.26 106.92 50.03 99.78 43.30 C 99.37 44.21 98.99 45.12 98.63 46.05 C 94.16 43.58 88.91 43.81 83.98 43.35 C 80.65 42.93 78.88 46.19 77.50 48.64 C 76.02 51.75 73.91 54.55 72.72 57.80 C 74.44 57.53 76.17 57.28 77.88 56.95 C 78.24 55.95 78.66 54.97 79.13 54.02 C 80.05 53.27 80.96 52.51 81.89 51.77 C 81.98 51.15 82.17 49.89 82.26 49.26 C 84.95 49.95 87.72 50.15 90.44 49.54 C 92.16 51.54 94.52 52.74 96.91 53.74 C 95.21 55.86 93.88 58.26 93.65 61.02 C 88.39 61.25 83.28 59.93 78.14 59.09 C 75.39 58.70 71.22 59.47 70.91 62.85 C 72.82 64.55 77.38 66.11 77.21 62.01 L 78.02 61.99 C 78.02 62.68 78.01 64.08 78.01 64.78 C 88.65 68.00 98.71 72.80 109.00 76.97 C 112.16 77.91 112.39 81.61 113.03 84.30 C 110.67 83.87 110.73 81.09 109.65 79.42 C 108.16 78.35 106.40 77.77 104.74 77.05 C 94.86 73.18 85.34 67.96 74.77 66.21 C 73.35 65.88 71.95 65.50 70.56 65.09 C 66.07 67.68 60.96 68.63 56.02 69.94 C 50.44 72.13 44.94 75.35 38.74 75.07 C 36.14 78.14 36.93 82.77 33.96 85.64 C 34.23 81.63 35.53 77.80 37.00 74.10 C 42.36 73.49 47.61 71.88 52.44 69.48 C 56.07 67.72 60.16 67.31 63.93 65.94 C 63.98 64.47 64.06 63.00 64.20 61.53 C 64.81 62.83 65.20 64.20 65.38 65.64 C 66.86 64.85 68.36 64.10 69.87 63.36 C 69.62 62.77 69.12 61.60 68.87 61.01 C 61.44 59.10 54.38 65.37 47.05 62.01 C 47.61 58.61 48.00 55.02 50.03 52.12 C 52.15 52.11 54.03 51.16 55.88 50.25 C 58.13 51.02 60.51 51.27 62.88 51.36 C 64.17 54.73 65.87 58.61 69.55 59.89 C 70.32 59.60 71.06 59.27 71.79 58.89 C 69.60 54.79 67.68 50.55 65.73 46.32 C 61.28 45.11 56.84 43.29 52.15 43.37 C 50.42 44.29 48.67 45.17 46.92 46.06 C 48.12 41.14 54.03 41.17 57.96 42.21 C 61.43 37.31 65.88 33.22 69.35 28.34 C 70.78 26.79 69.40 24.68 69.21 22.96 C 67.03 26.09 64.84 29.24 61.56 31.32 C 54.23 37.70 45.65 42.74 39.75 50.60 C 32.83 57.10 27.95 65.40 23.94 73.92 C 22.99 75.91 22.15 78.03 20.45 79.52 C 22.87 70.35 28.42 62.37 33.73 54.63 C 37.16 50.78 40.59 46.90 44.12 43.14 C 50.39 38.03 56.65 32.91 63.00 27.90 C 65.57 26.13 65.91 21.95 69.49 21.57 M 70.97 22.62 C 70.74 28.26 76.09 30.92 79.37 34.58 C 81.67 37.09 84.99 38.65 86.45 41.88 C 90.54 41.49 94.74 43.87 98.64 42.36 C 95.14 40.73 92.21 38.23 89.40 35.65 C 86.05 32.30 81.08 31.49 77.57 28.35 C 75.22 26.60 73.75 23.75 70.97 22.62 M 59.77 42.78 C 62.13 43.50 64.67 43.85 66.80 45.16 C 68.88 48.29 70.13 51.89 71.83 55.23 C 75.38 50.13 76.90 41.82 84.36 41.22 C 79.70 37.42 75.46 33.16 71.14 28.99 C 67.54 33.75 63.33 37.99 59.77 42.78 M 84.35 51.44 C 82.48 53.34 80.49 55.16 79.26 57.57 C 79.84 57.68 81.01 57.90 81.59 58.01 C 82.32 57.22 83.02 56.41 83.69 55.57 C 84.19 53.80 85.49 52.58 86.89 51.48 C 86.25 51.47 84.99 51.45 84.35 51.44 M 86.15 54.32 C 85.38 55.91 84.68 57.54 84.00 59.17 C 87.09 57.71 87.61 53.82 90.67 52.26 C 89.06 50.42 87.64 53.81 86.15 54.32 M 54.87 52.03 C 57.07 53.21 58.98 54.81 59.96 57.16 C 60.90 59.20 63.42 58.81 65.23 59.18 C 63.72 57.36 62.40 55.38 61.63 53.13 C 59.33 53.10 57.08 52.61 54.87 52.03 M 52.19 52.92 C 54.04 54.58 55.85 56.37 56.23 58.93 C 57.47 59.33 58.68 59.80 59.86 60.34 C 58.25 56.99 55.99 53.91 52.19 52.92 M 89.36 55.29 C 88.84 56.52 88.31 57.75 87.76 58.97 C 89.17 59.06 90.59 59.13 92.00 59.17 C 92.68 57.40 93.47 55.68 94.13 53.90 C 92.33 53.41 90.83 54.43 89.36 55.29 M 50.34 54.44 C 49.72 56.58 49.43 58.79 48.86 60.94 C 51.22 60.96 53.58 60.98 55.94 61.06 C 54.44 58.54 53.27 55.59 50.34 54.44 Z" />
</g>
</svg>
