<?xml version="1.0" encoding="UTF-8" ?>
<!DOCTYPE svg PUBLIC "-//W3C//DTD SVG 1.1//EN" "http://www.w3.org/Graphics/SVG/1.1/DTD/svg11.dtd">
<svg width="150pt" height="100pt" viewBox="0 0 150 100" version="1.1" xmlns="http://www.w3.org/2000/svg">
<g id="#ffffffff">
<path fill="#ffffff" opacity="1.00" d=" M 0.00 0.00 L 150.00 0.00 L 150.00 100.00 L 0.00 100.00 L 0.00 0.00 M 38.21 43.22 C 32.41 50.58 26.64 58.06 22.21 66.35 C 20.74 68.98 19.10 71.61 18.73 74.66 C 22.41 71.72 23.58 66.87 26.07 63.04 C 30.15 56.59 34.78 50.50 39.46 44.48 C 42.43 41.27 46.14 37.11 51.02 38.16 C 55.53 39.18 60.27 39.43 64.63 41.01 C 68.20 45.22 70.54 50.30 72.84 55.28 C 67.76 54.92 64.82 50.36 61.69 46.95 C 58.84 46.66 55.99 46.18 53.31 45.11 C 51.23 46.15 49.11 47.12 46.96 48.04 C 46.72 51.35 46.70 54.67 46.84 57.99 C 50.71 58.24 54.71 58.91 58.49 57.69 C 62.04 56.64 65.88 55.28 69.59 56.37 C 70.85 56.89 70.86 58.40 71.27 59.50 C 69.57 60.15 67.88 60.80 66.18 61.44 C 66.08 60.41 65.88 58.35 65.78 57.32 C 64.80 58.74 64.94 60.47 64.82 62.11 C 60.24 63.89 55.48 65.17 50.95 67.10 C 46.70 68.89 42.05 69.22 37.51 69.61 C 35.72 73.32 34.45 77.25 33.20 81.16 C 33.63 81.07 34.48 80.88 34.91 80.79 C 36.56 77.84 37.26 74.48 38.41 71.33 C 42.66 70.96 46.97 70.56 50.99 69.01 C 58.05 66.12 65.51 64.26 72.36 60.82 C 76.46 62.32 80.92 62.41 85.00 64.01 C 93.73 67.09 102.19 70.89 110.79 74.34 C 114.05 75.22 114.47 78.98 116.12 81.42 C 116.29 79.71 116.46 77.90 115.65 76.32 C 114.56 73.28 111.03 72.68 108.44 71.46 C 98.73 67.84 89.45 62.70 79.22 60.74 C 79.41 59.21 79.79 57.57 78.73 56.24 C 78.49 57.33 78.00 59.50 77.76 60.59 C 76.09 59.87 73.54 60.05 72.75 58.08 C 72.94 55.06 76.54 54.48 78.95 54.46 C 84.81 54.75 90.34 57.19 96.22 57.53 C 99.24 55.36 101.25 52.09 103.61 49.25 C 101.31 48.33 98.96 47.33 97.47 45.26 C 94.59 45.31 91.75 44.79 89.14 43.54 C 87.62 45.68 85.73 47.53 83.16 48.35 C 84.40 48.80 85.67 49.16 86.95 49.47 C 85.59 51.21 84.27 53.74 81.62 53.13 C 82.09 52.65 83.04 51.70 83.52 51.22 C 83.07 50.62 82.62 50.04 82.16 49.46 C 80.32 52.77 76.40 53.31 72.98 53.04 C 76.07 48.53 79.96 44.63 83.82 40.79 C 85.67 38.99 88.07 36.93 90.85 37.80 C 94.70 38.56 98.62 38.85 102.52 39.33 C 105.11 39.67 106.54 42.10 108.16 43.86 C 116.59 54.04 125.72 64.12 130.60 76.61 C 131.37 78.47 132.06 80.57 134.08 81.45 C 130.27 67.26 120.44 55.83 111.26 44.76 C 109.18 42.51 107.47 39.79 104.83 38.15 C 101.30 36.96 97.50 37.17 93.88 36.48 C 91.01 36.00 87.71 35.21 85.22 37.23 C 80.49 41.07 76.53 45.77 72.54 50.35 C 70.79 46.89 68.88 43.51 66.57 40.40 C 65.67 38.87 63.75 38.79 62.21 38.41 C 58.14 37.78 54.13 36.75 50.03 36.30 C 45.09 36.00 41.19 39.74 38.21 43.22 Z" />
<path fill="#ffffff" opacity="1.00" d=" M 89.22 46.07 C 89.78 46.67 89.78 46.67 89.22 46.07 Z" />
<path fill="#ffffff" opacity="1.00" d=" M 52.11 47.27 C 56.06 47.96 58.75 51.83 60.79 55.07 C 60.34 55.25 59.46 55.61 59.01 55.79 C 56.88 52.81 54.88 49.73 52.11 47.27 Z" />
<path fill="#ffffff" opacity="1.00" d=" M 88.54 49.51 C 89.73 48.56 90.92 47.61 92.10 46.64 C 92.88 46.79 94.44 47.08 95.23 47.23 C 92.20 48.48 90.51 51.16 88.71 53.70 C 87.98 53.85 86.53 54.14 85.81 54.29 C 86.75 52.71 87.67 51.13 88.54 49.51 Z" />
<path fill="#ffffff" opacity="1.00" d=" M 57.98 47.83 C 58.62 48.00 59.90 48.35 60.54 48.53 C 62.33 50.48 64.19 52.38 65.88 54.44 C 61.48 55.23 60.27 50.41 57.98 47.83 Z" />
<path fill="#ffffff" opacity="1.00" d=" M 90.50 54.80 C 91.84 51.75 94.31 49.61 97.08 47.88 C 98.27 48.64 99.48 49.39 100.68 50.15 C 99.06 52.03 97.45 53.93 95.86 55.84 C 94.08 55.49 92.29 55.14 90.50 54.80 Z" />
<path fill="#ffffff" opacity="1.00" d=" M 48.39 56.51 C 48.97 53.99 46.99 49.61 50.22 48.66 C 53.49 50.31 55.22 53.60 56.89 56.68 C 54.06 56.70 51.22 56.63 48.39 56.51 Z" />
</g>
<g id="#646465ff">
<path fill="#646465" opacity="1.00" d=" M 38.21 43.22 C 41.19 39.74 45.09 36.00 50.03 36.30 C 54.13 36.75 58.14 37.78 62.21 38.41 C 63.75 38.79 65.67 38.87 66.57 40.40 C 68.88 43.51 70.79 46.89 72.54 50.35 C 76.53 45.77 80.49 41.07 85.22 37.23 C 87.71 35.21 91.01 36.00 93.88 36.48 C 97.50 37.17 101.30 36.96 104.83 38.15 C 107.47 39.79 109.18 42.51 111.26 44.76 C 120.44 55.83 130.27 67.26 134.08 81.45 C 132.06 80.57 131.37 78.47 130.60 76.61 C 125.72 64.12 116.59 54.04 108.16 43.86 C 106.54 42.10 105.11 39.67 102.52 39.33 C 98.62 38.85 94.70 38.56 90.85 37.80 C 88.07 36.93 85.67 38.99 83.82 40.79 C 79.96 44.63 76.07 48.53 72.98 53.04 C 76.40 53.31 80.32 52.77 82.16 49.46 C 82.62 50.04 83.07 50.62 83.52 51.22 C 83.04 51.70 82.09 52.65 81.62 53.13 C 84.27 53.74 85.59 51.21 86.95 49.47 C 85.67 49.16 84.40 48.80 83.16 48.35 C 85.73 47.53 87.62 45.68 89.14 43.54 C 91.75 44.79 94.59 45.31 97.47 45.26 C 98.96 47.33 101.31 48.33 103.61 49.25 C 101.25 52.09 99.24 55.36 96.22 57.53 C 90.34 57.19 84.81 54.75 78.95 54.46 C 76.54 54.48 72.94 55.06 72.75 58.08 C 73.54 60.05 76.09 59.87 77.76 60.59 C 78.00 59.50 78.49 57.33 78.73 56.24 C 79.79 57.57 79.41 59.21 79.22 60.74 C 89.45 62.70 98.73 67.84 108.44 71.46 C 111.03 72.68 114.56 73.28 115.65 76.32 C 116.46 77.90 116.29 79.71 116.12 81.42 C 114.47 78.98 114.05 75.22 110.79 74.34 C 102.19 70.89 93.73 67.09 85.00 64.01 C 80.92 62.41 76.46 62.32 72.36 60.82 C 65.51 64.26 58.05 66.12 50.99 69.01 C 46.97 70.56 42.66 70.96 38.41 71.33 C 37.26 74.48 36.56 77.84 34.91 80.79 C 34.48 80.88 33.63 81.07 33.20 81.16 C 34.45 77.25 35.72 73.32 37.51 69.61 C 42.05 69.22 46.70 68.89 50.95 67.10 C 55.48 65.17 60.24 63.89 64.82 62.11 C 64.94 60.47 64.80 58.74 65.78 57.32 C 65.88 58.35 66.08 60.41 66.18 61.44 C 67.88 60.80 69.57 60.15 71.27 59.50 C 70.86 58.40 70.85 56.89 69.59 56.37 C 65.88 55.28 62.04 56.64 58.49 57.69 C 54.71 58.91 50.71 58.24 46.84 57.99 C 46.70 54.67 46.72 51.35 46.96 48.04 C 49.11 47.12 51.23 46.15 53.31 45.11 C 55.99 46.18 58.84 46.66 61.69 46.95 C 64.82 50.36 67.76 54.92 72.84 55.28 C 70.54 50.30 68.20 45.22 64.63 41.01 C 60.27 39.43 55.53 39.18 51.02 38.16 C 46.14 37.11 42.43 41.27 39.46 44.48 C 34.78 50.50 30.15 56.59 26.07 63.04 C 23.58 66.87 22.41 71.72 18.73 74.66 C 19.10 71.61 20.74 68.98 22.21 66.35 C 26.64 58.06 32.41 50.58 38.21 43.22 M 89.22 46.07 C 89.78 46.67 89.78 46.67 89.22 46.07 M 52.11 47.27 C 54.88 49.73 56.88 52.81 59.01 55.79 C 59.46 55.61 60.34 55.25 60.79 55.07 C 58.75 51.83 56.06 47.96 52.11 47.27 M 88.54 49.51 C 87.67 51.13 86.75 52.71 85.81 54.29 C 86.53 54.14 87.98 53.85 88.71 53.70 C 90.51 51.16 92.20 48.48 95.23 47.23 C 94.44 47.08 92.88 46.79 92.10 46.64 C 90.92 47.61 89.73 48.56 88.54 49.51 M 57.98 47.83 C 60.27 50.41 61.48 55.23 65.88 54.44 C 64.19 52.38 62.33 50.48 60.54 48.53 C 59.90 48.35 58.62 48.00 57.98 47.83 M 90.50 54.80 C 92.29 55.14 94.08 55.49 95.86 55.84 C 97.45 53.93 99.06 52.03 100.68 50.15 C 99.48 49.39 98.27 48.64 97.08 47.88 C 94.31 49.61 91.84 51.75 90.50 54.80 M 48.39 56.51 C 51.22 56.63 54.06 56.70 56.89 56.68 C 55.22 53.60 53.49 50.31 50.22 48.66 C 46.99 49.61 48.97 53.99 48.39 56.51 Z" />
</g>
</svg>
