<?xml version="1.0" encoding="UTF-8" ?>
<!DOCTYPE svg PUBLIC "-//W3C//DTD SVG 1.1//EN" "http://www.w3.org/Graphics/SVG/1.1/DTD/svg11.dtd">
<svg width="100pt" height="100pt" viewBox="0 0 100 100" version="1.1" xmlns="http://www.w3.org/2000/svg">
<g id="#ffffffff">
<path fill="#ffffff" opacity="1.00" d=" M 0.00 0.00 L 100.00 0.00 L 100.00 100.00 L 0.00 100.00 L 0.00 0.00 M 24.99 32.77 C 26.12 36.59 30.15 34.28 32.46 33.09 C 33.94 33.32 35.43 33.54 36.91 33.77 C 37.21 34.25 37.81 35.21 38.11 35.69 C 36.71 36.09 35.31 36.52 33.91 36.93 C 31.90 40.70 34.59 44.59 36.05 48.06 C 37.42 51.22 40.71 52.66 43.85 53.47 C 43.88 54.64 43.92 55.81 43.95 56.98 C 41.04 57.00 38.08 56.81 35.36 55.67 C 31.80 54.33 26.70 54.39 24.38 57.87 C 24.16 59.36 24.37 61.35 26.12 61.79 C 28.65 62.77 30.74 64.56 33.23 65.59 C 43.68 67.23 53.37 73.04 64.25 71.98 C 68.56 76.12 69.01 82.88 73.23 86.93 C 72.90 81.88 69.70 77.72 67.65 73.27 C 66.55 70.66 63.63 69.82 61.03 70.09 C 53.92 70.32 47.30 67.46 40.64 65.42 C 37.39 64.32 33.66 64.50 30.86 62.29 C 31.25 61.12 31.59 59.93 31.90 58.73 C 30.93 59.41 30.18 60.28 29.65 61.35 C 28.43 60.52 25.23 60.44 26.19 58.27 C 30.32 54.74 35.35 58.00 39.86 58.61 C 41.67 58.71 44.42 59.66 45.29 57.40 C 46.08 54.07 46.08 50.50 45.62 47.12 C 44.53 44.84 42.79 42.81 42.87 40.13 C 41.12 37.66 39.33 35.16 38.57 32.19 C 36.45 31.98 34.33 31.66 32.28 31.04 C 30.54 32.05 28.70 32.92 26.70 33.22 C 27.60 31.20 28.77 28.90 31.04 28.20 C 33.93 27.57 36.94 27.40 39.88 27.67 C 42.08 27.86 43.17 30.04 44.59 31.43 C 47.61 35.17 51.89 37.82 54.10 42.20 C 56.15 39.46 52.49 37.12 51.06 35.13 C 53.29 35.95 55.52 36.79 57.86 37.26 C 64.58 46.15 69.53 56.51 77.98 63.99 C 82.44 68.14 84.96 73.75 88.28 78.74 C 88.59 78.40 89.20 77.71 89.51 77.37 C 87.61 74.29 85.75 71.17 83.79 68.12 C 80.96 63.69 76.47 60.72 73.39 56.50 C 69.22 50.99 65.40 45.24 61.72 39.40 C 59.55 34.90 53.93 33.69 49.38 33.92 C 46.71 31.48 44.77 28.23 41.73 26.23 C 38.53 25.57 35.19 25.84 31.96 26.13 C 28.46 26.48 25.97 29.62 24.99 32.77 Z" />
<path fill="#ffffff" opacity="1.00" d=" M 35.03 38.30 C 38.91 36.00 41.41 40.01 41.58 43.47 C 39.97 42.96 38.38 42.40 36.78 41.88 C 37.42 43.90 39.42 45.20 39.23 47.54 C 40.36 46.91 41.25 45.98 42.01 44.95 C 42.66 45.66 43.31 46.36 43.97 47.07 C 43.97 48.56 43.96 50.06 43.96 51.55 C 37.71 50.78 35.35 43.71 35.03 38.30 Z" />
</g>
<g id="#696969ff">
<path fill="#696969" opacity="1.00" d=" M 24.99 32.77 C 25.97 29.62 28.46 26.48 31.96 26.13 C 35.19 25.84 38.53 25.57 41.73 26.23 C 44.77 28.23 46.71 31.48 49.38 33.92 C 53.93 33.69 59.55 34.90 61.72 39.40 C 65.40 45.24 69.22 50.99 73.39 56.50 C 76.47 60.72 80.96 63.69 83.79 68.12 C 85.75 71.17 87.61 74.29 89.51 77.37 C 89.20 77.71 88.59 78.40 88.28 78.74 C 84.96 73.75 82.44 68.14 77.98 63.99 C 69.53 56.51 64.58 46.15 57.86 37.26 C 55.52 36.79 53.29 35.95 51.06 35.13 C 52.49 37.12 56.15 39.46 54.10 42.20 C 51.89 37.82 47.61 35.17 44.59 31.43 C 43.17 30.04 42.08 27.86 39.88 27.67 C 36.94 27.40 33.93 27.57 31.04 28.20 C 28.77 28.90 27.60 31.20 26.70 33.22 C 28.70 32.92 30.54 32.05 32.28 31.04 C 34.33 31.66 36.45 31.98 38.57 32.19 C 39.33 35.16 41.12 37.66 42.87 40.13 C 42.79 42.81 44.53 44.84 45.62 47.12 C 46.08 50.50 46.08 54.07 45.29 57.40 C 44.42 59.66 41.67 58.71 39.86 58.61 C 35.35 58.00 30.32 54.74 26.19 58.27 C 25.23 60.44 28.43 60.52 29.65 61.35 C 30.18 60.28 30.93 59.41 31.90 58.73 C 31.59 59.93 31.25 61.12 30.86 62.29 C 33.66 64.50 37.39 64.32 40.64 65.42 C 47.30 67.46 53.92 70.32 61.03 70.09 C 63.63 69.82 66.55 70.66 67.65 73.27 C 69.70 77.72 72.90 81.88 73.23 86.93 C 69.01 82.88 68.56 76.12 64.25 71.98 C 53.37 73.04 43.68 67.23 33.23 65.59 C 30.74 64.56 28.65 62.77 26.12 61.79 C 24.37 61.35 24.16 59.36 24.38 57.87 C 26.70 54.39 31.80 54.33 35.36 55.67 C 38.08 56.81 41.04 57.00 43.95 56.98 C 43.92 55.81 43.88 54.64 43.85 53.47 C 40.71 52.66 37.42 51.22 36.05 48.06 C 34.59 44.59 31.90 40.70 33.91 36.93 C 35.31 36.52 36.71 36.09 38.11 35.69 C 37.81 35.21 37.21 34.25 36.91 33.77 C 35.43 33.54 33.94 33.32 32.46 33.09 C 30.15 34.28 26.12 36.59 24.99 32.77 M 35.03 38.30 C 35.35 43.71 37.71 50.78 43.96 51.55 C 43.96 50.06 43.97 48.56 43.97 47.07 C 43.31 46.36 42.66 45.66 42.01 44.95 C 41.25 45.98 40.36 46.91 39.23 47.54 C 39.42 45.20 37.42 43.90 36.78 41.88 C 38.38 42.40 39.97 42.96 41.58 43.47 C 41.41 40.01 38.91 36.00 35.03 38.30 Z" />
</g>
</svg>
