<?xml version="1.0" encoding="UTF-8" ?>
<!DOCTYPE svg PUBLIC "-//W3C//DTD SVG 1.1//EN" "http://www.w3.org/Graphics/SVG/1.1/DTD/svg11.dtd">
<svg width="100pt" height="100pt" viewBox="0 0 100 100" version="1.1" xmlns="http://www.w3.org/2000/svg">
<g id="#ffffffff">
<path fill="#ffffff" opacity="1.00" d=" M 0.00 0.00 L 100.00 0.00 L 100.00 100.00 L 0.00 100.00 L 0.00 0.00 M 25.71 26.74 C 23.46 27.42 22.32 29.59 21.00 31.34 C 20.75 32.65 20.71 33.99 20.98 35.31 C 23.46 35.16 25.65 34.02 27.92 33.14 C 30.10 32.60 32.15 33.83 33.29 35.63 C 31.95 36.07 30.60 36.52 29.26 36.96 C 28.88 38.44 27.74 39.92 28.35 41.49 C 29.40 44.83 30.76 48.26 33.22 50.83 C 34.82 52.02 36.80 52.52 38.54 53.47 C 39.63 54.77 38.98 57.27 36.97 56.98 C 32.77 57.86 29.22 53.98 25.06 55.29 C 23.12 55.74 21.44 56.84 19.80 57.93 C 19.92 59.15 20.02 60.38 20.12 61.61 C 23.29 62.61 25.89 64.91 29.06 65.82 C 36.65 66.43 43.46 70.36 51.01 71.21 C 53.88 71.76 56.88 71.36 59.71 72.14 C 61.83 74.59 62.90 77.74 64.35 80.59 C 65.49 82.64 65.61 85.64 68.20 86.49 C 67.69 82.42 65.31 78.96 63.72 75.27 C 62.58 72.94 61.14 69.73 58.02 69.99 C 47.34 70.72 37.78 64.86 27.32 63.87 C 26.87 63.43 25.97 62.54 25.51 62.10 C 25.65 61.20 25.93 59.40 26.07 58.50 C 25.70 59.23 24.96 60.69 24.59 61.42 C 22.99 61.19 21.59 60.48 20.56 59.22 C 26.20 53.77 33.45 60.04 39.96 58.13 C 40.20 56.58 40.38 55.02 40.36 53.45 C 40.84 50.00 41.02 46.09 38.23 43.51 C 38.49 39.00 34.01 36.44 33.57 32.13 C 31.55 31.99 29.55 31.64 27.54 31.51 C 25.62 32.28 23.74 33.19 21.72 33.69 C 22.49 32.12 23.35 30.58 24.22 29.06 C 27.35 27.84 30.69 27.16 34.05 27.04 C 36.32 27.22 37.73 29.26 39.22 30.74 C 41.40 33.24 43.99 35.34 46.17 37.86 C 47.37 39.11 47.93 41.39 50.10 41.06 C 49.20 38.61 47.45 36.67 45.68 34.80 C 48.80 35.86 52.85 36.17 54.61 39.38 C 60.23 47.63 65.08 56.60 72.50 63.43 C 75.20 66.12 77.63 69.11 79.43 72.48 C 80.71 74.72 81.68 77.42 84.24 78.52 C 81.91 71.46 77.23 65.24 71.75 60.26 C 64.70 53.02 60.25 43.74 54.07 35.84 C 51.06 34.55 47.70 32.76 44.35 33.81 C 41.56 31.53 39.71 28.25 36.85 26.12 C 33.16 25.87 29.27 25.57 25.71 26.74 M 18.00 35.01 C 17.42 37.49 19.63 42.20 15.79 42.35 C 16.26 45.18 17.42 47.81 18.45 50.46 C 19.95 47.87 20.80 44.97 21.20 42.02 C 20.65 42.00 19.55 41.96 19.00 41.94 C 19.01 39.62 19.02 37.30 19.02 34.97 L 18.00 35.01 Z" />
<path fill="#ffffff" opacity="1.00" d=" M 30.11 39.15 C 30.94 38.03 32.42 37.72 33.58 37.04 C 35.27 38.70 36.08 40.92 36.51 43.21 C 34.84 42.84 33.20 42.36 31.57 41.87 C 31.90 43.19 32.72 44.04 34.04 44.41 C 34.02 45.17 33.99 46.69 33.98 47.44 C 35.19 46.74 36.00 45.01 37.55 45.03 C 39.25 46.56 38.83 49.03 39.06 51.06 C 38.37 51.04 37.00 51.01 36.32 50.99 C 32.78 49.43 31.87 45.50 30.00 42.50 C 29.98 41.38 30.02 40.27 30.11 39.15 Z" />
</g>
<g id="#686868ff">
<path fill="#686868" opacity="1.00" d=" M 25.71 26.74 C 29.27 25.57 33.16 25.87 36.85 26.12 C 39.71 28.25 41.56 31.53 44.35 33.81 C 47.70 32.76 51.06 34.55 54.07 35.84 C 60.25 43.74 64.70 53.02 71.75 60.26 C 77.23 65.24 81.91 71.46 84.24 78.52 C 81.68 77.42 80.71 74.72 79.43 72.48 C 77.63 69.11 75.20 66.12 72.50 63.43 C 65.08 56.60 60.23 47.63 54.61 39.38 C 52.85 36.17 48.80 35.86 45.68 34.80 C 47.45 36.67 49.20 38.61 50.10 41.06 C 47.93 41.39 47.37 39.11 46.17 37.86 C 43.99 35.34 41.40 33.24 39.22 30.74 C 37.73 29.26 36.32 27.22 34.05 27.04 C 30.69 27.16 27.35 27.84 24.22 29.06 C 23.35 30.58 22.49 32.12 21.72 33.69 C 23.74 33.19 25.62 32.28 27.54 31.51 C 29.55 31.64 31.55 31.99 33.57 32.13 C 34.01 36.44 38.49 39.00 38.23 43.51 C 41.02 46.09 40.84 50.00 40.36 53.45 C 40.38 55.02 40.20 56.58 39.96 58.13 C 33.45 60.04 26.20 53.77 20.56 59.22 C 21.59 60.48 22.99 61.19 24.59 61.42 C 24.96 60.69 25.70 59.23 26.07 58.50 C 25.93 59.40 25.65 61.20 25.51 62.10 C 25.97 62.54 26.87 63.43 27.32 63.87 C 37.78 64.86 47.34 70.72 58.02 69.99 C 61.14 69.73 62.58 72.94 63.72 75.27 C 65.31 78.96 67.69 82.42 68.20 86.49 C 65.61 85.64 65.49 82.64 64.35 80.59 C 62.90 77.74 61.83 74.59 59.71 72.14 C 56.88 71.36 53.88 71.76 51.01 71.21 C 43.46 70.36 36.65 66.43 29.06 65.82 C 25.89 64.91 23.29 62.61 20.12 61.61 C 20.02 60.38 19.92 59.15 19.80 57.93 C 21.44 56.84 23.12 55.74 25.06 55.29 C 29.22 53.98 32.77 57.86 36.97 56.98 C 38.98 57.27 39.63 54.77 38.54 53.47 C 36.80 52.52 34.82 52.02 33.22 50.83 C 30.76 48.26 29.40 44.83 28.35 41.49 C 27.74 39.92 28.88 38.44 29.26 36.96 C 30.60 36.52 31.95 36.07 33.29 35.63 C 32.15 33.83 30.10 32.60 27.92 33.14 C 25.65 34.02 23.46 35.16 20.98 35.31 C 20.71 33.99 20.75 32.65 21.00 31.34 C 22.32 29.59 23.46 27.42 25.71 26.74 M 30.11 39.15 C 30.02 40.27 29.98 41.38 30.00 42.50 C 31.87 45.50 32.78 49.43 36.32 50.99 C 37.00 51.01 38.37 51.04 39.06 51.06 C 38.83 49.03 39.25 46.56 37.55 45.03 C 36.00 45.01 35.19 46.74 33.98 47.44 C 33.99 46.69 34.02 45.17 34.04 44.41 C 32.72 44.04 31.90 43.19 31.57 41.87 C 33.20 42.36 34.84 42.84 36.51 43.21 C 36.08 40.92 35.27 38.70 33.58 37.04 C 32.42 37.72 30.94 38.03 30.11 39.15 Z" />
<path fill="#686868" opacity="1.00" d=" M 18.00 35.01 L 19.02 34.97 C 19.02 37.30 19.01 39.62 19.00 41.94 C 19.55 41.96 20.65 42.00 21.20 42.02 C 20.80 44.97 19.95 47.87 18.45 50.46 C 17.42 47.81 16.26 45.18 15.79 42.35 C 19.63 42.20 17.42 37.49 18.00 35.01 Z" />
</g>
</svg>
