<?xml version="1.0" encoding="UTF-8" ?>
<!DOCTYPE svg PUBLIC "-//W3C//DTD SVG 1.1//EN" "http://www.w3.org/Graphics/SVG/1.1/DTD/svg11.dtd">
<svg width="100pt" height="100pt" viewBox="0 0 100 100" version="1.1" xmlns="http://www.w3.org/2000/svg">
<g id="#ffffffff">
<path fill="#ffffff" opacity="1.00" d=" M 0.00 0.00 L 100.00 0.00 L 100.00 100.00 L 0.00 100.00 L 0.00 0.00 M 24.65 33.71 C 20.67 35.90 16.14 36.93 12.30 39.39 C 11.65 40.37 12.24 41.57 12.22 42.64 C 11.25 43.70 9.91 44.86 10.35 46.48 C 10.85 48.47 13.16 48.74 14.84 49.00 C 18.26 49.13 21.57 48.04 24.98 48.06 C 29.05 48.10 33.12 48.22 37.20 48.31 C 36.45 49.36 35.69 50.40 34.91 51.43 C 34.71 53.98 36.25 56.04 37.53 58.08 C 33.66 59.06 29.25 58.36 25.90 60.91 C 24.04 62.01 22.78 64.72 24.31 66.59 C 26.66 68.85 30.09 67.22 32.94 67.82 C 37.65 68.50 42.15 65.64 46.86 66.76 C 51.86 67.76 56.94 68.26 62.04 68.01 C 65.89 73.23 66.02 80.24 70.04 85.27 C 70.24 84.22 70.37 83.12 69.87 82.12 C 67.79 76.97 66.74 71.26 63.28 66.78 C 61.20 65.37 58.40 66.23 56.03 65.99 C 50.93 66.35 45.96 63.97 40.88 65.09 C 37.93 65.76 34.92 66.22 31.88 66.02 C 31.88 65.10 31.87 63.24 31.86 62.31 C 30.99 63.38 30.49 64.67 30.05 65.96 C 28.39 65.78 24.82 66.82 25.47 63.91 C 27.09 61.44 30.18 60.70 32.95 60.49 C 37.32 60.20 41.88 59.04 45.23 56.06 C 45.22 53.56 44.94 50.81 42.83 49.13 C 37.12 45.60 30.29 46.52 23.90 46.35 C 20.05 46.60 16.14 47.61 12.30 46.64 C 11.31 45.29 12.81 44.17 14.13 44.36 C 20.72 45.10 26.39 40.31 32.94 40.64 C 36.09 40.81 39.24 41.21 42.40 40.87 C 40.24 37.97 36.12 39.36 33.03 38.93 C 33.00 38.36 32.94 37.23 32.91 36.67 C 28.62 40.14 22.86 40.67 17.81 42.51 C 16.00 43.43 14.47 42.09 13.22 40.94 C 17.92 38.11 23.38 36.87 28.03 33.92 C 30.46 32.32 33.54 32.75 36.04 33.94 C 41.14 36.27 47.14 36.69 51.56 40.40 C 57.99 45.35 64.46 50.24 71.05 54.97 C 77.63 61.23 80.73 70.31 87.28 76.60 C 87.75 73.62 85.05 71.68 83.71 69.36 C 79.29 63.49 76.38 56.17 70.06 51.98 C 63.76 47.64 57.80 42.84 51.71 38.23 C 47.74 35.19 42.60 34.73 38.10 32.86 C 36.13 32.12 34.21 31.07 32.07 30.93 C 29.30 30.81 26.99 32.51 24.65 33.71 Z" />
<path fill="#ffffff" opacity="1.00" d=" M 38.18 49.74 C 39.73 50.02 41.27 50.37 42.73 50.96 C 42.00 51.95 41.27 52.95 40.52 53.93 C 41.33 53.99 42.94 54.10 43.74 54.15 C 42.82 56.00 41.07 56.90 39.16 57.42 C 37.64 55.05 35.74 52.25 38.18 49.74 Z" />
</g>
<g id="#676767ff">
<path fill="#676767" opacity="1.00" d=" M 24.65 33.71 C 26.99 32.51 29.30 30.81 32.07 30.93 C 34.21 31.07 36.13 32.12 38.10 32.86 C 42.60 34.73 47.74 35.19 51.71 38.23 C 57.80 42.84 63.76 47.64 70.06 51.98 C 76.38 56.17 79.29 63.49 83.71 69.36 C 85.05 71.68 87.75 73.62 87.28 76.60 C 80.73 70.31 77.63 61.23 71.05 54.97 C 64.46 50.24 57.99 45.35 51.56 40.40 C 47.14 36.69 41.14 36.27 36.04 33.94 C 33.54 32.75 30.46 32.32 28.03 33.92 C 23.38 36.87 17.92 38.11 13.22 40.94 C 14.47 42.09 16.00 43.43 17.81 42.51 C 22.86 40.67 28.62 40.14 32.91 36.67 C 32.94 37.23 33.00 38.36 33.03 38.93 C 36.12 39.36 40.24 37.97 42.40 40.87 C 39.24 41.21 36.09 40.81 32.94 40.64 C 26.39 40.31 20.72 45.10 14.13 44.36 C 12.81 44.17 11.31 45.29 12.30 46.64 C 16.14 47.61 20.05 46.60 23.90 46.35 C 30.29 46.52 37.12 45.60 42.83 49.13 C 44.94 50.81 45.22 53.56 45.23 56.06 C 41.88 59.04 37.32 60.20 32.95 60.49 C 30.18 60.70 27.09 61.44 25.47 63.91 C 24.82 66.82 28.39 65.78 30.05 65.96 C 30.49 64.67 30.99 63.38 31.86 62.31 C 31.87 63.24 31.88 65.10 31.88 66.02 C 34.92 66.22 37.93 65.76 40.88 65.09 C 45.96 63.97 50.93 66.35 56.03 65.99 C 58.40 66.23 61.20 65.37 63.28 66.78 C 66.74 71.26 67.79 76.97 69.87 82.12 C 70.37 83.12 70.24 84.22 70.04 85.27 C 66.02 80.24 65.89 73.23 62.04 68.01 C 56.94 68.26 51.86 67.76 46.86 66.76 C 42.15 65.64 37.65 68.50 32.94 67.82 C 30.09 67.22 26.66 68.85 24.31 66.59 C 22.78 64.72 24.04 62.01 25.90 60.91 C 29.25 58.36 33.66 59.06 37.53 58.08 C 36.25 56.04 34.71 53.98 34.91 51.43 C 35.69 50.40 36.45 49.36 37.20 48.31 C 33.12 48.22 29.05 48.10 24.98 48.06 C 21.57 48.04 18.26 49.13 14.84 49.00 C 13.16 48.74 10.85 48.47 10.35 46.48 C 9.91 44.86 11.25 43.70 12.22 42.64 C 12.24 41.57 11.65 40.37 12.30 39.39 C 16.14 36.93 20.67 35.90 24.65 33.71 M 38.18 49.74 C 35.74 52.25 37.64 55.05 39.16 57.42 C 41.07 56.90 42.82 56.00 43.74 54.15 C 42.94 54.10 41.33 53.99 40.52 53.93 C 41.27 52.95 42.00 51.95 42.73 50.96 C 41.27 50.37 39.73 50.02 38.18 49.74 Z" />
</g>
</svg>
