<?xml version="1.0" encoding="UTF-8" ?>
<!DOCTYPE svg PUBLIC "-//W3C//DTD SVG 1.1//EN" "http://www.w3.org/Graphics/SVG/1.1/DTD/svg11.dtd">
<svg width="150pt" height="100pt" viewBox="0 0 150 100" version="1.1" xmlns="http://www.w3.org/2000/svg">
<g id="#ffffffff">
<path fill="#ffffff" opacity="1.00" d=" M 0.00 0.00 L 150.00 0.00 L 150.00 100.00 L 0.00 100.00 L 0.00 0.00 M 90.33 40.01 C 86.10 39.95 81.77 36.66 77.72 38.91 C 74.04 41.02 69.52 43.88 70.47 48.83 C 68.77 49.03 67.07 49.26 65.38 49.47 C 64.99 48.04 64.58 46.61 64.06 45.22 C 62.86 44.88 61.66 44.52 60.47 44.15 C 59.87 41.85 57.84 40.88 55.73 40.36 C 54.32 39.08 53.19 37.01 51.07 36.97 C 47.44 36.64 44.08 38.43 41.04 40.17 C 36.63 42.90 31.95 45.14 27.55 47.89 C 23.94 47.66 20.60 49.22 17.05 49.45 C 17.01 49.89 16.95 50.78 16.91 51.22 C 19.32 51.15 21.73 50.77 23.59 49.10 C 25.21 49.05 26.83 49.01 28.45 48.95 C 32.56 46.47 36.97 44.53 41.03 41.95 C 44.46 39.83 48.38 37.99 52.51 38.97 C 53.35 40.91 54.74 42.33 56.99 42.19 C 57.88 43.32 58.74 44.47 59.58 45.64 C 62.81 45.53 63.61 48.34 64.06 50.97 C 68.91 51.64 73.37 49.43 78.03 48.60 C 80.65 47.93 82.87 51.78 80.46 53.41 C 77.46 54.74 73.84 54.18 70.90 55.78 C 68.95 57.20 67.95 59.58 66.04 61.04 C 63.24 62.72 60.16 63.85 57.15 65.10 C 52.10 67.41 46.44 67.08 41.06 67.89 C 34.45 68.08 27.29 67.38 21.39 71.01 C 26.39 71.33 31.01 68.68 36.02 69.00 C 42.78 69.10 49.68 69.29 56.21 67.22 C 59.56 65.97 62.85 64.57 66.06 62.99 C 68.61 61.92 69.87 59.31 71.44 57.22 C 74.81 56.30 78.32 55.99 81.70 55.12 C 84.35 57.25 87.12 59.54 90.52 60.28 C 92.74 60.81 94.92 59.86 97.04 59.34 C 97.78 60.30 98.51 61.26 99.23 62.23 C 95.11 66.09 88.41 65.34 85.16 70.31 C 83.33 72.03 83.39 75.64 86.20 76.30 C 89.05 76.19 91.93 76.03 94.75 75.60 C 97.66 74.75 100.25 73.07 103.16 72.22 C 109.50 70.25 116.18 68.68 121.59 64.62 C 122.92 63.77 124.28 62.37 126.03 62.93 C 131.05 64.71 135.24 68.26 140.21 70.19 C 139.67 69.05 139.22 67.75 137.97 67.21 C 134.29 65.11 130.64 62.93 126.79 61.15 C 123.78 60.03 121.51 62.69 119.19 64.10 C 112.48 68.66 104.12 69.30 96.95 72.84 C 95.39 73.63 93.68 73.97 91.96 74.18 C 91.37 72.87 90.76 71.58 90.06 70.33 C 90.10 71.23 90.19 73.04 90.23 73.94 C 88.57 74.12 86.29 75.77 85.51 73.36 C 86.51 70.95 88.39 68.65 91.05 68.06 C 94.79 66.98 98.85 65.60 101.09 62.17 C 99.33 59.19 97.56 56.19 95.39 53.49 C 93.81 51.99 91.60 51.39 89.96 49.95 C 87.10 47.37 82.81 47.68 79.86 45.18 C 79.34 45.73 78.81 46.28 78.29 46.82 C 76.24 47.21 74.21 47.81 72.11 47.89 C 72.10 47.44 72.07 46.54 72.06 46.09 C 74.53 42.62 78.88 38.71 83.49 40.41 C 88.74 41.80 94.26 42.00 99.35 44.03 C 98.47 41.02 95.07 40.88 92.55 40.13 C 95.02 39.36 97.45 38.21 100.06 38.06 C 110.30 41.76 120.20 46.93 131.16 48.24 C 137.34 48.89 142.57 52.49 148.44 54.19 C 148.27 53.74 147.95 52.83 147.79 52.38 C 142.26 49.81 136.69 47.06 130.56 46.32 C 119.78 44.97 110.14 39.58 99.96 36.24 C 96.53 36.61 92.93 37.60 90.33 40.01 Z" />
<path fill="#ffffff" opacity="1.00" d=" M 83.20 49.33 C 85.64 49.63 88.47 49.85 89.38 52.55 C 87.72 53.01 85.93 53.34 84.66 54.62 C 86.07 54.82 87.48 54.99 88.89 55.13 L 89.34 57.31 C 90.33 55.93 90.81 54.31 91.25 52.70 C 93.47 53.83 95.10 55.69 96.31 57.82 C 92.22 59.59 87.76 58.14 84.62 55.24 C 82.63 53.92 83.51 51.30 83.20 49.33 Z" />
</g>
<g id="#5f5f5fff">
<path fill="#5f5f5f" opacity="1.00" d=" M 90.33 40.01 C 92.93 37.60 96.53 36.61 99.96 36.24 C 110.14 39.58 119.78 44.97 130.56 46.32 C 136.69 47.06 142.26 49.81 147.79 52.38 C 147.95 52.83 148.27 53.74 148.44 54.19 C 142.57 52.49 137.34 48.89 131.16 48.24 C 120.20 46.93 110.30 41.76 100.06 38.06 C 97.45 38.21 95.02 39.36 92.55 40.13 C 95.07 40.88 98.47 41.02 99.35 44.03 C 94.26 42.00 88.74 41.80 83.49 40.41 C 78.88 38.71 74.53 42.62 72.06 46.09 C 72.07 46.54 72.10 47.44 72.11 47.89 C 74.21 47.81 76.24 47.21 78.29 46.82 C 78.81 46.28 79.34 45.73 79.86 45.18 C 82.81 47.68 87.10 47.37 89.96 49.95 C 91.60 51.39 93.81 51.99 95.39 53.49 C 97.56 56.19 99.33 59.19 101.09 62.17 C 98.85 65.60 94.79 66.98 91.05 68.06 C 88.39 68.65 86.51 70.95 85.51 73.36 C 86.29 75.77 88.57 74.12 90.23 73.94 C 90.19 73.04 90.10 71.23 90.06 70.33 C 90.76 71.58 91.37 72.87 91.96 74.18 C 93.68 73.97 95.39 73.63 96.95 72.84 C 104.12 69.30 112.48 68.66 119.19 64.10 C 121.51 62.69 123.78 60.03 126.79 61.15 C 130.64 62.93 134.29 65.11 137.97 67.21 C 139.22 67.75 139.67 69.05 140.21 70.19 C 135.24 68.26 131.05 64.71 126.03 62.93 C 124.28 62.37 122.92 63.77 121.59 64.62 C 116.18 68.68 109.50 70.25 103.16 72.22 C 100.25 73.07 97.66 74.75 94.75 75.60 C 91.93 76.03 89.05 76.19 86.20 76.30 C 83.39 75.64 83.33 72.03 85.16 70.31 C 88.41 65.34 95.11 66.09 99.23 62.23 C 98.51 61.26 97.78 60.30 97.04 59.34 C 94.92 59.86 92.74 60.81 90.52 60.28 C 87.12 59.54 84.35 57.25 81.70 55.12 C 78.32 55.99 74.81 56.30 71.44 57.22 C 69.87 59.31 68.61 61.92 66.06 62.99 C 62.85 64.57 59.56 65.97 56.21 67.22 C 49.68 69.29 42.78 69.10 36.02 69.00 C 31.01 68.68 26.39 71.33 21.39 71.01 C 27.29 67.38 34.45 68.08 41.06 67.89 C 46.44 67.08 52.10 67.41 57.15 65.10 C 60.16 63.85 63.24 62.72 66.04 61.04 C 67.95 59.58 68.95 57.20 70.90 55.78 C 73.84 54.18 77.46 54.74 80.46 53.41 C 82.87 51.78 80.65 47.93 78.03 48.60 C 73.37 49.43 68.91 51.64 64.06 50.97 C 63.61 48.34 62.81 45.53 59.58 45.64 C 58.74 44.47 57.88 43.32 56.99 42.19 C 54.74 42.33 53.35 40.91 52.51 38.97 C 48.38 37.99 44.46 39.83 41.03 41.95 C 36.97 44.53 32.56 46.47 28.45 48.95 C 26.83 49.01 25.21 49.05 23.59 49.10 C 21.73 50.77 19.32 51.15 16.91 51.22 C 16.95 50.78 17.01 49.89 17.05 49.45 C 20.60 49.22 23.94 47.66 27.55 47.89 C 31.95 45.14 36.63 42.90 41.04 40.17 C 44.08 38.43 47.44 36.64 51.07 36.97 C 53.19 37.01 54.32 39.08 55.73 40.36 C 57.84 40.88 59.87 41.85 60.47 44.15 C 61.66 44.52 62.86 44.88 64.06 45.22 C 64.58 46.61 64.99 48.04 65.38 49.47 C 67.07 49.26 68.77 49.03 70.47 48.83 C 69.52 43.88 74.04 41.02 77.72 38.91 C 81.77 36.66 86.10 39.95 90.33 40.01 M 83.20 49.33 C 83.51 51.30 82.63 53.92 84.62 55.24 C 87.76 58.14 92.22 59.59 96.31 57.82 C 95.10 55.69 93.47 53.83 91.25 52.70 C 90.81 54.31 90.33 55.93 89.34 57.31 L 88.89 55.13 C 87.48 54.99 86.07 54.82 84.66 54.62 C 85.93 53.34 87.72 53.01 89.38 52.55 C 88.47 49.85 85.64 49.63 83.20 49.33 Z" />
</g>
</svg>
