<?xml version="1.0" encoding="UTF-8" ?>
<!DOCTYPE svg PUBLIC "-//W3C//DTD SVG 1.1//EN" "http://www.w3.org/Graphics/SVG/1.1/DTD/svg11.dtd">
<svg width="100pt" height="100pt" viewBox="0 0 100 100" version="1.1" xmlns="http://www.w3.org/2000/svg">
<g id="#ffffffff">
<path fill="#ffffff" opacity="1.00" d=" M 0.00 0.00 L 100.00 0.00 L 100.00 100.00 L 0.00 100.00 L 0.00 0.00 M 26.96 20.99 C 27.11 21.72 27.40 23.17 27.55 23.89 C 27.26 24.52 26.68 25.79 26.39 26.42 C 26.90 30.24 26.29 34.75 29.64 37.45 C 30.28 39.51 31.30 41.41 32.58 43.14 C 33.06 44.70 33.68 46.21 34.42 47.67 C 32.89 49.42 31.41 51.20 29.87 52.94 C 26.63 56.74 22.10 59.09 18.65 62.69 C 15.90 65.57 13.13 68.43 10.39 71.32 C 13.98 71.56 15.73 68.26 17.87 66.04 C 22.24 60.98 28.41 57.86 32.56 52.59 C 34.37 50.69 35.92 47.73 38.97 47.97 C 43.96 47.95 49.48 47.36 54.02 49.80 C 55.20 51.99 55.74 54.48 56.76 56.76 L 54.34 57.10 C 55.33 57.69 56.36 58.19 57.40 58.68 C 57.43 59.20 57.47 60.23 57.49 60.75 C 55.90 60.47 54.06 60.53 52.79 59.38 C 51.85 57.83 51.08 56.18 50.25 54.57 C 46.74 55.46 43.11 55.77 39.77 54.15 C 40.42 56.21 42.19 57.22 44.22 57.62 C 43.74 62.06 40.07 64.92 36.67 67.27 C 36.90 67.66 37.38 68.42 37.61 68.80 C 40.95 66.93 43.09 63.66 45.93 61.28 C 45.21 64.35 45.54 67.64 46.16 70.71 C 47.79 73.69 51.67 72.86 54.47 73.41 C 48.11 76.69 40.94 75.16 34.16 75.80 C 33.01 74.71 31.85 73.64 30.65 72.60 C 30.67 74.43 31.65 75.90 32.72 77.28 C 31.39 80.69 28.44 83.70 28.63 87.54 C 31.33 85.00 32.37 81.36 34.37 78.35 C 36.35 76.18 39.51 77.61 42.03 77.44 C 48.73 77.91 55.37 75.73 60.63 71.61 C 61.44 68.19 62.56 64.66 61.58 61.15 L 62.15 60.97 C 63.83 65.65 64.62 70.59 66.02 75.35 L 67.12 75.12 C 67.12 68.48 64.16 62.21 62.12 55.99 C 61.95 53.36 62.36 50.60 60.63 48.37 C 59.52 47.18 61.29 46.11 61.68 45.02 C 61.36 44.90 60.73 44.68 60.42 44.56 C 59.11 46.01 57.70 47.59 55.42 46.48 C 55.41 47.25 55.44 48.01 55.49 48.78 C 53.35 49.05 53.05 46.97 54.33 45.75 C 52.62 45.67 50.90 45.59 49.18 45.51 C 49.96 44.16 51.37 42.89 50.99 41.18 C 50.47 40.35 49.44 38.70 48.92 37.87 C 51.28 39.26 53.52 41.13 56.28 41.68 C 56.59 41.40 57.21 40.84 57.52 40.56 C 54.22 38.93 50.78 37.41 47.91 35.06 C 45.68 32.64 45.34 29.13 43.65 26.37 C 42.24 24.67 40.08 23.88 38.16 22.89 C 35.51 23.72 32.43 24.74 29.84 23.19 C 28.04 22.70 29.76 20.83 30.08 19.90 C 30.52 20.30 31.39 21.10 31.83 21.50 C 32.18 20.32 32.53 19.14 32.88 17.95 C 36.52 17.46 40.25 17.65 43.85 18.33 C 46.40 19.49 48.74 21.21 51.61 21.49 C 50.27 19.35 47.79 18.49 45.85 17.03 C 50.28 18.13 53.85 21.08 57.81 23.19 C 61.60 25.25 65.39 27.50 68.26 30.78 C 70.91 33.56 72.34 37.21 74.81 40.13 C 80.81 46.13 81.28 55.47 87.18 61.59 C 87.49 58.59 85.41 56.21 84.22 53.65 C 81.79 49.35 80.96 44.18 77.43 40.53 C 74.02 36.83 72.22 31.92 68.53 28.46 C 63.80 23.85 57.56 21.37 52.12 17.76 C 47.70 14.51 41.99 16.49 36.94 15.90 C 32.84 15.19 29.58 18.32 26.96 20.99 Z" />
<path fill="#ffffff" opacity="1.00" d=" M 28.93 25.00 C 30.70 25.33 32.47 25.65 34.24 25.99 C 36.37 28.23 37.49 23.72 39.60 25.44 C 40.72 26.01 41.73 26.85 42.32 27.99 C 38.49 31.17 33.50 30.76 28.97 29.76 C 28.20 28.19 27.89 26.54 28.93 25.00 Z" />
<path fill="#ffffff" opacity="1.00" d=" M 35.94 32.38 C 38.46 32.30 40.58 30.77 42.91 29.99 C 43.66 30.85 44.21 31.85 44.56 33.01 C 40.74 36.06 35.80 36.57 31.11 35.74 C 29.19 35.23 28.98 33.08 28.43 31.51 C 30.93 31.83 33.41 32.35 35.94 32.38 Z" />
<path fill="#ffffff" opacity="1.00" d=" M 45.07 35.41 C 46.25 34.94 47.26 36.53 47.58 37.50 C 46.94 39.53 44.11 36.78 45.07 35.41 Z" />
<path fill="#ffffff" opacity="1.00" d=" M 31.65 37.80 C 35.75 37.87 40.14 38.10 43.69 35.65 C 43.99 37.21 44.67 38.59 45.72 39.79 C 42.31 41.75 38.26 42.39 34.42 41.53 C 32.66 41.10 32.19 39.26 31.65 37.80 Z" />
<path fill="#ffffff" opacity="1.00" d=" M 46.55 41.03 C 48.05 39.62 50.14 42.20 48.63 43.50 C 47.25 44.82 45.49 42.20 46.55 41.03 Z" />
<path fill="#ffffff" opacity="1.00" d=" M 34.37 43.55 C 38.12 43.62 41.94 43.60 45.45 42.10 C 45.72 42.91 46.27 44.52 46.55 45.33 C 43.10 45.96 39.59 46.28 36.09 46.30 C 35.21 45.60 34.90 44.49 34.37 43.55 Z" />
<path fill="#ffffff" opacity="1.00" d=" M 56.21 50.36 C 57.10 49.86 58.00 49.36 58.89 48.85 C 60.67 50.97 60.84 53.44 58.94 55.55 C 57.52 54.12 56.83 52.23 56.21 50.36 Z" />
<path fill="#ffffff" opacity="1.00" d=" M 58.69 56.15 C 60.48 56.56 61.24 60.92 59.40 61.51 C 58.62 59.93 58.45 57.87 58.69 56.15 Z" />
<path fill="#ffffff" opacity="1.00" d=" M 45.58 57.25 C 46.50 57.09 48.35 56.76 49.27 56.59 C 50.33 58.64 51.72 60.48 53.31 62.15 C 51.26 61.75 49.14 61.62 47.19 60.82 C 46.13 59.96 46.11 58.43 45.58 57.25 Z" />
<path fill="#ffffff" opacity="1.00" d=" M 46.64 62.97 C 51.24 63.43 55.90 64.30 60.49 63.21 C 60.34 64.54 60.40 66.21 58.94 66.84 C 55.36 67.13 51.58 67.07 48.17 65.84 C 47.58 64.92 47.08 63.96 46.64 62.97 Z" />
<path fill="#ffffff" opacity="1.00" d=" M 47.10 67.68 C 51.32 68.47 55.60 68.81 59.89 68.90 C 58.03 73.81 52.03 71.04 48.18 70.83 C 47.91 70.04 47.37 68.47 47.10 67.68 Z" />
</g>
<g id="#606061ff">
<path fill="#606061" opacity="1.00" d=" M 26.96 20.99 C 29.58 18.32 32.84 15.19 36.94 15.90 C 41.99 16.49 47.70 14.51 52.12 17.76 C 57.56 21.37 63.80 23.85 68.53 28.46 C 72.22 31.92 74.02 36.83 77.43 40.53 C 80.96 44.18 81.79 49.35 84.22 53.65 C 85.41 56.21 87.49 58.59 87.18 61.59 C 81.28 55.47 80.81 46.13 74.81 40.13 C 72.34 37.21 70.91 33.56 68.26 30.78 C 65.39 27.50 61.60 25.25 57.81 23.19 C 53.85 21.08 50.28 18.13 45.85 17.03 C 47.79 18.49 50.27 19.35 51.61 21.49 C 48.74 21.21 46.40 19.49 43.85 18.33 C 40.25 17.65 36.52 17.46 32.88 17.95 C 32.53 19.14 32.18 20.32 31.83 21.50 C 31.39 21.10 30.52 20.30 30.08 19.90 C 29.76 20.83 28.04 22.70 29.84 23.19 C 32.43 24.74 35.51 23.72 38.16 22.89 C 40.08 23.88 42.24 24.67 43.65 26.37 C 45.34 29.13 45.68 32.64 47.91 35.06 C 50.78 37.41 54.22 38.93 57.52 40.56 C 57.21 40.84 56.59 41.40 56.28 41.68 C 53.52 41.13 51.28 39.26 48.92 37.87 C 49.44 38.70 50.47 40.35 50.99 41.18 C 51.37 42.89 49.96 44.16 49.18 45.51 C 50.90 45.59 52.62 45.67 54.33 45.75 C 53.05 46.97 53.35 49.05 55.49 48.78 C 55.44 48.01 55.41 47.25 55.42 46.48 C 57.70 47.59 59.11 46.01 60.42 44.56 C 60.73 44.68 61.36 44.90 61.68 45.02 C 61.29 46.11 59.52 47.18 60.63 48.37 C 62.36 50.60 61.95 53.36 62.12 55.99 C 64.16 62.21 67.12 68.48 67.12 75.12 L 66.02 75.35 C 64.62 70.59 63.83 65.65 62.15 60.97 L 61.58 61.15 C 62.56 64.66 61.44 68.19 60.63 71.61 C 55.37 75.73 48.73 77.91 42.03 77.44 C 39.51 77.61 36.35 76.18 34.37 78.35 C 32.37 81.36 31.33 85.00 28.63 87.54 C 28.44 83.70 31.39 80.69 32.72 77.28 C 31.65 75.90 30.67 74.43 30.65 72.60 C 31.85 73.64 33.01 74.71 34.16 75.80 C 40.94 75.16 48.11 76.69 54.47 73.41 C 51.67 72.86 47.79 73.69 46.16 70.71 C 45.54 67.64 45.21 64.35 45.93 61.28 C 43.09 63.66 40.95 66.93 37.61 68.80 C 37.38 68.42 36.90 67.66 36.67 67.27 C 40.07 64.92 43.74 62.06 44.22 57.62 C 42.19 57.22 40.42 56.21 39.77 54.15 C 43.11 55.77 46.74 55.46 50.25 54.57 C 51.08 56.18 51.85 57.83 52.79 59.38 C 54.06 60.53 55.90 60.47 57.49 60.75 C 57.47 60.23 57.43 59.20 57.40 58.68 C 56.36 58.19 55.33 57.69 54.34 57.10 L 56.76 56.76 C 55.74 54.48 55.20 51.99 54.02 49.80 C 49.48 47.36 43.96 47.95 38.97 47.97 C 35.92 47.73 34.37 50.69 32.56 52.59 C 28.41 57.86 22.24 60.98 17.87 66.04 C 15.73 68.26 13.98 71.56 10.39 71.32 C 13.13 68.43 15.90 65.57 18.65 62.69 C 22.10 59.09 26.63 56.74 29.87 52.94 C 31.41 51.20 32.89 49.42 34.42 47.67 C 33.68 46.21 33.06 44.70 32.58 43.14 C 31.30 41.41 30.28 39.51 29.64 37.45 C 26.29 34.75 26.90 30.24 26.39 26.42 C 26.68 25.79 27.26 24.52 27.55 23.89 C 27.40 23.17 27.11 21.72 26.96 20.99 M 28.93 25.00 C 27.89 26.54 28.20 28.19 28.97 29.76 C 33.50 30.76 38.49 31.17 42.32 27.99 C 41.73 26.85 40.72 26.01 39.60 25.44 C 37.49 23.72 36.37 28.23 34.24 25.99 C 32.47 25.65 30.70 25.33 28.93 25.00 M 35.94 32.38 C 33.41 32.35 30.93 31.83 28.43 31.51 C 28.98 33.08 29.19 35.23 31.11 35.74 C 35.80 36.57 40.74 36.06 44.56 33.01 C 44.21 31.85 43.66 30.85 42.91 29.99 C 40.58 30.77 38.46 32.30 35.94 32.38 M 45.07 35.41 C 44.11 36.78 46.94 39.53 47.58 37.50 C 47.26 36.53 46.25 34.94 45.07 35.41 M 31.65 37.80 C 32.19 39.26 32.66 41.10 34.42 41.53 C 38.26 42.39 42.31 41.75 45.72 39.79 C 44.67 38.59 43.99 37.21 43.69 35.65 C 40.14 38.10 35.75 37.87 31.65 37.80 M 46.55 41.03 C 45.49 42.20 47.25 44.82 48.63 43.50 C 50.14 42.20 48.05 39.62 46.55 41.03 M 34.37 43.55 C 34.90 44.49 35.21 45.60 36.09 46.30 C 39.59 46.28 43.10 45.96 46.55 45.33 C 46.27 44.52 45.72 42.91 45.45 42.10 C 41.94 43.60 38.12 43.62 34.37 43.55 M 56.21 50.36 C 56.83 52.23 57.52 54.12 58.94 55.55 C 60.84 53.44 60.67 50.97 58.89 48.85 C 58.00 49.36 57.10 49.86 56.21 50.36 M 58.69 56.15 C 58.45 57.87 58.62 59.93 59.40 61.51 C 61.24 60.92 60.48 56.56 58.69 56.15 M 45.58 57.25 C 46.11 58.43 46.13 59.96 47.19 60.82 C 49.14 61.62 51.26 61.75 53.31 62.15 C 51.72 60.48 50.33 58.64 49.27 56.59 C 48.35 56.76 46.50 57.09 45.58 57.25 M 46.64 62.97 C 47.08 63.96 47.58 64.92 48.17 65.84 C 51.58 67.07 55.36 67.13 58.94 66.84 C 60.40 66.21 60.34 64.54 60.49 63.21 C 55.90 64.30 51.24 63.43 46.64 62.97 M 47.10 67.68 C 47.37 68.47 47.91 70.04 48.18 70.83 C 52.03 71.04 58.03 73.81 59.89 68.90 C 55.60 68.81 51.32 68.47 47.10 67.68 Z" />
</g>
</svg>
