<?xml version="1.0" encoding="UTF-8" ?>
<!DOCTYPE svg PUBLIC "-//W3C//DTD SVG 1.1//EN" "http://www.w3.org/Graphics/SVG/1.1/DTD/svg11.dtd">
<svg width="150pt" height="87pt" viewBox="0 0 150 87" version="1.1" xmlns="http://www.w3.org/2000/svg">
<g id="#ffffffff">
<path fill="#ffffff" opacity="1.00" d=" M 0.00 0.00 L 150.00 0.00 L 150.00 87.00 L 0.00 87.00 L 0.00 0.00 M 69.35 7.57 C 67.78 8.17 65.36 8.11 64.79 10.06 C 64.90 11.45 65.12 12.83 65.46 14.18 C 64.44 15.88 63.40 17.56 62.33 19.22 C 60.57 19.39 58.13 18.17 57.01 20.11 C 55.80 21.91 57.33 23.77 57.90 25.49 C 56.88 26.92 55.88 28.40 54.61 29.62 C 50.86 30.49 46.99 30.45 43.20 30.87 C 36.31 34.61 34.47 42.80 31.46 49.41 C 29.43 54.83 22.92 57.10 21.18 62.69 C 23.96 61.46 25.95 59.19 27.89 56.96 C 35.73 50.89 34.81 38.86 42.99 33.05 C 44.42 31.61 46.33 32.44 48.00 32.82 C 50.26 32.06 52.62 32.00 54.97 31.83 C 56.77 30.48 57.91 28.45 59.29 26.71 C 60.31 27.64 61.34 28.55 62.38 29.45 C 61.51 31.11 60.66 32.79 59.85 34.48 C 62.30 35.38 64.72 34.71 67.00 33.67 C 68.42 35.16 69.79 36.69 71.13 38.26 C 68.60 41.77 67.46 45.93 65.86 49.87 C 61.88 57.90 53.30 61.59 46.22 66.22 C 42.65 70.92 37.71 74.28 34.04 78.89 C 34.42 79.07 35.16 79.43 35.53 79.61 C 39.43 75.51 43.88 71.96 47.42 67.53 C 52.78 63.90 59.00 61.37 63.38 56.39 C 68.10 52.00 68.82 45.28 72.17 40.04 C 74.53 42.99 76.74 46.06 78.46 49.44 C 83.13 57.61 92.48 60.99 100.81 64.09 C 105.76 67.64 110.62 71.37 115.76 74.67 C 116.11 74.31 116.43 73.92 116.70 73.50 C 113.20 70.14 108.70 68.09 105.09 64.86 C 103.13 62.95 100.59 61.88 98.03 61.05 C 92.84 59.37 87.85 56.84 83.74 53.22 C 79.73 49.68 78.27 44.29 74.69 40.40 C 70.86 34.27 65.17 29.74 59.96 24.85 C 60.93 23.87 61.86 22.87 62.76 21.82 C 68.09 26.29 72.61 32.14 79.25 34.74 C 81.09 35.63 82.92 34.57 84.52 33.71 C 80.82 28.73 75.85 24.85 72.31 19.73 C 70.25 16.74 67.96 13.88 66.31 10.63 C 66.83 10.38 67.87 9.90 68.40 9.65 C 68.77 11.08 69.16 12.54 69.95 13.80 L 70.01 11.01 C 75.80 18.15 82.06 24.97 89.01 31.00 C 92.57 29.96 96.34 30.30 99.97 29.54 C 109.89 33.49 110.58 46.63 119.86 51.32 C 122.08 52.87 124.10 55.72 127.16 54.99 C 124.28 52.09 120.96 49.66 117.49 47.53 C 112.16 42.03 110.22 33.75 103.57 29.42 C 101.21 27.34 98.02 27.31 95.30 28.65 C 93.24 28.15 91.16 28.14 89.14 28.78 C 87.28 27.09 85.44 25.36 83.62 23.62 C 84.55 21.24 86.92 17.92 84.30 15.78 C 81.96 14.93 79.89 16.56 77.98 17.67 C 76.80 16.29 75.63 14.92 74.45 13.55 C 75.00 11.37 76.96 8.23 74.36 6.59 C 72.78 4.95 70.95 7.02 69.35 7.57 Z" />
<path fill="#ffffff" opacity="1.00" d=" M 70.87 8.60 C 71.68 8.39 73.30 7.97 74.10 7.77 C 73.77 9.26 73.40 10.75 72.99 12.22 C 72.24 11.04 71.54 9.83 70.87 8.60 Z" />
<path fill="#ffffff" opacity="1.00" d=" M 63.71 20.50 C 64.78 18.84 65.82 17.17 66.85 15.49 C 67.75 16.44 68.62 17.41 69.48 18.41 C 68.69 20.01 67.90 21.60 67.07 23.17 C 65.97 22.26 64.85 21.37 63.71 20.50 Z" />
<path fill="#ffffff" opacity="1.00" d=" M 79.14 18.90 C 80.62 18.17 82.13 17.45 83.77 17.13 C 83.62 18.84 83.04 20.46 82.52 22.09 C 81.37 21.04 80.24 19.98 79.14 18.90 Z" />
<path fill="#ffffff" opacity="1.00" d=" M 68.32 24.59 C 69.09 23.14 69.85 21.69 70.60 20.24 C 71.43 21.48 72.26 22.72 73.10 23.96 C 72.33 24.88 71.54 25.79 70.73 26.67 C 69.93 25.97 69.12 25.28 68.32 24.59 Z" />
<path fill="#ffffff" opacity="1.00" d=" M 58.36 21.18 C 59.36 19.72 61.94 21.28 60.71 22.77 C 59.73 24.29 57.20 22.65 58.36 21.18 Z" />
<path fill="#ffffff" opacity="1.00" d=" M 74.38 25.17 C 75.32 26.22 76.28 27.25 77.27 28.26 C 76.70 29.07 76.12 29.88 75.54 30.69 C 74.38 29.83 73.23 28.95 72.11 28.03 C 72.83 27.05 73.59 26.10 74.38 25.17 Z" />
<path fill="#ffffff" opacity="1.00" d=" M 76.79 31.80 C 77.29 31.27 78.29 30.20 78.80 29.67 C 79.84 30.94 80.89 32.21 81.91 33.50 C 80.19 32.98 78.48 32.41 76.79 31.80 Z" />
</g>
<g id="#666666ff">
<path fill="#666666" opacity="1.00" d=" M 69.35 7.57 C 70.95 7.02 72.78 4.95 74.36 6.59 C 76.96 8.23 75.00 11.37 74.45 13.55 C 75.63 14.92 76.80 16.29 77.98 17.67 C 79.89 16.56 81.96 14.93 84.30 15.78 C 86.92 17.92 84.55 21.24 83.62 23.62 C 85.44 25.36 87.28 27.09 89.14 28.78 C 91.16 28.14 93.24 28.15 95.30 28.65 C 98.02 27.31 101.21 27.34 103.57 29.42 C 110.22 33.75 112.16 42.03 117.49 47.53 C 120.96 49.66 124.28 52.09 127.16 54.99 C 124.10 55.72 122.08 52.87 119.86 51.32 C 110.58 46.63 109.89 33.49 99.97 29.54 C 96.34 30.30 92.57 29.96 89.01 31.00 C 82.06 24.97 75.80 18.15 70.01 11.01 L 69.95 13.80 C 69.16 12.54 68.77 11.08 68.40 9.65 C 67.87 9.90 66.83 10.38 66.31 10.63 C 67.96 13.88 70.25 16.74 72.31 19.73 C 75.85 24.85 80.82 28.73 84.52 33.71 C 82.92 34.57 81.09 35.63 79.25 34.74 C 72.61 32.14 68.09 26.29 62.76 21.82 C 61.86 22.87 60.93 23.87 59.96 24.85 C 65.17 29.74 70.86 34.27 74.69 40.40 C 78.27 44.29 79.73 49.68 83.74 53.22 C 87.85 56.84 92.84 59.37 98.03 61.05 C 100.59 61.88 103.13 62.95 105.09 64.86 C 108.70 68.09 113.20 70.14 116.70 73.50 C 116.43 73.92 116.11 74.31 115.76 74.67 C 110.62 71.37 105.76 67.64 100.81 64.09 C 92.48 60.99 83.13 57.61 78.46 49.44 C 76.74 46.06 74.53 42.99 72.17 40.04 C 68.82 45.28 68.10 52.00 63.38 56.39 C 59.00 61.37 52.78 63.90 47.42 67.53 C 43.88 71.96 39.43 75.51 35.53 79.61 C 35.16 79.43 34.42 79.07 34.04 78.89 C 37.71 74.28 42.65 70.92 46.22 66.22 C 53.30 61.59 61.88 57.90 65.86 49.87 C 67.46 45.93 68.60 41.77 71.13 38.26 C 69.79 36.69 68.42 35.16 67.00 33.67 C 64.72 34.71 62.30 35.38 59.85 34.48 C 60.66 32.79 61.51 31.11 62.38 29.45 C 61.34 28.55 60.31 27.64 59.29 26.71 C 57.91 28.45 56.77 30.48 54.97 31.83 C 52.62 32.00 50.26 32.06 48.00 32.82 C 46.33 32.44 44.42 31.61 42.99 33.05 C 34.81 38.86 35.73 50.89 27.89 56.96 C 25.95 59.19 23.96 61.46 21.18 62.69 C 22.92 57.10 29.43 54.83 31.46 49.41 C 34.47 42.80 36.31 34.61 43.20 30.87 C 46.99 30.45 50.86 30.49 54.61 29.62 C 55.88 28.40 56.88 26.92 57.90 25.49 C 57.33 23.77 55.80 21.91 57.01 20.11 C 58.13 18.17 60.57 19.39 62.33 19.22 C 63.40 17.56 64.44 15.88 65.46 14.18 C 65.12 12.83 64.90 11.45 64.79 10.06 C 65.36 8.11 67.78 8.17 69.35 7.57 M 70.87 8.60 C 71.54 9.83 72.24 11.04 72.99 12.22 C 73.40 10.75 73.77 9.26 74.10 7.77 C 73.30 7.97 71.68 8.39 70.87 8.60 M 63.71 20.50 C 64.85 21.37 65.97 22.26 67.07 23.17 C 67.90 21.60 68.69 20.01 69.48 18.41 C 68.62 17.41 67.75 16.44 66.85 15.49 C 65.82 17.17 64.78 18.84 63.71 20.50 M 79.14 18.90 C 80.24 19.98 81.37 21.04 82.52 22.09 C 83.04 20.46 83.62 18.84 83.77 17.13 C 82.13 17.45 80.62 18.17 79.14 18.90 M 68.32 24.59 C 69.12 25.28 69.93 25.97 70.73 26.67 C 71.54 25.79 72.33 24.88 73.10 23.96 C 72.26 22.72 71.43 21.48 70.60 20.24 C 69.85 21.69 69.09 23.14 68.32 24.59 M 58.36 21.18 C 57.20 22.65 59.73 24.29 60.71 22.77 C 61.94 21.28 59.36 19.72 58.36 21.18 M 74.38 25.17 C 73.59 26.10 72.83 27.05 72.11 28.03 C 73.23 28.95 74.38 29.83 75.54 30.69 C 76.12 29.88 76.70 29.07 77.27 28.26 C 76.28 27.25 75.32 26.22 74.38 25.17 M 76.79 31.80 C 78.48 32.41 80.19 32.98 81.91 33.50 C 80.89 32.21 79.84 30.94 78.80 29.67 C 78.29 30.20 77.29 31.27 76.79 31.80 Z" />
</g>
</svg>
