<?xml version="1.0" encoding="UTF-8" ?>
<!DOCTYPE svg PUBLIC "-//W3C//DTD SVG 1.1//EN" "http://www.w3.org/Graphics/SVG/1.1/DTD/svg11.dtd">
<svg width="100pt" height="100pt" viewBox="0 0 100 100" version="1.1" xmlns="http://www.w3.org/2000/svg">
<g id="#ffffffff">
<path fill="#ffffff" opacity="1.00" d=" M 0.00 0.00 L 100.00 0.00 L 100.00 100.00 L 0.00 100.00 L 0.00 0.00 M 57.14 17.02 C 56.60 23.28 56.90 29.62 55.89 35.85 C 54.09 36.14 51.97 36.08 50.65 37.54 C 49.55 38.92 49.40 40.75 48.90 42.39 C 46.33 42.24 44.39 43.78 42.88 45.69 C 37.93 46.22 36.75 51.90 37.11 56.00 C 37.87 62.19 38.38 68.41 38.88 74.62 C 36.43 78.04 36.94 82.42 35.92 86.32 C 38.80 84.63 38.92 81.20 39.27 78.26 C 41.67 73.44 39.87 68.03 39.74 62.93 C 39.43 58.27 37.58 52.73 40.67 48.66 C 43.96 47.89 45.69 44.53 49.02 44.02 C 51.79 43.63 50.66 39.88 52.35 38.29 C 53.59 38.10 54.83 37.96 56.08 37.87 C 55.71 40.12 55.23 42.44 55.97 44.68 C 57.90 41.45 57.94 37.61 58.09 33.97 C 58.07 29.03 58.58 24.12 58.58 19.18 C 60.17 19.22 61.64 18.84 62.98 18.05 C 63.00 23.39 62.97 28.73 62.99 34.07 C 62.61 38.85 66.80 42.19 67.31 46.77 C 69.56 55.51 66.84 64.59 62.11 72.01 C 58.76 76.97 57.79 83.03 57.20 88.86 C 57.64 88.66 58.51 88.27 58.94 88.07 C 59.81 83.30 60.35 78.26 63.02 74.08 C 66.49 68.63 69.04 62.51 69.96 56.08 C 70.25 49.69 68.89 43.12 65.38 37.71 C 63.80 30.72 66.13 23.38 64.41 16.37 C 63.86 14.59 63.03 12.50 60.88 12.31 C 58.45 12.40 57.39 14.96 57.14 17.02 Z" />
<path fill="#ffffff" opacity="1.00" d=" M 60.35 13.97 C 61.66 14.52 62.21 15.93 63.05 16.98 C 61.64 17.43 60.21 17.84 58.78 18.21 C 59.13 16.74 59.42 15.21 60.35 13.97 Z" />
</g>
<g id="#646465ff">
<path fill="#646465" opacity="1.00" d=" M 57.14 17.02 C 57.39 14.96 58.45 12.40 60.88 12.31 C 63.03 12.50 63.86 14.59 64.41 16.37 C 66.13 23.38 63.80 30.72 65.38 37.71 C 68.89 43.12 70.25 49.69 69.96 56.08 C 69.04 62.51 66.49 68.63 63.02 74.08 C 60.35 78.26 59.81 83.30 58.94 88.07 C 58.51 88.27 57.64 88.66 57.20 88.86 C 57.79 83.03 58.76 76.97 62.11 72.01 C 66.84 64.59 69.56 55.51 67.31 46.77 C 66.80 42.19 62.61 38.85 62.99 34.07 C 62.97 28.73 63.00 23.39 62.98 18.05 C 61.64 18.84 60.17 19.22 58.58 19.18 C 58.58 24.12 58.07 29.03 58.09 33.97 C 57.94 37.61 57.90 41.45 55.97 44.68 C 55.23 42.44 55.71 40.12 56.08 37.87 C 54.83 37.96 53.59 38.10 52.35 38.29 C 50.66 39.88 51.79 43.63 49.02 44.02 C 45.69 44.53 43.96 47.89 40.67 48.66 C 37.58 52.73 39.43 58.27 39.74 62.93 C 39.87 68.03 41.67 73.44 39.27 78.26 C 38.92 81.20 38.80 84.63 35.92 86.32 C 36.94 82.42 36.43 78.04 38.88 74.62 C 38.38 68.41 37.87 62.19 37.11 56.00 C 36.75 51.90 37.93 46.22 42.88 45.69 C 44.39 43.78 46.33 42.24 48.90 42.39 C 49.40 40.75 49.55 38.92 50.65 37.54 C 51.97 36.08 54.09 36.14 55.89 35.85 C 56.90 29.62 56.60 23.28 57.14 17.02 M 60.35 13.97 C 59.42 15.21 59.13 16.74 58.78 18.21 C 60.21 17.84 61.64 17.43 63.05 16.98 C 62.21 15.93 61.66 14.52 60.35 13.97 Z" />
</g>
</svg>
