<?xml version="1.0" encoding="UTF-8" ?>
<!DOCTYPE svg PUBLIC "-//W3C//DTD SVG 1.1//EN" "http://www.w3.org/Graphics/SVG/1.1/DTD/svg11.dtd">
<svg width="100pt" height="100pt" viewBox="0 0 100 100" version="1.1" xmlns="http://www.w3.org/2000/svg">
<g id="#ffffffff">
<path fill="#ffffff" opacity="1.00" d=" M 0.00 0.00 L 100.00 0.00 L 100.00 100.00 L 0.00 100.00 L 0.00 0.00 M 44.27 18.31 C 43.23 25.79 45.03 33.54 42.99 40.93 C 41.61 46.07 42.83 51.54 41.13 56.63 C 40.45 56.97 39.10 57.65 38.43 57.99 C 36.76 57.97 35.08 58.05 33.42 57.82 C 31.77 56.04 30.45 53.99 28.88 52.15 C 27.87 51.86 26.87 51.57 25.88 51.26 C 25.26 52.37 23.80 53.33 24.28 54.77 C 24.94 57.59 25.38 60.57 26.78 63.14 C 28.97 64.79 31.66 65.57 33.99 66.99 C 35.93 68.32 37.48 70.18 39.62 71.23 C 41.66 72.45 44.39 73.09 45.44 75.46 C 47.76 79.43 48.25 84.06 49.56 88.37 C 49.96 88.71 50.76 89.39 51.16 89.73 C 50.36 84.23 49.22 78.60 46.28 73.80 C 44.09 70.75 39.92 70.34 37.33 67.74 C 35.37 65.76 32.93 64.37 30.21 63.75 C 29.10 62.81 27.96 61.89 27.02 60.77 C 26.93 58.97 27.66 57.28 28.13 55.58 C 27.60 55.98 26.53 56.79 25.99 57.20 C 26.00 55.62 26.03 54.05 26.07 52.48 C 28.63 53.66 30.00 56.15 31.77 58.19 C 34.55 60.88 38.90 59.72 41.79 57.83 C 45.70 52.93 42.99 46.22 44.56 40.60 C 46.33 33.96 44.64 27.11 45.39 20.37 C 46.90 20.08 48.44 20.03 49.97 19.90 C 49.86 28.07 50.11 36.29 51.37 44.37 C 51.84 44.70 52.79 45.36 53.26 45.69 C 52.96 43.67 52.57 41.66 52.12 39.67 C 53.52 39.91 54.95 40.07 56.33 40.45 C 56.99 41.91 57.43 43.47 58.15 44.91 C 59.33 45.62 60.68 45.95 61.97 46.38 C 62.76 47.25 63.54 48.12 64.32 49.00 C 64.89 49.01 66.04 49.03 66.61 49.04 C 67.38 49.85 68.16 50.65 68.94 51.45 C 69.82 56.79 68.76 62.14 68.51 67.48 C 68.95 68.35 69.44 69.19 69.98 70.00 C 69.83 64.31 71.74 58.73 70.91 53.03 C 70.54 51.19 69.89 48.97 67.90 48.30 C 65.54 47.40 63.71 45.65 61.92 43.94 C 61.27 43.96 59.98 43.99 59.33 44.01 C 58.98 42.36 58.88 40.57 57.86 39.15 C 56.07 38.11 53.89 37.99 52.13 36.91 C 51.32 29.14 53.49 20.38 48.91 13.48 C 46.39 13.96 44.62 15.75 44.27 18.31 M 67.53 71.00 C 68.57 76.58 67.69 83.53 72.17 87.75 C 71.51 83.62 70.74 79.48 69.26 75.56 C 69.51 73.85 69.75 72.15 69.98 70.44 C 69.37 70.58 68.15 70.86 67.53 71.00 Z" />
<path fill="#ffffff" opacity="1.00" d=" M 45.44 18.92 C 46.35 17.85 46.65 15.45 48.52 16.00 C 48.99 16.94 49.43 17.89 49.85 18.85 C 48.38 18.89 46.91 18.91 45.44 18.92 Z" />
</g>
<g id="#6d6d6eff">
<path fill="#6d6d6e" opacity="1.00" d=" M 44.27 18.31 C 44.62 15.75 46.39 13.96 48.91 13.48 C 53.49 20.38 51.32 29.14 52.13 36.91 C 53.89 37.99 56.07 38.11 57.86 39.15 C 58.88 40.57 58.98 42.36 59.33 44.01 C 59.98 43.99 61.27 43.96 61.92 43.94 C 63.71 45.65 65.54 47.40 67.90 48.30 C 69.89 48.97 70.54 51.19 70.91 53.03 C 71.74 58.73 69.83 64.31 69.98 70.00 C 69.44 69.19 68.95 68.35 68.51 67.48 C 68.76 62.14 69.82 56.79 68.94 51.45 C 68.16 50.65 67.38 49.85 66.61 49.04 C 66.04 49.03 64.89 49.01 64.32 49.00 C 63.54 48.12 62.76 47.25 61.97 46.38 C 60.68 45.95 59.33 45.62 58.15 44.91 C 57.43 43.47 56.99 41.91 56.33 40.45 C 54.95 40.07 53.52 39.91 52.12 39.67 C 52.57 41.66 52.96 43.67 53.26 45.69 C 52.79 45.36 51.84 44.70 51.37 44.37 C 50.11 36.29 49.86 28.07 49.97 19.90 C 48.44 20.03 46.90 20.08 45.39 20.37 C 44.64 27.11 46.33 33.96 44.56 40.60 C 42.99 46.22 45.70 52.93 41.79 57.83 C 38.90 59.72 34.55 60.88 31.77 58.19 C 30.00 56.15 28.63 53.66 26.07 52.48 C 26.03 54.05 26.00 55.62 25.99 57.20 C 26.53 56.79 27.60 55.98 28.13 55.58 C 27.66 57.28 26.93 58.97 27.02 60.77 C 27.96 61.89 29.10 62.81 30.21 63.75 C 32.93 64.37 35.37 65.76 37.33 67.74 C 39.92 70.34 44.09 70.75 46.28 73.80 C 49.22 78.60 50.36 84.23 51.16 89.73 C 50.76 89.39 49.96 88.71 49.56 88.37 C 48.25 84.06 47.76 79.43 45.44 75.46 C 44.39 73.09 41.66 72.45 39.62 71.23 C 37.48 70.18 35.93 68.32 33.99 66.99 C 31.66 65.57 28.97 64.79 26.78 63.14 C 25.38 60.57 24.94 57.59 24.28 54.77 C 23.80 53.33 25.26 52.37 25.88 51.26 C 26.87 51.57 27.87 51.86 28.88 52.15 C 30.45 53.99 31.77 56.04 33.42 57.82 C 35.08 58.05 36.76 57.97 38.43 57.99 C 39.10 57.65 40.45 56.97 41.13 56.63 C 42.83 51.54 41.61 46.07 42.99 40.93 C 45.03 33.54 43.23 25.79 44.27 18.31 M 45.44 18.92 C 46.91 18.91 48.38 18.89 49.85 18.85 C 49.43 17.89 48.99 16.94 48.52 16.00 C 46.65 15.45 46.35 17.85 45.44 18.92 Z" />
<path fill="#6d6d6e" opacity="1.00" d=" M 67.53 71.00 C 68.15 70.86 69.37 70.58 69.98 70.44 C 69.75 72.15 69.51 73.85 69.26 75.56 C 70.74 79.48 71.51 83.62 72.17 87.75 C 67.69 83.53 68.57 76.58 67.53 71.00 Z" />
</g>
</svg>
