<?xml version="1.0" encoding="UTF-8" ?>
<!DOCTYPE svg PUBLIC "-//W3C//DTD SVG 1.1//EN" "http://www.w3.org/Graphics/SVG/1.1/DTD/svg11.dtd">
<svg width="150pt" height="101pt" viewBox="0 0 150 101" version="1.1" xmlns="http://www.w3.org/2000/svg">
<g id="#ffffffff">
<path fill="#ffffff" opacity="1.00" d=" M 0.00 0.00 L 150.00 0.00 L 150.00 101.00 L 0.00 101.00 L 0.00 0.00 M 81.19 12.01 C 81.90 12.57 82.62 13.12 83.35 13.66 C 92.91 12.96 103.39 9.67 112.35 14.62 C 117.40 17.89 122.87 20.47 128.62 22.26 C 128.40 21.78 127.94 20.84 127.72 20.36 C 122.99 18.15 118.05 16.33 113.70 13.36 C 103.72 7.43 91.94 11.53 81.19 12.01 M 66.94 15.89 C 64.18 19.36 62.59 23.61 60.11 27.28 C 59.93 23.48 60.60 17.26 55.83 16.08 C 53.11 16.47 52.43 19.62 52.10 21.89 C 51.74 27.90 52.12 33.98 50.93 39.92 C 49.39 40.36 47.74 40.53 46.34 41.36 C 45.14 42.50 44.97 44.27 44.38 45.74 C 41.97 46.23 39.78 47.33 38.23 49.27 C 36.59 50.08 34.48 50.53 33.63 52.34 C 31.43 56.91 32.83 62.04 33.01 66.84 C 33.57 66.12 34.13 65.39 34.68 64.66 C 34.23 60.74 32.97 56.02 35.75 52.68 C 39.05 50.99 41.64 48.09 45.42 47.42 C 46.21 45.85 46.67 44.11 47.62 42.62 C 48.70 42.29 49.79 42.03 50.91 41.81 C 50.86 44.04 50.71 46.27 50.94 48.49 C 53.40 45.09 53.02 40.76 53.29 36.79 C 53.40 32.07 53.82 27.35 53.91 22.63 C 55.35 22.57 56.78 22.47 58.21 22.29 C 58.31 27.57 58.04 32.83 58.06 38.10 C 57.94 42.17 61.12 45.16 62.03 48.94 C 63.44 54.16 63.83 59.79 62.15 64.99 C 60.79 70.73 57.08 75.42 54.80 80.75 C 53.65 84.81 52.10 89.10 52.95 93.37 C 55.34 89.32 54.95 84.34 57.01 80.15 C 58.97 76.11 61.55 72.36 63.03 68.09 C 66.32 59.95 65.67 50.26 61.17 42.71 C 59.71 40.50 60.06 37.75 59.87 35.24 C 63.36 38.82 67.71 41.90 73.01 41.17 C 73.61 43.86 76.04 45.96 78.92 45.15 C 81.84 43.82 83.23 40.68 85.55 38.62 C 88.08 37.01 91.34 36.74 93.58 34.60 C 95.69 32.78 97.84 29.99 101.03 31.08 C 106.97 33.69 110.42 40.02 116.59 42.27 C 115.62 39.48 112.78 38.19 110.80 36.22 C 107.45 33.53 104.44 29.90 100.07 28.94 C 96.78 28.69 94.62 31.41 92.37 33.32 C 89.74 35.75 85.45 35.37 83.27 38.37 C 81.58 40.18 80.32 42.64 77.91 43.59 C 76.97 43.23 75.05 43.35 75.07 41.96 C 75.13 38.01 78.55 34.31 76.89 30.25 C 74.76 25.97 69.64 28.60 65.98 27.98 C 66.49 28.61 67.51 29.85 68.02 30.47 C 66.55 31.33 65.07 32.18 63.61 33.06 C 64.77 33.67 66.06 33.61 67.32 33.48 C 67.55 34.09 68.02 35.33 68.25 35.94 C 68.96 31.49 72.75 35.18 74.89 35.94 C 74.48 36.96 74.07 37.98 73.66 39.00 C 70.89 38.95 67.70 39.60 65.41 37.61 C 63.41 35.85 60.40 34.15 60.34 31.17 C 61.74 27.03 64.69 23.61 66.56 19.68 C 69.02 14.35 75.97 15.26 80.72 13.81 C 80.65 13.40 80.51 12.58 80.43 12.17 C 75.91 13.08 70.87 13.22 66.94 15.89 M 33.30 68.35 C 33.54 72.05 34.65 75.92 33.36 79.55 C 32.23 82.93 31.82 86.49 30.96 89.95 C 34.72 88.32 33.60 83.92 34.90 80.81 C 36.93 76.15 34.69 71.05 35.00 66.18 C 34.42 66.89 33.85 67.61 33.30 68.35 Z" />
<path fill="#ffffff" opacity="1.00" d=" M 55.45 17.97 C 57.05 17.87 57.31 20.11 58.27 21.03 C 56.74 21.16 55.20 21.24 53.67 21.27 C 54.21 20.14 54.81 19.05 55.45 17.97 Z" />
<path fill="#ffffff" opacity="1.00" d=" M 70.09 29.97 C 71.62 29.61 73.46 28.79 74.72 30.24 C 75.32 31.47 75.68 32.79 76.07 34.09 C 73.90 33.26 71.74 32.39 69.60 31.46 C 69.72 31.09 69.97 30.34 70.09 29.97 Z" />
</g>
<g id="#636364ff">
<path fill="#636364" opacity="1.00" d=" M 81.19 12.01 C 91.94 11.53 103.72 7.43 113.70 13.36 C 118.05 16.33 122.99 18.15 127.72 20.36 C 127.94 20.84 128.40 21.78 128.62 22.26 C 122.87 20.47 117.40 17.89 112.35 14.62 C 103.39 9.67 92.91 12.96 83.35 13.66 C 82.62 13.12 81.90 12.57 81.19 12.01 Z" />
<path fill="#636364" opacity="1.00" d=" M 66.94 15.89 C 70.87 13.22 75.91 13.08 80.43 12.17 C 80.51 12.58 80.65 13.40 80.72 13.81 C 75.97 15.26 69.02 14.35 66.56 19.68 C 64.69 23.61 61.74 27.03 60.34 31.17 C 60.40 34.15 63.41 35.85 65.41 37.61 C 67.70 39.60 70.89 38.95 73.66 39.00 C 74.07 37.98 74.48 36.96 74.89 35.94 C 72.75 35.18 68.96 31.49 68.25 35.94 C 68.02 35.33 67.55 34.09 67.32 33.48 C 66.06 33.61 64.77 33.67 63.61 33.06 C 65.07 32.18 66.55 31.33 68.02 30.47 C 67.51 29.85 66.49 28.61 65.98 27.98 C 69.64 28.60 74.76 25.97 76.89 30.25 C 78.55 34.31 75.13 38.01 75.07 41.96 C 75.05 43.35 76.97 43.23 77.91 43.59 C 80.32 42.64 81.58 40.18 83.27 38.37 C 85.45 35.37 89.74 35.75 92.37 33.32 C 94.62 31.41 96.78 28.69 100.07 28.94 C 104.44 29.90 107.45 33.53 110.80 36.22 C 112.78 38.19 115.62 39.48 116.59 42.27 C 110.42 40.02 106.97 33.69 101.03 31.08 C 97.84 29.99 95.69 32.78 93.58 34.60 C 91.34 36.74 88.08 37.01 85.55 38.62 C 83.23 40.68 81.84 43.82 78.92 45.15 C 76.04 45.96 73.61 43.86 73.01 41.17 C 67.71 41.90 63.36 38.82 59.87 35.24 C 60.06 37.75 59.71 40.50 61.17 42.71 C 65.67 50.26 66.32 59.95 63.03 68.09 C 61.55 72.36 58.97 76.11 57.01 80.15 C 54.95 84.34 55.34 89.32 52.95 93.37 C 52.10 89.10 53.65 84.81 54.80 80.75 C 57.08 75.42 60.79 70.73 62.15 64.99 C 63.83 59.79 63.44 54.16 62.03 48.94 C 61.12 45.16 57.94 42.17 58.06 38.10 C 58.04 32.83 58.31 27.57 58.21 22.29 C 56.78 22.47 55.35 22.57 53.91 22.63 C 53.82 27.35 53.40 32.07 53.29 36.79 C 53.02 40.76 53.40 45.09 50.94 48.49 C 50.71 46.27 50.86 44.04 50.91 41.81 C 49.79 42.03 48.70 42.29 47.62 42.62 C 46.67 44.11 46.21 45.85 45.42 47.42 C 41.64 48.09 39.05 50.99 35.75 52.68 C 32.97 56.02 34.23 60.74 34.68 64.66 C 34.13 65.39 33.57 66.12 33.01 66.84 C 32.83 62.04 31.43 56.91 33.63 52.34 C 34.48 50.53 36.59 50.08 38.23 49.27 C 39.78 47.33 41.97 46.23 44.38 45.74 C 44.97 44.27 45.14 42.50 46.34 41.36 C 47.74 40.53 49.39 40.36 50.93 39.92 C 52.12 33.98 51.74 27.90 52.10 21.89 C 52.43 19.62 53.11 16.47 55.83 16.08 C 60.60 17.26 59.93 23.48 60.11 27.28 C 62.59 23.61 64.18 19.36 66.94 15.89 M 55.45 17.97 C 54.81 19.05 54.21 20.14 53.67 21.27 C 55.20 21.24 56.74 21.16 58.27 21.03 C 57.31 20.11 57.05 17.87 55.45 17.97 M 70.09 29.97 C 69.97 30.34 69.72 31.09 69.60 31.46 C 71.74 32.39 73.90 33.26 76.07 34.09 C 75.68 32.79 75.32 31.47 74.72 30.24 C 73.46 28.79 71.62 29.61 70.09 29.97 Z" />
<path fill="#636364" opacity="1.00" d=" M 33.30 68.35 C 33.85 67.61 34.42 66.89 35.00 66.18 C 34.69 71.05 36.93 76.15 34.90 80.81 C 33.60 83.92 34.72 88.32 30.96 89.95 C 31.82 86.49 32.23 82.93 33.36 79.55 C 34.65 75.92 33.54 72.05 33.30 68.35 Z" />
</g>
</svg>
