<?xml version="1.0" encoding="UTF-8" ?>
<!DOCTYPE svg PUBLIC "-//W3C//DTD SVG 1.1//EN" "http://www.w3.org/Graphics/SVG/1.1/DTD/svg11.dtd">
<svg width="150pt" height="100pt" viewBox="0 0 150 100" version="1.1" xmlns="http://www.w3.org/2000/svg">
<g id="#ffffffff">
<path fill="#ffffff" opacity="1.00" d=" M 0.00 0.00 L 150.00 0.00 L 150.00 100.00 L 0.00 100.00 L 0.00 0.00 M 46.17 17.11 C 45.88 17.61 45.29 18.60 45.00 19.09 C 45.28 24.75 45.01 30.42 44.91 36.08 C 44.45 44.19 40.03 51.43 40.06 59.59 C 36.93 61.14 34.80 64.00 31.95 65.94 C 30.34 67.08 28.67 68.23 27.74 70.03 C 33.47 68.15 37.10 62.89 42.02 59.65 C 42.07 57.24 41.74 54.76 42.29 52.39 C 46.25 43.86 46.69 34.27 47.02 25.02 C 47.51 25.03 48.50 25.06 48.99 25.07 L 49.01 24.00 C 48.50 23.99 47.46 23.99 46.94 23.98 C 46.94 21.91 46.96 19.84 47.03 17.76 C 49.61 18.12 52.06 19.78 52.68 22.43 C 53.63 27.42 52.23 32.61 53.46 37.56 C 54.12 40.29 56.81 41.81 57.79 44.36 C 58.47 47.37 58.20 50.48 57.83 53.51 C 57.55 54.24 56.99 55.68 56.71 56.40 C 57.15 56.18 58.05 55.75 58.50 55.54 C 60.26 52.18 60.48 48.07 59.46 44.45 C 58.82 41.97 56.60 40.40 55.53 38.17 C 57.10 36.42 59.57 35.84 61.18 34.13 C 65.40 28.30 71.49 24.18 77.49 20.36 C 78.50 19.64 79.49 18.90 80.46 18.12 C 82.23 17.30 83.99 17.54 85.40 18.93 C 84.04 22.37 80.27 23.46 77.67 25.71 C 74.88 28.04 71.94 30.16 68.77 31.95 C 67.99 33.29 68.29 34.95 67.87 36.41 C 66.46 37.34 64.94 38.68 65.39 40.57 C 66.43 45.16 70.14 48.45 72.78 52.16 C 74.16 54.18 77.28 55.97 76.77 58.67 C 72.34 63.97 68.15 69.90 61.61 72.75 C 57.54 74.63 52.90 75.48 49.55 78.66 C 47.00 81.13 43.07 82.62 41.92 86.20 C 46.61 84.00 49.87 79.68 54.37 77.17 C 56.58 76.69 58.63 75.73 60.66 74.76 C 62.28 74.01 63.89 73.26 65.47 72.41 C 70.83 69.80 73.75 64.30 77.81 60.18 C 78.51 65.57 80.98 70.58 84.12 74.96 C 89.07 81.10 96.50 84.42 103.67 87.25 C 108.21 89.01 110.84 93.67 115.35 95.41 C 115.15 94.92 114.73 93.96 114.52 93.47 C 110.94 89.98 107.12 86.43 102.30 84.77 C 96.61 82.61 91.01 79.74 86.76 75.30 C 83.01 70.78 80.06 65.34 79.56 59.41 C 77.04 53.28 71.87 48.72 68.01 43.42 C 68.89 42.56 69.76 41.69 70.62 40.80 C 73.79 42.31 75.51 45.55 77.75 48.08 C 80.61 51.31 83.44 54.58 86.34 57.77 C 86.86 57.37 87.38 56.97 87.90 56.58 C 82.18 50.92 77.14 44.61 71.93 38.48 C 73.04 37.48 74.14 36.45 75.24 35.43 C 81.10 41.39 86.28 47.96 91.91 54.12 C 93.60 55.78 95.41 53.68 97.06 53.11 C 98.11 53.34 99.15 53.63 100.17 53.99 C 101.20 53.49 102.24 52.99 103.27 52.47 C 105.89 53.36 108.27 54.95 109.70 57.37 C 112.87 62.50 115.95 67.70 119.53 72.57 C 120.91 74.26 123.35 74.65 124.64 76.47 C 125.97 78.40 128.12 79.36 130.26 80.12 C 129.93 77.18 126.20 76.60 124.85 74.11 C 120.16 72.26 118.36 67.30 115.52 63.52 C 112.55 59.28 110.66 53.73 105.69 51.38 C 102.87 49.95 99.98 52.89 97.12 51.26 C 95.75 51.82 94.40 52.41 93.05 53.02 C 91.23 50.58 89.24 48.26 87.09 46.10 C 89.62 43.26 92.51 40.72 94.67 37.57 C 95.88 35.75 95.11 33.44 93.57 32.09 C 95.54 29.40 97.60 25.28 94.21 22.80 C 94.02 21.30 94.19 19.39 92.62 18.55 C 90.72 17.11 88.45 18.69 86.60 19.43 C 86.08 18.21 85.53 16.99 84.95 15.79 C 83.47 16.01 81.87 15.76 80.48 16.41 C 73.50 21.01 66.06 25.34 60.79 31.99 C 59.26 33.91 57.08 35.08 54.97 36.22 C 54.50 33.19 54.38 30.10 54.82 27.06 C 55.35 22.46 52.83 17.28 48.01 16.23 C 47.55 16.45 46.63 16.89 46.17 17.11 Z" />
<path fill="#ffffff" opacity="1.00" d=" M 88.50 20.51 C 90.18 19.54 92.77 19.62 92.61 22.15 C 88.14 27.05 82.42 30.63 77.48 35.04 C 76.12 33.65 74.60 32.43 72.85 31.56 C 73.71 30.81 74.56 30.06 75.43 29.32 C 79.68 26.23 84.08 23.36 88.50 20.51 Z" />
<path fill="#ffffff" opacity="1.00" d=" M 89.45 27.46 C 90.79 26.11 92.41 25.05 94.32 24.69 C 94.59 27.80 92.71 30.54 90.54 32.56 C 87.75 35.10 85.15 37.86 82.21 40.24 C 81.42 38.68 77.74 37.42 79.26 35.50 C 82.76 32.95 86.32 30.47 89.45 27.46 Z" />
<path fill="#ffffff" opacity="1.00" d=" M 70.19 32.21 C 71.69 32.85 73.17 33.54 74.64 34.24 C 73.58 35.47 72.60 36.82 71.18 37.66 C 69.79 36.13 70.04 34.09 70.19 32.21 Z" />
<path fill="#ffffff" opacity="1.00" d=" M 91.53 34.12 C 91.99 34.08 92.89 34.01 93.34 33.97 C 93.73 38.70 88.37 41.29 85.88 44.76 C 85.05 43.68 84.22 42.60 83.40 41.52 C 86.42 39.39 88.72 36.47 91.53 34.12 Z" />
<path fill="#ffffff" opacity="1.00" d=" M 66.97 38.68 C 68.13 38.63 70.41 36.71 70.27 39.30 C 70.39 41.12 68.38 41.72 67.10 42.39 C 67.06 41.46 67.00 39.61 66.97 38.68 Z" />
</g>
<g id="#636363ff">
<path fill="#636363" opacity="1.00" d=" M 46.17 17.11 C 46.63 16.89 47.55 16.45 48.01 16.23 C 52.83 17.28 55.35 22.46 54.82 27.06 C 54.38 30.10 54.50 33.19 54.97 36.22 C 57.08 35.08 59.26 33.91 60.79 31.99 C 66.06 25.34 73.50 21.01 80.48 16.41 C 81.87 15.76 83.47 16.01 84.95 15.79 C 85.53 16.99 86.08 18.21 86.60 19.43 C 88.45 18.69 90.72 17.11 92.62 18.55 C 94.19 19.39 94.02 21.30 94.21 22.80 C 97.60 25.28 95.54 29.40 93.57 32.09 C 95.11 33.44 95.88 35.75 94.67 37.57 C 92.51 40.72 89.62 43.26 87.09 46.10 C 89.24 48.26 91.23 50.58 93.05 53.02 C 94.40 52.41 95.75 51.82 97.12 51.26 C 99.98 52.89 102.87 49.95 105.69 51.38 C 110.66 53.73 112.55 59.28 115.52 63.52 C 118.36 67.30 120.16 72.26 124.85 74.11 C 126.20 76.60 129.93 77.18 130.26 80.12 C 128.12 79.36 125.97 78.40 124.64 76.47 C 123.35 74.65 120.91 74.26 119.53 72.57 C 115.95 67.70 112.87 62.50 109.70 57.37 C 108.27 54.95 105.89 53.36 103.27 52.47 C 102.24 52.99 101.20 53.49 100.17 53.99 C 99.15 53.63 98.11 53.34 97.06 53.11 C 95.41 53.68 93.60 55.78 91.91 54.12 C 86.28 47.96 81.10 41.39 75.24 35.43 C 74.14 36.45 73.04 37.48 71.93 38.48 C 77.14 44.61 82.18 50.92 87.90 56.58 C 87.38 56.97 86.86 57.37 86.34 57.77 C 83.44 54.58 80.61 51.31 77.75 48.08 C 75.51 45.55 73.79 42.31 70.62 40.80 C 69.76 41.69 68.89 42.56 68.01 43.42 C 71.87 48.72 77.04 53.28 79.56 59.41 C 80.06 65.34 83.01 70.78 86.76 75.30 C 91.01 79.74 96.61 82.61 102.30 84.77 C 107.12 86.43 110.94 89.98 114.52 93.47 C 114.73 93.96 115.15 94.92 115.35 95.41 C 110.84 93.67 108.21 89.01 103.67 87.25 C 96.50 84.42 89.07 81.10 84.12 74.96 C 80.98 70.58 78.51 65.57 77.81 60.18 C 73.75 64.30 70.83 69.80 65.47 72.41 C 63.89 73.26 62.28 74.01 60.66 74.76 C 58.63 75.73 56.58 76.69 54.37 77.17 C 49.87 79.68 46.61 84.00 41.92 86.20 C 43.07 82.62 47.00 81.13 49.55 78.66 C 52.90 75.48 57.54 74.63 61.61 72.75 C 68.15 69.90 72.34 63.97 76.77 58.67 C 77.28 55.97 74.16 54.18 72.78 52.16 C 70.14 48.45 66.43 45.16 65.39 40.57 C 64.94 38.68 66.46 37.34 67.87 36.41 C 68.29 34.95 67.99 33.29 68.77 31.95 C 71.94 30.16 74.88 28.04 77.67 25.71 C 80.27 23.46 84.04 22.37 85.40 18.93 C 83.99 17.54 82.23 17.30 80.46 18.12 C 79.49 18.90 78.50 19.64 77.49 20.36 C 71.49 24.18 65.40 28.30 61.18 34.13 C 59.57 35.84 57.10 36.42 55.53 38.17 C 56.60 40.40 58.82 41.97 59.46 44.45 C 60.48 48.07 60.26 52.18 58.50 55.54 C 58.05 55.75 57.15 56.18 56.71 56.40 C 56.99 55.68 57.55 54.24 57.83 53.51 C 58.20 50.48 58.47 47.37 57.79 44.36 C 56.81 41.81 54.12 40.29 53.46 37.56 C 52.23 32.61 53.63 27.42 52.68 22.43 C 52.06 19.78 49.61 18.12 47.03 17.76 C 46.96 19.84 46.94 21.91 46.94 23.98 C 47.46 23.99 48.50 23.99 49.01 24.00 L 48.99 25.07 C 48.50 25.06 47.51 25.03 47.02 25.02 C 46.69 34.27 46.25 43.86 42.29 52.39 C 41.74 54.76 42.07 57.24 42.02 59.65 C 37.10 62.89 33.47 68.15 27.74 70.03 C 28.67 68.23 30.34 67.08 31.95 65.94 C 34.80 64.00 36.93 61.14 40.06 59.59 C 40.03 51.43 44.45 44.19 44.91 36.08 C 45.01 30.42 45.28 24.75 45.00 19.09 C 45.29 18.60 45.88 17.61 46.17 17.11 M 88.50 20.51 C 84.08 23.36 79.68 26.23 75.43 29.32 C 74.56 30.06 73.71 30.81 72.85 31.56 C 74.60 32.43 76.12 33.65 77.48 35.04 C 82.42 30.63 88.14 27.05 92.61 22.15 C 92.77 19.62 90.18 19.54 88.50 20.51 M 89.45 27.46 C 86.32 30.47 82.76 32.95 79.26 35.50 C 77.74 37.42 81.42 38.68 82.21 40.24 C 85.15 37.86 87.75 35.10 90.54 32.56 C 92.71 30.54 94.59 27.80 94.32 24.69 C 92.41 25.05 90.79 26.11 89.45 27.46 M 70.19 32.21 C 70.04 34.09 69.79 36.13 71.18 37.66 C 72.60 36.82 73.58 35.47 74.64 34.24 C 73.17 33.54 71.69 32.85 70.19 32.21 M 91.53 34.12 C 88.72 36.47 86.42 39.39 83.40 41.52 C 84.22 42.60 85.05 43.68 85.88 44.76 C 88.37 41.29 93.73 38.70 93.34 33.97 C 92.89 34.01 91.99 34.08 91.53 34.12 M 66.97 38.68 C 67.00 39.61 67.06 41.46 67.10 42.39 C 68.38 41.72 70.39 41.12 70.27 39.30 C 70.41 36.71 68.13 38.63 66.97 38.68 Z" />
</g>
</svg>
