<?xml version="1.0" encoding="UTF-8" ?>
<!DOCTYPE svg PUBLIC "-//W3C//DTD SVG 1.1//EN" "http://www.w3.org/Graphics/SVG/1.1/DTD/svg11.dtd">
<svg width="100pt" height="100pt" viewBox="0 0 100 100" version="1.1" xmlns="http://www.w3.org/2000/svg">
<g id="#ffffffff">
<path fill="#ffffff" opacity="1.00" d=" M 0.00 0.00 L 100.00 0.00 L 100.00 100.00 L 0.00 100.00 L 0.00 0.00 M 35.65 20.49 C 32.85 24.92 32.86 30.38 32.33 35.42 C 30.35 39.04 25.04 41.22 25.86 46.01 C 26.89 50.69 28.88 55.13 29.57 59.90 C 30.41 65.97 35.66 70.62 35.41 76.93 C 34.94 81.14 32.76 84.93 32.26 89.15 C 34.16 88.63 34.38 86.54 35.06 85.04 C 36.04 82.10 37.33 79.15 37.11 75.98 C 37.12 69.96 32.26 65.48 31.29 59.69 C 30.53 55.14 29.06 50.77 27.64 46.39 C 26.74 43.69 29.21 41.63 30.86 39.89 C 33.91 37.09 35.64 33.22 38.45 30.23 C 41.71 28.73 45.45 28.74 48.94 28.15 C 51.76 27.50 55.39 29.14 53.79 32.63 C 54.23 32.06 55.12 30.92 55.56 30.35 C 56.64 31.46 57.72 32.55 58.82 33.65 C 56.51 35.98 53.62 34.35 51.00 33.67 C 48.42 34.39 45.77 34.70 43.09 34.76 C 41.95 37.67 39.31 40.97 40.66 44.15 C 42.55 41.49 43.06 38.13 45.05 35.54 C 45.36 38.03 44.67 40.43 43.77 42.72 C 47.30 42.25 46.73 38.08 47.50 35.55 C 48.27 37.66 47.54 39.77 47.18 41.88 C 48.16 44.28 49.33 46.59 50.43 48.93 C 49.01 49.35 47.59 50.28 46.05 49.94 C 44.78 49.19 43.83 48.04 42.76 47.06 C 42.49 47.50 41.94 48.39 41.67 48.84 C 43.32 50.10 45.07 51.24 46.88 52.27 C 51.71 50.81 55.34 46.86 57.29 42.31 C 58.22 39.08 58.67 35.50 61.11 32.97 C 63.68 33.10 63.13 36.51 63.65 38.26 C 62.98 37.91 61.64 37.21 60.96 36.86 C 60.76 37.19 60.34 37.85 60.14 38.18 C 61.45 38.58 62.76 38.97 64.08 39.33 C 64.33 44.52 61.37 49.10 60.37 54.08 C 58.88 58.23 59.84 62.60 59.86 66.87 C 59.65 71.67 55.49 74.74 53.74 78.92 C 52.04 82.83 50.76 86.99 50.46 91.27 C 50.74 91.31 51.31 91.39 51.60 91.42 C 53.08 88.05 53.23 84.20 54.82 80.84 C 56.14 77.08 59.31 74.38 60.82 70.73 C 62.53 66.11 60.39 61.17 61.61 56.48 C 62.57 52.35 63.88 48.31 65.31 44.32 C 66.83 40.79 65.09 36.96 64.51 33.40 C 63.93 31.16 61.28 31.46 59.51 31.66 C 56.08 28.37 51.88 25.12 46.77 26.44 C 47.14 22.42 52.08 23.80 54.02 21.13 C 55.92 19.57 57.47 15.74 54.67 14.35 C 52.19 14.55 49.92 15.70 47.60 16.50 C 47.02 15.16 47.12 12.46 44.95 12.97 C 41.46 14.89 38.26 17.46 35.65 20.49 Z" />
<path fill="#ffffff" opacity="1.00" d=" M 37.29 21.29 C 39.81 18.65 42.55 15.76 46.25 14.96 C 45.37 16.80 43.82 18.11 42.34 19.45 C 38.45 23.24 36.70 28.49 34.10 33.13 C 34.64 29.11 35.10 24.79 37.29 21.29 Z" />
<path fill="#ffffff" opacity="1.00" d=" M 44.04 20.05 C 47.16 17.95 51.01 17.33 54.46 15.91 C 54.65 20.26 49.94 21.76 46.51 22.49 C 45.78 23.86 45.39 25.38 44.81 26.82 C 42.69 27.27 40.56 27.68 38.43 28.08 C 40.23 25.37 41.72 22.36 44.04 20.05 Z" />
<path fill="#ffffff" opacity="1.00" d=" M 50.35 35.01 C 52.48 35.84 54.61 36.64 56.79 37.32 C 56.25 41.22 54.35 44.64 51.79 47.56 C 50.76 45.64 50.06 43.57 49.03 41.65 C 49.50 39.45 49.97 37.24 50.35 35.01 Z" />
</g>
<g id="#616161ff">
<path fill="#616161" opacity="1.00" d=" M 35.65 20.49 C 38.26 17.46 41.46 14.89 44.95 12.97 C 47.12 12.46 47.02 15.16 47.60 16.50 C 49.92 15.70 52.19 14.55 54.67 14.35 C 57.47 15.74 55.92 19.57 54.02 21.13 C 52.08 23.80 47.14 22.42 46.77 26.44 C 51.88 25.12 56.08 28.37 59.51 31.66 C 61.28 31.46 63.93 31.16 64.51 33.40 C 65.09 36.96 66.83 40.79 65.31 44.32 C 63.88 48.31 62.57 52.35 61.61 56.48 C 60.39 61.17 62.53 66.11 60.82 70.73 C 59.31 74.38 56.14 77.08 54.82 80.84 C 53.23 84.20 53.08 88.05 51.60 91.42 C 51.31 91.39 50.74 91.31 50.46 91.27 C 50.76 86.99 52.04 82.83 53.74 78.92 C 55.49 74.74 59.65 71.67 59.86 66.87 C 59.84 62.60 58.88 58.23 60.37 54.08 C 61.37 49.10 64.33 44.52 64.08 39.33 C 62.76 38.97 61.45 38.58 60.14 38.18 C 60.34 37.85 60.76 37.19 60.96 36.86 C 61.64 37.21 62.98 37.91 63.65 38.26 C 63.13 36.51 63.68 33.10 61.11 32.97 C 58.67 35.50 58.22 39.08 57.29 42.31 C 55.34 46.86 51.71 50.81 46.88 52.27 C 45.07 51.24 43.32 50.10 41.67 48.84 C 41.94 48.39 42.49 47.50 42.76 47.06 C 43.83 48.04 44.78 49.19 46.05 49.94 C 47.59 50.28 49.01 49.35 50.43 48.93 C 49.33 46.59 48.16 44.28 47.18 41.88 C 47.54 39.77 48.27 37.66 47.50 35.55 C 46.73 38.08 47.30 42.25 43.77 42.72 C 44.67 40.43 45.36 38.03 45.05 35.54 C 43.06 38.13 42.55 41.49 40.66 44.15 C 39.31 40.97 41.95 37.67 43.09 34.76 C 45.77 34.70 48.42 34.39 51.00 33.67 C 53.62 34.35 56.51 35.98 58.82 33.65 C 57.72 32.55 56.64 31.46 55.56 30.35 C 55.12 30.92 54.23 32.06 53.79 32.63 C 55.39 29.14 51.76 27.50 48.94 28.15 C 45.45 28.74 41.71 28.73 38.45 30.23 C 35.64 33.22 33.91 37.09 30.86 39.89 C 29.21 41.63 26.74 43.69 27.64 46.39 C 29.06 50.77 30.53 55.14 31.29 59.69 C 32.26 65.48 37.12 69.96 37.11 75.98 C 37.33 79.15 36.04 82.10 35.06 85.04 C 34.38 86.54 34.16 88.63 32.26 89.15 C 32.76 84.93 34.94 81.14 35.41 76.93 C 35.66 70.62 30.41 65.97 29.57 59.90 C 28.88 55.13 26.89 50.69 25.86 46.01 C 25.04 41.22 30.35 39.04 32.33 35.42 C 32.86 30.38 32.85 24.92 35.65 20.49 M 37.29 21.29 C 35.10 24.79 34.64 29.11 34.10 33.13 C 36.70 28.49 38.45 23.24 42.34 19.45 C 43.82 18.11 45.37 16.80 46.25 14.96 C 42.55 15.76 39.81 18.65 37.29 21.29 M 44.04 20.05 C 41.72 22.36 40.23 25.37 38.43 28.08 C 40.56 27.68 42.69 27.27 44.81 26.82 C 45.39 25.38 45.78 23.86 46.51 22.49 C 49.94 21.76 54.65 20.26 54.46 15.91 C 51.01 17.33 47.16 17.95 44.04 20.05 M 50.35 35.01 C 49.97 37.24 49.50 39.45 49.03 41.65 C 50.06 43.57 50.76 45.64 51.79 47.56 C 54.35 44.64 56.25 41.22 56.79 37.32 C 54.61 36.64 52.48 35.84 50.35 35.01 Z" />
</g>
</svg>
