<?xml version="1.0" encoding="UTF-8" ?>
<!DOCTYPE svg PUBLIC "-//W3C//DTD SVG 1.1//EN" "http://www.w3.org/Graphics/SVG/1.1/DTD/svg11.dtd">
<svg width="150pt" height="100pt" viewBox="0 0 150 100" version="1.1" xmlns="http://www.w3.org/2000/svg">
<g id="#ffffffff">
<path fill="#ffffff" opacity="1.00" d=" M 0.00 0.00 L 150.00 0.00 L 150.00 100.00 L 0.00 100.00 L 0.00 0.00 M 70.56 13.53 C 66.22 14.64 62.16 16.74 58.91 19.84 C 57.27 21.69 53.84 21.41 53.28 24.21 C 51.71 30.85 52.54 37.82 51.61 44.55 C 49.91 45.22 48.02 45.40 46.45 46.37 C 45.17 47.66 45.17 49.61 44.73 51.26 C 43.10 51.62 41.33 51.88 40.14 53.18 C 38.03 55.28 34.20 55.47 33.55 58.90 C 31.42 67.09 35.27 75.55 34.05 83.81 C 32.75 87.52 32.46 91.46 31.59 95.28 C 35.54 93.11 33.95 88.18 35.74 84.76 C 36.93 77.24 34.23 69.67 34.67 62.11 C 34.96 60.35 35.07 57.89 37.10 57.24 C 40.41 56.22 42.25 52.59 46.03 52.80 C 46.77 50.99 46.65 48.56 48.26 47.28 C 49.10 47.16 50.78 46.93 51.63 46.82 C 51.36 49.03 51.07 51.25 51.13 53.48 C 51.51 53.11 52.26 52.36 52.64 51.99 C 54.07 44.49 54.10 36.83 54.09 29.23 C 55.67 29.22 57.24 29.20 58.82 29.16 C 58.91 34.09 58.55 39.02 58.73 43.94 C 58.69 48.39 62.55 51.57 62.94 55.96 C 65.46 64.83 62.15 74.03 57.47 81.56 C 54.31 86.45 53.51 92.38 52.78 98.04 C 55.61 96.82 54.96 93.29 55.78 90.85 C 56.59 84.56 61.30 79.86 63.22 73.97 C 66.77 65.53 66.20 55.38 61.47 47.52 C 59.63 43.95 60.51 39.76 60.47 35.92 C 66.29 38.00 72.65 39.26 77.47 43.39 C 81.03 46.30 85.45 47.67 89.62 49.43 C 93.86 51.17 97.53 54.19 100.20 57.90 C 102.38 60.92 102.63 64.98 105.13 67.80 C 105.56 67.73 106.42 67.59 106.85 67.51 C 105.05 64.65 103.93 61.47 102.54 58.41 C 99.02 51.83 92.17 48.04 85.32 45.77 C 80.25 44.25 76.89 39.78 71.98 37.98 C 69.99 37.20 67.94 36.61 65.91 35.95 C 66.00 35.11 66.19 33.44 66.28 32.60 L 65.05 32.58 C 64.99 33.24 64.87 34.57 64.81 35.23 C 63.45 34.90 62.08 34.63 60.75 34.19 C 60.73 33.32 60.81 32.02 61.92 31.86 C 64.43 30.64 67.19 31.63 69.70 32.28 C 73.41 33.33 77.31 33.02 81.11 33.10 C 81.97 31.91 83.65 30.68 82.80 29.00 C 81.29 24.30 75.80 22.82 72.21 20.01 C 69.98 20.68 67.66 20.94 65.43 21.55 C 63.33 22.83 61.28 24.34 58.65 24.00 C 59.04 22.29 59.97 20.69 62.00 21.00 C 62.84 17.40 67.15 16.65 70.12 15.55 C 75.66 15.15 80.58 18.22 85.47 20.37 C 84.96 17.74 82.27 16.98 80.26 15.81 C 80.77 14.04 81.07 12.09 79.54 10.72 C 79.20 12.18 78.89 13.65 78.62 15.12 C 76.49 14.65 74.38 14.15 72.26 13.65 C 75.17 10.77 78.05 6.87 82.58 6.91 C 84.97 9.35 87.26 12.08 90.45 13.51 C 89.81 10.98 87.07 9.57 86.97 6.85 C 89.91 8.61 92.59 10.76 95.64 12.32 C 99.74 14.24 99.46 19.37 101.00 23.00 C 102.99 30.35 107.01 36.85 110.57 43.51 C 112.85 47.12 116.28 49.82 118.75 53.30 C 121.24 56.04 122.84 59.75 126.26 61.52 C 124.25 56.14 119.88 52.03 116.34 47.63 C 112.20 44.10 110.30 38.93 107.63 34.36 C 104.14 28.48 102.58 21.75 100.58 15.29 C 99.03 10.65 93.52 9.89 90.32 6.77 C 88.92 5.01 86.81 6.01 85.10 6.57 C 79.27 2.80 73.57 8.99 70.56 13.53 Z" />
<path fill="#ffffff" opacity="1.00" d=" M 60.33 26.05 C 64.90 24.47 70.60 19.86 75.04 23.90 C 77.63 25.81 81.30 27.16 81.30 30.97 C 74.23 32.86 67.29 28.03 60.38 30.42 C 60.38 28.96 60.36 27.50 60.33 26.05 Z" />
<path fill="#ffffff" opacity="1.00" d=" M 53.97 27.83 C 54.81 26.30 54.55 23.48 56.65 23.10 C 57.81 24.48 58.35 26.23 59.04 27.87 C 57.35 27.88 55.66 27.87 53.97 27.83 Z" />
</g>
<g id="#656565ff">
<path fill="#656565" opacity="1.00" d=" M 70.56 13.53 C 73.57 8.99 79.27 2.80 85.10 6.57 C 86.81 6.01 88.92 5.01 90.32 6.77 C 93.52 9.89 99.03 10.65 100.58 15.29 C 102.58 21.75 104.14 28.48 107.63 34.36 C 110.30 38.93 112.20 44.10 116.34 47.63 C 119.88 52.03 124.25 56.14 126.26 61.52 C 122.84 59.75 121.24 56.04 118.75 53.30 C 116.28 49.82 112.85 47.12 110.57 43.51 C 107.01 36.85 102.99 30.35 101.00 23.00 C 99.46 19.37 99.74 14.24 95.64 12.32 C 92.59 10.76 89.91 8.61 86.97 6.85 C 87.07 9.57 89.81 10.98 90.45 13.51 C 87.26 12.08 84.97 9.35 82.58 6.91 C 78.05 6.87 75.17 10.77 72.26 13.65 C 74.38 14.15 76.49 14.65 78.62 15.12 C 78.89 13.65 79.20 12.18 79.54 10.72 C 81.07 12.09 80.77 14.04 80.26 15.81 C 82.27 16.98 84.96 17.74 85.47 20.37 C 80.58 18.22 75.66 15.15 70.12 15.55 C 67.15 16.65 62.84 17.40 62.00 21.00 C 59.97 20.69 59.04 22.29 58.65 24.00 C 61.28 24.34 63.33 22.83 65.43 21.55 C 67.66 20.94 69.98 20.68 72.21 20.01 C 75.80 22.82 81.29 24.30 82.80 29.00 C 83.65 30.68 81.97 31.91 81.11 33.10 C 77.31 33.02 73.41 33.33 69.70 32.28 C 67.19 31.63 64.43 30.64 61.92 31.86 C 60.81 32.02 60.73 33.32 60.75 34.19 C 62.08 34.63 63.45 34.90 64.81 35.23 C 64.87 34.57 64.99 33.24 65.05 32.58 L 66.28 32.60 C 66.19 33.44 66.00 35.11 65.91 35.95 C 67.94 36.61 69.99 37.20 71.98 37.98 C 76.89 39.78 80.25 44.25 85.32 45.77 C 92.17 48.04 99.02 51.83 102.54 58.41 C 103.93 61.47 105.05 64.65 106.85 67.51 C 106.42 67.59 105.56 67.73 105.13 67.80 C 102.63 64.98 102.38 60.92 100.20 57.90 C 97.53 54.19 93.86 51.17 89.62 49.43 C 85.45 47.67 81.03 46.30 77.47 43.39 C 72.65 39.26 66.29 38.00 60.47 35.92 C 60.51 39.76 59.63 43.95 61.47 47.52 C 66.20 55.38 66.77 65.53 63.22 73.97 C 61.30 79.86 56.59 84.56 55.78 90.85 C 54.96 93.29 55.61 96.82 52.78 98.04 C 53.51 92.38 54.31 86.45 57.47 81.56 C 62.15 74.03 65.46 64.83 62.94 55.96 C 62.55 51.57 58.69 48.39 58.73 43.94 C 58.55 39.02 58.91 34.09 58.82 29.16 C 57.24 29.20 55.67 29.22 54.09 29.23 C 54.10 36.83 54.07 44.49 52.64 51.99 C 52.26 52.36 51.51 53.11 51.13 53.48 C 51.07 51.25 51.36 49.03 51.63 46.82 C 50.78 46.93 49.10 47.16 48.26 47.28 C 46.65 48.56 46.77 50.99 46.03 52.80 C 42.25 52.59 40.41 56.22 37.10 57.24 C 35.07 57.89 34.96 60.35 34.67 62.11 C 34.23 69.67 36.93 77.24 35.74 84.76 C 33.95 88.18 35.54 93.11 31.59 95.28 C 32.46 91.46 32.75 87.52 34.05 83.81 C 35.27 75.55 31.42 67.09 33.55 58.90 C 34.20 55.47 38.03 55.28 40.14 53.18 C 41.33 51.88 43.10 51.62 44.73 51.26 C 45.17 49.61 45.17 47.66 46.45 46.37 C 48.02 45.40 49.91 45.22 51.61 44.55 C 52.54 37.82 51.71 30.85 53.28 24.21 C 53.84 21.41 57.27 21.69 58.91 19.84 C 62.16 16.74 66.22 14.64 70.56 13.53 M 60.33 26.05 C 60.36 27.50 60.38 28.96 60.38 30.42 C 67.29 28.03 74.23 32.86 81.30 30.97 C 81.30 27.16 77.63 25.81 75.04 23.90 C 70.60 19.86 64.90 24.47 60.33 26.05 M 53.97 27.83 C 55.66 27.87 57.35 27.88 59.04 27.87 C 58.35 26.23 57.81 24.48 56.65 23.10 C 54.55 23.48 54.81 26.30 53.97 27.83 Z" />
</g>
</svg>
