<?xml version="1.0" encoding="UTF-8" ?>
<!DOCTYPE svg PUBLIC "-//W3C//DTD SVG 1.1//EN" "http://www.w3.org/Graphics/SVG/1.1/DTD/svg11.dtd">
<svg width="150pt" height="100pt" viewBox="0 0 150 100" version="1.1" xmlns="http://www.w3.org/2000/svg">
<g id="#ffffffff">
<path fill="#ffffff" opacity="1.00" d=" M 0.00 0.00 L 150.00 0.00 L 150.00 100.00 L 0.00 100.00 L 0.00 0.00 M 54.41 7.54 C 52.27 9.90 50.31 12.43 47.86 14.49 C 44.35 13.54 41.01 15.51 37.88 16.84 C 31.41 25.67 26.50 35.84 18.25 43.27 C 14.00 47.57 11.27 53.09 8.67 58.47 C 10.02 57.92 11.24 57.02 11.70 55.58 C 14.35 49.96 18.23 44.98 22.79 40.76 C 29.09 33.80 33.57 25.44 39.07 17.85 C 40.61 17.41 42.16 16.93 43.57 16.13 C 44.25 16.09 45.62 16.00 46.31 15.96 C 45.25 17.13 44.13 18.24 43.03 19.37 C 42.95 20.16 42.80 21.74 42.73 22.53 C 46.78 17.25 51.96 13.03 56.29 8.00 C 61.20 8.29 67.99 7.28 70.77 12.42 C 67.35 12.77 63.88 11.41 60.60 12.92 C 60.22 12.75 59.45 12.42 59.07 12.26 C 57.84 16.97 53.94 20.65 53.84 25.66 C 53.38 26.07 52.48 26.90 52.02 27.31 C 51.19 31.42 51.36 35.68 52.08 39.79 C 55.57 41.12 59.37 41.76 63.05 40.86 C 66.07 40.23 71.17 40.97 71.25 44.88 C 69.27 45.09 66.33 46.50 66.28 43.32 C 66.03 43.33 65.53 43.35 65.27 43.36 C 65.52 44.49 65.76 45.62 66.00 46.76 C 62.81 47.79 59.44 47.80 56.15 48.29 C 48.17 50.03 40.16 52.62 31.89 51.91 C 28.18 56.58 25.74 62.25 23.78 67.85 C 24.25 67.59 25.19 67.07 25.66 66.81 C 27.85 62.07 29.59 56.94 33.09 52.99 C 39.15 53.35 45.24 52.93 51.05 51.09 C 56.60 49.09 62.85 50.40 68.07 47.41 C 73.01 45.94 78.02 42.83 83.29 44.58 C 83.43 45.07 83.73 46.05 83.88 46.54 C 81.57 46.84 78.74 48.07 79.09 50.88 C 79.96 54.29 81.19 57.71 83.25 60.58 C 84.75 62.81 87.49 63.39 89.85 64.24 C 89.87 65.39 89.87 66.54 89.85 67.69 C 86.33 68.80 82.66 69.03 79.09 68.04 C 75.25 67.25 68.19 70.01 70.94 74.91 C 74.69 75.90 78.00 78.42 81.98 78.52 C 89.14 78.84 95.79 81.90 102.88 82.62 C 105.46 83.01 108.11 82.63 110.66 83.18 C 114.67 87.33 114.95 93.98 119.22 97.89 C 118.95 92.87 115.58 88.80 113.68 84.31 C 112.68 81.62 109.68 80.70 107.04 81.01 C 98.37 81.54 90.45 76.95 81.85 76.87 C 79.99 76.87 78.35 75.98 76.73 75.20 C 77.25 73.74 77.72 72.24 77.80 70.68 C 76.75 71.80 76.08 73.19 75.33 74.52 C 74.46 74.27 72.71 73.78 71.84 73.53 C 72.08 70.24 76.23 69.52 78.89 69.73 C 82.94 70.72 87.20 70.57 91.10 69.02 C 91.91 63.98 93.17 57.89 89.07 53.91 C 89.05 53.21 89.01 51.81 88.99 51.11 C 87.10 48.72 85.74 46.00 84.49 43.24 C 80.67 41.13 76.44 42.43 72.75 44.14 C 74.08 37.67 81.72 37.71 86.87 38.56 C 87.48 38.00 88.08 37.44 88.69 36.88 C 83.01 36.53 75.39 35.24 71.96 41.09 C 68.90 39.29 65.32 38.38 61.81 39.34 C 58.50 39.83 52.06 40.17 52.90 35.14 C 55.47 34.15 58.60 33.70 60.16 31.14 C 62.23 27.81 63.88 24.10 64.19 20.15 C 63.48 19.43 62.77 18.71 62.06 17.99 C 61.22 17.98 59.52 17.97 58.67 17.96 C 59.17 16.65 59.66 15.34 60.16 14.03 C 63.48 13.87 66.81 14.47 70.11 14.16 C 72.16 13.98 73.20 10.81 71.17 9.80 C 68.30 6.72 63.88 6.61 59.97 6.42 C 58.09 6.39 56.04 6.54 54.41 7.54 M 88.46 40.07 C 91.27 42.76 93.78 45.74 96.67 48.34 C 98.26 49.61 98.73 52.34 101.17 52.23 C 100.38 49.70 98.68 47.68 96.89 45.79 C 99.91 47.00 103.90 47.31 105.68 50.40 C 109.57 56.40 113.36 62.49 117.71 68.18 C 121.41 73.15 126.66 76.81 129.71 82.28 C 131.43 84.89 132.37 88.32 135.41 89.75 C 132.99 83.16 128.87 77.07 123.68 72.31 C 117.13 65.63 112.44 57.46 107.31 49.71 C 105.01 45.60 99.67 44.39 95.30 44.64 C 93.27 42.80 91.45 40.73 89.97 38.41 C 89.47 38.97 88.96 39.52 88.46 40.07 Z" />
<path fill="#ffffff" opacity="1.00" d=" M 58.31 18.82 C 59.62 19.25 60.93 19.68 62.23 20.13 C 61.85 25.00 59.87 30.13 55.67 32.95 C 54.98 32.96 53.61 32.99 52.93 33.00 C 52.95 30.81 53.28 28.63 54.24 26.64 C 55.71 27.22 56.92 28.23 58.04 29.32 C 58.04 28.62 58.04 27.20 58.04 26.50 C 59.22 25.99 59.96 25.12 60.25 23.89 C 58.70 24.21 57.21 24.74 55.70 25.15 C 55.86 22.79 56.88 20.67 58.31 18.82 Z" />
<path fill="#ffffff" opacity="1.00" d=" M 80.96 49.15 C 82.19 48.82 83.44 48.50 84.68 48.18 C 86.24 49.84 87.24 51.87 87.59 54.13 C 85.88 53.75 84.23 53.15 82.51 52.84 C 83.04 54.03 83.90 54.91 85.07 55.49 C 85.05 56.24 85.00 57.74 84.98 58.49 C 86.00 57.63 87.01 56.76 88.06 55.93 C 88.74 56.56 89.39 57.20 90.03 57.87 C 90.00 59.35 89.97 60.83 89.94 62.31 C 83.73 61.54 81.42 54.51 80.96 49.15 Z" />
</g>
<g id="#5d5d5dff">
<path fill="#5d5d5d" opacity="1.00" d=" M 54.41 7.54 C 56.04 6.54 58.09 6.39 59.97 6.42 C 63.88 6.61 68.30 6.72 71.17 9.80 C 73.20 10.81 72.16 13.98 70.11 14.16 C 66.81 14.47 63.48 13.87 60.16 14.03 C 59.66 15.34 59.17 16.65 58.67 17.96 C 59.52 17.97 61.22 17.98 62.06 17.99 C 62.77 18.71 63.48 19.43 64.19 20.15 C 63.88 24.10 62.23 27.81 60.16 31.14 C 58.60 33.70 55.47 34.15 52.90 35.14 C 52.06 40.17 58.50 39.83 61.81 39.34 C 65.32 38.38 68.90 39.29 71.96 41.09 C 75.39 35.24 83.01 36.53 88.69 36.88 C 88.08 37.44 87.48 38.00 86.87 38.56 C 81.72 37.71 74.08 37.67 72.75 44.14 C 76.44 42.43 80.67 41.13 84.49 43.24 C 85.74 46.00 87.10 48.72 88.99 51.11 C 89.01 51.81 89.05 53.21 89.07 53.91 C 93.17 57.89 91.91 63.98 91.10 69.02 C 87.20 70.57 82.94 70.72 78.89 69.73 C 76.23 69.52 72.08 70.24 71.84 73.53 C 72.71 73.78 74.46 74.27 75.33 74.52 C 76.08 73.19 76.75 71.80 77.80 70.68 C 77.72 72.24 77.25 73.74 76.73 75.20 C 78.35 75.98 79.99 76.87 81.85 76.87 C 90.45 76.95 98.37 81.54 107.04 81.01 C 109.68 80.70 112.68 81.62 113.68 84.31 C 115.58 88.80 118.95 92.87 119.22 97.89 C 114.95 93.98 114.67 87.33 110.66 83.18 C 108.11 82.63 105.46 83.01 102.88 82.62 C 95.79 81.90 89.14 78.84 81.98 78.52 C 78.00 78.42 74.69 75.90 70.94 74.91 C 68.19 70.01 75.25 67.25 79.09 68.04 C 82.66 69.03 86.33 68.80 89.85 67.69 C 89.87 66.54 89.87 65.39 89.85 64.24 C 87.49 63.39 84.75 62.81 83.25 60.58 C 81.19 57.71 79.96 54.29 79.09 50.88 C 78.74 48.07 81.57 46.84 83.88 46.54 C 83.73 46.05 83.43 45.07 83.29 44.58 C 78.02 42.83 73.01 45.94 68.07 47.41 C 62.85 50.40 56.60 49.09 51.05 51.09 C 45.24 52.93 39.15 53.35 33.09 52.99 C 29.59 56.94 27.85 62.07 25.66 66.81 C 25.19 67.07 24.25 67.59 23.78 67.85 C 25.74 62.25 28.18 56.58 31.89 51.91 C 40.16 52.62 48.17 50.03 56.15 48.29 C 59.44 47.80 62.81 47.79 66.00 46.76 C 65.76 45.62 65.52 44.49 65.27 43.36 C 65.53 43.35 66.03 43.33 66.28 43.32 C 66.33 46.50 69.27 45.09 71.25 44.88 C 71.17 40.97 66.07 40.23 63.05 40.86 C 59.37 41.76 55.57 41.12 52.08 39.79 C 51.36 35.68 51.19 31.42 52.02 27.31 C 52.48 26.90 53.38 26.07 53.84 25.66 C 53.94 20.65 57.84 16.97 59.07 12.26 C 59.45 12.42 60.22 12.75 60.60 12.92 C 63.88 11.41 67.35 12.77 70.77 12.42 C 67.99 7.28 61.20 8.29 56.29 8.00 C 51.96 13.03 46.78 17.25 42.73 22.53 C 42.80 21.74 42.95 20.16 43.03 19.37 C 44.13 18.24 45.25 17.13 46.31 15.96 C 45.62 16.00 44.25 16.09 43.57 16.13 C 42.16 16.93 40.61 17.41 39.07 17.85 C 33.57 25.44 29.09 33.80 22.79 40.76 C 18.23 44.98 14.35 49.96 11.70 55.58 C 11.24 57.02 10.02 57.92 8.67 58.47 C 11.27 53.09 14.00 47.57 18.25 43.27 C 26.50 35.84 31.41 25.67 37.88 16.84 C 41.01 15.51 44.35 13.54 47.86 14.49 C 50.31 12.43 52.27 9.90 54.41 7.54 M 58.31 18.82 C 56.88 20.67 55.86 22.79 55.70 25.15 C 57.21 24.74 58.70 24.21 60.25 23.89 C 59.96 25.12 59.22 25.99 58.04 26.50 C 58.04 27.20 58.04 28.62 58.04 29.32 C 56.92 28.23 55.71 27.22 54.24 26.64 C 53.28 28.63 52.95 30.81 52.93 33.00 C 53.61 32.99 54.98 32.96 55.67 32.95 C 59.87 30.13 61.85 25.00 62.23 20.13 C 60.93 19.68 59.62 19.25 58.31 18.82 M 80.96 49.15 C 81.42 54.51 83.73 61.54 89.94 62.31 C 89.97 60.83 90.00 59.35 90.03 57.87 C 89.39 57.20 88.74 56.56 88.06 55.93 C 87.01 56.76 86.00 57.63 84.98 58.49 C 85.00 57.74 85.05 56.24 85.07 55.49 C 83.90 54.91 83.04 54.03 82.51 52.84 C 84.23 53.15 85.88 53.75 87.59 54.13 C 87.24 51.87 86.24 49.84 84.68 48.18 C 83.44 48.50 82.19 48.82 80.96 49.15 Z" />
<path fill="#5d5d5d" opacity="1.00" d=" M 88.46 40.07 C 88.96 39.52 89.47 38.97 89.97 38.41 C 91.45 40.73 93.27 42.80 95.30 44.64 C 99.67 44.39 105.01 45.60 107.31 49.71 C 112.44 57.46 117.13 65.63 123.68 72.31 C 128.87 77.07 132.99 83.16 135.41 89.75 C 132.37 88.32 131.43 84.89 129.71 82.28 C 126.66 76.81 121.41 73.15 117.71 68.18 C 113.36 62.49 109.57 56.40 105.68 50.40 C 103.90 47.31 99.91 47.00 96.89 45.79 C 98.68 47.68 100.38 49.70 101.17 52.23 C 98.73 52.34 98.26 49.61 96.67 48.34 C 93.78 45.74 91.27 42.76 88.46 40.07 Z" />
</g>
</svg>
