<?xml version="1.0" encoding="UTF-8" ?>
<!DOCTYPE svg PUBLIC "-//W3C//DTD SVG 1.1//EN" "http://www.w3.org/Graphics/SVG/1.1/DTD/svg11.dtd">
<svg width="150pt" height="100pt" viewBox="0 0 150 100" version="1.1" xmlns="http://www.w3.org/2000/svg">
<g id="#ffffffff">
<path fill="#ffffff" opacity="1.00" d=" M 0.00 0.00 L 150.00 0.00 L 150.00 100.00 L 0.00 100.00 L 0.00 0.00 M 76.13 6.93 C 76.09 13.66 76.07 20.39 76.04 27.12 C 81.93 21.65 87.41 15.76 93.15 10.14 C 93.07 13.39 93.07 16.65 93.17 19.91 C 92.53 19.93 91.25 19.97 90.61 20.00 C 91.58 23.10 92.52 26.21 93.52 29.31 C 95.28 26.38 96.37 23.14 97.49 19.93 C 96.87 19.95 95.63 19.97 95.01 19.98 C 95.00 15.36 95.00 10.73 94.99 6.11 C 89.08 11.49 83.58 17.31 77.97 23.01 C 78.06 17.66 78.01 12.32 78.00 6.98 C 77.54 6.97 76.60 6.94 76.13 6.93 M 57.13 9.08 C 54.56 11.30 52.54 14.08 49.98 16.33 C 46.46 15.85 42.95 17.30 39.94 18.94 C 35.71 24.70 32.02 30.85 27.80 36.63 C 23.85 42.63 17.40 46.54 13.99 52.97 C 12.75 55.70 9.93 58.03 10.25 61.23 C 13.53 58.63 14.76 54.49 17.21 51.24 C 20.00 47.07 24.26 44.22 27.29 40.26 C 31.81 34.40 35.81 28.15 39.85 21.96 C 41.57 18.94 45.43 18.82 48.37 17.73 C 46.49 19.60 44.62 21.67 44.59 24.50 C 47.06 22.70 48.58 19.92 50.95 17.99 C 53.82 15.60 55.73 11.99 59.09 10.24 C 63.99 9.78 69.75 9.96 73.20 14.03 C 69.24 14.71 65.19 13.71 61.22 14.59 C 59.54 18.64 56.66 22.06 55.50 26.34 C 52.76 30.33 53.37 35.45 54.05 39.96 C 56.20 42.84 60.77 42.27 63.98 42.06 C 67.07 41.12 70.16 41.92 72.97 43.28 C 72.97 43.86 72.98 45.00 72.98 45.57 C 72.07 45.86 70.25 46.43 69.34 46.72 C 69.07 45.95 68.54 44.41 68.28 43.64 C 67.43 44.92 67.69 46.44 67.88 47.87 C 63.67 48.99 59.23 48.65 55.05 49.90 C 49.14 51.45 43.14 52.98 36.97 52.71 C 34.78 52.39 32.69 53.65 31.75 55.61 C 29.73 59.41 27.76 63.26 26.19 67.27 C 26.34 67.88 26.65 69.08 26.81 69.69 C 29.27 65.12 31.01 60.17 33.73 55.75 C 34.93 54.05 37.21 54.53 38.97 54.41 C 47.53 54.68 55.45 50.64 63.95 50.37 C 66.46 50.32 68.64 48.97 70.93 48.11 C 74.13 46.85 77.53 46.17 80.68 44.76 C 82.26 45.01 83.85 45.27 85.43 45.54 C 85.57 46.01 85.85 46.96 85.99 47.43 C 84.00 47.86 81.39 48.64 81.26 51.10 C 81.74 54.59 83.15 57.97 84.97 60.98 C 86.48 63.49 89.44 64.26 92.00 65.21 C 91.95 66.38 91.90 67.54 91.84 68.71 C 88.95 69.26 85.98 70.04 83.07 69.22 C 79.69 68.25 75.87 69.07 73.22 71.37 C 71.97 72.57 72.77 74.38 72.86 75.85 C 74.93 76.51 77.00 77.22 78.97 78.13 C 82.36 79.90 86.32 79.25 89.93 80.20 C 95.88 81.66 101.80 83.62 108.00 83.55 C 109.96 83.75 112.70 83.14 113.87 85.22 C 116.33 89.41 118.17 93.94 120.27 98.32 C 120.57 98.16 121.19 97.83 121.49 97.66 C 120.52 93.68 118.32 90.13 116.58 86.45 C 115.57 84.25 113.88 81.69 111.10 82.00 C 104.32 82.27 97.74 80.45 91.27 78.68 C 87.21 77.46 82.68 78.38 78.92 76.14 C 79.43 74.63 79.90 73.09 80.11 71.50 C 79.17 72.76 78.36 74.12 77.57 75.48 C 76.25 74.86 74.01 75.04 73.95 73.10 C 75.58 71.42 77.93 70.97 80.08 70.33 C 84.35 71.81 88.91 71.43 93.17 70.12 C 93.88 67.11 94.18 64.01 94.01 60.93 C 94.12 58.34 92.05 56.45 91.42 54.06 C 90.63 50.28 87.68 47.50 86.65 43.81 C 84.50 43.51 82.36 43.18 80.22 42.80 C 78.45 43.72 76.62 44.51 74.72 45.13 C 75.76 42.78 77.16 39.99 80.04 39.64 C 83.10 39.12 86.41 38.59 89.42 39.57 C 92.40 42.26 94.63 45.74 97.77 48.31 C 99.84 49.85 100.70 52.77 103.32 53.52 C 102.83 50.76 101.07 48.63 98.99 46.88 C 101.53 47.51 104.09 48.22 106.42 49.43 C 111.05 55.61 114.72 62.49 119.53 68.55 C 122.77 73.23 127.65 76.49 130.71 81.31 C 132.67 84.08 133.93 87.32 136.16 89.90 C 136.60 89.91 137.47 89.91 137.91 89.91 C 135.24 85.65 133.09 81.02 129.81 77.17 C 127.39 74.27 124.35 71.95 122.04 68.95 C 117.62 63.27 113.71 57.22 109.89 51.13 C 107.78 46.66 102.15 45.18 97.60 45.58 C 94.05 43.23 92.53 37.79 87.81 37.51 C 82.95 37.34 76.82 37.06 74.11 42.01 C 71.31 40.57 68.18 39.15 64.98 40.12 C 61.89 40.98 58.73 40.30 55.66 39.79 C 55.57 39.05 55.41 37.57 55.33 36.83 C 57.04 34.86 60.31 35.08 61.87 32.83 C 64.07 29.61 65.88 25.84 66.17 21.91 C 66.16 19.30 63.12 18.96 61.24 18.32 C 63.58 13.46 70.01 17.89 73.60 15.43 C 76.32 12.76 71.82 10.19 69.63 9.24 C 65.56 8.48 61.16 7.84 57.13 9.08 Z" />
<path fill="#ffffff" opacity="1.00" d=" M 60.50 19.91 C 61.99 20.45 63.43 21.12 64.80 21.93 C 63.64 25.20 62.76 28.69 60.63 31.49 C 59.39 33.32 57.05 33.56 55.12 34.20 C 55.21 31.78 55.23 29.08 57.47 27.59 C 58.37 28.59 59.29 29.58 60.23 30.55 C 60.24 29.79 60.27 28.25 60.28 27.48 C 61.40 26.82 62.24 25.89 62.79 24.70 C 61.12 25.14 59.48 25.66 57.83 26.14 C 57.98 23.79 59.24 21.81 60.50 19.91 Z" />
<path fill="#ffffff" opacity="1.00" d=" M 82.85 50.27 C 84.21 49.84 85.57 49.42 86.94 49.02 C 88.31 50.82 89.52 52.78 89.87 55.06 C 88.07 54.62 86.28 54.13 84.46 53.79 C 85.29 54.84 86.23 55.79 87.28 56.62 C 87.21 57.31 87.08 58.68 87.02 59.37 C 88.19 58.52 89.31 57.58 90.58 56.88 C 92.47 58.47 91.87 61.06 92.11 63.23 C 85.82 62.41 83.97 55.50 82.85 50.27 Z" />
</g>
<g id="#636363ff">
<path fill="#636363" opacity="1.00" d=" M 76.13 6.93 C 76.60 6.94 77.54 6.97 78.00 6.98 C 78.01 12.32 78.06 17.66 77.97 23.01 C 83.58 17.31 89.08 11.49 94.99 6.11 C 95.00 10.73 95.00 15.36 95.01 19.98 C 95.63 19.97 96.87 19.95 97.49 19.93 C 96.37 23.14 95.28 26.38 93.52 29.31 C 92.52 26.21 91.58 23.10 90.61 20.00 C 91.25 19.97 92.53 19.93 93.17 19.91 C 93.07 16.65 93.07 13.39 93.15 10.14 C 87.41 15.76 81.93 21.65 76.04 27.12 C 76.07 20.39 76.09 13.66 76.13 6.93 Z" />
<path fill="#636363" opacity="1.00" d=" M 57.13 9.08 C 61.16 7.84 65.56 8.48 69.63 9.24 C 71.82 10.19 76.32 12.76 73.60 15.43 C 70.01 17.89 63.58 13.46 61.24 18.32 C 63.12 18.96 66.16 19.30 66.17 21.91 C 65.88 25.84 64.07 29.61 61.87 32.83 C 60.31 35.08 57.04 34.86 55.33 36.83 C 55.41 37.57 55.57 39.05 55.66 39.79 C 58.73 40.30 61.89 40.98 64.98 40.12 C 68.18 39.15 71.31 40.57 74.11 42.01 C 76.82 37.06 82.95 37.34 87.81 37.51 C 92.53 37.79 94.05 43.23 97.60 45.58 C 102.15 45.18 107.78 46.66 109.89 51.13 C 113.71 57.22 117.62 63.27 122.04 68.95 C 124.35 71.95 127.39 74.27 129.81 77.17 C 133.09 81.02 135.24 85.65 137.91 89.91 C 137.47 89.91 136.60 89.91 136.16 89.90 C 133.93 87.32 132.67 84.08 130.71 81.31 C 127.65 76.49 122.77 73.23 119.53 68.55 C 114.72 62.49 111.05 55.61 106.42 49.43 C 104.09 48.22 101.53 47.51 98.99 46.88 C 101.07 48.63 102.83 50.76 103.32 53.52 C 100.70 52.77 99.84 49.85 97.77 48.31 C 94.63 45.74 92.40 42.26 89.42 39.57 C 86.41 38.59 83.10 39.12 80.04 39.64 C 77.16 39.99 75.76 42.78 74.72 45.13 C 76.62 44.51 78.45 43.72 80.22 42.80 C 82.36 43.18 84.50 43.51 86.65 43.81 C 87.68 47.50 90.63 50.28 91.42 54.06 C 92.05 56.45 94.12 58.34 94.01 60.93 C 94.18 64.01 93.88 67.11 93.17 70.12 C 88.91 71.43 84.35 71.81 80.08 70.33 C 77.93 70.97 75.58 71.42 73.95 73.10 C 74.01 75.04 76.25 74.86 77.57 75.48 C 78.36 74.12 79.17 72.76 80.11 71.50 C 79.90 73.09 79.43 74.63 78.92 76.14 C 82.68 78.38 87.21 77.46 91.27 78.68 C 97.74 80.45 104.32 82.27 111.10 82.00 C 113.88 81.69 115.57 84.25 116.58 86.45 C 118.32 90.13 120.52 93.68 121.49 97.66 C 121.19 97.83 120.57 98.16 120.27 98.32 C 118.17 93.94 116.33 89.41 113.87 85.22 C 112.70 83.14 109.96 83.75 108.00 83.55 C 101.80 83.62 95.88 81.66 89.93 80.20 C 86.32 79.25 82.36 79.90 78.97 78.13 C 77.00 77.22 74.93 76.51 72.86 75.85 C 72.77 74.38 71.97 72.57 73.22 71.37 C 75.87 69.07 79.69 68.25 83.07 69.22 C 85.98 70.04 88.95 69.26 91.84 68.71 C 91.90 67.54 91.95 66.38 92.00 65.21 C 89.44 64.26 86.48 63.49 84.97 60.98 C 83.15 57.97 81.74 54.59 81.26 51.10 C 81.39 48.64 84.00 47.86 85.99 47.43 C 85.85 46.96 85.57 46.01 85.43 45.54 C 83.85 45.27 82.26 45.01 80.68 44.76 C 77.53 46.17 74.13 46.85 70.93 48.11 C 68.64 48.97 66.46 50.32 63.95 50.37 C 55.45 50.64 47.53 54.68 38.97 54.41 C 37.21 54.53 34.93 54.05 33.73 55.75 C 31.01 60.17 29.27 65.12 26.81 69.69 C 26.65 69.08 26.34 67.88 26.19 67.27 C 27.76 63.26 29.73 59.41 31.75 55.61 C 32.69 53.65 34.78 52.39 36.97 52.71 C 43.14 52.98 49.14 51.45 55.05 49.90 C 59.23 48.65 63.67 48.99 67.88 47.87 C 67.69 46.44 67.43 44.92 68.28 43.64 C 68.54 44.41 69.07 45.95 69.34 46.72 C 70.25 46.43 72.07 45.86 72.98 45.57 C 72.98 45.00 72.97 43.86 72.97 43.28 C 70.16 41.92 67.07 41.12 63.98 42.06 C 60.77 42.27 56.20 42.84 54.05 39.96 C 53.37 35.45 52.76 30.33 55.50 26.34 C 56.66 22.06 59.54 18.64 61.22 14.59 C 65.19 13.71 69.24 14.71 73.20 14.03 C 69.75 9.96 63.99 9.78 59.09 10.24 C 55.73 11.99 53.82 15.60 50.95 17.99 C 48.58 19.92 47.06 22.70 44.59 24.50 C 44.62 21.67 46.49 19.60 48.37 17.73 C 45.43 18.82 41.57 18.94 39.85 21.96 C 35.81 28.15 31.81 34.40 27.29 40.26 C 24.26 44.22 20.00 47.07 17.21 51.24 C 14.76 54.49 13.53 58.63 10.25 61.23 C 9.93 58.03 12.75 55.70 13.99 52.97 C 17.40 46.54 23.85 42.63 27.80 36.63 C 32.02 30.85 35.71 24.70 39.94 18.94 C 42.95 17.30 46.46 15.85 49.98 16.33 C 52.54 14.08 54.56 11.30 57.13 9.08 M 60.50 19.91 C 59.24 21.81 57.98 23.79 57.83 26.14 C 59.48 25.66 61.12 25.14 62.79 24.70 C 62.24 25.89 61.40 26.82 60.28 27.48 C 60.27 28.25 60.24 29.79 60.23 30.55 C 59.29 29.58 58.37 28.59 57.47 27.59 C 55.23 29.08 55.21 31.78 55.12 34.20 C 57.05 33.56 59.39 33.32 60.63 31.49 C 62.76 28.69 63.64 25.20 64.80 21.93 C 63.43 21.12 61.99 20.45 60.50 19.91 M 82.85 50.27 C 83.97 55.50 85.82 62.41 92.11 63.23 C 91.87 61.06 92.47 58.47 90.58 56.88 C 89.31 57.58 88.19 58.52 87.02 59.37 C 87.08 58.68 87.21 57.31 87.28 56.62 C 86.23 55.79 85.29 54.84 84.46 53.79 C 86.28 54.13 88.07 54.62 89.87 55.06 C 89.52 52.78 88.31 50.82 86.94 49.02 C 85.57 49.42 84.21 49.84 82.85 50.27 Z" />
</g>
</svg>
