<?xml version="1.0" encoding="UTF-8" ?>
<!DOCTYPE svg PUBLIC "-//W3C//DTD SVG 1.1//EN" "http://www.w3.org/Graphics/SVG/1.1/DTD/svg11.dtd">
<svg width="150pt" height="100pt" viewBox="0 0 150 100" version="1.1" xmlns="http://www.w3.org/2000/svg">
<g id="#ffffffff">
<path fill="#ffffff" opacity="1.00" d=" M 0.00 0.00 L 150.00 0.00 L 150.00 100.00 L 0.00 100.00 L 0.00 0.00 M 78.12 5.21 C 73.92 7.77 67.87 7.74 65.68 12.90 C 65.11 13.07 63.97 13.40 63.40 13.56 C 56.21 16.29 48.06 13.38 40.76 15.75 C 37.87 16.38 37.62 20.71 40.38 21.65 C 44.70 23.25 49.42 22.87 53.94 23.02 C 51.71 30.25 52.96 37.97 51.77 45.38 C 50.30 45.67 48.74 45.70 47.35 46.31 C 45.50 47.43 45.47 49.83 44.82 51.67 C 40.92 52.03 38.50 55.55 34.99 56.98 C 31.05 62.62 34.18 69.58 34.01 75.82 C 34.57 75.10 35.13 74.37 35.69 73.64 C 35.27 69.19 34.34 64.64 35.29 60.20 C 35.93 57.20 39.54 57.20 41.34 55.21 C 42.98 53.38 46.78 54.22 46.87 51.08 C 46.92 48.15 49.33 47.07 51.97 47.12 C 51.62 49.25 51.32 51.38 51.02 53.52 C 52.33 53.23 53.03 52.45 53.12 51.18 C 54.31 44.06 54.05 36.81 54.34 29.62 C 55.90 29.66 57.45 29.65 59.01 29.58 C 59.19 35.37 58.40 41.22 59.27 46.96 C 60.70 50.31 62.84 53.41 63.27 57.12 C 65.49 65.69 62.26 74.50 57.80 81.77 C 54.52 86.76 53.77 92.82 52.90 98.60 C 53.30 98.31 54.11 97.72 54.52 97.42 C 56.11 93.17 55.87 88.29 58.39 84.34 C 61.83 78.68 64.79 72.56 65.64 65.92 C 66.17 59.30 64.54 52.63 61.22 46.91 C 59.40 39.09 62.36 30.71 59.30 23.06 C 63.27 23.25 66.97 25.21 70.98 24.86 C 75.32 24.82 80.69 23.69 83.81 27.56 C 78.47 28.87 72.12 28.61 68.07 32.92 C 66.44 34.20 67.08 36.40 66.85 38.18 C 75.79 38.92 84.65 37.32 93.50 36.36 C 98.72 35.91 101.78 30.20 107.07 30.21 C 115.30 31.07 120.58 39.07 128.61 40.24 C 127.11 38.02 124.45 37.20 122.31 35.76 C 117.47 32.89 112.81 28.87 106.95 28.52 C 101.25 28.11 98.09 34.43 92.57 34.76 C 86.83 35.33 81.10 36.00 75.37 36.69 C 75.07 35.28 74.71 33.86 73.89 32.65 C 73.79 33.62 73.60 35.55 73.50 36.52 C 71.69 36.58 69.87 36.61 68.06 36.61 C 70.90 29.67 79.58 30.94 85.48 28.87 C 85.24 26.12 83.26 23.92 80.58 23.32 C 76.11 22.39 71.50 23.49 67.02 22.73 C 60.86 20.92 54.37 21.53 48.03 21.00 C 45.29 20.73 41.01 21.46 39.82 18.22 C 49.44 14.53 60.52 18.64 69.98 13.85 C 69.31 13.21 68.64 12.58 67.97 11.94 C 71.36 9.22 75.84 8.80 79.49 6.56 C 82.28 4.91 85.63 5.63 88.68 5.67 C 89.40 5.10 90.12 4.53 90.84 3.96 C 86.63 4.17 81.95 2.85 78.12 5.21 M 90.16 5.98 C 98.61 6.62 106.86 8.75 115.15 10.42 C 121.46 11.74 126.37 16.39 132.47 18.25 C 131.82 17.02 131.03 15.82 129.70 15.25 C 125.15 12.78 120.67 9.94 115.59 8.69 C 107.89 7.06 100.19 5.35 92.38 4.33 C 91.64 4.88 90.90 5.43 90.16 5.98 M 34.26 77.27 C 34.38 79.87 35.19 82.63 34.10 85.12 C 32.78 88.52 32.63 92.21 31.80 95.73 C 35.30 93.88 34.46 89.65 35.56 86.49 C 37.02 82.88 35.90 78.97 36.04 75.23 C 35.45 75.91 34.85 76.59 34.26 77.27 Z" />
<path fill="#ffffff" opacity="1.00" d=" M 54.81 28.17 C 54.19 26.14 55.25 23.69 57.53 23.58 C 58.05 25.22 58.58 26.87 59.09 28.52 C 57.64 28.58 56.22 28.47 54.81 28.17 Z" />
</g>
<g id="#626262ff">
<path fill="#626262" opacity="1.00" d=" M 78.12 5.21 C 81.95 2.85 86.63 4.17 90.84 3.96 C 90.12 4.53 89.40 5.10 88.68 5.67 C 85.63 5.63 82.28 4.91 79.49 6.56 C 75.84 8.80 71.36 9.22 67.97 11.94 C 68.64 12.58 69.31 13.21 69.98 13.85 C 60.52 18.64 49.44 14.53 39.82 18.22 C 41.01 21.46 45.29 20.73 48.03 21.00 C 54.37 21.53 60.86 20.92 67.02 22.73 C 71.50 23.49 76.11 22.39 80.58 23.32 C 83.26 23.92 85.24 26.12 85.48 28.87 C 79.58 30.94 70.90 29.67 68.06 36.61 C 69.87 36.61 71.69 36.58 73.50 36.52 C 73.60 35.55 73.79 33.62 73.89 32.65 C 74.71 33.86 75.07 35.28 75.37 36.69 C 81.10 36.00 86.83 35.33 92.57 34.76 C 98.09 34.43 101.25 28.11 106.95 28.52 C 112.81 28.87 117.47 32.89 122.31 35.76 C 124.45 37.20 127.11 38.02 128.61 40.24 C 120.58 39.07 115.30 31.07 107.07 30.21 C 101.78 30.20 98.72 35.91 93.50 36.36 C 84.65 37.32 75.79 38.92 66.85 38.18 C 67.08 36.40 66.44 34.20 68.07 32.92 C 72.12 28.61 78.47 28.87 83.81 27.56 C 80.69 23.69 75.32 24.82 70.98 24.86 C 66.97 25.21 63.27 23.25 59.30 23.06 C 62.36 30.71 59.40 39.09 61.22 46.91 C 64.54 52.63 66.17 59.30 65.64 65.92 C 64.79 72.56 61.83 78.68 58.39 84.34 C 55.87 88.29 56.11 93.17 54.52 97.42 C 54.11 97.72 53.30 98.31 52.90 98.60 C 53.77 92.82 54.52 86.76 57.80 81.77 C 62.26 74.50 65.49 65.69 63.27 57.12 C 62.84 53.41 60.70 50.31 59.27 46.96 C 58.40 41.22 59.19 35.37 59.01 29.58 C 57.45 29.65 55.90 29.66 54.34 29.62 C 54.05 36.81 54.31 44.06 53.12 51.18 C 53.03 52.45 52.33 53.23 51.02 53.52 C 51.32 51.38 51.62 49.25 51.97 47.12 C 49.33 47.07 46.92 48.15 46.87 51.08 C 46.78 54.22 42.98 53.38 41.34 55.21 C 39.54 57.20 35.93 57.20 35.29 60.20 C 34.34 64.64 35.27 69.19 35.69 73.64 C 35.13 74.37 34.57 75.10 34.01 75.82 C 34.18 69.58 31.05 62.62 34.99 56.98 C 38.50 55.55 40.92 52.03 44.82 51.67 C 45.47 49.83 45.50 47.43 47.35 46.31 C 48.74 45.70 50.30 45.67 51.77 45.38 C 52.96 37.97 51.71 30.25 53.94 23.02 C 49.42 22.87 44.70 23.25 40.38 21.65 C 37.62 20.71 37.87 16.38 40.76 15.75 C 48.06 13.38 56.21 16.29 63.40 13.56 C 63.97 13.40 65.11 13.07 65.68 12.90 C 67.87 7.74 73.92 7.77 78.12 5.21 M 54.81 28.17 C 56.22 28.47 57.64 28.58 59.09 28.52 C 58.58 26.87 58.05 25.22 57.53 23.58 C 55.25 23.69 54.19 26.14 54.81 28.17 Z" />
<path fill="#626262" opacity="1.00" d=" M 90.16 5.98 C 90.90 5.43 91.64 4.88 92.38 4.33 C 100.19 5.35 107.89 7.06 115.59 8.69 C 120.67 9.94 125.15 12.78 129.70 15.25 C 131.03 15.82 131.82 17.02 132.47 18.25 C 126.37 16.39 121.46 11.74 115.15 10.42 C 106.86 8.75 98.61 6.62 90.16 5.98 Z" />
<path fill="#626262" opacity="1.00" d=" M 34.26 77.27 C 34.85 76.59 35.45 75.91 36.04 75.23 C 35.90 78.97 37.02 82.88 35.56 86.49 C 34.46 89.65 35.30 93.88 31.80 95.73 C 32.63 92.21 32.78 88.52 34.10 85.12 C 35.19 82.63 34.38 79.87 34.26 77.27 Z" />
</g>
</svg>
