<?xml version="1.0" encoding="UTF-8" ?>
<!DOCTYPE svg PUBLIC "-//W3C//DTD SVG 1.1//EN" "http://www.w3.org/Graphics/SVG/1.1/DTD/svg11.dtd">
<svg width="100pt" height="100pt" viewBox="0 0 100 100" version="1.1" xmlns="http://www.w3.org/2000/svg">
<g id="#ffffffff">
<path fill="#ffffff" opacity="1.00" d=" M 0.00 0.00 L 100.00 0.00 L 100.00 100.00 L 0.00 100.00 L 0.00 0.00 M 60.43 8.29 C 57.86 10.01 57.64 13.35 56.88 16.07 C 55.37 23.31 52.21 30.04 50.12 37.10 C 49.54 34.35 48.87 31.61 48.10 28.90 C 46.15 22.06 46.43 14.64 43.19 8.18 C 40.95 8.40 38.12 8.66 37.48 11.28 C 35.60 20.45 38.91 29.67 38.77 38.86 C 36.64 45.66 34.82 52.73 35.63 59.93 C 35.73 65.73 37.83 71.25 38.11 77.00 C 38.48 81.20 35.21 84.28 33.99 88.03 C 35.26 87.78 36.29 86.98 36.93 85.86 C 39.59 82.27 40.69 77.50 39.61 73.14 C 37.62 64.75 36.05 55.87 38.31 47.36 C 39.04 43.58 41.06 39.96 40.49 36.02 C 39.90 28.98 38.67 21.99 38.81 14.91 C 40.49 14.85 42.18 14.83 43.85 14.66 C 44.47 23.58 47.41 32.04 48.92 40.80 C 50.11 39.70 51.57 38.68 52.00 37.02 C 54.53 29.22 57.94 21.65 59.18 13.49 C 60.85 13.91 62.49 14.52 64.24 14.58 C 63.57 17.59 63.15 20.65 62.61 23.68 C 61.38 29.16 58.98 34.28 57.55 39.70 C 59.96 40.31 63.49 39.31 64.76 42.06 C 66.25 44.84 68.85 46.68 70.89 49.00 C 70.81 56.84 69.46 65.18 64.64 71.62 C 62.94 74.21 60.44 76.26 59.16 79.11 C 58.07 83.22 57.01 87.42 57.12 91.70 C 60.95 88.20 58.67 81.87 61.91 77.94 C 64.30 74.98 66.86 72.10 68.56 68.65 C 71.52 63.23 71.87 56.93 72.95 50.97 C 73.14 46.66 68.24 44.88 66.52 41.39 C 65.37 38.64 62.40 38.27 59.79 38.02 C 61.89 32.12 64.34 26.26 65.09 20.00 C 65.39 16.47 67.20 12.81 65.80 9.33 C 64.90 7.31 62.06 7.08 60.43 8.29 Z" />
<path fill="#ffffff" opacity="1.00" d=" M 58.96 12.46 C 60.44 11.50 61.49 8.60 63.63 9.48 C 64.25 10.84 64.76 12.24 65.18 13.67 C 63.10 13.30 61.03 12.87 58.96 12.46 Z" />
<path fill="#ffffff" opacity="1.00" d=" M 38.47 13.44 C 39.48 12.27 39.59 9.51 41.66 10.01 C 42.53 11.21 43.14 12.58 43.86 13.87 C 42.05 13.82 40.26 13.67 38.47 13.44 Z" />
</g>
<g id="#676767ff">
<path fill="#676767" opacity="1.00" d=" M 60.43 8.29 C 62.06 7.08 64.90 7.31 65.80 9.33 C 67.20 12.81 65.39 16.47 65.09 20.00 C 64.34 26.26 61.89 32.12 59.79 38.02 C 62.40 38.27 65.37 38.64 66.52 41.39 C 68.24 44.88 73.14 46.66 72.95 50.97 C 71.87 56.93 71.52 63.23 68.56 68.65 C 66.86 72.10 64.30 74.98 61.91 77.94 C 58.67 81.87 60.95 88.20 57.12 91.70 C 57.01 87.42 58.07 83.22 59.16 79.11 C 60.44 76.26 62.94 74.21 64.64 71.62 C 69.46 65.18 70.81 56.84 70.89 49.00 C 68.85 46.68 66.25 44.84 64.76 42.06 C 63.49 39.31 59.96 40.31 57.55 39.70 C 58.98 34.28 61.38 29.16 62.61 23.68 C 63.15 20.65 63.57 17.59 64.24 14.58 C 62.49 14.52 60.85 13.91 59.18 13.49 C 57.94 21.65 54.53 29.22 52.00 37.02 C 51.57 38.68 50.11 39.70 48.92 40.80 C 47.41 32.04 44.47 23.58 43.85 14.66 C 42.18 14.83 40.49 14.85 38.81 14.91 C 38.67 21.99 39.90 28.98 40.49 36.02 C 41.06 39.96 39.04 43.58 38.31 47.36 C 36.05 55.87 37.62 64.75 39.61 73.14 C 40.69 77.50 39.59 82.27 36.93 85.86 C 36.29 86.98 35.26 87.78 33.99 88.03 C 35.21 84.28 38.48 81.20 38.11 77.00 C 37.83 71.25 35.73 65.73 35.63 59.93 C 34.82 52.73 36.64 45.66 38.77 38.86 C 38.91 29.67 35.60 20.45 37.48 11.28 C 38.12 8.66 40.95 8.40 43.19 8.18 C 46.43 14.64 46.15 22.06 48.10 28.90 C 48.87 31.61 49.54 34.35 50.12 37.10 C 52.21 30.04 55.37 23.31 56.88 16.07 C 57.64 13.35 57.86 10.01 60.43 8.29 M 58.96 12.46 C 61.03 12.87 63.10 13.30 65.18 13.67 C 64.76 12.24 64.25 10.84 63.63 9.48 C 61.49 8.60 60.44 11.50 58.96 12.46 M 38.47 13.44 C 40.26 13.67 42.05 13.82 43.86 13.87 C 43.14 12.58 42.53 11.21 41.66 10.01 C 39.59 9.51 39.48 12.27 38.47 13.44 Z" />
</g>
</svg>
