<?xml version="1.0" encoding="UTF-8" ?>
<!DOCTYPE svg PUBLIC "-//W3C//DTD SVG 1.1//EN" "http://www.w3.org/Graphics/SVG/1.1/DTD/svg11.dtd">
<svg width="150pt" height="100pt" viewBox="0 0 150 100" version="1.1" xmlns="http://www.w3.org/2000/svg">
<g id="#ffffffff">
<path fill="#ffffff" opacity="1.00" d=" M 0.00 0.00 L 150.00 0.00 L 150.00 100.00 L 0.00 100.00 L 0.00 0.00 M 102.10 33.07 C 101.79 33.30 101.16 33.76 100.84 34.00 C 99.29 35.46 97.79 36.97 96.32 38.51 C 96.08 36.57 96.78 34.21 95.43 32.57 C 94.60 31.14 92.47 31.34 91.45 32.42 C 89.01 34.62 86.31 36.65 84.56 39.48 C 82.27 43.16 79.22 46.32 77.24 50.21 C 75.96 42.71 74.53 35.17 71.91 28.01 C 70.09 26.87 67.59 27.57 66.70 29.54 C 63.77 34.87 67.17 40.92 65.76 46.56 C 58.07 38.37 49.58 30.76 39.77 25.19 C 37.32 23.73 34.73 25.28 33.83 27.71 C 32.07 27.24 30.20 26.48 28.36 27.06 C 26.85 28.02 26.81 29.90 26.38 31.44 C 23.58 33.97 25.26 37.52 26.93 40.16 C 23.28 44.31 28.03 48.29 30.77 51.23 C 35.71 55.94 37.78 62.68 42.16 67.81 C 44.37 70.40 46.93 72.67 49.55 74.83 L 49.58 75.00 C 51.45 76.20 53.31 77.42 55.20 78.57 C 52.70 79.92 49.76 80.85 48.10 83.34 C 52.01 82.79 55.27 80.47 58.58 78.51 C 64.89 74.57 71.13 70.51 77.06 66.01 C 77.94 61.55 77.81 56.98 78.59 52.51 C 79.08 49.56 81.12 47.30 82.88 45.01 C 84.76 42.62 86.27 39.95 88.14 37.54 C 89.62 37.75 91.10 37.83 92.60 37.78 C 91.90 37.50 90.52 36.93 89.83 36.65 C 91.03 35.32 92.22 33.99 93.44 32.69 C 94.06 34.01 95.07 35.36 94.51 36.90 C 93.95 41.10 89.51 43.30 88.76 47.40 C 92.21 45.02 94.71 41.57 98.00 38.98 C 102.41 34.76 107.32 31.10 112.44 27.78 C 113.37 28.88 114.46 29.83 115.63 30.68 C 112.81 32.55 110.22 34.72 107.51 36.73 C 105.42 38.34 103.13 39.99 102.33 42.66 C 108.61 38.80 113.94 33.53 120.31 29.75 C 121.23 30.86 122.16 31.96 123.10 33.06 C 118.07 38.16 111.64 41.61 106.78 46.89 C 109.00 47.20 110.65 45.62 112.25 44.35 C 115.93 41.31 119.84 38.53 123.30 35.22 C 124.14 36.46 125.21 37.50 126.70 37.91 C 124.28 40.11 121.97 42.42 119.63 44.70 C 116.95 47.33 113.58 49.27 111.47 52.46 C 116.46 50.99 120.00 46.80 123.53 43.21 C 124.31 44.03 125.10 44.85 125.89 45.66 C 116.66 53.69 113.26 66.29 103.97 74.24 C 97.55 79.89 88.16 79.99 81.80 85.73 C 79.53 87.82 76.08 89.25 75.49 92.60 C 80.63 89.85 84.30 84.81 89.94 82.93 C 96.25 80.75 102.76 78.34 107.51 73.43 C 112.85 67.56 116.61 60.51 120.85 53.86 C 123.53 49.58 129.21 46.95 129.34 41.38 C 128.84 40.98 127.84 40.17 127.34 39.77 C 129.22 37.06 131.56 33.19 128.18 30.61 C 128.15 29.88 128.10 28.42 128.07 27.69 C 126.11 25.57 123.42 25.83 120.95 26.86 C 119.90 24.52 117.73 22.87 115.12 24.18 C 110.56 26.77 106.10 29.65 102.10 33.07 M 10.60 53.51 C 10.17 53.04 9.31 52.10 8.87 51.63 C 7.35 54.65 5.89 57.70 4.61 60.83 C 7.55 59.54 10.45 58.15 13.38 56.80 C 12.88 56.07 12.37 55.33 11.87 54.60 C 14.31 52.42 16.68 50.16 18.99 47.85 C 18.99 55.91 18.49 63.95 18.41 72.00 C 23.29 67.64 27.84 62.92 32.76 58.61 C 32.57 58.19 32.18 57.36 31.99 56.95 C 27.97 60.67 24.02 64.46 20.01 68.19 C 20.41 60.12 20.41 52.03 20.86 43.96 C 17.33 47.02 13.98 50.28 10.60 53.51 M 128.24 49.86 C 128.49 57.96 128.65 66.07 128.97 74.17 C 125.11 70.46 121.21 66.80 117.37 63.08 C 117.02 63.30 116.33 63.76 115.98 63.99 C 120.73 68.77 125.65 73.37 130.55 78.00 C 130.49 69.94 130.02 61.89 130.03 53.84 C 132.40 56.17 134.77 58.51 137.17 60.81 C 136.76 61.30 135.93 62.27 135.52 62.75 C 138.42 64.18 141.34 65.58 144.32 66.86 C 143.06 63.81 141.63 60.83 140.28 57.82 C 139.63 58.41 138.99 59.01 138.34 59.61 C 135.00 56.34 131.71 52.99 128.24 49.86 Z" />
<path fill="#ffffff" opacity="1.00" d=" M 114.68 25.42 C 116.91 25.29 118.83 25.87 119.24 28.28 C 118.26 29.06 117.28 29.84 116.29 30.61 C 115.29 29.04 114.87 27.25 114.68 25.42 Z" />
<path fill="#ffffff" opacity="1.00" d=" M 36.06 26.43 C 40.42 26.36 43.45 29.99 47.01 31.96 C 53.03 36.64 58.91 41.61 63.99 47.31 C 60.98 49.92 59.70 54.58 62.64 57.76 C 62.97 55.60 62.53 53.31 63.25 51.22 C 65.12 48.71 68.33 46.65 68.05 43.12 C 67.95 38.28 65.09 31.91 70.29 28.69 C 72.73 35.67 74.09 42.93 75.70 50.13 C 76.51 54.89 76.37 59.86 75.43 64.58 C 73.86 66.67 71.43 67.86 69.35 69.37 C 65.23 72.01 61.38 75.12 56.96 77.25 C 48.36 73.25 41.69 65.74 37.54 57.30 C 35.01 52.12 30.06 48.79 27.06 43.95 C 27.30 43.40 27.77 42.28 28.00 41.73 C 33.42 45.04 36.71 51.67 43.12 53.31 C 38.56 47.78 32.22 43.92 27.90 38.15 C 27.03 36.59 25.12 34.16 27.70 33.16 C 34.44 38.08 40.08 44.71 47.60 48.48 C 46.45 45.68 43.78 44.10 41.56 42.26 C 37.11 38.90 32.93 35.22 28.72 31.57 C 27.17 30.56 29.38 27.26 31.02 28.73 C 36.26 31.30 40.79 35.12 45.40 38.66 C 47.74 40.36 49.67 42.84 52.65 43.44 C 48.44 37.50 41.84 33.82 36.01 29.66 C 36.02 28.85 36.05 27.24 36.06 26.43 Z" />
<path fill="#ffffff" opacity="1.00" d=" M 120.81 29.19 C 122.27 28.94 124.11 26.41 125.47 28.02 C 127.76 29.30 125.30 31.24 124.41 32.44 C 123.21 31.35 122.01 30.27 120.81 29.19 Z" />
<path fill="#ffffff" opacity="1.00" d=" M 123.66 34.40 C 125.10 33.78 126.42 32.47 128.09 32.76 C 128.26 34.14 128.03 35.46 127.40 36.72 C 125.76 36.99 124.88 35.14 123.66 34.40 Z" />
<path fill="#ffffff" opacity="1.00" d=" M 124.19 42.86 C 124.91 42.25 125.65 41.64 126.38 41.04 C 126.81 41.64 127.68 42.84 128.11 43.44 L 127.50 43.24 C 126.51 44.45 125.40 44.33 124.19 42.86 Z" />
</g>
<g id="#616161ff">
<path fill="#616161" opacity="1.00" d=" M 102.10 33.07 C 106.10 29.65 110.56 26.77 115.12 24.18 C 117.73 22.87 119.90 24.52 120.95 26.86 C 123.42 25.83 126.11 25.57 128.07 27.69 C 128.10 28.42 128.15 29.88 128.18 30.61 C 131.56 33.19 129.22 37.06 127.34 39.77 C 127.84 40.17 128.84 40.98 129.34 41.38 C 129.21 46.95 123.53 49.58 120.85 53.86 C 116.61 60.51 112.85 67.56 107.51 73.43 C 102.76 78.34 96.25 80.75 89.94 82.93 C 84.30 84.81 80.63 89.85 75.49 92.60 C 76.08 89.25 79.53 87.82 81.80 85.73 C 88.16 79.99 97.55 79.89 103.97 74.24 C 113.26 66.29 116.66 53.69 125.89 45.66 C 125.10 44.85 124.31 44.03 123.53 43.21 C 120.00 46.80 116.46 50.99 111.47 52.46 C 113.58 49.27 116.95 47.33 119.63 44.70 C 121.97 42.42 124.28 40.11 126.70 37.91 C 125.21 37.50 124.14 36.46 123.30 35.22 C 119.84 38.53 115.93 41.31 112.25 44.35 C 110.65 45.62 109.00 47.20 106.78 46.89 C 111.64 41.61 118.07 38.16 123.10 33.06 C 122.16 31.96 121.23 30.86 120.31 29.75 C 113.94 33.53 108.61 38.80 102.33 42.66 C 103.13 39.99 105.42 38.34 107.51 36.73 C 110.22 34.72 112.81 32.55 115.63 30.68 C 114.46 29.83 113.37 28.88 112.44 27.78 C 107.32 31.10 102.41 34.76 98.00 38.98 C 94.71 41.57 92.21 45.02 88.76 47.40 C 89.51 43.30 93.95 41.10 94.51 36.90 C 95.07 35.36 94.06 34.01 93.44 32.69 C 92.22 33.99 91.03 35.32 89.83 36.65 C 90.52 36.93 91.90 37.50 92.60 37.78 C 91.10 37.83 89.62 37.75 88.14 37.54 C 86.27 39.95 84.76 42.62 82.88 45.01 C 81.12 47.30 79.08 49.56 78.59 52.51 C 77.81 56.98 77.94 61.55 77.06 66.01 C 71.13 70.51 64.89 74.57 58.58 78.51 C 55.27 80.47 52.01 82.79 48.10 83.34 C 49.76 80.85 52.70 79.92 55.20 78.57 C 53.31 77.42 51.45 76.20 49.58 75.00 L 49.55 74.83 C 46.93 72.67 44.37 70.40 42.16 67.81 C 37.78 62.68 35.71 55.94 30.77 51.23 C 28.03 48.29 23.28 44.31 26.93 40.16 C 25.26 37.52 23.58 33.97 26.38 31.44 C 26.81 29.90 26.85 28.02 28.36 27.06 C 30.20 26.48 32.07 27.24 33.83 27.71 C 34.73 25.28 37.32 23.73 39.77 25.19 C 49.58 30.76 58.07 38.37 65.76 46.56 C 67.17 40.92 63.77 34.87 66.70 29.54 C 67.59 27.57 70.09 26.87 71.91 28.01 C 74.53 35.17 75.96 42.71 77.24 50.21 C 79.22 46.32 82.27 43.16 84.56 39.48 C 86.31 36.65 89.01 34.62 91.45 32.42 C 92.47 31.34 94.60 31.14 95.43 32.57 C 96.78 34.21 96.08 36.57 96.32 38.51 C 97.79 36.97 99.29 35.46 100.84 34.00 C 101.16 33.76 101.79 33.30 102.10 33.07 M 114.68 25.42 C 114.87 27.25 115.29 29.04 116.29 30.61 C 117.28 29.84 118.26 29.06 119.24 28.28 C 118.83 25.87 116.91 25.29 114.68 25.42 M 36.06 26.43 C 36.05 27.24 36.02 28.85 36.01 29.66 C 41.84 33.82 48.44 37.50 52.65 43.44 C 49.67 42.84 47.74 40.36 45.40 38.66 C 40.79 35.12 36.26 31.30 31.02 28.73 C 29.38 27.26 27.17 30.56 28.72 31.57 C 32.93 35.22 37.11 38.90 41.56 42.26 C 43.78 44.10 46.45 45.68 47.60 48.48 C 40.08 44.71 34.44 38.08 27.70 33.16 C 25.12 34.16 27.03 36.59 27.90 38.15 C 32.22 43.92 38.56 47.78 43.12 53.31 C 36.71 51.67 33.42 45.04 28.00 41.73 C 27.77 42.28 27.30 43.40 27.06 43.95 C 30.06 48.79 35.01 52.12 37.54 57.30 C 41.69 65.74 48.36 73.25 56.96 77.25 C 61.38 75.12 65.23 72.01 69.35 69.37 C 71.43 67.86 73.86 66.67 75.43 64.58 C 76.37 59.86 76.51 54.89 75.70 50.13 C 74.09 42.93 72.73 35.67 70.29 28.69 C 65.09 31.91 67.95 38.28 68.05 43.12 C 68.33 46.65 65.12 48.71 63.25 51.22 C 62.53 53.31 62.97 55.60 62.64 57.76 C 59.70 54.58 60.98 49.92 63.99 47.31 C 58.91 41.61 53.03 36.64 47.01 31.96 C 43.45 29.99 40.42 26.36 36.06 26.43 M 120.81 29.19 C 122.01 30.27 123.21 31.35 124.41 32.44 C 125.30 31.24 127.76 29.30 125.47 28.02 C 124.11 26.41 122.27 28.94 120.81 29.19 M 123.66 34.40 C 124.88 35.14 125.76 36.99 127.40 36.72 C 128.03 35.46 128.26 34.14 128.09 32.76 C 126.42 32.47 125.10 33.78 123.66 34.40 M 124.19 42.86 C 125.40 44.33 126.51 44.45 127.50 43.24 L 128.11 43.44 C 127.68 42.84 126.81 41.64 126.38 41.04 C 125.65 41.64 124.91 42.25 124.19 42.86 Z" />
<path fill="#616161" opacity="1.00" d=" M 10.60 53.51 C 13.98 50.28 17.33 47.02 20.86 43.96 C 20.41 52.03 20.41 60.12 20.01 68.19 C 24.02 64.46 27.97 60.67 31.99 56.95 C 32.18 57.36 32.57 58.19 32.76 58.61 C 27.84 62.92 23.29 67.64 18.41 72.00 C 18.49 63.95 18.99 55.91 18.99 47.85 C 16.68 50.16 14.31 52.42 11.87 54.60 C 12.37 55.33 12.88 56.07 13.38 56.80 C 10.45 58.15 7.55 59.54 4.61 60.83 C 5.89 57.70 7.35 54.65 8.87 51.63 C 9.31 52.10 10.17 53.04 10.60 53.51 Z" />
<path fill="#616161" opacity="1.00" d=" M 128.24 49.86 C 131.71 52.99 135.00 56.34 138.34 59.61 C 138.99 59.01 139.63 58.41 140.28 57.82 C 141.63 60.83 143.06 63.81 144.32 66.86 C 141.34 65.58 138.42 64.18 135.52 62.75 C 135.93 62.27 136.76 61.30 137.17 60.81 C 134.77 58.51 132.40 56.17 130.03 53.84 C 130.02 61.89 130.49 69.94 130.55 78.00 C 125.65 73.37 120.73 68.77 115.98 63.99 C 116.33 63.76 117.02 63.30 117.37 63.08 C 121.21 66.80 125.11 70.46 128.97 74.17 C 128.65 66.07 128.49 57.96 128.24 49.86 Z" />
</g>
</svg>
