<?xml version="1.0" encoding="UTF-8" ?>
<!DOCTYPE svg PUBLIC "-//W3C//DTD SVG 1.1//EN" "http://www.w3.org/Graphics/SVG/1.1/DTD/svg11.dtd">
<svg width="100pt" height="100pt" viewBox="0 0 100 100" version="1.1" xmlns="http://www.w3.org/2000/svg">
<g id="#ffffffff">
<path fill="#ffffff" opacity="1.00" d=" M 0.00 0.00 L 100.00 0.00 L 100.00 100.00 L 0.00 100.00 L 0.00 0.00 M 31.29 30.13 C 29.10 31.78 25.55 36.02 29.07 38.03 C 31.25 38.05 33.16 36.76 35.11 35.93 C 37.03 36.41 38.86 37.16 40.57 38.16 C 38.51 39.34 35.27 40.16 35.41 43.14 C 36.19 48.99 39.66 55.37 46.00 56.49 C 45.98 57.69 45.97 58.90 45.95 60.10 C 42.18 60.17 38.60 59.06 35.04 58.00 C 31.56 57.40 25.02 58.95 26.95 63.78 C 29.66 65.51 32.43 67.23 35.38 68.51 C 45.87 70.59 55.75 75.58 66.67 75.30 C 71.01 79.32 71.22 86.23 75.69 90.13 C 74.77 84.83 71.94 80.13 69.39 75.48 C 67.89 72.88 64.62 73.21 62.06 73.10 C 56.13 73.07 50.55 70.89 44.98 69.11 C 41.09 67.79 36.97 67.31 33.14 65.77 C 33.43 64.69 34.00 62.54 34.29 61.46 C 33.36 62.43 32.49 63.46 31.66 64.52 C 30.27 63.69 28.89 62.82 27.53 61.92 C 29.90 60.29 32.95 58.92 35.81 60.04 C 39.10 61.09 42.51 62.04 45.99 61.86 C 48.88 60.45 47.86 56.59 48.10 54.00 C 48.61 50.56 46.48 47.77 45.37 44.72 C 44.21 41.33 41.93 38.47 40.67 35.11 C 38.61 34.91 36.55 34.63 34.50 34.27 C 32.64 35.08 30.75 35.81 28.81 36.42 C 30.10 34.38 31.10 31.34 33.91 31.10 C 37.13 30.68 40.68 29.89 43.77 31.23 C 48.10 35.84 52.67 40.24 56.77 45.07 C 57.79 42.08 54.74 40.13 53.16 38.06 C 55.48 38.89 57.80 39.71 60.20 40.30 C 66.60 48.99 71.59 58.86 79.49 66.38 C 82.68 69.36 85.33 72.87 87.35 76.74 C 88.50 78.57 89.30 81.10 91.63 81.72 C 89.93 76.36 86.45 71.50 82.84 67.19 C 74.84 59.91 69.23 50.54 63.43 41.52 C 61.11 37.54 55.85 36.84 51.65 36.85 C 48.88 34.45 46.92 31.14 43.78 29.19 C 39.67 28.69 35.18 28.47 31.29 30.13 M 10.82 32.24 C 10.76 36.74 10.79 41.25 10.65 45.75 C 10.29 46.10 9.58 46.78 9.22 47.13 C 9.80 49.43 10.80 51.60 11.72 53.78 C 12.54 51.57 13.30 49.35 14.04 47.12 C 13.64 46.81 12.84 46.18 12.45 45.87 C 12.11 42.63 12.42 39.36 12.35 36.11 C 16.71 40.54 21.05 45.00 25.48 49.37 C 25.49 44.59 25.65 39.81 25.52 35.03 C 25.68 33.96 25.24 33.31 24.20 33.09 C 23.69 37.18 23.96 41.31 23.99 45.42 C 19.58 41.05 15.19 36.65 10.82 32.24 Z" />
<path fill="#ffffff" opacity="1.00" d=" M 37.02 43.07 C 37.49 41.19 39.63 40.98 41.10 40.25 C 42.49 42.10 43.54 44.19 43.77 46.52 C 42.13 45.96 40.46 45.40 38.71 45.36 C 40.10 46.88 41.86 48.30 41.55 50.63 C 42.47 49.79 43.38 48.95 44.31 48.13 C 44.71 48.46 45.51 49.12 45.91 49.45 C 46.05 51.20 46.19 52.95 46.28 54.71 C 40.65 53.76 38.29 47.95 37.02 43.07 Z" />
</g>
<g id="#666666ff">
<path fill="#666666" opacity="1.00" d=" M 31.29 30.13 C 35.18 28.47 39.67 28.69 43.78 29.19 C 46.92 31.14 48.88 34.45 51.65 36.85 C 55.85 36.84 61.11 37.54 63.43 41.52 C 69.23 50.54 74.84 59.91 82.84 67.19 C 86.45 71.50 89.93 76.36 91.63 81.72 C 89.30 81.10 88.50 78.57 87.35 76.74 C 85.33 72.87 82.68 69.36 79.49 66.38 C 71.59 58.86 66.60 48.99 60.20 40.30 C 57.80 39.71 55.48 38.89 53.16 38.06 C 54.74 40.13 57.79 42.08 56.77 45.07 C 52.67 40.24 48.10 35.84 43.77 31.23 C 40.68 29.89 37.13 30.68 33.91 31.10 C 31.10 31.34 30.10 34.38 28.81 36.42 C 30.75 35.81 32.64 35.08 34.50 34.27 C 36.55 34.63 38.61 34.91 40.67 35.11 C 41.93 38.47 44.21 41.33 45.37 44.72 C 46.48 47.77 48.61 50.56 48.10 54.00 C 47.86 56.59 48.88 60.45 45.99 61.86 C 42.51 62.04 39.10 61.09 35.81 60.04 C 32.95 58.92 29.90 60.29 27.53 61.92 C 28.89 62.82 30.27 63.69 31.66 64.52 C 32.49 63.46 33.36 62.43 34.29 61.46 C 34.00 62.54 33.43 64.69 33.14 65.77 C 36.97 67.31 41.09 67.79 44.98 69.11 C 50.55 70.89 56.13 73.07 62.06 73.10 C 64.62 73.21 67.89 72.88 69.39 75.48 C 71.94 80.13 74.77 84.83 75.69 90.13 C 71.22 86.23 71.01 79.32 66.67 75.30 C 55.75 75.58 45.87 70.59 35.38 68.51 C 32.43 67.23 29.66 65.51 26.95 63.78 C 25.02 58.95 31.56 57.40 35.04 58.00 C 38.60 59.06 42.18 60.17 45.95 60.10 C 45.97 58.90 45.98 57.69 46.00 56.49 C 39.66 55.37 36.19 48.99 35.41 43.14 C 35.27 40.16 38.51 39.34 40.57 38.16 C 38.86 37.16 37.03 36.41 35.11 35.93 C 33.16 36.76 31.25 38.05 29.07 38.03 C 25.55 36.02 29.10 31.78 31.29 30.13 M 37.02 43.07 C 38.29 47.95 40.65 53.76 46.28 54.71 C 46.19 52.95 46.05 51.20 45.91 49.45 C 45.51 49.12 44.71 48.46 44.31 48.13 C 43.38 48.95 42.47 49.79 41.55 50.63 C 41.86 48.30 40.10 46.88 38.71 45.36 C 40.46 45.40 42.13 45.96 43.77 46.52 C 43.54 44.19 42.49 42.10 41.10 40.25 C 39.63 40.98 37.49 41.19 37.02 43.07 Z" />
<path fill="#666666" opacity="1.00" d=" M 10.82 32.24 C 15.19 36.65 19.58 41.05 23.99 45.42 C 23.96 41.31 23.69 37.18 24.20 33.09 C 25.24 33.31 25.68 33.96 25.52 35.03 C 25.65 39.81 25.49 44.59 25.48 49.37 C 21.05 45.00 16.71 40.54 12.35 36.11 C 12.42 39.36 12.11 42.63 12.45 45.87 C 12.84 46.18 13.64 46.81 14.04 47.12 C 13.30 49.35 12.54 51.57 11.72 53.78 C 10.80 51.60 9.80 49.43 9.22 47.13 C 9.58 46.78 10.29 46.10 10.65 45.75 C 10.79 41.25 10.76 36.74 10.82 32.24 Z" />
</g>
</svg>
