<?xml version="1.0" encoding="UTF-8" ?>
<!DOCTYPE svg PUBLIC "-//W3C//DTD SVG 1.1//EN" "http://www.w3.org/Graphics/SVG/1.1/DTD/svg11.dtd">
<svg width="150pt" height="100pt" viewBox="0 0 150 100" version="1.1" xmlns="http://www.w3.org/2000/svg">
<g id="#ffffffff">
<path fill="#ffffff" opacity="1.00" d=" M 0.00 0.00 L 150.00 0.00 L 150.00 100.00 L 0.00 100.00 L 0.00 0.00 M 61.20 16.82 C 60.15 16.14 59.44 14.46 57.97 14.83 C 55.65 14.68 54.91 17.30 54.47 19.09 C 53.31 25.47 54.54 32.09 52.94 38.43 C 51.67 38.58 50.41 38.79 49.16 39.08 C 47.18 40.24 46.93 42.66 46.38 44.65 C 45.28 44.78 44.19 44.92 43.10 45.05 C 42.26 45.92 41.42 46.79 40.58 47.66 C 38.32 48.35 35.84 49.45 35.21 51.98 C 32.90 60.23 36.98 68.68 35.73 77.01 C 34.51 80.62 33.91 84.39 33.15 88.11 C 35.66 87.80 36.00 84.82 36.18 82.78 C 36.11 80.04 38.23 77.75 37.90 75.00 C 37.45 68.98 36.82 62.98 36.14 56.99 C 36.29 54.66 36.45 51.31 39.04 50.36 C 42.14 49.14 44.25 46.08 47.82 45.96 C 48.28 44.42 48.57 42.79 49.33 41.35 C 50.36 40.28 52.02 40.47 53.35 40.04 C 53.20 42.27 51.54 45.06 53.86 46.70 C 56.07 38.44 55.54 29.77 56.03 21.30 C 57.46 21.25 58.88 21.19 60.31 21.10 C 60.27 25.04 60.41 28.98 60.15 32.91 C 59.97 36.11 60.02 39.53 61.81 42.31 C 64.58 46.64 65.38 51.89 65.39 56.93 C 65.06 63.17 62.40 68.98 59.34 74.33 C 56.41 79.09 55.24 84.70 54.55 90.18 C 54.87 90.51 55.52 91.19 55.85 91.52 C 57.31 86.46 57.43 80.94 60.24 76.34 C 63.30 71.30 65.94 65.89 66.89 60.03 C 67.20 57.02 67.04 54.00 67.11 50.99 C 71.27 53.01 76.65 56.44 80.97 53.05 C 77.71 52.60 73.96 53.02 71.19 50.86 C 71.25 50.10 71.39 48.57 71.45 47.80 C 70.16 50.62 67.81 49.79 65.64 48.69 C 67.55 46.14 70.93 44.66 74.06 45.61 C 77.69 46.61 81.48 46.69 85.19 46.13 C 85.45 43.05 85.31 39.96 85.00 36.89 C 84.97 34.12 82.65 32.26 81.67 29.83 C 80.31 26.24 77.34 23.60 75.74 20.13 C 71.00 19.68 66.26 19.63 61.53 20.03 C 62.58 19.00 63.34 17.31 65.02 17.22 C 69.31 16.66 73.62 15.51 77.97 15.84 C 83.33 19.80 88.04 24.76 93.48 28.64 C 92.80 25.81 90.71 23.79 88.68 21.88 C 91.03 22.54 93.40 23.15 95.82 23.51 C 101.68 30.21 106.93 37.45 113.23 43.76 C 116.86 47.13 121.17 49.79 124.19 53.80 C 126.58 56.48 127.86 60.50 131.64 61.59 C 128.49 55.98 124.54 50.65 119.48 46.62 C 110.64 40.09 104.64 30.68 97.37 22.63 C 94.21 20.96 90.37 20.23 86.80 20.93 C 83.06 18.36 80.29 12.89 75.02 13.97 C 70.37 14.68 65.48 14.66 61.20 16.82 M 80.24 54.97 C 87.48 56.01 94.64 58.69 102.05 57.78 C 103.57 57.77 105.40 57.10 106.69 58.25 C 110.70 62.12 111.82 68.25 116.27 71.64 C 115.61 67.61 112.96 64.38 110.94 60.96 C 109.73 59.20 108.74 57.10 106.74 56.11 C 104.53 55.49 102.20 56.02 99.95 56.00 C 93.95 56.34 88.10 54.68 82.30 53.40 C 81.61 53.92 80.92 54.44 80.24 54.97 Z" />
<path fill="#ffffff" opacity="1.00" d=" M 55.88 19.90 C 56.59 18.54 57.31 17.18 58.04 15.83 C 58.79 17.18 59.54 18.53 60.26 19.89 C 58.80 19.90 57.34 19.90 55.88 19.90 Z" />
<path fill="#ffffff" opacity="1.00" d=" M 62.00 22.15 C 66.25 21.43 70.52 21.43 74.77 22.16 C 74.97 22.53 75.37 23.26 75.57 23.63 C 73.53 24.81 71.00 26.19 71.45 28.99 C 72.20 32.27 74.15 35.17 76.20 37.78 C 77.91 40.10 81.02 40.06 83.37 41.32 C 83.78 42.24 84.39 44.24 83.03 44.63 C 79.81 45.31 76.59 44.30 73.44 43.69 C 70.71 43.12 68.12 44.57 65.65 45.51 C 64.33 42.75 62.03 40.26 62.05 37.04 C 61.92 32.08 62.09 27.12 62.00 22.15 Z" />
<path fill="#ffffff" opacity="1.00" d=" M 73.96 26.21 C 74.75 26.08 76.31 25.83 77.10 25.70 C 78.43 27.36 79.55 29.17 80.31 31.16 C 78.64 30.88 76.96 30.57 75.30 30.23 C 76.75 31.77 77.80 33.63 78.44 35.64 C 79.34 34.59 80.26 33.58 81.26 32.64 C 82.76 34.55 83.26 36.94 83.51 39.31 C 77.89 38.88 74.85 33.58 73.19 28.82 C 73.38 27.93 73.64 27.06 73.96 26.21 Z" />
</g>
<g id="#656666ff">
<path fill="#656666" opacity="1.00" d=" M 61.20 16.82 C 65.48 14.66 70.37 14.68 75.02 13.97 C 80.29 12.89 83.06 18.36 86.80 20.93 C 90.37 20.23 94.21 20.96 97.37 22.63 C 104.64 30.68 110.64 40.09 119.48 46.62 C 124.54 50.65 128.49 55.98 131.64 61.59 C 127.86 60.50 126.58 56.48 124.19 53.80 C 121.17 49.79 116.86 47.13 113.23 43.76 C 106.93 37.45 101.68 30.21 95.82 23.51 C 93.40 23.15 91.03 22.54 88.68 21.88 C 90.71 23.79 92.80 25.81 93.48 28.64 C 88.04 24.76 83.33 19.80 77.97 15.84 C 73.62 15.51 69.31 16.66 65.02 17.22 C 63.34 17.31 62.58 19.00 61.53 20.03 C 66.26 19.63 71.00 19.68 75.74 20.13 C 77.34 23.60 80.31 26.24 81.67 29.83 C 82.65 32.26 84.97 34.12 85.00 36.89 C 85.31 39.96 85.45 43.05 85.19 46.13 C 81.48 46.69 77.69 46.61 74.06 45.61 C 70.93 44.66 67.55 46.14 65.64 48.69 C 67.81 49.79 70.16 50.62 71.45 47.80 C 71.39 48.57 71.25 50.10 71.19 50.86 C 73.96 53.02 77.71 52.60 80.97 53.05 C 76.65 56.44 71.27 53.01 67.11 50.99 C 67.04 54.00 67.20 57.02 66.89 60.03 C 65.94 65.89 63.30 71.30 60.24 76.34 C 57.43 80.94 57.31 86.46 55.85 91.52 C 55.52 91.19 54.87 90.51 54.55 90.18 C 55.24 84.70 56.41 79.09 59.34 74.33 C 62.40 68.98 65.06 63.17 65.39 56.93 C 65.38 51.89 64.58 46.64 61.81 42.31 C 60.02 39.53 59.97 36.11 60.15 32.91 C 60.41 28.98 60.27 25.04 60.31 21.10 C 58.88 21.19 57.46 21.25 56.03 21.30 C 55.54 29.77 56.07 38.44 53.86 46.70 C 51.54 45.06 53.20 42.27 53.35 40.04 C 52.02 40.47 50.36 40.28 49.33 41.35 C 48.57 42.79 48.28 44.42 47.82 45.96 C 44.25 46.08 42.14 49.14 39.04 50.36 C 36.45 51.31 36.29 54.66 36.14 56.99 C 36.82 62.98 37.45 68.98 37.90 75.00 C 38.23 77.75 36.11 80.04 36.18 82.78 C 36.00 84.82 35.66 87.80 33.15 88.11 C 33.91 84.39 34.51 80.62 35.73 77.01 C 36.98 68.68 32.90 60.23 35.21 51.98 C 35.84 49.45 38.32 48.35 40.58 47.66 C 41.42 46.79 42.26 45.92 43.10 45.05 C 44.19 44.92 45.28 44.78 46.38 44.65 C 46.93 42.66 47.18 40.24 49.16 39.08 C 50.41 38.79 51.67 38.58 52.94 38.43 C 54.54 32.09 53.31 25.47 54.47 19.09 C 54.91 17.30 55.65 14.68 57.97 14.83 C 59.44 14.46 60.15 16.14 61.20 16.82 M 55.88 19.90 C 57.34 19.90 58.80 19.90 60.26 19.89 C 59.54 18.53 58.79 17.18 58.04 15.83 C 57.31 17.18 56.59 18.54 55.88 19.90 M 62.00 22.15 C 62.09 27.12 61.92 32.08 62.05 37.04 C 62.03 40.26 64.33 42.75 65.65 45.51 C 68.12 44.57 70.71 43.12 73.44 43.69 C 76.59 44.30 79.81 45.31 83.03 44.63 C 84.39 44.24 83.78 42.24 83.37 41.32 C 81.02 40.06 77.91 40.10 76.20 37.78 C 74.15 35.17 72.20 32.27 71.45 28.99 C 71.00 26.19 73.53 24.81 75.57 23.63 C 75.37 23.26 74.97 22.53 74.77 22.16 C 70.52 21.43 66.25 21.43 62.00 22.15 M 73.96 26.21 C 73.64 27.06 73.38 27.93 73.19 28.82 C 74.85 33.58 77.89 38.88 83.51 39.31 C 83.26 36.94 82.76 34.55 81.26 32.64 C 80.26 33.58 79.34 34.59 78.44 35.64 C 77.80 33.63 76.75 31.77 75.30 30.23 C 76.96 30.57 78.64 30.88 80.31 31.16 C 79.55 29.17 78.43 27.36 77.10 25.70 C 76.31 25.83 74.75 26.08 73.96 26.21 Z" />
<path fill="#656666" opacity="1.00" d=" M 80.24 54.97 C 80.92 54.44 81.61 53.92 82.30 53.40 C 88.10 54.68 93.95 56.34 99.95 56.00 C 102.20 56.02 104.53 55.49 106.74 56.11 C 108.74 57.10 109.73 59.20 110.94 60.96 C 112.96 64.38 115.61 67.61 116.27 71.64 C 111.82 68.25 110.70 62.12 106.69 58.25 C 105.40 57.10 103.57 57.77 102.05 57.78 C 94.64 58.69 87.48 56.01 80.24 54.97 Z" />
</g>
</svg>
