<?xml version="1.0" encoding="UTF-8" ?>
<!DOCTYPE svg PUBLIC "-//W3C//DTD SVG 1.1//EN" "http://www.w3.org/Graphics/SVG/1.1/DTD/svg11.dtd">
<svg width="100pt" height="100pt" viewBox="0 0 100 100" version="1.1" xmlns="http://www.w3.org/2000/svg">
<g id="#ffffffff">
<path fill="#ffffff" opacity="1.00" d=" M 0.00 0.00 L 100.00 0.00 L 100.00 100.00 L 0.00 100.00 L 0.00 0.00 M 30.57 13.32 C 28.90 13.91 26.40 13.60 25.66 15.57 C 24.56 17.98 24.72 20.70 24.43 23.28 C 23.28 24.16 22.08 24.99 21.00 25.96 C 20.92 28.23 22.77 29.78 24.14 31.32 C 24.04 32.87 23.94 34.43 23.84 35.98 C 21.88 36.57 19.40 36.32 18.05 38.12 C 17.19 39.82 17.08 41.75 16.78 43.60 C 12.82 44.32 9.45 46.92 6.43 49.39 C 3.01 55.72 6.30 63.05 6.01 69.78 C 6.59 69.07 7.18 68.37 7.76 67.66 C 7.61 62.08 5.35 56.04 7.81 50.73 C 10.83 48.21 14.49 46.45 18.16 45.03 C 19.13 43.51 18.94 41.59 19.24 39.88 C 19.51 39.46 20.06 38.61 20.33 38.19 C 21.55 38.17 22.77 38.14 23.99 38.11 C 23.58 40.68 23.16 43.25 22.92 45.84 C 23.39 45.37 24.33 44.44 24.80 43.97 C 26.62 35.45 25.75 26.70 26.41 18.08 C 26.54 18.28 26.79 18.67 26.91 18.87 C 26.59 21.61 29.19 21.37 31.00 20.57 C 31.55 27.88 29.01 35.95 32.85 42.66 C 30.07 43.53 25.65 45.01 27.11 48.82 C 29.80 50.80 33.11 51.68 36.03 53.27 C 36.27 60.57 33.36 67.53 29.64 73.66 C 26.34 78.79 25.40 85.00 24.84 90.95 C 27.36 88.69 27.32 85.15 28.09 82.10 C 28.89 76.99 32.55 73.08 34.49 68.42 C 36.63 63.66 37.74 58.50 37.97 53.30 C 46.73 53.97 55.19 57.61 64.08 56.66 C 65.86 56.69 68.17 55.78 69.48 57.47 C 72.89 61.68 74.92 66.83 78.47 70.93 C 78.37 66.60 75.35 63.30 73.28 59.76 C 71.82 57.53 70.28 54.36 67.09 54.75 C 61.47 55.12 55.78 55.13 50.29 53.65 C 45.08 52.19 39.67 51.89 34.37 50.94 C 34.67 49.45 34.98 47.96 35.30 46.47 C 34.33 47.46 33.47 48.57 32.44 49.50 C 30.79 48.96 29.30 48.07 27.82 47.19 C 30.16 45.65 32.91 43.86 35.85 44.67 C 39.64 45.52 43.53 45.68 47.38 45.28 C 48.89 39.27 45.73 33.64 44.30 27.99 C 44.27 24.34 42.88 21.00 41.49 17.70 C 36.83 17.81 32.13 18.12 27.50 17.48 C 30.25 14.72 34.27 14.54 37.87 13.84 C 40.46 13.62 44.07 12.41 45.89 14.90 C 48.50 19.52 51.78 23.68 55.02 27.86 C 55.09 26.99 55.22 25.25 55.29 24.38 C 62.26 29.43 67.76 36.09 73.99 41.94 C 77.96 45.76 83.18 48.00 86.92 52.09 C 89.96 55.08 91.94 59.34 96.09 61.03 C 92.75 55.29 88.14 50.21 82.80 46.27 C 73.30 40.67 67.15 31.11 58.40 24.57 C 56.30 22.90 53.10 22.85 51.55 20.49 C 49.45 17.84 48.34 14.41 45.72 12.20 C 40.72 10.79 35.55 12.61 30.57 13.32 M 6.33 71.26 C 6.59 76.96 4.03 82.31 3.73 87.99 C 4.97 86.55 5.86 84.87 6.71 83.19 C 7.02 78.49 8.85 74.01 8.07 69.21 C 7.49 69.89 6.91 70.57 6.33 71.26 Z" />
<path fill="#ffffff" opacity="1.00" d=" M 32.57 19.69 C 35.07 19.55 37.58 19.53 40.09 19.53 C 40.35 20.11 40.89 21.26 41.15 21.84 C 38.29 21.95 35.42 22.14 32.58 22.50 C 32.57 21.80 32.57 20.39 32.57 19.69 Z" />
<path fill="#ffffff" opacity="1.00" d=" M 32.57 24.24 C 35.77 23.99 38.98 23.88 42.18 24.11 C 42.28 25.75 42.38 27.40 42.50 29.04 C 39.24 28.55 35.96 28.28 32.67 28.19 C 32.64 27.21 32.60 25.23 32.57 24.24 Z" />
<path fill="#ffffff" opacity="1.00" d=" M 32.47 29.99 C 36.28 29.83 40.06 30.38 43.69 31.50 C 41.96 33.30 39.72 34.75 38.61 37.05 C 38.32 39.32 38.87 41.58 39.07 43.83 C 37.55 43.08 35.70 42.82 34.48 41.59 C 31.90 38.31 32.56 33.88 32.47 29.99 Z" />
<path fill="#ffffff" opacity="1.00" d=" M 40.32 37.55 C 41.41 36.02 42.88 34.81 44.22 33.49 C 44.66 35.14 45.16 36.78 45.69 38.41 C 44.71 38.30 42.76 38.09 41.79 37.98 C 42.85 39.37 44.37 40.13 46.01 40.61 C 45.96 41.64 45.91 42.66 45.86 43.68 C 44.30 43.75 42.73 43.81 41.17 43.87 C 40.81 41.78 40.07 39.69 40.32 37.55 Z" />
</g>
<g id="#686869ff">
<path fill="#686869" opacity="1.00" d=" M 30.57 13.32 C 35.55 12.61 40.72 10.79 45.72 12.20 C 48.34 14.41 49.45 17.84 51.55 20.49 C 53.10 22.85 56.30 22.90 58.40 24.57 C 67.15 31.11 73.30 40.67 82.80 46.27 C 88.14 50.21 92.75 55.29 96.09 61.03 C 91.94 59.34 89.96 55.08 86.92 52.09 C 83.18 48.00 77.96 45.76 73.99 41.94 C 67.76 36.09 62.26 29.43 55.29 24.38 C 55.22 25.25 55.09 26.99 55.02 27.86 C 51.78 23.68 48.50 19.52 45.89 14.90 C 44.07 12.41 40.46 13.62 37.87 13.84 C 34.27 14.54 30.25 14.72 27.50 17.48 C 32.13 18.12 36.83 17.81 41.49 17.70 C 42.88 21.00 44.27 24.34 44.30 27.99 C 45.73 33.64 48.89 39.27 47.38 45.28 C 43.53 45.68 39.64 45.52 35.85 44.67 C 32.91 43.86 30.16 45.65 27.82 47.19 C 29.30 48.07 30.79 48.96 32.44 49.50 C 33.47 48.57 34.33 47.46 35.30 46.47 C 34.98 47.96 34.67 49.45 34.37 50.94 C 39.67 51.89 45.08 52.19 50.29 53.65 C 55.78 55.13 61.47 55.12 67.09 54.75 C 70.28 54.36 71.82 57.53 73.28 59.76 C 75.35 63.30 78.37 66.60 78.47 70.93 C 74.92 66.83 72.89 61.68 69.48 57.47 C 68.17 55.78 65.86 56.69 64.08 56.66 C 55.19 57.61 46.73 53.97 37.97 53.30 C 37.74 58.50 36.63 63.66 34.49 68.42 C 32.55 73.08 28.89 76.99 28.09 82.10 C 27.32 85.15 27.36 88.69 24.84 90.95 C 25.40 85.00 26.34 78.79 29.64 73.66 C 33.36 67.53 36.27 60.57 36.03 53.27 C 33.11 51.68 29.80 50.80 27.11 48.82 C 25.65 45.01 30.07 43.53 32.85 42.66 C 29.01 35.95 31.55 27.88 31.00 20.57 C 29.19 21.37 26.59 21.61 26.91 18.87 C 26.79 18.67 26.54 18.28 26.41 18.08 C 25.75 26.70 26.62 35.45 24.80 43.97 C 24.33 44.44 23.39 45.37 22.92 45.84 C 23.16 43.25 23.58 40.68 23.99 38.11 C 22.77 38.14 21.55 38.17 20.33 38.19 C 20.06 38.61 19.51 39.46 19.24 39.88 C 18.94 41.59 19.13 43.51 18.16 45.03 C 14.49 46.45 10.83 48.21 7.81 50.73 C 5.35 56.04 7.61 62.08 7.76 67.66 C 7.18 68.37 6.59 69.07 6.01 69.78 C 6.30 63.05 3.01 55.72 6.43 49.39 C 9.45 46.92 12.82 44.32 16.78 43.60 C 17.08 41.75 17.19 39.82 18.05 38.12 C 19.40 36.32 21.88 36.57 23.84 35.98 C 23.94 34.43 24.04 32.87 24.14 31.32 C 22.77 29.78 20.92 28.23 21.00 25.96 C 22.08 24.99 23.28 24.16 24.43 23.28 C 24.72 20.70 24.56 17.98 25.66 15.57 C 26.40 13.60 28.90 13.91 30.57 13.32 M 32.57 19.69 C 32.57 20.39 32.57 21.80 32.58 22.50 C 35.42 22.14 38.29 21.95 41.15 21.84 C 40.89 21.26 40.35 20.11 40.09 19.53 C 37.58 19.53 35.07 19.55 32.57 19.69 M 32.57 24.24 C 32.60 25.23 32.64 27.21 32.67 28.19 C 35.96 28.28 39.24 28.55 42.50 29.04 C 42.38 27.40 42.28 25.75 42.18 24.11 C 38.98 23.88 35.77 23.99 32.57 24.24 M 32.47 29.99 C 32.56 33.88 31.90 38.31 34.48 41.59 C 35.70 42.82 37.55 43.08 39.07 43.83 C 38.87 41.58 38.32 39.32 38.61 37.05 C 39.72 34.75 41.96 33.30 43.69 31.50 C 40.06 30.38 36.28 29.83 32.47 29.99 M 40.32 37.55 C 40.07 39.69 40.81 41.78 41.17 43.87 C 42.73 43.81 44.30 43.75 45.86 43.68 C 45.91 42.66 45.96 41.64 46.01 40.61 C 44.37 40.13 42.85 39.37 41.79 37.98 C 42.76 38.09 44.71 38.30 45.69 38.41 C 45.16 36.78 44.66 35.14 44.22 33.49 C 42.88 34.81 41.41 36.02 40.32 37.55 Z" />
<path fill="#686869" opacity="1.00" d=" M 6.33 71.26 C 6.91 70.57 7.49 69.89 8.07 69.21 C 8.85 74.01 7.02 78.49 6.71 83.19 C 5.86 84.87 4.97 86.55 3.73 87.99 C 4.03 82.31 6.59 76.96 6.33 71.26 Z" />
</g>
</svg>
