<?xml version="1.0" encoding="UTF-8" ?>
<!DOCTYPE svg PUBLIC "-//W3C//DTD SVG 1.1//EN" "http://www.w3.org/Graphics/SVG/1.1/DTD/svg11.dtd">
<svg width="100pt" height="100pt" viewBox="0 0 100 100" version="1.1" xmlns="http://www.w3.org/2000/svg">
<g id="#ffffffff">
<path fill="#ffffff" opacity="1.00" d=" M 0.00 0.00 L 100.00 0.00 L 100.00 100.00 L 0.00 100.00 L 0.00 0.00 M 48.85 21.02 C 48.35 27.34 48.67 33.74 47.42 39.99 C 46.52 39.96 44.71 39.90 43.81 39.87 C 42.67 41.51 41.59 43.18 40.54 44.87 C 38.33 45.53 36.37 46.75 34.75 48.38 C 30.25 49.19 28.73 53.99 28.99 58.01 C 29.44 64.35 30.69 70.68 30.52 77.04 C 29.22 81.03 28.37 85.14 27.97 89.32 C 29.18 88.06 30.40 86.67 30.65 84.87 C 31.29 80.92 32.82 77.03 32.23 72.98 C 32.06 66.96 30.49 61.01 31.05 54.97 C 31.23 50.46 36.81 50.37 38.96 47.08 C 39.72 47.07 41.25 47.05 42.02 47.04 C 43.02 44.40 43.98 41.25 47.41 41.26 C 47.30 43.05 47.24 44.84 47.21 46.64 C 49.64 44.50 49.43 41.02 49.86 38.08 C 50.05 32.59 50.36 27.09 50.40 21.59 C 51.94 21.60 53.47 21.60 55.00 21.58 C 55.01 26.71 54.85 31.84 54.89 36.98 C 54.89 41.11 57.36 44.85 56.93 49.04 C 56.88 53.43 56.39 58.79 60.14 61.93 C 63.66 64.66 68.12 62.41 72.04 62.27 C 75.96 62.50 79.04 65.51 80.40 69.04 C 78.33 68.85 76.27 68.60 74.21 68.32 C 74.36 66.88 74.50 65.45 74.62 64.01 C 73.85 65.29 73.15 66.62 72.44 67.93 C 65.93 69.94 59.88 73.21 53.15 74.53 C 50.88 79.40 49.70 84.70 48.97 90.01 C 49.39 90.15 50.23 90.43 50.65 90.57 C 51.58 86.30 51.90 81.81 53.79 77.82 C 55.09 75.08 58.47 75.09 60.96 74.18 C 65.64 72.91 69.92 69.36 75.00 70.22 C 77.10 70.30 79.42 71.49 81.34 70.21 C 82.72 65.53 78.00 61.85 73.97 60.82 C 69.84 59.52 65.42 62.94 61.46 60.73 C 57.98 57.98 58.77 52.95 58.68 49.03 C 59.06 44.21 56.41 39.80 56.57 35.00 C 56.66 28.52 57.68 21.68 54.90 15.57 C 53.58 15.49 52.25 15.49 50.93 15.56 C 49.56 17.04 48.98 19.05 48.85 21.02 Z" />
<path fill="#ffffff" opacity="1.00" d=" M 50.35 19.99 C 51.19 19.02 51.48 17.29 52.87 16.92 C 53.67 18.09 54.40 19.30 55.09 20.54 C 53.90 20.40 51.53 20.13 50.35 19.99 Z" />
</g>
<g id="#676768ff">
<path fill="#676768" opacity="1.00" d=" M 48.85 21.02 C 48.98 19.05 49.56 17.04 50.93 15.56 C 52.25 15.49 53.58 15.49 54.90 15.57 C 57.68 21.68 56.66 28.52 56.57 35.00 C 56.41 39.80 59.06 44.21 58.68 49.03 C 58.77 52.95 57.98 57.98 61.46 60.73 C 65.42 62.94 69.84 59.52 73.97 60.82 C 78.00 61.85 82.72 65.53 81.34 70.21 C 79.42 71.49 77.10 70.30 75.00 70.22 C 69.92 69.36 65.64 72.91 60.96 74.18 C 58.47 75.09 55.09 75.08 53.79 77.82 C 51.90 81.81 51.58 86.30 50.65 90.57 C 50.23 90.43 49.39 90.15 48.97 90.01 C 49.70 84.70 50.88 79.40 53.15 74.53 C 59.88 73.21 65.93 69.94 72.44 67.93 C 73.15 66.62 73.85 65.29 74.62 64.01 C 74.50 65.45 74.36 66.88 74.21 68.32 C 76.27 68.60 78.33 68.85 80.40 69.04 C 79.04 65.51 75.96 62.50 72.04 62.27 C 68.12 62.41 63.66 64.66 60.14 61.93 C 56.39 58.79 56.88 53.43 56.93 49.04 C 57.36 44.85 54.89 41.11 54.89 36.98 C 54.85 31.84 55.01 26.71 55.00 21.58 C 53.47 21.60 51.94 21.60 50.40 21.59 C 50.36 27.09 50.05 32.59 49.86 38.08 C 49.43 41.02 49.64 44.50 47.21 46.64 C 47.24 44.84 47.30 43.05 47.41 41.26 C 43.98 41.25 43.02 44.40 42.02 47.04 C 41.25 47.05 39.72 47.07 38.96 47.08 C 36.81 50.37 31.23 50.46 31.05 54.97 C 30.49 61.01 32.06 66.96 32.23 72.98 C 32.82 77.03 31.29 80.92 30.65 84.87 C 30.40 86.67 29.18 88.06 27.97 89.32 C 28.37 85.14 29.22 81.03 30.52 77.04 C 30.69 70.68 29.44 64.35 28.99 58.01 C 28.73 53.99 30.25 49.19 34.75 48.38 C 36.37 46.75 38.33 45.53 40.54 44.87 C 41.59 43.18 42.67 41.51 43.81 39.87 C 44.71 39.90 46.52 39.96 47.42 39.99 C 48.67 33.74 48.35 27.34 48.85 21.02 M 50.35 19.99 C 51.53 20.13 53.90 20.40 55.09 20.54 C 54.40 19.30 53.67 18.09 52.87 16.92 C 51.48 17.29 51.19 19.02 50.35 19.99 Z" />
</g>
</svg>
