<?xml version="1.0" encoding="UTF-8" ?>
<!DOCTYPE svg PUBLIC "-//W3C//DTD SVG 1.1//EN" "http://www.w3.org/Graphics/SVG/1.1/DTD/svg11.dtd">
<svg width="150pt" height="100pt" viewBox="0 0 150 100" version="1.1" xmlns="http://www.w3.org/2000/svg">
<g id="#ffffffff">
<path fill="#ffffff" opacity="1.00" d=" M 0.00 0.00 L 150.00 0.00 L 150.00 100.00 L 0.00 100.00 L 0.00 0.00 M 40.47 18.07 C 40.35 28.32 40.74 38.99 36.71 48.65 C 35.39 51.40 35.34 54.47 35.48 57.45 C 30.73 61.84 25.40 65.49 20.01 69.01 C 20.96 69.09 22.01 69.59 22.93 69.05 C 28.25 66.42 32.34 62.00 37.18 58.66 C 37.12 55.78 36.93 52.78 38.12 50.08 C 41.51 41.88 42.28 32.90 42.11 24.12 C 42.74 24.05 43.99 23.93 44.62 23.87 C 43.99 23.48 42.73 22.70 42.10 22.31 C 42.09 20.52 42.11 18.72 42.15 16.93 C 46.43 16.40 48.72 21.26 48.39 24.90 C 47.89 28.93 47.91 33.07 48.99 37.01 C 49.87 39.70 52.71 41.28 53.31 44.12 C 54.51 47.96 52.77 51.77 52.42 55.59 C 55.73 53.73 55.35 49.33 55.35 46.09 C 55.39 42.58 53.28 39.64 50.77 37.41 C 52.37 35.37 55.04 34.69 56.82 32.86 C 61.77 26.08 69.17 21.74 76.06 17.21 C 77.27 16.24 78.79 16.59 80.18 16.76 C 79.91 18.16 80.35 20.06 78.69 20.71 C 73.72 23.60 69.40 27.44 64.68 30.72 C 63.33 31.59 63.93 33.48 63.74 34.82 C 60.92 35.91 59.95 39.12 61.38 41.75 C 64.48 47.31 69.26 51.69 72.72 57.01 C 69.88 60.08 67.29 63.36 64.51 66.48 C 60.04 70.93 53.75 72.61 48.16 75.16 C 44.11 77.68 40.52 80.87 36.87 83.93 C 37.28 84.18 38.08 84.70 38.49 84.95 C 41.79 82.09 45.10 79.17 48.84 76.87 C 54.16 74.26 60.19 72.75 64.76 68.79 C 67.79 65.69 70.33 62.15 73.43 59.09 C 74.27 68.11 80.08 76.55 87.99 80.92 C 93.16 84.46 99.88 85.17 104.46 89.65 C 106.58 91.14 108.23 93.89 111.09 93.81 C 108.65 90.03 104.68 87.45 100.99 84.99 C 94.48 82.20 87.58 79.66 82.48 74.52 C 78.21 69.72 75.37 63.68 74.77 57.27 C 72.07 51.64 66.94 47.65 63.81 42.25 C 64.82 41.32 65.80 40.36 66.78 39.40 C 70.42 44.08 74.34 48.53 78.16 53.07 C 79.58 54.51 80.93 56.82 83.35 56.17 C 77.85 50.05 72.68 43.65 67.27 37.45 C 68.43 36.47 69.54 35.41 70.57 34.30 C 75.69 40.22 80.39 46.52 85.85 52.14 C 86.68 53.18 89.03 53.23 87.56 51.47 C 83.19 46.57 78.85 41.62 74.82 36.43 C 73.64 34.75 72.61 32.92 70.78 31.86 C 71.62 31.21 72.48 30.58 73.37 30.00 C 73.72 31.35 74.14 32.73 75.14 33.76 L 74.98 31.28 C 81.78 37.09 86.46 45.03 93.33 50.79 C 95.22 52.32 97.74 51.31 99.93 51.65 C 102.54 52.60 104.32 54.90 105.81 57.14 C 108.74 61.83 111.66 66.53 114.78 71.10 C 116.01 73.05 118.73 73.11 120.03 75.01 C 121.32 76.84 123.28 77.93 125.29 78.80 C 126.53 76.36 122.67 76.05 121.76 74.22 C 120.36 71.87 117.17 71.73 115.76 69.45 C 112.79 65.04 110.01 60.50 107.18 55.99 C 105.77 53.76 103.99 51.69 101.66 50.40 C 99.32 48.93 96.10 50.92 93.99 48.99 C 91.16 46.58 88.75 43.71 86.38 40.86 C 88.13 38.74 90.60 36.82 90.94 33.91 C 90.64 32.70 89.72 31.81 89.04 30.82 C 90.90 28.16 93.17 24.15 89.82 21.65 C 89.46 20.07 89.61 17.86 87.75 17.18 C 85.92 16.48 84.09 17.31 82.43 18.04 C 81.60 14.93 78.04 13.73 75.38 15.47 C 70.97 18.37 66.42 21.10 62.42 24.58 C 57.79 27.52 55.58 33.18 50.15 35.03 C 49.91 31.38 50.09 27.72 50.11 24.07 C 50.30 20.15 47.81 16.21 44.05 14.95 C 42.25 14.84 40.26 16.04 40.47 18.07 M 61.29 34.27 C 61.76 34.70 61.76 34.70 61.29 34.27 Z" />
<path fill="#ffffff" opacity="1.00" d=" M 83.42 19.64 C 85.34 17.84 88.60 18.72 88.02 21.65 C 84.05 24.08 80.99 27.67 77.17 30.32 C 75.54 29.64 73.87 28.13 72.00 28.74 C 70.71 29.45 69.52 30.30 68.26 31.05 C 72.35 26.19 78.35 23.39 83.42 19.64 Z" />
<path fill="#ffffff" opacity="1.00" d=" M 87.36 24.27 C 88.50 23.21 90.86 24.05 89.76 25.81 C 88.25 29.93 84.48 32.53 81.66 35.69 C 80.50 34.31 79.41 32.87 78.38 31.39 C 81.79 29.55 84.26 26.50 87.36 24.27 Z" />
<path fill="#ffffff" opacity="1.00" d=" M 66.23 36.79 C 65.57 34.92 64.93 32.80 66.53 31.24 C 67.70 31.95 68.88 32.67 70.04 33.40 C 68.77 34.53 67.50 35.66 66.23 36.79 Z" />
<path fill="#ffffff" opacity="1.00" d=" M 87.48 32.29 C 91.06 34.41 86.75 37.55 85.20 39.46 C 84.45 38.64 83.70 37.82 82.96 36.99 C 84.43 35.39 85.94 33.83 87.48 32.29 Z" />
<path fill="#ffffff" opacity="1.00" d=" M 63.24 37.01 C 64.51 36.70 65.25 37.75 66.08 38.48 C 65.13 39.38 64.18 40.28 63.23 41.18 C 62.62 39.82 62.05 38.27 63.24 37.01 Z" />
</g>
<g id="#626262ff">
<path fill="#626262" opacity="1.00" d=" M 40.47 18.07 C 40.26 16.04 42.25 14.84 44.05 14.95 C 47.81 16.21 50.30 20.15 50.11 24.07 C 50.09 27.72 49.91 31.38 50.15 35.03 C 55.58 33.18 57.79 27.52 62.42 24.58 C 66.42 21.10 70.97 18.37 75.38 15.47 C 78.04 13.73 81.60 14.93 82.43 18.04 C 84.09 17.31 85.92 16.48 87.75 17.18 C 89.61 17.86 89.46 20.07 89.82 21.65 C 93.17 24.15 90.90 28.16 89.04 30.82 C 89.72 31.81 90.64 32.70 90.94 33.91 C 90.60 36.82 88.13 38.74 86.38 40.86 C 88.75 43.71 91.16 46.58 93.99 48.99 C 96.10 50.92 99.32 48.93 101.66 50.40 C 103.99 51.69 105.77 53.76 107.18 55.99 C 110.01 60.50 112.79 65.04 115.76 69.45 C 117.17 71.73 120.36 71.87 121.76 74.22 C 122.67 76.05 126.53 76.36 125.29 78.80 C 123.28 77.93 121.32 76.84 120.03 75.01 C 118.73 73.11 116.01 73.05 114.78 71.10 C 111.66 66.53 108.74 61.83 105.81 57.14 C 104.32 54.90 102.54 52.60 99.93 51.65 C 97.74 51.31 95.22 52.32 93.33 50.79 C 86.46 45.03 81.78 37.09 74.98 31.28 L 75.14 33.76 C 74.14 32.73 73.72 31.35 73.37 30.00 C 72.48 30.58 71.62 31.21 70.78 31.86 C 72.61 32.92 73.64 34.75 74.82 36.43 C 78.85 41.62 83.19 46.57 87.56 51.47 C 89.03 53.23 86.68 53.18 85.85 52.14 C 80.39 46.52 75.69 40.22 70.57 34.30 C 69.54 35.41 68.43 36.47 67.27 37.45 C 72.68 43.65 77.85 50.05 83.35 56.17 C 80.93 56.82 79.58 54.51 78.16 53.07 C 74.34 48.53 70.42 44.08 66.78 39.40 C 65.80 40.36 64.82 41.32 63.81 42.25 C 66.94 47.65 72.07 51.64 74.77 57.27 C 75.37 63.68 78.21 69.72 82.48 74.52 C 87.58 79.66 94.48 82.20 100.99 84.99 C 104.68 87.45 108.65 90.03 111.09 93.81 C 108.23 93.89 106.58 91.14 104.46 89.65 C 99.88 85.17 93.16 84.46 87.99 80.92 C 80.08 76.55 74.27 68.11 73.43 59.09 C 70.33 62.15 67.79 65.69 64.76 68.79 C 60.19 72.75 54.16 74.26 48.84 76.87 C 45.10 79.17 41.79 82.09 38.49 84.95 C 38.08 84.70 37.28 84.18 36.87 83.93 C 40.52 80.87 44.11 77.68 48.16 75.16 C 53.75 72.61 60.04 70.93 64.51 66.48 C 67.29 63.36 69.88 60.08 72.72 57.01 C 69.26 51.69 64.48 47.31 61.38 41.75 C 59.95 39.12 60.92 35.91 63.74 34.82 C 63.93 33.48 63.33 31.59 64.68 30.72 C 69.40 27.44 73.72 23.60 78.69 20.71 C 80.35 20.06 79.91 18.16 80.18 16.76 C 78.79 16.59 77.27 16.24 76.06 17.21 C 69.17 21.74 61.77 26.08 56.82 32.86 C 55.04 34.69 52.37 35.37 50.77 37.41 C 53.28 39.64 55.39 42.58 55.35 46.09 C 55.35 49.33 55.73 53.73 52.42 55.59 C 52.77 51.77 54.51 47.96 53.31 44.12 C 52.71 41.28 49.87 39.70 48.99 37.01 C 47.91 33.07 47.89 28.93 48.39 24.90 C 48.72 21.26 46.43 16.40 42.15 16.93 C 42.11 18.72 42.09 20.52 42.10 22.31 C 42.73 22.70 43.99 23.48 44.62 23.87 C 43.99 23.93 42.74 24.05 42.11 24.12 C 42.28 32.90 41.51 41.88 38.12 50.08 C 36.93 52.78 37.12 55.78 37.18 58.66 C 32.34 62.00 28.25 66.42 22.93 69.05 C 22.01 69.59 20.96 69.09 20.01 69.01 C 25.40 65.49 30.73 61.84 35.48 57.45 C 35.34 54.47 35.39 51.40 36.71 48.65 C 40.74 38.99 40.35 28.32 40.47 18.07 M 83.42 19.64 C 78.35 23.39 72.35 26.19 68.26 31.05 C 69.52 30.30 70.71 29.45 72.00 28.74 C 73.87 28.13 75.54 29.64 77.17 30.32 C 80.99 27.67 84.05 24.08 88.02 21.65 C 88.60 18.72 85.34 17.84 83.42 19.64 M 87.36 24.27 C 84.26 26.50 81.79 29.55 78.38 31.39 C 79.41 32.87 80.50 34.31 81.66 35.69 C 84.48 32.53 88.25 29.93 89.76 25.81 C 90.86 24.05 88.50 23.21 87.36 24.27 M 66.23 36.79 C 67.50 35.66 68.77 34.53 70.04 33.40 C 68.88 32.67 67.70 31.95 66.53 31.24 C 64.93 32.80 65.57 34.92 66.23 36.79 M 87.48 32.29 C 85.94 33.83 84.43 35.39 82.96 36.99 C 83.70 37.82 84.45 38.64 85.20 39.46 C 86.75 37.55 91.06 34.41 87.48 32.29 M 63.24 37.01 C 62.05 38.27 62.62 39.82 63.23 41.18 C 64.18 40.28 65.13 39.38 66.08 38.48 C 65.25 37.75 64.51 36.70 63.24 37.01 Z" />
<path fill="#626262" opacity="1.00" d=" M 61.29 34.27 C 61.76 34.70 61.76 34.70 61.29 34.27 Z" />
</g>
</svg>
