<?xml version="1.0" encoding="UTF-8" ?>
<!DOCTYPE svg PUBLIC "-//W3C//DTD SVG 1.1//EN" "http://www.w3.org/Graphics/SVG/1.1/DTD/svg11.dtd">
<svg width="100pt" height="100pt" viewBox="0 0 100 100" version="1.1" xmlns="http://www.w3.org/2000/svg">
<g id="#ffffffff">
<path fill="#ffffff" opacity="1.00" d=" M 0.00 0.00 L 100.00 0.00 L 100.00 100.00 L 0.00 100.00 L 0.00 0.00 M 46.18 24.66 C 44.11 24.18 41.71 23.28 39.82 24.76 C 35.10 27.92 31.68 32.59 27.67 36.54 C 23.55 40.31 22.32 45.94 20.57 51.01 C 24.68 53.06 28.87 54.96 32.94 57.08 C 37.54 59.35 41.10 63.33 46.01 65.02 C 51.49 66.98 57.14 69.40 60.76 74.18 C 64.12 77.72 63.77 83.66 68.26 86.25 C 66.12 80.63 64.25 74.52 59.58 70.42 C 55.82 66.70 50.71 65.02 45.93 63.10 C 41.33 61.38 38.05 57.45 33.60 55.45 C 31.10 53.92 26.84 53.37 27.42 49.48 C 27.09 50.06 26.44 51.21 26.11 51.79 C 24.72 51.10 23.35 50.39 21.98 49.66 C 24.59 46.90 28.57 48.11 31.57 49.46 C 35.60 51.25 40.16 51.37 44.35 50.10 C 44.19 48.84 44.50 47.41 43.76 46.29 C 41.18 43.03 37.75 40.47 33.93 38.85 C 30.91 40.40 29.19 43.67 26.99 46.16 C 26.23 46.19 24.70 46.26 23.94 46.29 C 25.42 41.11 29.20 37.10 33.06 33.54 C 37.95 33.58 42.26 35.96 46.63 37.82 C 47.31 35.43 43.82 35.03 42.42 33.77 C 42.30 32.20 41.98 30.66 41.43 29.18 C 41.18 30.16 40.68 32.12 40.43 33.11 C 38.39 32.66 36.35 32.21 34.30 31.77 C 36.88 29.18 39.67 26.75 42.97 25.11 C 46.26 27.19 48.53 30.76 52.30 32.07 C 51.07 29.73 49.12 27.91 47.22 26.13 C 50.07 23.81 52.13 27.21 54.56 28.43 C 56.93 29.86 60.04 31.05 60.68 34.09 C 62.65 41.33 64.93 48.57 68.88 55.01 C 71.10 59.33 73.40 63.67 77.03 66.99 C 80.77 70.93 83.38 75.86 87.59 79.36 C 84.76 70.51 75.77 65.42 71.97 57.08 C 69.40 52.16 66.41 47.42 64.88 42.04 C 63.46 38.38 63.02 34.34 61.07 30.91 C 58.50 27.94 54.46 26.84 51.58 24.20 C 49.98 22.42 47.93 24.06 46.18 24.66 M 13.83 45.32 C 13.80 48.17 13.93 51.03 14.03 53.88 C 14.63 53.93 15.82 54.03 16.42 54.08 C 18.21 58.18 24.56 61.35 27.86 57.30 C 25.41 57.14 22.66 57.84 20.44 56.47 C 19.37 55.48 18.60 54.23 17.74 53.07 C 18.38 52.80 19.65 52.26 20.29 51.99 C 18.33 49.59 16.23 47.29 13.83 45.32 Z" />
<path fill="#ffffff" opacity="1.00" d=" M 28.79 46.55 C 30.47 44.55 32.22 42.61 33.96 40.66 C 37.60 42.56 40.74 45.22 43.35 48.39 C 38.43 50.08 33.32 48.62 28.79 46.55 Z" />
</g>
<g id="#595959ff">
<path fill="#595959" opacity="1.00" d=" M 46.18 24.66 C 47.93 24.06 49.98 22.42 51.58 24.20 C 54.46 26.84 58.50 27.94 61.07 30.91 C 63.02 34.34 63.46 38.38 64.88 42.04 C 66.41 47.42 69.40 52.16 71.97 57.08 C 75.77 65.42 84.76 70.51 87.59 79.36 C 83.38 75.86 80.77 70.93 77.03 66.99 C 73.40 63.67 71.10 59.33 68.88 55.01 C 64.93 48.57 62.65 41.33 60.68 34.09 C 60.04 31.05 56.93 29.86 54.56 28.43 C 52.13 27.21 50.07 23.81 47.22 26.13 C 49.12 27.91 51.07 29.73 52.30 32.07 C 48.53 30.76 46.26 27.19 42.97 25.11 C 39.67 26.75 36.88 29.18 34.30 31.77 C 36.35 32.21 38.39 32.66 40.43 33.11 C 40.68 32.12 41.18 30.16 41.43 29.18 C 41.98 30.66 42.30 32.20 42.42 33.77 C 43.82 35.03 47.31 35.43 46.63 37.82 C 42.26 35.96 37.95 33.58 33.06 33.54 C 29.20 37.10 25.42 41.11 23.94 46.29 C 24.70 46.26 26.23 46.19 26.99 46.16 C 29.19 43.67 30.91 40.40 33.93 38.85 C 37.75 40.47 41.18 43.03 43.76 46.29 C 44.50 47.41 44.19 48.84 44.35 50.10 C 40.16 51.37 35.60 51.25 31.57 49.46 C 28.57 48.11 24.59 46.90 21.98 49.66 C 23.35 50.39 24.72 51.10 26.11 51.79 C 26.44 51.21 27.09 50.06 27.42 49.48 C 26.84 53.37 31.10 53.92 33.60 55.45 C 38.05 57.45 41.33 61.38 45.93 63.10 C 50.71 65.02 55.82 66.70 59.58 70.42 C 64.25 74.52 66.12 80.63 68.26 86.25 C 63.77 83.66 64.12 77.72 60.76 74.18 C 57.14 69.40 51.49 66.98 46.01 65.02 C 41.10 63.33 37.54 59.35 32.94 57.08 C 28.87 54.96 24.68 53.06 20.57 51.01 C 22.32 45.94 23.55 40.31 27.67 36.54 C 31.68 32.59 35.10 27.92 39.82 24.76 C 41.71 23.28 44.11 24.18 46.18 24.66 M 28.79 46.55 C 33.32 48.62 38.43 50.08 43.35 48.39 C 40.74 45.22 37.60 42.56 33.96 40.66 C 32.22 42.61 30.47 44.55 28.79 46.55 Z" />
<path fill="#595959" opacity="1.00" d=" M 13.83 45.32 C 16.23 47.29 18.33 49.59 20.29 51.99 C 19.65 52.26 18.38 52.80 17.74 53.07 C 18.60 54.23 19.37 55.48 20.44 56.47 C 22.66 57.84 25.41 57.14 27.86 57.30 C 24.56 61.35 18.21 58.18 16.42 54.08 C 15.82 54.03 14.63 53.93 14.03 53.88 C 13.93 51.03 13.80 48.17 13.83 45.32 Z" />
</g>
</svg>
