<?xml version="1.0" encoding="UTF-8" ?>
<!DOCTYPE svg PUBLIC "-//W3C//DTD SVG 1.1//EN" "http://www.w3.org/Graphics/SVG/1.1/DTD/svg11.dtd">
<svg width="150pt" height="100pt" viewBox="0 0 150 100" version="1.1" xmlns="http://www.w3.org/2000/svg">
<g id="#ffffffff">
<path fill="#ffffff" opacity="1.00" d=" M 0.00 0.00 L 150.00 0.00 L 150.00 100.00 L 0.00 100.00 L 0.00 0.00 M 42.74 13.69 C 39.56 16.74 41.58 21.63 40.59 25.46 C 39.56 29.65 40.82 34.15 39.15 38.19 C 35.65 37.61 33.13 40.65 32.67 43.84 C 29.38 43.19 27.87 46.44 25.09 47.32 C 21.51 48.42 21.23 52.85 21.04 55.98 C 21.82 62.63 22.32 69.33 22.93 75.98 C 20.73 79.65 21.03 83.98 19.86 87.98 C 21.26 86.97 22.70 85.69 22.70 83.81 C 22.75 80.47 24.25 77.35 24.08 74.00 C 24.26 67.93 23.09 61.95 22.20 55.99 C 22.17 53.86 22.94 51.72 24.09 49.96 C 26.00 48.80 28.64 48.46 29.42 46.03 C 30.86 45.42 32.37 45.06 33.91 44.83 C 34.57 43.19 35.28 41.56 36.09 39.99 C 36.93 39.99 38.61 40.00 39.44 40.01 C 39.23 41.48 39.03 42.95 38.86 44.43 C 39.30 44.20 40.19 43.75 40.63 43.52 C 41.85 35.44 42.28 27.28 42.00 19.11 C 43.70 19.68 45.46 19.84 47.01 18.75 C 47.27 25.66 46.34 32.73 47.46 39.54 C 50.93 45.85 46.72 53.85 51.15 59.77 C 53.38 62.93 57.67 62.69 60.99 61.85 C 65.91 60.41 71.55 63.50 72.82 68.52 C 71.76 68.40 69.65 68.17 68.59 68.05 C 68.67 66.73 68.76 65.40 68.84 64.08 C 68.46 64.39 67.69 65.02 67.31 65.34 C 67.32 65.98 67.33 67.27 67.34 67.92 C 61.81 67.08 57.12 70.61 52.12 72.24 C 49.99 73.05 47.28 72.77 45.71 74.69 C 43.22 77.74 41.25 81.29 40.24 85.12 C 39.86 86.60 39.54 88.96 41.62 89.17 C 41.79 87.27 41.97 85.37 42.14 83.48 C 43.73 80.68 45.03 77.60 47.34 75.30 C 49.60 73.78 52.55 74.24 54.94 73.01 C 58.94 71.09 63.34 68.98 67.89 69.78 C 73.26 70.77 78.62 68.57 83.99 69.17 C 87.71 70.16 91.14 71.94 94.60 73.59 C 95.33 73.09 96.05 72.59 96.76 72.09 C 91.44 70.88 86.90 67.04 81.23 67.19 C 81.12 66.64 80.88 65.55 80.76 65.00 L 79.71 64.98 C 79.55 65.93 79.39 66.87 79.23 67.82 C 77.82 67.82 76.41 67.81 75.00 67.78 C 76.46 63.33 81.43 59.99 86.10 61.33 C 89.41 61.98 93.61 63.16 96.27 60.36 C 99.85 56.90 98.91 51.52 99.02 47.04 C 98.70 42.82 101.36 39.12 101.24 34.92 C 101.20 29.62 100.91 24.32 101.00 19.01 C 102.64 19.46 104.34 19.57 106.00 19.13 C 105.92 27.10 105.84 35.15 107.35 43.01 C 107.78 43.49 108.64 44.46 109.07 44.95 C 109.04 43.24 108.98 41.54 108.88 39.83 C 112.43 39.37 113.24 42.80 114.38 45.32 C 118.50 45.63 120.71 49.27 124.44 50.52 C 127.60 55.59 124.96 61.62 124.92 67.09 C 124.88 71.57 123.13 76.30 125.44 80.48 C 126.09 83.56 125.80 86.99 128.39 89.33 C 129.46 87.27 127.88 85.16 127.86 83.04 C 127.88 80.18 125.68 77.83 126.02 74.94 C 126.34 68.92 127.31 62.96 127.82 56.95 C 128.04 52.94 126.52 47.89 121.90 47.34 C 120.34 45.24 118.16 43.78 115.49 43.69 C 114.96 40.32 112.45 37.80 108.90 38.11 C 106.34 29.87 110.08 20.20 105.06 12.69 C 102.88 12.73 100.79 13.87 100.28 16.11 C 97.96 24.27 101.18 33.04 98.19 41.09 C 96.18 46.74 98.95 53.25 95.68 58.56 C 93.31 61.17 89.51 60.49 86.51 59.61 C 81.42 58.06 76.46 61.51 73.66 65.53 C 71.21 61.76 66.64 58.94 62.04 59.99 C 58.99 60.72 55.17 62.02 52.74 59.24 C 50.30 56.17 50.08 51.82 50.52 48.06 C 51.25 43.59 48.65 39.51 48.42 35.12 C 48.14 28.61 49.73 21.75 47.33 15.50 C 46.86 13.70 44.25 11.96 42.74 13.69 M 96.18 73.92 C 98.01 74.42 100.51 74.45 101.47 76.43 C 103.55 80.55 104.66 85.09 105.22 89.64 C 107.71 88.85 106.14 85.77 106.06 83.98 C 104.74 79.56 103.82 73.50 98.46 72.37 C 97.70 72.88 96.94 73.40 96.18 73.92 Z" />
<path fill="#ffffff" opacity="1.00" d=" M 103.15 14.49 C 103.57 14.66 104.41 15.00 104.83 15.17 C 105.08 16.09 105.33 17.02 105.59 17.94 C 104.19 18.03 102.79 18.11 101.39 18.19 C 101.97 16.95 102.55 15.72 103.15 14.49 Z" />
<path fill="#ffffff" opacity="1.00" d=" M 43.15 15.00 C 43.82 15.00 45.14 15.00 45.81 15.00 C 45.98 15.87 46.33 17.62 46.50 18.49 C 45.51 18.40 43.54 18.22 42.55 18.13 C 42.70 17.35 43.00 15.78 43.15 15.00 Z" />
</g>
<g id="#696a6bff">
<path fill="#696a6b" opacity="1.00" d=" M 42.74 13.69 C 44.25 11.96 46.86 13.70 47.33 15.50 C 49.73 21.75 48.14 28.61 48.42 35.12 C 48.65 39.51 51.25 43.59 50.52 48.06 C 50.08 51.82 50.30 56.17 52.74 59.24 C 55.17 62.02 58.99 60.72 62.04 59.99 C 66.64 58.94 71.21 61.76 73.66 65.53 C 76.46 61.51 81.42 58.06 86.51 59.61 C 89.51 60.49 93.31 61.17 95.68 58.56 C 98.95 53.25 96.18 46.74 98.19 41.09 C 101.18 33.04 97.96 24.27 100.28 16.11 C 100.79 13.87 102.88 12.73 105.06 12.69 C 110.08 20.20 106.34 29.87 108.90 38.11 C 112.45 37.80 114.96 40.32 115.49 43.69 C 118.16 43.78 120.34 45.24 121.90 47.34 C 126.52 47.89 128.04 52.94 127.82 56.95 C 127.31 62.96 126.34 68.92 126.02 74.94 C 125.68 77.83 127.88 80.18 127.86 83.04 C 127.88 85.16 129.46 87.27 128.39 89.33 C 125.80 86.99 126.09 83.56 125.44 80.48 C 123.13 76.30 124.88 71.57 124.92 67.09 C 124.96 61.62 127.60 55.59 124.44 50.52 C 120.71 49.27 118.50 45.63 114.38 45.32 C 113.24 42.80 112.43 39.37 108.88 39.83 C 108.98 41.54 109.04 43.24 109.07 44.95 C 108.64 44.46 107.78 43.49 107.35 43.01 C 105.84 35.15 105.92 27.10 106.00 19.13 C 104.34 19.57 102.64 19.46 101.00 19.01 C 100.91 24.32 101.20 29.62 101.24 34.92 C 101.36 39.12 98.70 42.82 99.02 47.04 C 98.91 51.52 99.85 56.90 96.27 60.36 C 93.61 63.16 89.41 61.98 86.10 61.33 C 81.43 59.99 76.46 63.33 75.00 67.78 C 76.41 67.81 77.82 67.82 79.23 67.82 C 79.39 66.87 79.55 65.93 79.71 64.98 L 80.76 65.00 C 80.88 65.55 81.12 66.64 81.23 67.19 C 86.90 67.04 91.44 70.88 96.76 72.09 C 96.05 72.59 95.33 73.09 94.60 73.59 C 91.14 71.94 87.71 70.16 83.99 69.17 C 78.62 68.57 73.26 70.77 67.89 69.78 C 63.34 68.98 58.94 71.09 54.94 73.01 C 52.55 74.24 49.60 73.78 47.34 75.30 C 45.03 77.60 43.73 80.68 42.14 83.48 C 41.97 85.37 41.79 87.27 41.62 89.17 C 39.54 88.96 39.86 86.60 40.24 85.12 C 41.25 81.29 43.22 77.74 45.71 74.69 C 47.28 72.77 49.99 73.05 52.12 72.24 C 57.12 70.61 61.81 67.08 67.34 67.92 C 67.33 67.27 67.32 65.98 67.31 65.34 C 67.69 65.02 68.46 64.39 68.84 64.08 C 68.76 65.40 68.67 66.73 68.59 68.05 C 69.65 68.17 71.76 68.40 72.82 68.52 C 71.55 63.50 65.91 60.41 60.99 61.85 C 57.67 62.69 53.38 62.93 51.15 59.77 C 46.72 53.85 50.93 45.85 47.46 39.54 C 46.34 32.73 47.27 25.66 47.01 18.75 C 45.46 19.84 43.70 19.68 42.00 19.11 C 42.28 27.28 41.85 35.44 40.63 43.52 C 40.19 43.75 39.30 44.20 38.86 44.43 C 39.03 42.95 39.23 41.48 39.44 40.01 C 38.61 40.00 36.93 39.99 36.09 39.99 C 35.28 41.56 34.57 43.19 33.91 44.83 C 32.37 45.06 30.86 45.42 29.42 46.03 C 28.64 48.46 26.00 48.80 24.09 49.96 C 22.94 51.72 22.17 53.86 22.20 55.99 C 23.09 61.95 24.26 67.93 24.08 74.00 C 24.25 77.35 22.75 80.47 22.70 83.81 C 22.70 85.69 21.26 86.97 19.86 87.98 C 21.03 83.98 20.73 79.65 22.93 75.98 C 22.32 69.33 21.82 62.63 21.04 55.98 C 21.23 52.85 21.51 48.42 25.09 47.32 C 27.87 46.44 29.38 43.19 32.67 43.84 C 33.13 40.65 35.65 37.61 39.15 38.19 C 40.82 34.15 39.56 29.65 40.59 25.46 C 41.58 21.63 39.56 16.74 42.74 13.69 M 103.15 14.49 C 102.55 15.72 101.97 16.95 101.39 18.19 C 102.79 18.11 104.19 18.03 105.59 17.94 C 105.33 17.02 105.08 16.09 104.83 15.17 C 104.41 15.00 103.57 14.66 103.15 14.49 M 43.15 15.00 C 43.00 15.78 42.70 17.35 42.55 18.13 C 43.54 18.22 45.51 18.40 46.50 18.49 C 46.33 17.62 45.98 15.87 45.81 15.00 C 45.14 15.00 43.82 15.00 43.15 15.00 Z" />
<path fill="#696a6b" opacity="1.00" d=" M 96.18 73.92 C 96.94 73.40 97.70 72.88 98.46 72.37 C 103.82 73.50 104.74 79.56 106.06 83.98 C 106.14 85.77 107.71 88.85 105.22 89.64 C 104.66 85.09 103.55 80.55 101.47 76.43 C 100.51 74.45 98.01 74.42 96.18 73.92 Z" />
</g>
</svg>
