<?xml version="1.0" encoding="UTF-8" ?>
<!DOCTYPE svg PUBLIC "-//W3C//DTD SVG 1.1//EN" "http://www.w3.org/Graphics/SVG/1.1/DTD/svg11.dtd">
<svg width="150pt" height="100pt" viewBox="0 0 150 100" version="1.1" xmlns="http://www.w3.org/2000/svg">
<g id="#ffffffff">
<path fill="#ffffff" opacity="1.00" d=" M 0.00 0.00 L 150.00 0.00 L 150.00 100.00 L 0.00 100.00 L 0.00 0.00 M 30.52 28.55 C 28.57 28.03 26.20 26.74 24.42 28.39 C 23.54 29.46 23.29 30.89 22.75 32.14 C 20.43 35.00 21.96 38.31 23.72 40.96 C 23.01 42.40 21.44 43.90 22.38 45.61 C 24.05 48.81 26.89 51.16 29.18 53.90 C 32.08 57.15 33.69 61.27 36.16 64.82 C 40.07 70.84 45.64 75.60 51.74 79.30 C 49.50 80.85 45.69 81.16 45.18 84.38 C 50.12 82.58 54.49 79.62 58.91 76.82 C 63.82 73.48 69.11 70.56 73.50 66.54 C 75.46 60.68 73.50 53.68 77.37 48.42 C 79.98 44.99 82.59 41.57 84.92 37.93 C 86.15 38.34 87.38 38.75 88.62 39.15 C 88.04 38.26 87.47 37.37 86.90 36.49 C 87.98 35.94 90.36 32.38 91.03 35.06 C 92.26 40.42 86.52 43.41 85.56 48.17 C 93.05 40.97 100.60 33.66 109.53 28.22 C 110.38 29.32 111.24 30.42 112.11 31.51 C 108.49 34.12 104.85 36.73 101.46 39.64 C 100.17 40.59 99.60 42.11 99.26 43.62 C 105.05 39.11 110.69 34.39 116.89 30.44 C 117.86 31.53 118.83 32.64 119.87 33.66 C 114.84 38.99 107.58 42.07 103.55 48.29 C 107.94 46.41 111.29 42.89 115.08 40.10 C 118.33 37.79 120.61 33.90 124.80 33.16 C 124.81 34.78 124.41 36.35 124.02 37.91 C 123.12 37.26 122.18 36.67 121.21 36.14 C 121.16 36.39 121.07 36.89 121.03 37.14 L 122.95 38.99 C 119.86 41.88 116.92 44.96 113.63 47.65 C 111.61 49.36 109.27 50.94 108.38 53.58 C 112.96 51.11 116.66 47.37 120.48 43.91 C 120.96 44.58 121.91 45.91 122.38 46.58 C 113.61 54.12 110.22 65.81 101.94 73.76 C 96.73 78.73 89.53 80.34 83.14 83.16 C 78.94 85.82 74.45 88.60 71.83 92.95 C 77.11 90.90 80.49 85.74 85.91 83.90 C 93.05 81.38 100.60 78.61 105.57 72.57 C 109.24 67.83 112.56 62.80 115.52 57.58 C 118.43 52.19 123.98 48.79 126.53 43.15 C 125.72 42.25 124.91 41.36 124.08 40.47 C 125.97 37.76 127.78 34.25 125.27 31.28 C 124.77 29.95 124.34 28.57 123.66 27.31 C 121.72 26.10 119.51 27.15 117.55 27.69 C 116.74 24.88 113.73 23.47 111.16 25.13 C 104.57 29.14 98.10 33.53 92.83 39.23 C 93.22 36.55 93.41 32.64 89.97 31.99 C 82.80 36.19 78.76 43.73 74.07 50.29 C 72.55 43.05 70.81 35.87 68.86 28.73 C 66.87 27.74 64.20 27.96 63.28 30.29 C 60.17 35.58 64.07 41.56 62.32 47.13 C 54.81 39.08 46.37 31.79 36.93 26.08 C 34.42 24.46 31.36 25.75 30.52 28.55 Z" />
<path fill="#ffffff" opacity="1.00" d=" M 109.87 27.54 C 111.75 27.00 114.31 24.97 115.66 27.47 C 115.33 28.83 114.50 29.99 113.85 31.20 C 112.51 30.00 111.18 28.78 109.87 27.54 Z" />
<path fill="#ffffff" opacity="1.00" d=" M 33.06 30.44 C 31.43 28.70 33.59 25.97 35.60 27.47 C 45.02 32.86 53.33 40.09 60.61 48.09 C 57.83 50.31 55.79 55.81 59.74 57.78 C 59.66 56.03 59.29 54.28 59.49 52.53 C 60.87 50.31 63.15 48.75 64.25 46.35 C 65.47 41.68 62.84 36.84 64.34 32.20 C 64.61 30.75 66.07 30.30 67.18 29.65 C 68.54 34.71 70.08 39.73 71.03 44.90 C 72.74 51.62 74.11 59.00 71.75 65.72 C 66.02 70.37 59.66 74.26 53.36 78.13 C 47.05 74.50 41.29 69.65 37.38 63.45 C 34.92 59.64 33.13 55.37 29.96 52.06 C 27.51 49.17 23.87 46.68 23.79 42.50 C 29.90 45.25 33.33 51.75 39.54 54.45 C 38.21 50.72 34.32 48.99 31.75 46.24 C 28.67 43.01 24.52 40.32 23.16 35.85 C 22.47 34.19 24.18 33.71 25.31 34.55 C 31.64 39.46 37.19 45.71 44.49 49.22 C 42.18 45.32 38.15 43.05 34.76 40.23 C 31.45 37.70 28.58 34.64 25.14 32.29 C 25.10 31.61 25.03 30.24 25.00 29.56 C 26.33 29.57 27.79 29.22 28.97 30.04 C 34.66 33.55 40.07 37.51 45.09 41.91 C 46.25 42.78 47.35 44.34 48.99 43.64 C 44.80 38.07 38.48 34.65 33.06 30.44 Z" />
<path fill="#ffffff" opacity="1.00" d=" M 118.25 29.09 C 119.79 28.88 121.33 28.69 122.88 28.54 C 122.91 29.42 122.97 31.20 122.99 32.09 C 120.38 33.43 118.79 31.42 118.25 29.09 Z" />
<path fill="#ffffff" opacity="1.00" d=" M 122.11 42.24 C 123.62 41.12 125.08 43.73 123.75 44.75 C 122.28 45.82 120.72 43.22 122.11 42.24 Z" />
</g>
<g id="#676767ff">
<path fill="#676767" opacity="1.00" d=" M 30.52 28.55 C 31.36 25.75 34.42 24.46 36.93 26.08 C 46.37 31.79 54.81 39.08 62.32 47.13 C 64.07 41.56 60.17 35.58 63.28 30.29 C 64.20 27.96 66.87 27.74 68.86 28.73 C 70.81 35.87 72.55 43.05 74.07 50.29 C 78.76 43.73 82.80 36.19 89.97 31.99 C 93.41 32.64 93.22 36.55 92.83 39.23 C 98.10 33.53 104.57 29.14 111.16 25.13 C 113.73 23.47 116.74 24.88 117.55 27.69 C 119.51 27.15 121.72 26.10 123.66 27.31 C 124.34 28.57 124.77 29.95 125.27 31.28 C 127.78 34.25 125.97 37.76 124.08 40.47 C 124.91 41.36 125.72 42.25 126.53 43.15 C 123.98 48.79 118.43 52.19 115.52 57.58 C 112.56 62.80 109.24 67.83 105.57 72.57 C 100.60 78.61 93.05 81.38 85.91 83.90 C 80.49 85.74 77.11 90.90 71.83 92.95 C 74.45 88.60 78.94 85.82 83.14 83.16 C 89.53 80.34 96.73 78.73 101.94 73.76 C 110.22 65.81 113.61 54.12 122.38 46.58 C 121.91 45.91 120.96 44.58 120.48 43.91 C 116.66 47.37 112.96 51.11 108.38 53.58 C 109.27 50.94 111.61 49.36 113.63 47.65 C 116.92 44.96 119.86 41.88 122.95 38.99 L 121.03 37.14 C 121.07 36.89 121.16 36.39 121.21 36.14 C 122.18 36.67 123.12 37.26 124.02 37.91 C 124.41 36.35 124.81 34.78 124.80 33.16 C 120.61 33.90 118.33 37.79 115.08 40.10 C 111.29 42.89 107.94 46.41 103.55 48.29 C 107.58 42.07 114.84 38.99 119.87 33.66 C 118.83 32.64 117.86 31.53 116.89 30.44 C 110.69 34.39 105.05 39.11 99.26 43.62 C 99.60 42.11 100.17 40.59 101.46 39.64 C 104.85 36.73 108.49 34.12 112.11 31.51 C 111.24 30.42 110.38 29.32 109.53 28.22 C 100.60 33.66 93.05 40.97 85.56 48.17 C 86.52 43.41 92.26 40.42 91.03 35.06 C 90.36 32.38 87.98 35.94 86.90 36.49 C 87.47 37.37 88.04 38.26 88.62 39.15 C 87.38 38.75 86.15 38.34 84.92 37.93 C 82.59 41.57 79.98 44.99 77.37 48.42 C 73.50 53.68 75.46 60.68 73.50 66.54 C 69.11 70.56 63.82 73.48 58.91 76.82 C 54.49 79.62 50.12 82.58 45.18 84.38 C 45.69 81.16 49.50 80.85 51.74 79.30 C 45.64 75.60 40.07 70.84 36.16 64.82 C 33.69 61.27 32.08 57.15 29.18 53.90 C 26.89 51.16 24.05 48.81 22.38 45.61 C 21.44 43.90 23.01 42.40 23.72 40.96 C 21.96 38.31 20.43 35.00 22.75 32.14 C 23.29 30.89 23.54 29.46 24.42 28.39 C 26.20 26.74 28.57 28.03 30.52 28.55 M 109.87 27.54 C 111.18 28.78 112.51 30.00 113.85 31.20 C 114.50 29.99 115.33 28.83 115.66 27.47 C 114.31 24.97 111.75 27.00 109.87 27.54 M 33.06 30.44 C 38.48 34.65 44.80 38.07 48.99 43.64 C 47.35 44.34 46.25 42.78 45.09 41.91 C 40.07 37.51 34.66 33.55 28.97 30.04 C 27.79 29.22 26.33 29.57 25.00 29.56 C 25.03 30.24 25.10 31.61 25.14 32.29 C 28.58 34.64 31.45 37.70 34.76 40.23 C 38.15 43.05 42.18 45.32 44.49 49.22 C 37.19 45.71 31.64 39.46 25.31 34.55 C 24.18 33.71 22.47 34.19 23.16 35.85 C 24.52 40.32 28.67 43.01 31.75 46.24 C 34.32 48.99 38.21 50.72 39.54 54.45 C 33.33 51.75 29.90 45.25 23.79 42.50 C 23.87 46.68 27.51 49.17 29.96 52.06 C 33.13 55.37 34.92 59.64 37.38 63.45 C 41.29 69.65 47.05 74.50 53.36 78.13 C 59.66 74.26 66.02 70.37 71.75 65.72 C 74.11 59.00 72.74 51.62 71.03 44.90 C 70.08 39.73 68.54 34.71 67.18 29.65 C 66.07 30.30 64.61 30.75 64.34 32.20 C 62.84 36.84 65.47 41.68 64.25 46.35 C 63.15 48.75 60.87 50.31 59.49 52.53 C 59.29 54.28 59.66 56.03 59.74 57.78 C 55.79 55.81 57.83 50.31 60.61 48.09 C 53.33 40.09 45.02 32.86 35.60 27.47 C 33.59 25.97 31.43 28.70 33.06 30.44 M 118.25 29.09 C 118.79 31.42 120.38 33.43 122.99 32.09 C 122.97 31.20 122.91 29.42 122.88 28.54 C 121.33 28.69 119.79 28.88 118.25 29.09 M 122.11 42.24 C 120.72 43.22 122.28 45.82 123.75 44.75 C 125.08 43.73 123.62 41.12 122.11 42.24 Z" />
</g>
</svg>
